G04*
G04 #@! TF.GenerationSoftware,Altium Limited,Altium Designer,19.1.8 (144)*
G04*
G04 Layer_Color=32896*
%FSLAX44Y44*%
%MOMM*%
G71*
G01*
G75*
%ADD12C,0.3048*%
%ADD14C,0.2000*%
%ADD15C,0.2540*%
%ADD27C,0.4000*%
%ADD28C,0.5000*%
%ADD30C,0.3000*%
%ADD37C,0.2032*%
%ADD38C,0.1270*%
D12*
X206163Y6502D02*
X216323D01*
X231140D02*
X241300D01*
X43434Y6350D02*
X53594D01*
X68411D02*
X78571D01*
D14*
X301900Y-206900D02*
Y-156100D01*
X-307700Y-206900D02*
Y-156100D01*
Y-206900D02*
X301900D01*
X-307700Y-156100D02*
X301900D01*
X-307700Y176500D02*
Y227300D01*
X301900Y176500D02*
Y227300D01*
X-307700D02*
X301900D01*
X-307700Y176500D02*
X301900D01*
D15*
X299974Y82042D02*
X369062D01*
X299974Y17018D02*
X369062D01*
X299974Y-49276D02*
X369062D01*
X305308Y146812D02*
X369062D01*
X307086Y-114046D02*
X368808D01*
X-242326Y57203D02*
X-198326Y57209D01*
X-176321Y19212D01*
X-198316Y-19291D02*
X-176321Y19212D01*
X-242316Y-19297D02*
X-198316Y-19291D01*
X-264321Y18700D02*
X-242316Y-19297D01*
X-264321Y18700D02*
X-242326Y57203D01*
X-239825Y53203D02*
X-200825Y53208D01*
X-193824Y41209D01*
X-196824Y41209D02*
X-193824Y41209D01*
X-196824Y41209D02*
X-193822Y25709D01*
X-184822Y25711D01*
X-180821Y18711D01*
X-200316Y-15292D02*
X-180821Y18711D01*
X-209816Y-15293D02*
X-200316Y-15292D01*
X-210316Y-15293D02*
X-209816Y-15293D01*
X-211816Y-12293D02*
X-210316Y-15293D01*
X-228817Y-12295D02*
X-211816Y-12293D01*
X-230316Y-15296D02*
X-228817Y-12295D01*
X-240316Y-15297D02*
X-230316Y-15296D01*
X-259821Y18700D02*
X-240316Y-15297D01*
X-259821Y18700D02*
X-255822Y25701D01*
X-248322Y25702D01*
X-246322Y32202D01*
X-252323Y32201D02*
X-246322Y32202D01*
X-252323Y32201D02*
X-248823Y37702D01*
X-244823Y37703D01*
X-243824Y41203D01*
X-246824Y41202D02*
X-243824Y41203D01*
X-246824Y41202D02*
X-239825Y53203D01*
X-239816Y-14797D02*
X-226325Y53205D01*
X-214325Y53207D02*
X-200316Y-15292D01*
X-222322Y25705D02*
X-218322Y25706D01*
X-219322Y32206D02*
X-218322Y25706D01*
X-220823Y32206D02*
X-219322Y32206D01*
X-222322Y25705D02*
X-220823Y32206D01*
X-298557Y-111760D02*
Y-114759D01*
Y-113259D01*
X-289560D01*
Y-111760D01*
Y-114759D01*
Y-125256D02*
Y-119258D01*
X-295558Y-125256D01*
X-297058D01*
X-298557Y-123756D01*
Y-120757D01*
X-297058Y-119258D01*
Y-134253D02*
X-298557Y-132753D01*
Y-129754D01*
X-297058Y-128255D01*
X-291059D01*
X-289560Y-129754D01*
Y-132753D01*
X-291059Y-134253D01*
X-289560Y-137252D02*
Y-140251D01*
Y-138751D01*
X-298557D01*
X-297058Y-137252D01*
X-298557Y-150747D02*
X-297058Y-147748D01*
X-294058Y-144749D01*
X-291059D01*
X-289560Y-146249D01*
Y-149248D01*
X-291059Y-150747D01*
X-292559D01*
X-294058Y-149248D01*
Y-144749D01*
X-250510Y-94488D02*
Y-98320D01*
Y-96404D01*
X-239014D01*
Y-94488D01*
Y-98320D01*
Y-111732D02*
Y-104068D01*
X-246678Y-111732D01*
X-248594D01*
X-250510Y-109816D01*
Y-105984D01*
X-248594Y-104068D01*
Y-123229D02*
X-250510Y-121313D01*
Y-117481D01*
X-248594Y-115564D01*
X-240930D01*
X-239014Y-117481D01*
Y-121313D01*
X-240930Y-123229D01*
X-239014Y-127061D02*
Y-130893D01*
Y-128977D01*
X-250510D01*
X-248594Y-127061D01*
X-250510Y-136641D02*
Y-144305D01*
X-248594D01*
X-240930Y-136641D01*
X-239014D01*
X-225110Y-94488D02*
Y-98320D01*
Y-96404D01*
X-213614D01*
Y-94488D01*
Y-98320D01*
Y-111732D02*
Y-104068D01*
X-221278Y-111732D01*
X-223194D01*
X-225110Y-109816D01*
Y-105984D01*
X-223194Y-104068D01*
Y-123229D02*
X-225110Y-121313D01*
Y-117481D01*
X-223194Y-115564D01*
X-215530D01*
X-213614Y-117481D01*
Y-121313D01*
X-215530Y-123229D01*
X-213614Y-127061D02*
Y-130893D01*
Y-128977D01*
X-225110D01*
X-223194Y-127061D01*
Y-136641D02*
X-225110Y-138557D01*
Y-142389D01*
X-223194Y-144305D01*
X-221278D01*
X-219362Y-142389D01*
X-217446Y-144305D01*
X-215530D01*
X-213614Y-142389D01*
Y-138557D01*
X-215530Y-136641D01*
X-217446D01*
X-219362Y-138557D01*
X-221278Y-136641D01*
X-223194D01*
X-219362Y-138557D02*
Y-142389D01*
X-174310Y-94488D02*
Y-98320D01*
Y-96404D01*
X-162814D01*
Y-94488D01*
Y-98320D01*
Y-111732D02*
Y-104068D01*
X-170478Y-111732D01*
X-172394D01*
X-174310Y-109816D01*
Y-105984D01*
X-172394Y-104068D01*
Y-123229D02*
X-174310Y-121313D01*
Y-117481D01*
X-172394Y-115564D01*
X-164730D01*
X-162814Y-117481D01*
Y-121313D01*
X-164730Y-123229D01*
X-162814Y-127061D02*
Y-130893D01*
Y-128977D01*
X-174310D01*
X-172394Y-127061D01*
X-164730Y-136641D02*
X-162814Y-138557D01*
Y-142389D01*
X-164730Y-144305D01*
X-172394D01*
X-174310Y-142389D01*
Y-138557D01*
X-172394Y-136641D01*
X-170478D01*
X-168562Y-138557D01*
Y-144305D01*
X-148910Y-94488D02*
Y-98320D01*
Y-96404D01*
X-137414D01*
Y-94488D01*
Y-98320D01*
Y-111732D02*
Y-104068D01*
X-145078Y-111732D01*
X-146994D01*
X-148910Y-109816D01*
Y-105984D01*
X-146994Y-104068D01*
Y-123229D02*
X-148910Y-121313D01*
Y-117481D01*
X-146994Y-115564D01*
X-139330D01*
X-137414Y-117481D01*
Y-121313D01*
X-139330Y-123229D01*
X-137414Y-134725D02*
Y-127061D01*
X-145078Y-134725D01*
X-146994D01*
X-148910Y-132809D01*
Y-128977D01*
X-146994Y-127061D01*
Y-138557D02*
X-148910Y-140473D01*
Y-144305D01*
X-146994Y-146221D01*
X-139330D01*
X-137414Y-144305D01*
Y-140473D01*
X-139330Y-138557D01*
X-146994D01*
X-98110Y-94488D02*
Y-98320D01*
Y-96404D01*
X-86614D01*
Y-94488D01*
Y-98320D01*
Y-111732D02*
Y-104068D01*
X-94278Y-111732D01*
X-96194D01*
X-98110Y-109816D01*
Y-105984D01*
X-96194Y-104068D01*
Y-123229D02*
X-98110Y-121313D01*
Y-117481D01*
X-96194Y-115564D01*
X-88530D01*
X-86614Y-117481D01*
Y-121313D01*
X-88530Y-123229D01*
X-86614Y-134725D02*
Y-127061D01*
X-94278Y-134725D01*
X-96194D01*
X-98110Y-132809D01*
Y-128977D01*
X-96194Y-127061D01*
X-86614Y-138557D02*
Y-142389D01*
Y-140473D01*
X-98110D01*
X-96194Y-138557D01*
X-72710Y-94488D02*
Y-98320D01*
Y-96404D01*
X-61214D01*
Y-94488D01*
Y-98320D01*
Y-111732D02*
Y-104068D01*
X-68878Y-111732D01*
X-70794D01*
X-72710Y-109816D01*
Y-105984D01*
X-70794Y-104068D01*
Y-123229D02*
X-72710Y-121313D01*
Y-117481D01*
X-70794Y-115564D01*
X-63130D01*
X-61214Y-117481D01*
Y-121313D01*
X-63130Y-123229D01*
X-61214Y-134725D02*
Y-127061D01*
X-68878Y-134725D01*
X-70794D01*
X-72710Y-132809D01*
Y-128977D01*
X-70794Y-127061D01*
X-61214Y-146221D02*
Y-138557D01*
X-68878Y-146221D01*
X-70794D01*
X-72710Y-144305D01*
Y-140473D01*
X-70794Y-138557D01*
X-21910Y-94488D02*
Y-98320D01*
Y-96404D01*
X-10414D01*
Y-94488D01*
Y-98320D01*
Y-111732D02*
Y-104068D01*
X-18078Y-111732D01*
X-19994D01*
X-21910Y-109816D01*
Y-105984D01*
X-19994Y-104068D01*
Y-123229D02*
X-21910Y-121313D01*
Y-117481D01*
X-19994Y-115564D01*
X-12330D01*
X-10414Y-117481D01*
Y-121313D01*
X-12330Y-123229D01*
X-10414Y-134725D02*
Y-127061D01*
X-18078Y-134725D01*
X-19994D01*
X-21910Y-132809D01*
Y-128977D01*
X-19994Y-127061D01*
Y-138557D02*
X-21910Y-140473D01*
Y-144305D01*
X-19994Y-146221D01*
X-18078D01*
X-16162Y-144305D01*
Y-142389D01*
Y-144305D01*
X-14246Y-146221D01*
X-12330D01*
X-10414Y-144305D01*
Y-140473D01*
X-12330Y-138557D01*
X3490Y-94488D02*
Y-98320D01*
Y-96404D01*
X14986D01*
Y-94488D01*
Y-98320D01*
Y-111732D02*
Y-104068D01*
X7322Y-111732D01*
X5406D01*
X3490Y-109816D01*
Y-105984D01*
X5406Y-104068D01*
Y-123229D02*
X3490Y-121313D01*
Y-117481D01*
X5406Y-115564D01*
X13070D01*
X14986Y-117481D01*
Y-121313D01*
X13070Y-123229D01*
X14986Y-134725D02*
Y-127061D01*
X7322Y-134725D01*
X5406D01*
X3490Y-132809D01*
Y-128977D01*
X5406Y-127061D01*
X14986Y-144305D02*
X3490D01*
X9238Y-138557D01*
Y-146221D01*
X54290Y-94488D02*
Y-98320D01*
Y-96404D01*
X65786D01*
Y-94488D01*
Y-98320D01*
Y-111732D02*
Y-104068D01*
X58122Y-111732D01*
X56206D01*
X54290Y-109816D01*
Y-105984D01*
X56206Y-104068D01*
Y-123229D02*
X54290Y-121313D01*
Y-117481D01*
X56206Y-115564D01*
X63870D01*
X65786Y-117481D01*
Y-121313D01*
X63870Y-123229D01*
X65786Y-134725D02*
Y-127061D01*
X58122Y-134725D01*
X56206D01*
X54290Y-132809D01*
Y-128977D01*
X56206Y-127061D01*
X54290Y-146221D02*
Y-138557D01*
X60038D01*
X58122Y-142389D01*
Y-144305D01*
X60038Y-146221D01*
X63870D01*
X65786Y-144305D01*
Y-140473D01*
X63870Y-138557D01*
X79690Y-94488D02*
Y-98320D01*
Y-96404D01*
X91186D01*
Y-94488D01*
Y-98320D01*
Y-111732D02*
Y-104068D01*
X83522Y-111732D01*
X81606D01*
X79690Y-109816D01*
Y-105984D01*
X81606Y-104068D01*
Y-123229D02*
X79690Y-121313D01*
Y-117481D01*
X81606Y-115564D01*
X89270D01*
X91186Y-117481D01*
Y-121313D01*
X89270Y-123229D01*
X91186Y-134725D02*
Y-127061D01*
X83522Y-134725D01*
X81606D01*
X79690Y-132809D01*
Y-128977D01*
X81606Y-127061D01*
X79690Y-146221D02*
X81606Y-142389D01*
X85438Y-138557D01*
X89270D01*
X91186Y-140473D01*
Y-144305D01*
X89270Y-146221D01*
X87354D01*
X85438Y-144305D01*
Y-138557D01*
X130490Y-94488D02*
Y-98320D01*
Y-96404D01*
X141986D01*
Y-94488D01*
Y-98320D01*
Y-111732D02*
Y-104068D01*
X134322Y-111732D01*
X132406D01*
X130490Y-109816D01*
Y-105984D01*
X132406Y-104068D01*
Y-123229D02*
X130490Y-121313D01*
Y-117481D01*
X132406Y-115564D01*
X140070D01*
X141986Y-117481D01*
Y-121313D01*
X140070Y-123229D01*
X141986Y-134725D02*
Y-127061D01*
X134322Y-134725D01*
X132406D01*
X130490Y-132809D01*
Y-128977D01*
X132406Y-127061D01*
X130490Y-138557D02*
Y-146221D01*
X132406D01*
X140070Y-138557D01*
X141986D01*
X155890Y-94488D02*
Y-98320D01*
Y-96404D01*
X167386D01*
Y-94488D01*
Y-98320D01*
Y-111732D02*
Y-104068D01*
X159722Y-111732D01*
X157806D01*
X155890Y-109816D01*
Y-105984D01*
X157806Y-104068D01*
Y-123229D02*
X155890Y-121313D01*
Y-117481D01*
X157806Y-115564D01*
X165470D01*
X167386Y-117481D01*
Y-121313D01*
X165470Y-123229D01*
X167386Y-134725D02*
Y-127061D01*
X159722Y-134725D01*
X157806D01*
X155890Y-132809D01*
Y-128977D01*
X157806Y-127061D01*
Y-138557D02*
X155890Y-140473D01*
Y-144305D01*
X157806Y-146221D01*
X159722D01*
X161638Y-144305D01*
X163554Y-146221D01*
X165470D01*
X167386Y-144305D01*
Y-140473D01*
X165470Y-138557D01*
X163554D01*
X161638Y-140473D01*
X159722Y-138557D01*
X157806D01*
X161638Y-140473D02*
Y-144305D01*
X206690Y-94488D02*
Y-98320D01*
Y-96404D01*
X218186D01*
Y-94488D01*
Y-98320D01*
Y-111732D02*
Y-104068D01*
X210522Y-111732D01*
X208606D01*
X206690Y-109816D01*
Y-105984D01*
X208606Y-104068D01*
Y-123229D02*
X206690Y-121313D01*
Y-117481D01*
X208606Y-115564D01*
X216270D01*
X218186Y-117481D01*
Y-121313D01*
X216270Y-123229D01*
X218186Y-134725D02*
Y-127061D01*
X210522Y-134725D01*
X208606D01*
X206690Y-132809D01*
Y-128977D01*
X208606Y-127061D01*
X216270Y-138557D02*
X218186Y-140473D01*
Y-144305D01*
X216270Y-146221D01*
X208606D01*
X206690Y-144305D01*
Y-140473D01*
X208606Y-138557D01*
X210522D01*
X212438Y-140473D01*
Y-146221D01*
X232090Y-94488D02*
Y-98320D01*
Y-96404D01*
X243586D01*
Y-94488D01*
Y-98320D01*
Y-111732D02*
Y-104068D01*
X235922Y-111732D01*
X234006D01*
X232090Y-109816D01*
Y-105984D01*
X234006Y-104068D01*
Y-123229D02*
X232090Y-121313D01*
Y-117481D01*
X234006Y-115564D01*
X241670D01*
X243586Y-117481D01*
Y-121313D01*
X241670Y-123229D01*
X234006Y-127061D02*
X232090Y-128977D01*
Y-132809D01*
X234006Y-134725D01*
X235922D01*
X237838Y-132809D01*
Y-130893D01*
Y-132809D01*
X239754Y-134725D01*
X241670D01*
X243586Y-132809D01*
Y-128977D01*
X241670Y-127061D01*
X234006Y-138557D02*
X232090Y-140473D01*
Y-144305D01*
X234006Y-146221D01*
X241670D01*
X243586Y-144305D01*
Y-140473D01*
X241670Y-138557D01*
X234006D01*
X282890Y-96520D02*
Y-100352D01*
Y-98436D01*
X294386D01*
Y-96520D01*
Y-100352D01*
Y-113764D02*
Y-106100D01*
X286722Y-113764D01*
X284806D01*
X282890Y-111848D01*
Y-108016D01*
X284806Y-106100D01*
Y-125261D02*
X282890Y-123345D01*
Y-119513D01*
X284806Y-117597D01*
X292470D01*
X294386Y-119513D01*
Y-123345D01*
X292470Y-125261D01*
X284806Y-129093D02*
X282890Y-131009D01*
Y-134841D01*
X284806Y-136757D01*
X286722D01*
X288638Y-134841D01*
Y-132925D01*
Y-134841D01*
X290554Y-136757D01*
X292470D01*
X294386Y-134841D01*
Y-131009D01*
X292470Y-129093D01*
X294386Y-140589D02*
Y-144421D01*
Y-142505D01*
X282890D01*
X284806Y-140589D01*
X-273994Y-102152D02*
X-275910Y-100236D01*
Y-96404D01*
X-273994Y-94488D01*
X-266330D01*
X-264414Y-96404D01*
Y-100236D01*
X-266330Y-102152D01*
X-270162D01*
Y-98320D01*
X-264414Y-105984D02*
X-275910D01*
X-264414Y-113649D01*
X-275910D01*
Y-117481D02*
X-264414D01*
Y-123229D01*
X-266330Y-125145D01*
X-273994D01*
X-275910Y-123229D01*
Y-117481D01*
X-197794Y-102152D02*
X-199710Y-100236D01*
Y-96404D01*
X-197794Y-94488D01*
X-190130D01*
X-188214Y-96404D01*
Y-100236D01*
X-190130Y-102152D01*
X-193962D01*
Y-98320D01*
X-188214Y-105984D02*
X-199710D01*
X-188214Y-113649D01*
X-199710D01*
Y-117481D02*
X-188214D01*
Y-123229D01*
X-190130Y-125145D01*
X-197794D01*
X-199710Y-123229D01*
Y-117481D01*
X-121594Y-102152D02*
X-123510Y-100236D01*
Y-96404D01*
X-121594Y-94488D01*
X-113930D01*
X-112014Y-96404D01*
Y-100236D01*
X-113930Y-102152D01*
X-117762D01*
Y-98320D01*
X-112014Y-105984D02*
X-123510D01*
X-112014Y-113649D01*
X-123510D01*
Y-117481D02*
X-112014D01*
Y-123229D01*
X-113930Y-125145D01*
X-121594D01*
X-123510Y-123229D01*
Y-117481D01*
X-45394Y-102152D02*
X-47310Y-100236D01*
Y-96404D01*
X-45394Y-94488D01*
X-37730D01*
X-35814Y-96404D01*
Y-100236D01*
X-37730Y-102152D01*
X-41562D01*
Y-98320D01*
X-35814Y-105984D02*
X-47310D01*
X-35814Y-113649D01*
X-47310D01*
Y-117481D02*
X-35814D01*
Y-123229D01*
X-37730Y-125145D01*
X-45394D01*
X-47310Y-123229D01*
Y-117481D01*
X30806Y-102152D02*
X28890Y-100236D01*
Y-96404D01*
X30806Y-94488D01*
X38470D01*
X40386Y-96404D01*
Y-100236D01*
X38470Y-102152D01*
X34638D01*
Y-98320D01*
X40386Y-105984D02*
X28890D01*
X40386Y-113649D01*
X28890D01*
Y-117481D02*
X40386D01*
Y-123229D01*
X38470Y-125145D01*
X30806D01*
X28890Y-123229D01*
Y-117481D01*
X107006Y-102152D02*
X105090Y-100236D01*
Y-96404D01*
X107006Y-94488D01*
X114670D01*
X116586Y-96404D01*
Y-100236D01*
X114670Y-102152D01*
X110838D01*
Y-98320D01*
X116586Y-105984D02*
X105090D01*
X116586Y-113649D01*
X105090D01*
Y-117481D02*
X116586D01*
Y-123229D01*
X114670Y-125145D01*
X107006D01*
X105090Y-123229D01*
Y-117481D01*
X183206Y-102152D02*
X181290Y-100236D01*
Y-96404D01*
X183206Y-94488D01*
X190870D01*
X192786Y-96404D01*
Y-100236D01*
X190870Y-102152D01*
X187038D01*
Y-98320D01*
X192786Y-105984D02*
X181290D01*
X192786Y-113649D01*
X181290D01*
Y-117481D02*
X192786D01*
Y-123229D01*
X190870Y-125145D01*
X183206D01*
X181290Y-123229D01*
Y-117481D01*
X259406Y-102152D02*
X257490Y-100236D01*
Y-96404D01*
X259406Y-94488D01*
X267070D01*
X268986Y-96404D01*
Y-100236D01*
X267070Y-102152D01*
X263238D01*
Y-98320D01*
X268986Y-105984D02*
X257490D01*
X268986Y-113649D01*
X257490D01*
Y-117481D02*
X268986D01*
Y-123229D01*
X267070Y-125145D01*
X259406D01*
X257490Y-123229D01*
Y-117481D01*
X-266010Y126536D02*
X-264094Y124620D01*
Y120788D01*
X-266010Y118872D01*
X-273674D01*
X-275590Y120788D01*
Y124620D01*
X-273674Y126536D01*
X-269842D01*
Y122704D01*
X-275590Y130368D02*
X-264094D01*
X-275590Y138033D01*
X-264094D01*
Y141865D02*
X-275590D01*
Y147613D01*
X-273674Y149529D01*
X-266010D01*
X-264094Y147613D01*
Y141865D01*
X-189810Y126536D02*
X-187894Y124620D01*
Y120788D01*
X-189810Y118872D01*
X-197474D01*
X-199390Y120788D01*
Y124620D01*
X-197474Y126536D01*
X-193642D01*
Y122704D01*
X-199390Y130368D02*
X-187894D01*
X-199390Y138033D01*
X-187894D01*
Y141865D02*
X-199390D01*
Y147613D01*
X-197474Y149529D01*
X-189810D01*
X-187894Y147613D01*
Y141865D01*
X-113610Y126536D02*
X-111694Y124620D01*
Y120788D01*
X-113610Y118872D01*
X-121274D01*
X-123190Y120788D01*
Y124620D01*
X-121274Y126536D01*
X-117442D01*
Y122704D01*
X-123190Y130368D02*
X-111694D01*
X-123190Y138033D01*
X-111694D01*
Y141865D02*
X-123190D01*
Y147613D01*
X-121274Y149529D01*
X-113610D01*
X-111694Y147613D01*
Y141865D01*
X-37410Y126536D02*
X-35494Y124620D01*
Y120788D01*
X-37410Y118872D01*
X-45074D01*
X-46990Y120788D01*
Y124620D01*
X-45074Y126536D01*
X-41242D01*
Y122704D01*
X-46990Y130368D02*
X-35494D01*
X-46990Y138033D01*
X-35494D01*
Y141865D02*
X-46990D01*
Y147613D01*
X-45074Y149529D01*
X-37410D01*
X-35494Y147613D01*
Y141865D01*
X38790Y126536D02*
X40706Y124620D01*
Y120788D01*
X38790Y118872D01*
X31126D01*
X29210Y120788D01*
Y124620D01*
X31126Y126536D01*
X34958D01*
Y122704D01*
X29210Y130368D02*
X40706D01*
X29210Y138033D01*
X40706D01*
Y141865D02*
X29210D01*
Y147613D01*
X31126Y149529D01*
X38790D01*
X40706Y147613D01*
Y141865D01*
X114990Y126536D02*
X116906Y124620D01*
Y120788D01*
X114990Y118872D01*
X107326D01*
X105410Y120788D01*
Y124620D01*
X107326Y126536D01*
X111158D01*
Y122704D01*
X105410Y130368D02*
X116906D01*
X105410Y138033D01*
X116906D01*
Y141865D02*
X105410D01*
Y147613D01*
X107326Y149529D01*
X114990D01*
X116906Y147613D01*
Y141865D01*
X191190Y126536D02*
X193106Y124620D01*
Y120788D01*
X191190Y118872D01*
X183526D01*
X181610Y120788D01*
Y124620D01*
X183526Y126536D01*
X187358D01*
Y122704D01*
X181610Y130368D02*
X193106D01*
X181610Y138033D01*
X193106D01*
Y141865D02*
X181610D01*
Y147613D01*
X183526Y149529D01*
X191190D01*
X193106Y147613D01*
Y141865D01*
X267390Y126536D02*
X269306Y124620D01*
Y120788D01*
X267390Y118872D01*
X259726D01*
X257810Y120788D01*
Y124620D01*
X259726Y126536D01*
X263558D01*
Y122704D01*
X257810Y130368D02*
X269306D01*
X257810Y138033D01*
X269306D01*
Y141865D02*
X257810D01*
Y147613D01*
X259726Y149529D01*
X267390D01*
X269306Y147613D01*
Y141865D01*
X-289494Y118872D02*
Y122704D01*
Y120788D01*
X-300990D01*
Y118872D01*
Y122704D01*
Y136116D02*
Y128452D01*
X-293326Y136116D01*
X-291410D01*
X-289494Y134200D01*
Y130368D01*
X-291410Y128452D01*
Y147613D02*
X-289494Y145697D01*
Y141865D01*
X-291410Y139949D01*
X-299074D01*
X-300990Y141865D01*
Y145697D01*
X-299074Y147613D01*
X-300990Y151445D02*
Y155277D01*
Y153361D01*
X-289494D01*
X-291410Y151445D01*
X-289494Y168689D02*
Y161025D01*
X-295242D01*
X-293326Y164857D01*
Y166773D01*
X-295242Y168689D01*
X-299074D01*
X-300990Y166773D01*
Y162941D01*
X-299074Y161025D01*
X-238694Y118872D02*
Y122704D01*
Y120788D01*
X-250190D01*
Y118872D01*
Y122704D01*
Y136116D02*
Y128452D01*
X-242526Y136116D01*
X-240610D01*
X-238694Y134200D01*
Y130368D01*
X-240610Y128452D01*
Y147613D02*
X-238694Y145697D01*
Y141865D01*
X-240610Y139949D01*
X-248274D01*
X-250190Y141865D01*
Y145697D01*
X-248274Y147613D01*
X-250190Y151445D02*
Y155277D01*
Y153361D01*
X-238694D01*
X-240610Y151445D01*
X-250190Y166773D02*
X-238694D01*
X-244442Y161025D01*
Y168689D01*
X-213294Y118872D02*
Y122704D01*
Y120788D01*
X-224790D01*
Y118872D01*
Y122704D01*
Y136116D02*
Y128452D01*
X-217126Y136116D01*
X-215210D01*
X-213294Y134200D01*
Y130368D01*
X-215210Y128452D01*
Y147613D02*
X-213294Y145697D01*
Y141865D01*
X-215210Y139949D01*
X-222874D01*
X-224790Y141865D01*
Y145697D01*
X-222874Y147613D01*
X-224790Y151445D02*
Y155277D01*
Y153361D01*
X-213294D01*
X-215210Y151445D01*
Y161025D02*
X-213294Y162941D01*
Y166773D01*
X-215210Y168689D01*
X-217126D01*
X-219042Y166773D01*
Y164857D01*
Y166773D01*
X-220958Y168689D01*
X-222874D01*
X-224790Y166773D01*
Y162941D01*
X-222874Y161025D01*
X-162494Y118872D02*
Y122704D01*
Y120788D01*
X-173990D01*
Y118872D01*
Y122704D01*
Y136116D02*
Y128452D01*
X-166326Y136116D01*
X-164410D01*
X-162494Y134200D01*
Y130368D01*
X-164410Y128452D01*
Y147613D02*
X-162494Y145697D01*
Y141865D01*
X-164410Y139949D01*
X-172074D01*
X-173990Y141865D01*
Y145697D01*
X-172074Y147613D01*
X-173990Y151445D02*
Y155277D01*
Y153361D01*
X-162494D01*
X-164410Y151445D01*
X-173990Y168689D02*
Y161025D01*
X-166326Y168689D01*
X-164410D01*
X-162494Y166773D01*
Y162941D01*
X-164410Y161025D01*
X-137094Y118872D02*
Y122704D01*
Y120788D01*
X-148590D01*
Y118872D01*
Y122704D01*
Y136116D02*
Y128452D01*
X-140926Y136116D01*
X-139010D01*
X-137094Y134200D01*
Y130368D01*
X-139010Y128452D01*
Y147613D02*
X-137094Y145697D01*
Y141865D01*
X-139010Y139949D01*
X-146674D01*
X-148590Y141865D01*
Y145697D01*
X-146674Y147613D01*
X-148590Y151445D02*
Y155277D01*
Y153361D01*
X-137094D01*
X-139010Y151445D01*
X-148590Y161025D02*
Y164857D01*
Y162941D01*
X-137094D01*
X-139010Y161025D01*
X-86294Y118872D02*
Y122704D01*
Y120788D01*
X-97790D01*
Y118872D01*
Y122704D01*
Y136116D02*
Y128452D01*
X-90126Y136116D01*
X-88210D01*
X-86294Y134200D01*
Y130368D01*
X-88210Y128452D01*
Y147613D02*
X-86294Y145697D01*
Y141865D01*
X-88210Y139949D01*
X-95874D01*
X-97790Y141865D01*
Y145697D01*
X-95874Y147613D01*
X-97790Y151445D02*
Y155277D01*
Y153361D01*
X-86294D01*
X-88210Y151445D01*
Y161025D02*
X-86294Y162941D01*
Y166773D01*
X-88210Y168689D01*
X-95874D01*
X-97790Y166773D01*
Y162941D01*
X-95874Y161025D01*
X-88210D01*
X-60894Y118872D02*
Y122704D01*
Y120788D01*
X-72390D01*
Y118872D01*
Y122704D01*
Y136116D02*
Y128452D01*
X-64726Y136116D01*
X-62810D01*
X-60894Y134200D01*
Y130368D01*
X-62810Y128452D01*
Y147613D02*
X-60894Y145697D01*
Y141865D01*
X-62810Y139949D01*
X-70474D01*
X-72390Y141865D01*
Y145697D01*
X-70474Y147613D01*
Y151445D02*
X-72390Y153361D01*
Y157193D01*
X-70474Y159109D01*
X-62810D01*
X-60894Y157193D01*
Y153361D01*
X-62810Y151445D01*
X-64726D01*
X-66642Y153361D01*
Y159109D01*
X-10094Y118872D02*
Y122704D01*
Y120788D01*
X-21590D01*
Y118872D01*
Y122704D01*
Y136116D02*
Y128452D01*
X-13926Y136116D01*
X-12010D01*
X-10094Y134200D01*
Y130368D01*
X-12010Y128452D01*
Y147613D02*
X-10094Y145697D01*
Y141865D01*
X-12010Y139949D01*
X-19674D01*
X-21590Y141865D01*
Y145697D01*
X-19674Y147613D01*
X-12010Y151445D02*
X-10094Y153361D01*
Y157193D01*
X-12010Y159109D01*
X-13926D01*
X-15842Y157193D01*
X-17758Y159109D01*
X-19674D01*
X-21590Y157193D01*
Y153361D01*
X-19674Y151445D01*
X-17758D01*
X-15842Y153361D01*
X-13926Y151445D01*
X-12010D01*
X-15842Y153361D02*
Y157193D01*
X15306Y118872D02*
Y122704D01*
Y120788D01*
X3810D01*
Y118872D01*
Y122704D01*
Y136116D02*
Y128452D01*
X11474Y136116D01*
X13390D01*
X15306Y134200D01*
Y130368D01*
X13390Y128452D01*
Y147613D02*
X15306Y145697D01*
Y141865D01*
X13390Y139949D01*
X5726D01*
X3810Y141865D01*
Y145697D01*
X5726Y147613D01*
X15306Y151445D02*
Y159109D01*
X13390D01*
X5726Y151445D01*
X3810D01*
X66106Y118872D02*
Y122704D01*
Y120788D01*
X54610D01*
Y118872D01*
Y122704D01*
Y136116D02*
Y128452D01*
X62274Y136116D01*
X64190D01*
X66106Y134200D01*
Y130368D01*
X64190Y128452D01*
Y147613D02*
X66106Y145697D01*
Y141865D01*
X64190Y139949D01*
X56526D01*
X54610Y141865D01*
Y145697D01*
X56526Y147613D01*
X66106Y159109D02*
X64190Y155277D01*
X60358Y151445D01*
X56526D01*
X54610Y153361D01*
Y157193D01*
X56526Y159109D01*
X58442D01*
X60358Y157193D01*
Y151445D01*
X91506Y118872D02*
Y122704D01*
Y120788D01*
X80010D01*
Y118872D01*
Y122704D01*
Y136116D02*
Y128452D01*
X87674Y136116D01*
X89590D01*
X91506Y134200D01*
Y130368D01*
X89590Y128452D01*
Y147613D02*
X91506Y145697D01*
Y141865D01*
X89590Y139949D01*
X81926D01*
X80010Y141865D01*
Y145697D01*
X81926Y147613D01*
X91506Y159109D02*
Y151445D01*
X85758D01*
X87674Y155277D01*
Y157193D01*
X85758Y159109D01*
X81926D01*
X80010Y157193D01*
Y153361D01*
X81926Y151445D01*
X142306Y118872D02*
Y122704D01*
Y120788D01*
X130810D01*
Y118872D01*
Y122704D01*
Y136116D02*
Y128452D01*
X138474Y136116D01*
X140390D01*
X142306Y134200D01*
Y130368D01*
X140390Y128452D01*
Y147613D02*
X142306Y145697D01*
Y141865D01*
X140390Y139949D01*
X132726D01*
X130810Y141865D01*
Y145697D01*
X132726Y147613D01*
X130810Y157193D02*
X142306D01*
X136558Y151445D01*
Y159109D01*
X167706Y118872D02*
Y122704D01*
Y120788D01*
X156210D01*
Y118872D01*
Y122704D01*
Y136116D02*
Y128452D01*
X163874Y136116D01*
X165790D01*
X167706Y134200D01*
Y130368D01*
X165790Y128452D01*
Y147613D02*
X167706Y145697D01*
Y141865D01*
X165790Y139949D01*
X158126D01*
X156210Y141865D01*
Y145697D01*
X158126Y147613D01*
X165790Y151445D02*
X167706Y153361D01*
Y157193D01*
X165790Y159109D01*
X163874D01*
X161958Y157193D01*
Y155277D01*
Y157193D01*
X160042Y159109D01*
X158126D01*
X156210Y157193D01*
Y153361D01*
X158126Y151445D01*
X218506Y118872D02*
Y122704D01*
Y120788D01*
X207010D01*
Y118872D01*
Y122704D01*
Y136116D02*
Y128452D01*
X214674Y136116D01*
X216590D01*
X218506Y134200D01*
Y130368D01*
X216590Y128452D01*
Y147613D02*
X218506Y145697D01*
Y141865D01*
X216590Y139949D01*
X208926D01*
X207010Y141865D01*
Y145697D01*
X208926Y147613D01*
X207010Y159109D02*
Y151445D01*
X214674Y159109D01*
X216590D01*
X218506Y157193D01*
Y153361D01*
X216590Y151445D01*
X243906Y118872D02*
Y122704D01*
Y120788D01*
X232410D01*
Y118872D01*
Y122704D01*
Y136116D02*
Y128452D01*
X240074Y136116D01*
X241990D01*
X243906Y134200D01*
Y130368D01*
X241990Y128452D01*
Y147613D02*
X243906Y145697D01*
Y141865D01*
X241990Y139949D01*
X234326D01*
X232410Y141865D01*
Y145697D01*
X234326Y147613D01*
X232410Y151445D02*
Y155277D01*
Y153361D01*
X243906D01*
X241990Y151445D01*
X294706Y131064D02*
Y134896D01*
Y132980D01*
X283210D01*
Y131064D01*
Y134896D01*
Y148308D02*
Y140644D01*
X290874Y148308D01*
X292790D01*
X294706Y146392D01*
Y142560D01*
X292790Y140644D01*
Y159805D02*
X294706Y157889D01*
Y154057D01*
X292790Y152141D01*
X285126D01*
X283210Y154057D01*
Y157889D01*
X285126Y159805D01*
X292790Y163637D02*
X294706Y165553D01*
Y169385D01*
X292790Y171301D01*
X285126D01*
X283210Y169385D01*
Y165553D01*
X285126Y163637D01*
X292790D01*
X-325672Y-191080D02*
X-323756Y-189164D01*
X-319924D01*
X-318008Y-191080D01*
Y-192996D01*
X-319924Y-194912D01*
X-323756D01*
X-325672Y-196828D01*
Y-198744D01*
X-323756Y-200660D01*
X-319924D01*
X-318008Y-198744D01*
X-337169Y-191080D02*
X-335252Y-189164D01*
X-331420D01*
X-329504Y-191080D01*
Y-198744D01*
X-331420Y-200660D01*
X-335252D01*
X-337169Y-198744D01*
X-341001Y-189164D02*
Y-200660D01*
X-348665D01*
X-325926Y219384D02*
X-324010Y221300D01*
X-320178D01*
X-318262Y219384D01*
Y217468D01*
X-320178Y215552D01*
X-324010D01*
X-325926Y213636D01*
Y211720D01*
X-324010Y209804D01*
X-320178D01*
X-318262Y211720D01*
X-337422Y219384D02*
X-335506Y221300D01*
X-331674D01*
X-329758Y219384D01*
Y211720D01*
X-331674Y209804D01*
X-335506D01*
X-337422Y211720D01*
X-341255Y221300D02*
Y209804D01*
X-348919D01*
X-325418Y-165426D02*
X-323502Y-163510D01*
X-319670D01*
X-317754Y-165426D01*
Y-167342D01*
X-319670Y-169258D01*
X-323502D01*
X-325418Y-171174D01*
Y-173090D01*
X-323502Y-175006D01*
X-319670D01*
X-317754Y-173090D01*
X-329250Y-163510D02*
Y-175006D01*
X-334998D01*
X-336914Y-173090D01*
Y-165426D01*
X-334998Y-163510D01*
X-329250D01*
X-340747Y-175006D02*
Y-167342D01*
X-344579Y-163510D01*
X-348411Y-167342D01*
Y-175006D01*
Y-169258D01*
X-340747D01*
X-324910Y192714D02*
X-322994Y194630D01*
X-319162D01*
X-317246Y192714D01*
Y190798D01*
X-319162Y188882D01*
X-322994D01*
X-324910Y186966D01*
Y185050D01*
X-322994Y183134D01*
X-319162D01*
X-317246Y185050D01*
X-328742Y194630D02*
Y183134D01*
X-334490D01*
X-336407Y185050D01*
Y192714D01*
X-334490Y194630D01*
X-328742D01*
X-340239Y183134D02*
Y190798D01*
X-344071Y194630D01*
X-347903Y190798D01*
Y183134D01*
Y188882D01*
X-340239D01*
X362661Y99060D02*
X364327Y100726D01*
Y104058D01*
X362661Y105724D01*
X355996D01*
X354330Y104058D01*
Y100726D01*
X355996Y99060D01*
X362661D01*
X354330Y109057D02*
X355996D01*
Y110723D01*
X354330D01*
Y109057D01*
Y117387D02*
X355996D01*
Y119054D01*
X354330D01*
Y117387D01*
X364327Y125718D02*
Y132383D01*
X362661D01*
X355996Y125718D01*
X354330D01*
X362661Y28194D02*
X364327Y29860D01*
Y33192D01*
X362661Y34859D01*
X360994D01*
X359328Y33192D01*
X357662Y34859D01*
X355996D01*
X354330Y33192D01*
Y29860D01*
X355996Y28194D01*
X357662D01*
X359328Y29860D01*
X360994Y28194D01*
X362661D01*
X359328Y29860D02*
Y33192D01*
X354330Y38191D02*
X355996D01*
Y39857D01*
X354330D01*
Y38191D01*
Y46521D02*
X355996D01*
Y48188D01*
X354330D01*
Y46521D01*
Y54852D02*
Y58184D01*
Y56518D01*
X364327D01*
X362661Y54852D01*
X364327Y69847D02*
Y63183D01*
X359328D01*
X360994Y66515D01*
Y68181D01*
X359328Y69847D01*
X355996D01*
X354330Y68181D01*
Y64849D01*
X355996Y63183D01*
X354330Y-41910D02*
Y-38578D01*
Y-40244D01*
X364327D01*
X362661Y-41910D01*
X364327Y-26915D02*
X362661Y-30247D01*
X359328Y-33579D01*
X355996D01*
X354330Y-31913D01*
Y-28581D01*
X355996Y-26915D01*
X357662D01*
X359328Y-28581D01*
Y-33579D01*
X354330Y-23583D02*
X355996D01*
Y-21916D01*
X354330D01*
Y-23583D01*
Y-15252D02*
X355996D01*
Y-13586D01*
X354330D01*
Y-15252D01*
Y-257D02*
Y-6921D01*
X360994Y-257D01*
X362661D01*
X364327Y-1923D01*
Y-5255D01*
X362661Y-6921D01*
Y3076D02*
X364327Y4742D01*
Y8074D01*
X362661Y9740D01*
X360994D01*
X359328Y8074D01*
Y6408D01*
Y8074D01*
X357662Y9740D01*
X355996D01*
X354330Y8074D01*
Y4742D01*
X355996Y3076D01*
X354330Y-100269D02*
Y-106934D01*
X360994Y-100269D01*
X362661D01*
X364327Y-101936D01*
Y-105268D01*
X362661Y-106934D01*
X354330Y-91939D02*
X364327D01*
X359328Y-96937D01*
Y-90273D01*
X354330Y-86940D02*
X355996D01*
Y-85274D01*
X354330D01*
Y-86940D01*
Y-78610D02*
X355996D01*
Y-76944D01*
X354330D01*
Y-78610D01*
X362661Y-70279D02*
X364327Y-68613D01*
Y-65281D01*
X362661Y-63615D01*
X360994D01*
X359328Y-65281D01*
Y-66947D01*
Y-65281D01*
X357662Y-63615D01*
X355996D01*
X354330Y-65281D01*
Y-68613D01*
X355996Y-70279D01*
X354330Y-60282D02*
Y-56950D01*
Y-58616D01*
X364327D01*
X362661Y-60282D01*
X304485Y76403D02*
X311150D01*
Y71405D01*
X307818Y73071D01*
X306152D01*
X304485Y71405D01*
Y68073D01*
X306152Y66407D01*
X309484D01*
X311150Y68073D01*
X301153Y76403D02*
Y69739D01*
X297821Y66407D01*
X294489Y69739D01*
Y76403D01*
X304485Y11041D02*
X311150D01*
Y6043D01*
X307818Y7709D01*
X306152D01*
X304485Y6043D01*
Y2710D01*
X306152Y1044D01*
X309484D01*
X311150Y2710D01*
X301153Y11041D02*
Y4376D01*
X297821Y1044D01*
X294489Y4376D01*
Y11041D01*
X304485Y-54322D02*
X311150D01*
Y-59320D01*
X307818Y-57654D01*
X306152D01*
X304485Y-59320D01*
Y-62652D01*
X306152Y-64318D01*
X309484D01*
X311150Y-62652D01*
X301153Y-54322D02*
Y-60986D01*
X297821Y-64318D01*
X294489Y-60986D01*
Y-54322D01*
X334966Y161635D02*
X341630D01*
Y156636D01*
X338298Y158302D01*
X336632D01*
X334966Y156636D01*
Y153304D01*
X336632Y151638D01*
X339964D01*
X341630Y153304D01*
X331633Y161635D02*
Y154970D01*
X328301Y151638D01*
X324969Y154970D01*
Y161635D01*
X311150Y52950D02*
X309484Y54616D01*
X306152D01*
X304485Y52950D01*
Y51284D01*
X306152Y49618D01*
X307818D01*
X306152D01*
X304485Y47951D01*
Y46285D01*
X306152Y44619D01*
X309484D01*
X311150Y46285D01*
X301153Y54616D02*
Y47951D01*
X297821Y44619D01*
X294489Y47951D01*
Y54616D01*
X291156Y52950D02*
X289490Y54616D01*
X286158D01*
X284492Y52950D01*
Y51284D01*
X286158Y49618D01*
X287824D01*
X286158D01*
X284492Y47951D01*
Y46285D01*
X286158Y44619D01*
X289490D01*
X291156Y46285D01*
X311150Y-12413D02*
X309484Y-10747D01*
X306152D01*
X304485Y-12413D01*
Y-14079D01*
X306152Y-15745D01*
X307818D01*
X306152D01*
X304485Y-17411D01*
Y-19077D01*
X306152Y-20743D01*
X309484D01*
X311150Y-19077D01*
X301153Y-10747D02*
Y-17411D01*
X297821Y-20743D01*
X294489Y-17411D01*
Y-10747D01*
X291156Y-12413D02*
X289490Y-10747D01*
X286158D01*
X284492Y-12413D01*
Y-14079D01*
X286158Y-15745D01*
X287824D01*
X286158D01*
X284492Y-17411D01*
Y-19077D01*
X286158Y-20743D01*
X289490D01*
X291156Y-19077D01*
X311150Y-77775D02*
X309484Y-76109D01*
X306152D01*
X304485Y-77775D01*
Y-79441D01*
X306152Y-81108D01*
X307818D01*
X306152D01*
X304485Y-82774D01*
Y-84440D01*
X306152Y-86106D01*
X309484D01*
X311150Y-84440D01*
X301153Y-76109D02*
Y-82774D01*
X297821Y-86106D01*
X294489Y-82774D01*
Y-76109D01*
X291156Y-77775D02*
X289490Y-76109D01*
X286158D01*
X284492Y-77775D01*
Y-79441D01*
X286158Y-81108D01*
X287824D01*
X286158D01*
X284492Y-82774D01*
Y-84440D01*
X286158Y-86106D01*
X289490D01*
X291156Y-84440D01*
X311150Y118313D02*
X309484Y119979D01*
X306152D01*
X304485Y118313D01*
Y116646D01*
X306152Y114980D01*
X307818D01*
X306152D01*
X304485Y113314D01*
Y111648D01*
X306152Y109982D01*
X309484D01*
X311150Y111648D01*
X301153Y119979D02*
Y113314D01*
X297821Y109982D01*
X294489Y113314D01*
Y119979D01*
X291156Y118313D02*
X289490Y119979D01*
X286158D01*
X284492Y118313D01*
Y116646D01*
X286158Y114980D01*
X287824D01*
X286158D01*
X284492Y113314D01*
Y111648D01*
X286158Y109982D01*
X289490D01*
X291156Y111648D01*
X311150Y88194D02*
X307818D01*
X309484D01*
Y98191D01*
X311150Y96525D01*
X302819Y98191D02*
Y91526D01*
X299487Y88194D01*
X296155Y91526D01*
Y98191D01*
X292823Y96525D02*
X291156Y98191D01*
X287824D01*
X286158Y96525D01*
Y94859D01*
X287824Y93193D01*
X286158Y91526D01*
Y89860D01*
X287824Y88194D01*
X291156D01*
X292823Y89860D01*
Y91526D01*
X291156Y93193D01*
X292823Y94859D01*
Y96525D01*
X291156Y93193D02*
X287824D01*
X311150Y22832D02*
X307818D01*
X309484D01*
Y32829D01*
X311150Y31162D01*
X302819Y32829D02*
Y26164D01*
X299487Y22832D01*
X296155Y26164D01*
Y32829D01*
X292823Y31162D02*
X291156Y32829D01*
X287824D01*
X286158Y31162D01*
Y29496D01*
X287824Y27830D01*
X286158Y26164D01*
Y24498D01*
X287824Y22832D01*
X291156D01*
X292823Y24498D01*
Y26164D01*
X291156Y27830D01*
X292823Y29496D01*
Y31162D01*
X291156Y27830D02*
X287824D01*
X311150Y-42531D02*
X307818D01*
X309484D01*
Y-32534D01*
X311150Y-34200D01*
X302819Y-32534D02*
Y-39199D01*
X299487Y-42531D01*
X296155Y-39199D01*
Y-32534D01*
X292823Y-34200D02*
X291156Y-32534D01*
X287824D01*
X286158Y-34200D01*
Y-35866D01*
X287824Y-37532D01*
X286158Y-39199D01*
Y-40865D01*
X287824Y-42531D01*
X291156D01*
X292823Y-40865D01*
Y-39199D01*
X291156Y-37532D01*
X292823Y-35866D01*
Y-34200D01*
X291156Y-37532D02*
X287824D01*
X346202Y-130810D02*
X342870D01*
X344536D01*
Y-120813D01*
X346202Y-122479D01*
X337871Y-120813D02*
Y-127478D01*
X334539Y-130810D01*
X331207Y-127478D01*
Y-120813D01*
X327875Y-122479D02*
X326208Y-120813D01*
X322876D01*
X321210Y-122479D01*
Y-124145D01*
X322876Y-125812D01*
X321210Y-127478D01*
Y-129144D01*
X322876Y-130810D01*
X326208D01*
X327875Y-129144D01*
Y-127478D01*
X326208Y-125812D01*
X327875Y-124145D01*
Y-122479D01*
X326208Y-125812D02*
X322876D01*
X309880Y167894D02*
X321376D01*
X317544Y171726D01*
X321376Y175558D01*
X309880D01*
Y179390D02*
X317544D01*
X321376Y183222D01*
X317544Y187055D01*
X309880D01*
X315628D01*
Y179390D01*
X319460Y198551D02*
X321376Y196635D01*
Y192803D01*
X319460Y190887D01*
X317544D01*
X315628Y192803D01*
Y196635D01*
X313712Y198551D01*
X311796D01*
X309880Y196635D01*
Y192803D01*
X311796Y190887D01*
X321376Y202383D02*
Y210047D01*
Y206215D01*
X309880D01*
X321376Y221543D02*
Y213879D01*
X309880D01*
Y221543D01*
X315628Y213879D02*
Y217711D01*
X309880Y225375D02*
X321376D01*
Y231124D01*
X319460Y233040D01*
X315628D01*
X313712Y231124D01*
Y225375D01*
Y229208D02*
X309880Y233040D01*
Y236872D02*
Y240704D01*
Y238788D01*
X321376D01*
X319460Y236872D01*
X310896Y-219202D02*
X322392D01*
X318560Y-215370D01*
X322392Y-211538D01*
X310896D01*
Y-207706D02*
X318560D01*
X322392Y-203874D01*
X318560Y-200042D01*
X310896D01*
X316644D01*
Y-207706D01*
X320476Y-188545D02*
X322392Y-190461D01*
Y-194293D01*
X320476Y-196209D01*
X318560D01*
X316644Y-194293D01*
Y-190461D01*
X314728Y-188545D01*
X312812D01*
X310896Y-190461D01*
Y-194293D01*
X312812Y-196209D01*
X322392Y-184713D02*
Y-177049D01*
Y-180881D01*
X310896D01*
X322392Y-165553D02*
Y-173217D01*
X310896D01*
Y-165553D01*
X316644Y-173217D02*
Y-169385D01*
X310896Y-161721D02*
X322392D01*
Y-155972D01*
X320476Y-154056D01*
X316644D01*
X314728Y-155972D01*
Y-161721D01*
Y-157888D02*
X310896Y-154056D01*
Y-142560D02*
Y-150224D01*
X318560Y-142560D01*
X320476D01*
X322392Y-144476D01*
Y-148308D01*
X320476Y-150224D01*
X68834Y28702D02*
X80330D01*
Y34450D01*
X78414Y36366D01*
X74582D01*
X72666Y34450D01*
Y28702D01*
Y32534D02*
X68834Y36366D01*
X78414Y40198D02*
X80330Y42114D01*
Y45946D01*
X78414Y47863D01*
X76498D01*
X74582Y45946D01*
X72666Y47863D01*
X70750D01*
X68834Y45946D01*
Y42114D01*
X70750Y40198D01*
X72666D01*
X74582Y42114D01*
X76498Y40198D01*
X78414D01*
X74582Y42114D02*
Y45946D01*
X78414Y51695D02*
X80330Y53611D01*
Y57443D01*
X78414Y59359D01*
X70750D01*
X68834Y57443D01*
Y53611D01*
X70750Y51695D01*
X78414D01*
X43688Y29464D02*
X55184D01*
Y35212D01*
X53268Y37128D01*
X49436D01*
X47520Y35212D01*
Y29464D01*
Y33296D02*
X43688Y37128D01*
X55184Y40960D02*
Y48625D01*
X53268D01*
X45604Y40960D01*
X43688D01*
X53268Y52457D02*
X55184Y54373D01*
Y58205D01*
X53268Y60121D01*
X45604D01*
X43688Y58205D01*
Y54373D01*
X45604Y52457D01*
X53268D01*
X231140Y31750D02*
X242636D01*
Y37498D01*
X240720Y39414D01*
X236888D01*
X234972Y37498D01*
Y31750D01*
Y35582D02*
X231140Y39414D01*
Y50911D02*
Y43246D01*
X238804Y50911D01*
X240720D01*
X242636Y48994D01*
Y45162D01*
X240720Y43246D01*
Y54743D02*
X242636Y56659D01*
Y60491D01*
X240720Y62407D01*
X233056D01*
X231140Y60491D01*
Y56659D01*
X233056Y54743D01*
X240720D01*
X206756Y32512D02*
X218252D01*
Y38260D01*
X216336Y40176D01*
X212504D01*
X210588Y38260D01*
Y32512D01*
Y36344D02*
X206756Y40176D01*
Y44008D02*
Y47840D01*
Y45924D01*
X218252D01*
X216336Y44008D01*
Y53589D02*
X218252Y55505D01*
Y59337D01*
X216336Y61253D01*
X208672D01*
X206756Y59337D01*
Y55505D01*
X208672Y53589D01*
X216336D01*
D27*
X266700Y-46524D02*
X262035Y-41859D01*
X252705D01*
X248039Y-46524D01*
Y-51189D01*
X252705Y-55855D01*
X257370D01*
X252705D01*
X248039Y-60520D01*
Y-65185D01*
X252705Y-69850D01*
X262035D01*
X266700Y-65185D01*
X220048Y-69850D02*
X238709D01*
X220048Y-51189D01*
Y-46524D01*
X224714Y-41859D01*
X234044D01*
X238709Y-46524D01*
X182727Y-41859D02*
X173397D01*
X178062D01*
Y-69850D01*
X182727D01*
X173397D01*
X140741D02*
X159401D01*
X140741Y-51189D01*
Y-46524D01*
X145406Y-41859D01*
X154736D01*
X159401Y-46524D01*
X112750D02*
X117415Y-41859D01*
X126745D01*
X131410Y-46524D01*
Y-65185D01*
X126745Y-69850D01*
X117415D01*
X112750Y-65185D01*
X56768Y-51189D02*
X70763D01*
X75429Y-55855D01*
Y-65185D01*
X70763Y-69850D01*
X56768D01*
X47438Y-41859D02*
Y-69850D01*
Y-55855D01*
X42772Y-51189D01*
X33442D01*
X28777Y-55855D01*
Y-69850D01*
X14781Y-51189D02*
X5451D01*
X786Y-55855D01*
Y-69850D01*
X14781D01*
X19447Y-65185D01*
X14781Y-60520D01*
X786D01*
X-8544Y-69850D02*
Y-51189D01*
X-22540D01*
X-27205Y-55855D01*
Y-69850D01*
X-36535D02*
Y-51189D01*
X-50531D01*
X-55196Y-55855D01*
Y-69850D01*
X-78522D02*
X-69191D01*
X-64526Y-65185D01*
Y-55855D01*
X-69191Y-51189D01*
X-78522D01*
X-83187Y-55855D01*
Y-60520D01*
X-64526D01*
X-92517Y-69850D02*
X-101847D01*
X-97182D01*
Y-41859D01*
X-92517D01*
X-115843Y-69850D02*
X-129838D01*
X-134504Y-65185D01*
X-129838Y-60520D01*
X-120508D01*
X-115843Y-55855D01*
X-120508Y-51189D01*
X-134504D01*
X-171825Y-69850D02*
Y-41859D01*
X-181155Y-51189D01*
X-190485Y-41859D01*
Y-69850D01*
X-199816Y-41859D02*
Y-65185D01*
X-204481Y-69850D01*
X-213811D01*
X-218477Y-65185D01*
Y-41859D01*
X-227807D02*
X-246467Y-69850D01*
Y-41859D02*
X-227807Y-69850D01*
D28*
X-944Y93490D02*
X19050D01*
Y78495D01*
X9053D01*
X19050D01*
Y63500D01*
X-30934Y93490D02*
X-10940D01*
Y63500D01*
X-30934D01*
X-10940Y78495D02*
X-20937D01*
X-40931Y88492D02*
X-45929Y93490D01*
X-55926D01*
X-60924Y88492D01*
Y68498D01*
X-55926Y63500D01*
X-45929D01*
X-40931Y68498D01*
Y88492D01*
X-70921D02*
X-75919Y93490D01*
X-85916D01*
X-90914Y88492D01*
Y68498D01*
X-85916Y63500D01*
X-75919D01*
X-70921Y68498D01*
Y88492D01*
X-100911Y63500D02*
X-110908D01*
X-105910D01*
Y93490D01*
X-100911Y88492D01*
X-125903D02*
X-130901Y93490D01*
X-140898D01*
X-145897Y88492D01*
Y68498D01*
X-140898Y63500D01*
X-130901D01*
X-125903Y68498D01*
Y88492D01*
X-155893D02*
X-160892Y93490D01*
X-170889D01*
X-175887Y88492D01*
Y68498D01*
X-170889Y63500D01*
X-160892D01*
X-155893Y68498D01*
Y88492D01*
D30*
X6350Y-2389D02*
X3018Y944D01*
X-3647D01*
X-6979Y-2389D01*
Y-15718D01*
X-3647Y-19050D01*
X3018D01*
X6350Y-15718D01*
Y-2389D01*
X-13644Y-5721D02*
X-26973Y-19050D01*
X-20308Y-12385D01*
X-26973Y-5721D01*
X-13644Y-19050D01*
X-33637Y944D02*
X-46966D01*
Y-2389D01*
X-33637Y-15718D01*
Y-19050D01*
X-53631Y-2389D02*
X-56963Y944D01*
X-63628D01*
X-66960Y-2389D01*
Y-15718D01*
X-63628Y-19050D01*
X-56963D01*
X-53631Y-15718D01*
Y-2389D01*
X-73624Y-19050D02*
X-86953Y-5721D01*
X-93618Y-2389D02*
X-96950Y944D01*
X-103615D01*
X-106947Y-2389D01*
Y-15718D01*
X-103615Y-19050D01*
X-96950D01*
X-93618Y-15718D01*
Y-2389D01*
X-113611Y-5721D02*
X-126940Y-19050D01*
X-120276Y-12385D01*
X-126940Y-5721D01*
X-113611Y-19050D01*
X-133605Y944D02*
X-146934D01*
Y-2389D01*
X-133605Y-15718D01*
Y-19050D01*
X-153598D02*
X-160263D01*
X-156931D01*
Y944D01*
X-153598Y-2389D01*
X-6350Y12700D02*
Y26029D01*
X-13015Y32694D01*
X-19679Y26029D01*
Y12700D01*
Y22697D01*
X-6350D01*
X-26344Y32694D02*
Y12700D01*
X-36340D01*
X-39673Y16032D01*
Y29361D01*
X-36340Y32694D01*
X-26344D01*
X-46337D02*
Y12700D01*
X-56334D01*
X-59666Y16032D01*
Y29361D01*
X-56334Y32694D01*
X-46337D01*
X-66331Y12700D02*
Y32694D01*
X-76328D01*
X-79660Y29361D01*
Y22697D01*
X-76328Y19365D01*
X-66331D01*
X-72995D02*
X-79660Y12700D01*
X-99653Y32694D02*
X-86324D01*
Y12700D01*
X-99653D01*
X-86324Y22697D02*
X-92989D01*
X-119647Y29361D02*
X-116315Y32694D01*
X-109650D01*
X-106318Y29361D01*
Y26029D01*
X-109650Y22697D01*
X-116315D01*
X-119647Y19365D01*
Y16032D01*
X-116315Y12700D01*
X-109650D01*
X-106318Y16032D01*
X-139640Y29361D02*
X-136308Y32694D01*
X-129644D01*
X-126311Y29361D01*
Y26029D01*
X-129644Y22697D01*
X-136308D01*
X-139640Y19365D01*
Y16032D01*
X-136308Y12700D01*
X-129644D01*
X-126311Y16032D01*
D37*
X319278Y102962D02*
G03*
X316738Y100422I0J-2540D01*
G01*
X349758D02*
G03*
X347218Y102962I-2540J0D01*
G01*
Y82642D02*
G03*
X349758Y85182I0J2540D01*
G01*
X316738D02*
G03*
X319278Y82642I2540J0D01*
G01*
Y124760D02*
G03*
X316738Y122220I0J-2540D01*
G01*
X349758D02*
G03*
X347218Y124760I-2540J0D01*
G01*
Y104440D02*
G03*
X349758Y106980I0J2540D01*
G01*
X316738D02*
G03*
X319278Y104440I2540J0D01*
G01*
Y146558D02*
G03*
X316738Y144018I0J-2540D01*
G01*
X349758D02*
G03*
X347218Y146558I-2540J0D01*
G01*
Y126238D02*
G03*
X349758Y128778I0J2540D01*
G01*
X316738D02*
G03*
X319278Y126238I2540J0D01*
G01*
Y37569D02*
G03*
X316738Y35029I0J-2540D01*
G01*
X349758D02*
G03*
X347218Y37569I-2540J0D01*
G01*
Y17249D02*
G03*
X349758Y19789I0J2540D01*
G01*
X316738D02*
G03*
X319278Y17249I2540J0D01*
G01*
Y59367D02*
G03*
X316738Y56827I0J-2540D01*
G01*
X349758D02*
G03*
X347218Y59367I-2540J0D01*
G01*
Y39047D02*
G03*
X349758Y41587I0J2540D01*
G01*
X316738D02*
G03*
X319278Y39047I2540J0D01*
G01*
Y81164D02*
G03*
X316738Y78624I0J-2540D01*
G01*
X349758D02*
G03*
X347218Y81164I-2540J0D01*
G01*
Y60844D02*
G03*
X349758Y63384I0J2540D01*
G01*
X316738D02*
G03*
X319278Y60844I2540J0D01*
G01*
Y-27825D02*
G03*
X316738Y-30365I0J-2540D01*
G01*
X349758D02*
G03*
X347218Y-27825I-2540J0D01*
G01*
Y-48145D02*
G03*
X349758Y-45605I0J2540D01*
G01*
X316738D02*
G03*
X319278Y-48145I2540J0D01*
G01*
Y-6027D02*
G03*
X316738Y-8567I0J-2540D01*
G01*
X349758D02*
G03*
X347218Y-6027I-2540J0D01*
G01*
Y-26347D02*
G03*
X349758Y-23807I0J2540D01*
G01*
X316738D02*
G03*
X319278Y-26347I2540J0D01*
G01*
Y15771D02*
G03*
X316738Y13231I0J-2540D01*
G01*
X349758D02*
G03*
X347218Y15771I-2540J0D01*
G01*
Y-4549D02*
G03*
X349758Y-2009I0J2540D01*
G01*
X316738D02*
G03*
X319278Y-4549I2540J0D01*
G01*
Y-93218D02*
G03*
X316738Y-95758I0J-2540D01*
G01*
X349758D02*
G03*
X347218Y-93218I-2540J0D01*
G01*
Y-113538D02*
G03*
X349758Y-110998I0J2540D01*
G01*
X316738D02*
G03*
X319278Y-113538I2540J0D01*
G01*
Y-71420D02*
G03*
X316738Y-73960I0J-2540D01*
G01*
X349758D02*
G03*
X347218Y-71420I-2540J0D01*
G01*
Y-91740D02*
G03*
X349758Y-89200I0J2540D01*
G01*
X316738D02*
G03*
X319278Y-91740I2540J0D01*
G01*
Y-49622D02*
G03*
X316738Y-52162I0J-2540D01*
G01*
X349758D02*
G03*
X347218Y-49622I-2540J0D01*
G01*
Y-69942D02*
G03*
X349758Y-67402I0J2540D01*
G01*
X316738D02*
G03*
X319278Y-69942I2540J0D01*
G01*
Y82642D02*
X347218D01*
X316738Y85182D02*
Y100422D01*
X349758Y85182D02*
Y100422D01*
X319278Y102962D02*
X347218D01*
X319278Y104440D02*
X347218D01*
X316738Y106980D02*
Y122220D01*
X349758Y106980D02*
Y122220D01*
X319278Y124760D02*
X347218D01*
X319278Y126238D02*
X347218D01*
X316738Y128778D02*
Y144018D01*
X349758Y128778D02*
Y144018D01*
X319278Y146558D02*
X347218D01*
X319278Y17249D02*
X347218D01*
X316738Y19789D02*
Y35029D01*
X349758Y19789D02*
Y35029D01*
X319278Y37569D02*
X347218D01*
X319278Y39047D02*
X347218D01*
X316738Y41587D02*
Y56827D01*
X349758Y41587D02*
Y56827D01*
X319278Y59367D02*
X347218D01*
X319278Y60844D02*
X347218D01*
X316738Y63384D02*
Y78624D01*
X349758Y63384D02*
Y78624D01*
X319278Y81164D02*
X347218D01*
X319278Y-48145D02*
X347218D01*
X316738Y-45605D02*
Y-30365D01*
X349758Y-45605D02*
Y-30365D01*
X319278Y-27825D02*
X347218D01*
X319278Y-26347D02*
X347218D01*
X316738Y-23807D02*
Y-8567D01*
X349758Y-23807D02*
Y-8567D01*
X319278Y-6027D02*
X347218D01*
X319278Y-4549D02*
X347218D01*
X316738Y-2009D02*
Y13231D01*
X349758Y-2009D02*
Y13231D01*
X319278Y15771D02*
X347218D01*
X319278Y-113538D02*
X347218D01*
X316738Y-110998D02*
Y-95758D01*
X349758Y-110998D02*
Y-95758D01*
X319278Y-93218D02*
X347218D01*
X319278Y-91740D02*
X347218D01*
X316738Y-89200D02*
Y-73960D01*
X349758Y-89200D02*
Y-73960D01*
X319278Y-71420D02*
X347218D01*
X319278Y-69942D02*
X347218D01*
X316738Y-67402D02*
Y-52162D01*
X349758Y-67402D02*
Y-52162D01*
X319278Y-49622D02*
X347218D01*
D38*
X-198326Y56574D02*
G03*
X-198326Y57844I-0J635D01*
G01*
X-242326Y57838D02*
G03*
X-242326Y56568I0J-635D01*
G01*
X-176871Y18894D02*
G03*
X-175771Y19530I550J318D01*
G01*
X-197776Y57527D02*
G03*
X-198876Y56891I-550J-318D01*
G01*
X-198867Y-18976D02*
G03*
X-197764Y-19606I551J-315D01*
G01*
X-175770Y18897D02*
G03*
X-176872Y19527I-551J315D01*
G01*
X-242316Y-18662D02*
G03*
X-242315Y-19932I0J-635D01*
G01*
X-198315Y-19926D02*
G03*
X-198316Y-18656I-0J635D01*
G01*
X-263771Y19018D02*
G03*
X-264871Y18382I-550J-318D01*
G01*
X-242865Y-19615D02*
G03*
X-241766Y-18979I550J318D01*
G01*
X-241775Y56888D02*
G03*
X-242877Y57518I-551J315D01*
G01*
X-264872Y19015D02*
G03*
X-263770Y18385I551J-315D01*
G01*
X-200825Y52573D02*
G03*
X-200826Y53843I-0J635D01*
G01*
X-239825Y53838D02*
G03*
X-239825Y52568I0J-635D01*
G01*
X-194372Y40889D02*
G03*
X-193276Y41529I548J320D01*
G01*
X-200277Y53529D02*
G03*
X-201373Y52888I-548J-320D01*
G01*
X-196824Y41844D02*
G03*
X-196824Y40574I0J-635D01*
G01*
X-193824Y40574D02*
G03*
X-193824Y41844I-0J635D01*
G01*
X-194445Y25588D02*
G03*
X-193199Y25831I623J121D01*
G01*
X-196201Y41330D02*
G03*
X-197447Y41088I-623J-121D01*
G01*
X-184822Y25076D02*
G03*
X-184822Y26346I-0J635D01*
G01*
X-193822Y26344D02*
G03*
X-193822Y25074I0J-635D01*
G01*
X-181372Y18396D02*
G03*
X-180270Y19026I551J315D01*
G01*
X-184271Y26026D02*
G03*
X-185373Y25396I-551J-315D01*
G01*
X-200867Y-14976D02*
G03*
X-199765Y-15607I551J-316D01*
G01*
X-180270Y18395D02*
G03*
X-181372Y19027I-551J316D01*
G01*
X-209816Y-14658D02*
G03*
X-209816Y-15928I0J-635D01*
G01*
X-200316Y-15927D02*
G03*
X-200316Y-14656I-0J635D01*
G01*
X-210316Y-14658D02*
G03*
X-210316Y-15928I0J-635D01*
G01*
X-209816Y-15928D02*
G03*
X-209816Y-14658I-0J635D01*
G01*
X-211248Y-12009D02*
G03*
X-212384Y-12577I-568J-284D01*
G01*
X-210884Y-15577D02*
G03*
X-209748Y-15009I568J284D01*
G01*
X-228817Y-11660D02*
G03*
X-228816Y-12930I0J-635D01*
G01*
X-211816Y-12928D02*
G03*
X-211817Y-11658I-0J635D01*
G01*
X-230884Y-15012D02*
G03*
X-229748Y-15580I568J-284D01*
G01*
X-228248Y-12579D02*
G03*
X-229384Y-12011I-568J284D01*
G01*
X-240316Y-14662D02*
G03*
X-240316Y-15932I0J-635D01*
G01*
X-230316Y-15931D02*
G03*
X-230316Y-14661I-0J635D01*
G01*
X-259270Y19016D02*
G03*
X-260372Y18384I-551J-316D01*
G01*
X-240867Y-15613D02*
G03*
X-239765Y-14981I551J316D01*
G01*
X-255271Y25386D02*
G03*
X-256373Y26016I-551J315D01*
G01*
X-260372Y19015D02*
G03*
X-259270Y18385I551J-315D01*
G01*
X-248322Y25067D02*
G03*
X-248322Y26337I-0J635D01*
G01*
X-255822Y26336D02*
G03*
X-255822Y25066I0J-635D01*
G01*
X-245716Y32015D02*
G03*
X-246930Y32389I-607J187D01*
G01*
X-248929Y25889D02*
G03*
X-247715Y25515I607J-187D01*
G01*
X-252323Y32836D02*
G03*
X-252323Y31566I0J-635D01*
G01*
X-246322Y31567D02*
G03*
X-246323Y32837I-0J635D01*
G01*
X-248287Y37361D02*
G03*
X-249359Y38043I-536J341D01*
G01*
X-252859Y32542D02*
G03*
X-251786Y31860I536J-341D01*
G01*
X-244823Y37067D02*
G03*
X-244823Y38338I-0J635D01*
G01*
X-248823Y38337D02*
G03*
X-248823Y37067I0J-635D01*
G01*
X-243213Y41029D02*
G03*
X-244435Y41377I-611J174D01*
G01*
X-245434Y37876D02*
G03*
X-244212Y37529I611J-174D01*
G01*
X-246824Y41837D02*
G03*
X-246824Y40567I0J-635D01*
G01*
X-243824Y40568D02*
G03*
X-243824Y41838I-0J635D01*
G01*
X-239277Y52883D02*
G03*
X-240373Y53523I-548J320D01*
G01*
X-247372Y41522D02*
G03*
X-246276Y40882I548J-320D01*
G01*
X-225702Y53081D02*
G03*
X-226948Y53329I-623J124D01*
G01*
X-240439Y-14673D02*
G03*
X-239193Y-14921I623J-124D01*
G01*
X-213703Y53334D02*
G03*
X-214947Y53080I-622J-127D01*
G01*
X-200938Y-15419D02*
G03*
X-199694Y-15164I622J127D01*
G01*
X-218322Y25071D02*
G03*
X-218322Y26341I-0J635D01*
G01*
X-222322Y26340D02*
G03*
X-222322Y25071I0J-635D01*
G01*
X-218694Y32303D02*
G03*
X-219951Y32109I-628J-97D01*
G01*
X-218950Y25609D02*
G03*
X-217694Y25803I628J97D01*
G01*
X-220823Y32841D02*
G03*
X-220822Y31571I0J-635D01*
G01*
X-219322Y31571D02*
G03*
X-219323Y32841I-0J635D01*
G01*
X-222941Y25848D02*
G03*
X-221703Y25563I619J-143D01*
G01*
X-220203Y32063D02*
G03*
X-221441Y32349I-619J143D01*
G01*
M02*
