G04*
G04 #@! TF.GenerationSoftware,Altium Limited,Altium Designer,19.1.8 (144)*
G04*
G04 Layer_Physical_Order=2*
G04 Layer_Color=16711680*
%FSLAX44Y44*%
%MOMM*%
G71*
G01*
G75*
%ADD14C,0.2000*%
%ADD16R,1.5240X1.3208*%
%ADD27C,0.4000*%
%ADD28C,0.5000*%
%ADD29C,0.6000*%
%ADD30C,0.3000*%
%ADD31R,1.5000X1.5000*%
%ADD32C,1.5000*%
%ADD33C,0.6600*%
G04:AMPARAMS|DCode=34|XSize=0.762mm|YSize=1.524mm|CornerRadius=0.1905mm|HoleSize=0mm|Usage=FLASHONLY|Rotation=180.000|XOffset=0mm|YOffset=0mm|HoleType=Round|Shape=RoundedRectangle|*
%AMROUNDEDRECTD34*
21,1,0.7620,1.1430,0,0,180.0*
21,1,0.3810,1.5240,0,0,180.0*
1,1,0.3810,-0.1905,0.5715*
1,1,0.3810,0.1905,0.5715*
1,1,0.3810,0.1905,-0.5715*
1,1,0.3810,-0.1905,-0.5715*
%
%ADD34ROUNDEDRECTD34*%
G36*
X255680Y279319D02*
X266353Y277914D01*
X276863Y275584D01*
X287130Y272347D01*
X297076Y268227D01*
X306625Y263256D01*
X315704Y257472D01*
X324245Y250918D01*
X332182Y243645D01*
X339455Y235709D01*
X346009Y227168D01*
X351793Y218088D01*
X356764Y208539D01*
X360883Y198594D01*
X364120Y188326D01*
X366451Y177816D01*
X367856Y167143D01*
X368304Y156872D01*
X368208Y156388D01*
X368208Y156387D01*
X368208Y156386D01*
X368224Y116423D01*
X366954Y116037D01*
X366952Y116040D01*
X349804Y133188D01*
Y142113D01*
X349462Y143832D01*
X349016Y144500D01*
Y146812D01*
X348589Y148958D01*
X347373Y150777D01*
X341277Y156873D01*
X339458Y158089D01*
X337312Y158516D01*
X266192D01*
X265152Y158309D01*
X264526Y159479D01*
X284247Y179200D01*
X299200D01*
Y199200D01*
X280394D01*
X280117Y200470D01*
X285115Y205468D01*
X286590Y204857D01*
X289200Y204514D01*
X291810Y204857D01*
X294243Y205865D01*
X296332Y207468D01*
X297935Y209557D01*
X298943Y211989D01*
X299286Y214600D01*
X298943Y217211D01*
X297935Y219643D01*
X296332Y221732D01*
X294243Y223335D01*
X291810Y224343D01*
X289200Y224686D01*
X286590Y224343D01*
X284157Y223335D01*
X282068Y221732D01*
X280465Y219643D01*
X279457Y217211D01*
X279114Y214600D01*
X279457Y211989D01*
X280068Y210515D01*
X273829Y204275D01*
X273055Y203118D01*
X272783Y201752D01*
Y196071D01*
X271513Y195640D01*
X270961Y196361D01*
X268863Y197970D01*
X266421Y198982D01*
X265070Y199159D01*
Y189200D01*
Y179241D01*
X266421Y179418D01*
X267271Y179771D01*
X267990Y178694D01*
X198529Y109233D01*
X153352D01*
X152263Y110862D01*
X150345Y112143D01*
X148082Y112594D01*
X147518Y112481D01*
X146893Y113652D01*
X148798Y115557D01*
X168326D01*
X169692Y115829D01*
X170849Y116603D01*
X234315Y180068D01*
X235790Y179457D01*
X238400Y179114D01*
X241010Y179457D01*
X243443Y180465D01*
X245532Y182068D01*
X247135Y184157D01*
X248143Y186590D01*
X248486Y189200D01*
X248143Y191810D01*
X247135Y194243D01*
X245532Y196332D01*
X243443Y197935D01*
X241010Y198943D01*
X238400Y199286D01*
X235790Y198943D01*
X233357Y197935D01*
X232608Y197360D01*
X231469Y197922D01*
Y202622D01*
X234315Y205468D01*
X235790Y204857D01*
X238400Y204514D01*
X241010Y204857D01*
X243443Y205865D01*
X245532Y207468D01*
X247135Y209557D01*
X248143Y211989D01*
X248486Y214600D01*
X248143Y217211D01*
X247135Y219643D01*
X245532Y221732D01*
X243443Y223335D01*
X241010Y224343D01*
X238400Y224686D01*
X235790Y224343D01*
X233357Y223335D01*
X231268Y221732D01*
X229665Y219643D01*
X228657Y217211D01*
X228314Y214600D01*
X228657Y211989D01*
X229268Y210515D01*
X225377Y206623D01*
X224603Y205466D01*
X224331Y204100D01*
Y189472D01*
X223061Y189389D01*
X222743Y191810D01*
X221735Y194243D01*
X220132Y196332D01*
X218043Y197935D01*
X215611Y198943D01*
X213000Y199286D01*
X210389Y198943D01*
X207957Y197935D01*
X207208Y197360D01*
X206069Y197922D01*
Y202622D01*
X208915Y205468D01*
X210389Y204857D01*
X213000Y204514D01*
X215611Y204857D01*
X218043Y205865D01*
X220132Y207468D01*
X221735Y209557D01*
X222743Y211989D01*
X223086Y214600D01*
X222743Y217211D01*
X221735Y219643D01*
X220132Y221732D01*
X218043Y223335D01*
X215611Y224343D01*
X213000Y224686D01*
X210389Y224343D01*
X207957Y223335D01*
X205868Y221732D01*
X204265Y219643D01*
X203257Y217211D01*
X202914Y214600D01*
X203257Y211989D01*
X203868Y210515D01*
X199977Y206623D01*
X199203Y205466D01*
X198931Y204100D01*
Y189778D01*
X197661Y189695D01*
X197382Y191821D01*
X196370Y194263D01*
X194761Y196361D01*
X192663Y197970D01*
X190221Y198982D01*
X188870Y199159D01*
Y189200D01*
Y179241D01*
X190221Y179418D01*
X191071Y179771D01*
X191790Y178694D01*
X156301Y143205D01*
X135249D01*
X133883Y142933D01*
X132726Y142159D01*
X101878Y111312D01*
X100634Y112143D01*
X98371Y112594D01*
X96108Y112143D01*
X94189Y110862D01*
X93637Y110035D01*
X91911Y109706D01*
X91707Y109847D01*
Y113660D01*
X158115Y180068D01*
X159590Y179457D01*
X162200Y179114D01*
X164811Y179457D01*
X167243Y180465D01*
X169332Y182068D01*
X170935Y184157D01*
X171943Y186590D01*
X172286Y189200D01*
X171943Y191810D01*
X170935Y194243D01*
X169332Y196332D01*
X167243Y197935D01*
X164811Y198943D01*
X162200Y199286D01*
X159590Y198943D01*
X157157Y197935D01*
X156408Y197360D01*
X155269Y197922D01*
Y202622D01*
X158115Y205468D01*
X159590Y204857D01*
X162200Y204514D01*
X164811Y204857D01*
X167243Y205865D01*
X169332Y207468D01*
X170935Y209557D01*
X171943Y211989D01*
X172286Y214600D01*
X171943Y217211D01*
X170935Y219643D01*
X169332Y221732D01*
X167243Y223335D01*
X164811Y224343D01*
X162200Y224686D01*
X159590Y224343D01*
X157157Y223335D01*
X155068Y221732D01*
X153465Y219643D01*
X152457Y217211D01*
X152114Y214600D01*
X152457Y211989D01*
X153068Y210515D01*
X149177Y206623D01*
X148403Y205466D01*
X148131Y204100D01*
Y189472D01*
X146861Y189389D01*
X146543Y191810D01*
X145535Y194243D01*
X143932Y196332D01*
X141843Y197935D01*
X139410Y198943D01*
X136800Y199286D01*
X134190Y198943D01*
X131757Y197935D01*
X131008Y197360D01*
X129869Y197922D01*
Y202622D01*
X132715Y205468D01*
X134190Y204857D01*
X136800Y204514D01*
X139410Y204857D01*
X141843Y205865D01*
X143932Y207468D01*
X145535Y209557D01*
X146543Y211989D01*
X146886Y214600D01*
X146543Y217211D01*
X145535Y219643D01*
X143932Y221732D01*
X141843Y223335D01*
X139410Y224343D01*
X136800Y224686D01*
X134190Y224343D01*
X131757Y223335D01*
X129668Y221732D01*
X128065Y219643D01*
X127057Y217211D01*
X126714Y214600D01*
X127057Y211989D01*
X127668Y210515D01*
X123777Y206623D01*
X123003Y205466D01*
X122731Y204100D01*
Y189778D01*
X121461Y189695D01*
X121182Y191821D01*
X120170Y194263D01*
X118561Y196361D01*
X116463Y197970D01*
X114021Y198982D01*
X112670Y199159D01*
Y189200D01*
Y179241D01*
X114021Y179418D01*
X114871Y179771D01*
X115590Y178694D01*
X49352Y112456D01*
X48659Y112594D01*
X46396Y112143D01*
X44478Y110862D01*
X43196Y108943D01*
X42745Y106680D01*
X43196Y104417D01*
X44478Y102498D01*
X46396Y101216D01*
X48659Y100766D01*
X50922Y101216D01*
X52841Y102498D01*
X54123Y104417D01*
X54573Y106680D01*
X54423Y107433D01*
X56218Y109228D01*
X57391Y108742D01*
Y67958D01*
X56597Y67428D01*
X55315Y65509D01*
X54865Y63246D01*
X55315Y60983D01*
X56597Y59064D01*
X57540Y58434D01*
X57155Y57164D01*
X39655D01*
X39270Y58434D01*
X40213Y59064D01*
X41495Y60983D01*
X41945Y63246D01*
X41495Y65509D01*
X40213Y67428D01*
X40145Y67474D01*
Y138298D01*
X81915Y180068D01*
X83390Y179457D01*
X86000Y179114D01*
X88610Y179457D01*
X91043Y180465D01*
X93132Y182068D01*
X94735Y184157D01*
X95743Y186590D01*
X96086Y189200D01*
X95743Y191810D01*
X94735Y194243D01*
X93132Y196332D01*
X91043Y197935D01*
X88610Y198943D01*
X86000Y199286D01*
X83390Y198943D01*
X80957Y197935D01*
X80208Y197360D01*
X79069Y197922D01*
Y202622D01*
X81915Y205468D01*
X83390Y204857D01*
X86000Y204514D01*
X88610Y204857D01*
X91043Y205865D01*
X93132Y207468D01*
X94735Y209557D01*
X95743Y211989D01*
X96086Y214600D01*
X95743Y217211D01*
X94735Y219643D01*
X93132Y221732D01*
X91043Y223335D01*
X88610Y224343D01*
X86000Y224686D01*
X83390Y224343D01*
X80957Y223335D01*
X78868Y221732D01*
X77265Y219643D01*
X76257Y217211D01*
X75914Y214600D01*
X76257Y211989D01*
X76868Y210515D01*
X72977Y206623D01*
X72203Y205466D01*
X71931Y204100D01*
Y189472D01*
X70661Y189389D01*
X70343Y191810D01*
X69335Y194243D01*
X67732Y196332D01*
X65643Y197935D01*
X63211Y198943D01*
X60600Y199286D01*
X57990Y198943D01*
X55557Y197935D01*
X54808Y197360D01*
X53669Y197922D01*
Y202622D01*
X56515Y205468D01*
X57990Y204857D01*
X60600Y204514D01*
X63211Y204857D01*
X65643Y205865D01*
X67732Y207468D01*
X69335Y209557D01*
X70343Y211989D01*
X70686Y214600D01*
X70343Y217211D01*
X69335Y219643D01*
X67732Y221732D01*
X65643Y223335D01*
X63211Y224343D01*
X60600Y224686D01*
X57990Y224343D01*
X55557Y223335D01*
X53468Y221732D01*
X51865Y219643D01*
X50857Y217211D01*
X50514Y214600D01*
X50857Y211989D01*
X51468Y210515D01*
X47577Y206623D01*
X46803Y205466D01*
X46531Y204100D01*
Y189778D01*
X45261Y189695D01*
X44982Y191821D01*
X43970Y194263D01*
X42361Y196361D01*
X40263Y197970D01*
X37821Y198982D01*
X36470Y199159D01*
Y189200D01*
Y179241D01*
X37821Y179418D01*
X38671Y179771D01*
X39390Y178694D01*
X5415Y144718D01*
X4641Y143560D01*
X4369Y142195D01*
Y116604D01*
X125Y112360D01*
X-1052Y112594D01*
X-3315Y112143D01*
X-5234Y110862D01*
X-6516Y108943D01*
X-6966Y106680D01*
X-6516Y104417D01*
X-5234Y102498D01*
X-3315Y101216D01*
X-1052Y100766D01*
X1211Y101216D01*
X3129Y102498D01*
X4411Y104417D01*
X4861Y106680D01*
X4808Y106949D01*
X7196Y109337D01*
X8369Y108851D01*
Y68274D01*
X7103Y67428D01*
X5821Y65509D01*
X5371Y63246D01*
X5821Y60983D01*
X7103Y59064D01*
X8046Y58434D01*
X7661Y57164D01*
X-9838D01*
X-10223Y58434D01*
X-9280Y59064D01*
X-7998Y60983D01*
X-7548Y63246D01*
X-7998Y65509D01*
X-9280Y67428D01*
X-9893Y67837D01*
Y164460D01*
X5715Y180068D01*
X7189Y179457D01*
X9800Y179114D01*
X12411Y179457D01*
X14843Y180465D01*
X16932Y182068D01*
X18535Y184157D01*
X19543Y186590D01*
X19886Y189200D01*
X19543Y191810D01*
X18535Y194243D01*
X16932Y196332D01*
X14843Y197935D01*
X12411Y198943D01*
X9800Y199286D01*
X7189Y198943D01*
X4757Y197935D01*
X4008Y197360D01*
X2869Y197922D01*
Y202622D01*
X5715Y205468D01*
X7189Y204857D01*
X9800Y204514D01*
X12411Y204857D01*
X14843Y205865D01*
X16932Y207468D01*
X18535Y209557D01*
X19543Y211989D01*
X19886Y214600D01*
X19543Y217211D01*
X18535Y219643D01*
X16932Y221732D01*
X14843Y223335D01*
X12411Y224343D01*
X9800Y224686D01*
X7189Y224343D01*
X4757Y223335D01*
X2668Y221732D01*
X1065Y219643D01*
X57Y217211D01*
X-286Y214600D01*
X57Y211989D01*
X668Y210515D01*
X-3223Y206623D01*
X-3997Y205466D01*
X-4269Y204100D01*
Y189472D01*
X-5539Y189389D01*
X-5857Y191810D01*
X-6865Y194243D01*
X-8468Y196332D01*
X-10557Y197935D01*
X-12989Y198943D01*
X-15600Y199286D01*
X-18211Y198943D01*
X-20643Y197935D01*
X-21392Y197360D01*
X-22531Y197922D01*
Y202622D01*
X-19685Y205468D01*
X-18211Y204857D01*
X-15600Y204514D01*
X-12989Y204857D01*
X-10557Y205865D01*
X-8468Y207468D01*
X-6865Y209557D01*
X-5857Y211989D01*
X-5514Y214600D01*
X-5857Y217211D01*
X-6865Y219643D01*
X-8468Y221732D01*
X-10557Y223335D01*
X-12989Y224343D01*
X-15600Y224686D01*
X-18211Y224343D01*
X-20643Y223335D01*
X-22732Y221732D01*
X-24335Y219643D01*
X-25343Y217211D01*
X-25686Y214600D01*
X-25343Y211989D01*
X-24732Y210515D01*
X-28623Y206623D01*
X-29397Y205466D01*
X-29669Y204100D01*
Y191766D01*
X-29908Y191594D01*
X-30436Y191686D01*
X-31345Y192127D01*
X-32230Y194263D01*
X-33839Y196361D01*
X-35937Y197970D01*
X-38379Y198982D01*
X-39730Y199159D01*
Y189200D01*
X-41000D01*
Y187930D01*
X-50959D01*
X-50782Y186579D01*
X-49770Y184137D01*
X-49211Y183408D01*
X-49772Y182269D01*
X-57513D01*
X-58140Y183539D01*
X-57665Y184157D01*
X-56657Y186590D01*
X-56314Y189200D01*
X-56657Y191810D01*
X-57665Y194243D01*
X-59268Y196332D01*
X-61357Y197935D01*
X-63790Y198943D01*
X-66400Y199286D01*
X-69011Y198943D01*
X-71443Y197935D01*
X-72192Y197360D01*
X-73331Y197922D01*
Y202622D01*
X-70485Y205468D01*
X-69011Y204857D01*
X-66400Y204514D01*
X-63790Y204857D01*
X-61357Y205865D01*
X-59268Y207468D01*
X-57665Y209557D01*
X-56657Y211989D01*
X-56314Y214600D01*
X-56657Y217211D01*
X-57665Y219643D01*
X-59268Y221732D01*
X-61357Y223335D01*
X-63790Y224343D01*
X-66400Y224686D01*
X-69011Y224343D01*
X-71443Y223335D01*
X-73532Y221732D01*
X-75135Y219643D01*
X-76143Y217211D01*
X-76486Y214600D01*
X-76143Y211989D01*
X-75532Y210515D01*
X-79423Y206623D01*
X-80197Y205466D01*
X-80469Y204100D01*
Y189472D01*
X-81739Y189389D01*
X-82057Y191810D01*
X-83065Y194243D01*
X-84668Y196332D01*
X-86757Y197935D01*
X-89190Y198943D01*
X-91800Y199286D01*
X-94410Y198943D01*
X-96843Y197935D01*
X-97592Y197360D01*
X-98731Y197922D01*
Y202622D01*
X-95885Y205468D01*
X-94410Y204857D01*
X-91800Y204514D01*
X-89190Y204857D01*
X-86757Y205865D01*
X-84668Y207468D01*
X-83065Y209557D01*
X-82057Y211989D01*
X-81714Y214600D01*
X-82057Y217211D01*
X-83065Y219643D01*
X-84668Y221732D01*
X-86757Y223335D01*
X-89190Y224343D01*
X-91800Y224686D01*
X-94410Y224343D01*
X-96843Y223335D01*
X-98932Y221732D01*
X-100535Y219643D01*
X-101543Y217211D01*
X-101886Y214600D01*
X-101543Y211989D01*
X-100932Y210515D01*
X-104823Y206623D01*
X-105597Y205466D01*
X-105869Y204100D01*
Y189778D01*
X-105960Y189772D01*
Y188627D01*
X-105869Y188622D01*
Y172551D01*
X-130773Y147647D01*
X-131946Y148133D01*
Y154091D01*
X-125177Y160861D01*
X-124403Y162018D01*
X-124131Y163384D01*
Y180428D01*
X-122992Y180989D01*
X-122263Y180430D01*
X-119821Y179418D01*
X-118470Y179241D01*
Y189200D01*
Y199159D01*
X-119821Y198982D01*
X-122263Y197970D01*
X-122992Y197411D01*
X-124131Y197972D01*
Y205828D01*
X-122992Y206390D01*
X-122263Y205830D01*
X-119821Y204818D01*
X-118470Y204641D01*
Y214600D01*
Y224559D01*
X-119821Y224382D01*
X-122263Y223370D01*
X-122992Y222810D01*
X-124131Y223372D01*
Y231278D01*
X-122992Y231840D01*
X-122243Y231265D01*
X-119810Y230257D01*
X-117200Y229914D01*
X-114590Y230257D01*
X-112157Y231265D01*
X-110068Y232868D01*
X-108465Y234957D01*
X-107457Y237390D01*
X-107114Y240000D01*
X-107457Y242610D01*
X-108465Y245043D01*
X-109040Y245792D01*
X-108478Y246931D01*
X-100522D01*
X-99960Y245792D01*
X-100535Y245043D01*
X-101543Y242610D01*
X-101886Y240000D01*
X-101543Y237390D01*
X-100535Y234957D01*
X-98932Y232868D01*
X-96843Y231265D01*
X-94410Y230257D01*
X-91800Y229914D01*
X-89190Y230257D01*
X-86757Y231265D01*
X-84668Y232868D01*
X-83065Y234957D01*
X-82057Y237390D01*
X-81714Y240000D01*
X-82057Y242610D01*
X-83065Y245043D01*
X-83640Y245792D01*
X-83078Y246931D01*
X-75122D01*
X-74560Y245792D01*
X-75135Y245043D01*
X-76143Y242610D01*
X-76486Y240000D01*
X-76143Y237390D01*
X-75135Y234957D01*
X-73532Y232868D01*
X-71443Y231265D01*
X-69011Y230257D01*
X-66400Y229914D01*
X-63790Y230257D01*
X-61357Y231265D01*
X-59268Y232868D01*
X-57665Y234957D01*
X-56657Y237390D01*
X-56314Y240000D01*
X-56657Y242610D01*
X-57665Y245043D01*
X-58240Y245792D01*
X-57678Y246931D01*
X-49722D01*
X-49160Y245792D01*
X-49735Y245043D01*
X-50743Y242610D01*
X-51086Y240000D01*
X-50743Y237390D01*
X-49735Y234957D01*
X-48132Y232868D01*
X-46043Y231265D01*
X-43611Y230257D01*
X-41000Y229914D01*
X-38389Y230257D01*
X-35957Y231265D01*
X-33868Y232868D01*
X-32265Y234957D01*
X-31257Y237390D01*
X-31134Y238326D01*
X-29931Y238734D01*
X-28674Y237477D01*
X-27516Y236703D01*
X-26151Y236431D01*
X-24946D01*
X-24335Y234957D01*
X-22732Y232868D01*
X-20643Y231265D01*
X-18211Y230257D01*
X-15600Y229914D01*
X-12989Y230257D01*
X-10557Y231265D01*
X-8468Y232868D01*
X-6865Y234957D01*
X-5857Y237390D01*
X-5514Y240000D01*
X-5857Y242610D01*
X-6865Y245043D01*
X-7440Y245792D01*
X-6878Y246931D01*
X-2178D01*
X668Y244085D01*
X57Y242610D01*
X-286Y240000D01*
X57Y237390D01*
X1065Y234957D01*
X2668Y232868D01*
X4757Y231265D01*
X7189Y230257D01*
X9800Y229914D01*
X12411Y230257D01*
X14843Y231265D01*
X16932Y232868D01*
X18535Y234957D01*
X19543Y237390D01*
X19886Y240000D01*
X19543Y242610D01*
X18535Y245043D01*
X16932Y247132D01*
X14843Y248735D01*
X12411Y249743D01*
X9800Y250086D01*
X7189Y249743D01*
X5715Y249132D01*
X1823Y253023D01*
X666Y253797D01*
X-700Y254069D01*
X-15328D01*
X-15401Y255185D01*
X-15407Y255280D01*
X-15410Y255327D01*
X-15411Y255333D01*
X-14610Y255444D01*
X-14586Y255447D01*
X-14586D01*
X-12989Y255657D01*
X-10557Y256665D01*
X-8468Y258268D01*
X-6865Y260357D01*
X-5857Y262789D01*
X-5514Y265400D01*
X-5857Y268011D01*
X-6865Y270443D01*
X-8468Y272532D01*
X-10557Y274135D01*
X-12989Y275143D01*
X-15600Y275486D01*
X-18211Y275143D01*
X-20643Y274135D01*
X-22732Y272532D01*
X-24335Y270443D01*
X-25343Y268011D01*
X-25686Y265400D01*
X-25343Y262789D01*
X-24335Y260357D01*
X-22732Y258268D01*
X-20643Y256665D01*
X-18211Y255657D01*
X-16614Y255447D01*
D01*
X-16590Y255444D01*
X-15789Y255333D01*
X-15790Y255327D01*
X-15793Y255280D01*
X-15799Y255185D01*
X-15872Y254069D01*
X-29516D01*
X-32471Y257023D01*
X-33020Y257390D01*
X-33031Y257402D01*
X-33341Y258879D01*
X-33310Y258995D01*
X-32265Y260357D01*
X-31257Y262789D01*
X-30914Y265400D01*
X-31257Y268011D01*
X-32265Y270443D01*
X-33868Y272532D01*
X-35957Y274135D01*
X-38389Y275143D01*
X-41000Y275486D01*
X-43611Y275143D01*
X-46043Y274135D01*
X-48132Y272532D01*
X-49735Y270443D01*
X-50743Y268011D01*
X-51086Y265400D01*
X-50743Y262789D01*
X-49735Y260357D01*
X-48954Y259339D01*
X-49580Y258069D01*
X-57820D01*
X-58446Y259339D01*
X-57665Y260357D01*
X-56657Y262789D01*
X-56314Y265400D01*
X-56657Y268011D01*
X-57665Y270443D01*
X-59268Y272532D01*
X-61357Y274135D01*
X-63790Y275143D01*
X-66400Y275486D01*
X-69011Y275143D01*
X-71443Y274135D01*
X-73532Y272532D01*
X-75135Y270443D01*
X-76143Y268011D01*
X-76486Y265400D01*
X-76143Y262789D01*
X-75135Y260357D01*
X-74354Y259339D01*
X-74980Y258069D01*
X-83220D01*
X-83846Y259339D01*
X-83065Y260357D01*
X-82057Y262789D01*
X-81714Y265400D01*
X-82057Y268011D01*
X-83065Y270443D01*
X-84668Y272532D01*
X-86757Y274135D01*
X-89190Y275143D01*
X-91800Y275486D01*
X-94410Y275143D01*
X-96843Y274135D01*
X-98932Y272532D01*
X-100535Y270443D01*
X-101543Y268011D01*
X-101886Y265400D01*
X-101543Y262789D01*
X-100535Y260357D01*
X-99754Y259339D01*
X-100380Y258069D01*
X-108620D01*
X-109246Y259339D01*
X-108465Y260357D01*
X-107457Y262789D01*
X-107114Y265400D01*
X-107457Y268011D01*
X-108465Y270443D01*
X-110068Y272532D01*
X-112157Y274135D01*
X-114590Y275143D01*
X-117200Y275486D01*
X-119810Y275143D01*
X-122243Y274135D01*
X-124332Y272532D01*
X-125935Y270443D01*
X-126943Y268011D01*
X-127286Y265400D01*
X-126943Y262789D01*
X-125935Y260357D01*
X-124890Y258995D01*
X-124859Y258879D01*
X-125169Y257402D01*
X-125180Y257390D01*
X-125729Y257023D01*
X-134623Y248130D01*
X-134658Y248077D01*
X-136360Y247817D01*
X-137557Y248735D01*
X-139990Y249743D01*
X-142600Y250086D01*
X-145211Y249743D01*
X-147643Y248735D01*
X-149732Y247132D01*
X-151335Y245043D01*
X-152343Y242610D01*
X-152686Y240000D01*
X-152343Y237390D01*
X-151335Y234957D01*
X-149732Y232868D01*
X-147643Y231265D01*
X-145211Y230257D01*
X-142600Y229914D01*
X-139990Y230257D01*
X-137557Y231265D01*
X-136808Y231840D01*
X-135669Y231278D01*
Y223322D01*
X-136808Y222760D01*
X-137557Y223335D01*
X-139990Y224343D01*
X-142600Y224686D01*
X-145211Y224343D01*
X-147643Y223335D01*
X-149732Y221732D01*
X-151335Y219643D01*
X-152343Y217211D01*
X-152686Y214600D01*
X-152343Y211989D01*
X-151732Y210515D01*
X-156637Y205609D01*
X-157411Y204452D01*
X-157683Y203086D01*
Y193741D01*
X-158953Y193489D01*
X-159265Y194243D01*
X-160868Y196332D01*
X-162957Y197935D01*
X-165389Y198943D01*
X-168000Y199286D01*
X-170611Y198943D01*
X-173043Y197935D01*
X-174167Y197072D01*
X-175437Y197699D01*
Y202116D01*
X-172085Y205468D01*
X-170611Y204857D01*
X-168000Y204514D01*
X-165389Y204857D01*
X-162957Y205865D01*
X-160868Y207468D01*
X-159265Y209557D01*
X-158257Y211989D01*
X-157914Y214600D01*
X-158257Y217211D01*
X-159265Y219643D01*
X-160868Y221732D01*
X-162957Y223335D01*
X-165389Y224343D01*
X-168000Y224686D01*
X-170611Y224343D01*
X-173043Y223335D01*
X-175132Y221732D01*
X-176735Y219643D01*
X-177743Y217211D01*
X-178086Y214600D01*
X-177743Y211989D01*
X-177132Y210515D01*
X-181529Y206117D01*
X-182303Y204960D01*
X-182575Y203594D01*
Y192620D01*
X-183845Y192367D01*
X-184630Y194263D01*
X-186239Y196361D01*
X-188337Y197970D01*
X-190779Y198982D01*
X-192130Y199159D01*
Y189200D01*
Y179241D01*
X-190779Y179418D01*
X-188337Y180430D01*
X-186239Y182039D01*
X-184630Y184137D01*
X-183845Y186033D01*
X-182575Y185781D01*
Y115842D01*
X-186372Y112045D01*
X-187352Y112240D01*
X-189615Y111790D01*
X-191534Y110508D01*
X-192816Y108589D01*
X-193266Y106326D01*
X-192816Y104063D01*
X-191534Y102145D01*
X-189615Y100863D01*
X-187352Y100413D01*
X-185089Y100863D01*
X-183171Y102145D01*
X-181889Y104063D01*
X-181439Y106326D01*
X-181531Y106792D01*
X-179748Y108575D01*
X-178575Y108089D01*
Y67075D01*
X-179188Y66666D01*
X-180469Y64747D01*
X-180920Y62484D01*
X-180469Y60221D01*
X-179188Y58302D01*
X-177269Y57021D01*
X-175006Y56570D01*
X-172743Y57021D01*
X-170824Y58302D01*
X-169543Y60221D01*
X-169092Y62484D01*
X-169543Y64747D01*
X-170824Y66666D01*
X-171437Y67075D01*
Y178580D01*
X-170167Y179399D01*
X-168000Y179114D01*
X-165389Y179457D01*
X-164455Y179844D01*
X-163736Y178768D01*
X-164765Y177738D01*
X-165539Y176581D01*
X-165811Y175215D01*
Y117500D01*
X-165621Y116544D01*
Y111187D01*
X-166488Y110608D01*
X-167770Y108689D01*
X-168220Y106426D01*
X-167770Y104163D01*
X-166488Y102244D01*
X-164569Y100962D01*
X-162306Y100512D01*
X-160795Y100813D01*
X-159525Y99898D01*
Y68337D01*
X-159253Y66972D01*
X-158479Y65814D01*
X-155884Y63218D01*
X-156028Y62495D01*
X-155577Y60232D01*
X-154296Y58314D01*
X-152377Y57032D01*
X-150114Y56582D01*
X-147851Y57032D01*
X-145932Y58314D01*
X-145047Y59639D01*
X-143777Y59254D01*
Y56900D01*
X-151169Y49508D01*
X-151892Y49652D01*
X-154155Y49201D01*
X-156074Y47920D01*
X-157355Y46001D01*
X-157806Y43738D01*
X-157355Y41475D01*
X-156074Y39556D01*
X-154155Y38275D01*
X-151892Y37824D01*
X-151169Y37968D01*
X-148523Y35323D01*
X-147366Y34549D01*
X-146000Y34277D01*
X-127693D01*
X-126327Y34549D01*
X-125170Y35323D01*
X-118023Y42469D01*
X-84415D01*
X-75141Y33195D01*
X-75627Y32022D01*
X-227250D01*
X-251468Y56240D01*
X-250843Y57410D01*
X-249174Y57078D01*
X-246911Y57529D01*
X-244992Y58810D01*
X-243710Y60729D01*
X-243260Y62992D01*
X-243710Y65255D01*
X-244992Y67174D01*
X-246911Y68456D01*
X-249174Y68906D01*
X-249897Y68762D01*
X-251027Y69892D01*
Y90239D01*
X-251299Y91604D01*
X-252073Y92762D01*
X-259166Y99855D01*
X-258931Y101417D01*
X-257692Y102244D01*
X-256411Y104163D01*
X-255960Y106426D01*
X-256411Y108689D01*
X-257692Y110608D01*
X-259611Y111889D01*
X-260605Y112087D01*
Y164031D01*
X-260877Y165396D01*
X-261651Y166554D01*
X-273790Y178694D01*
X-273071Y179771D01*
X-272221Y179418D01*
X-270870Y179241D01*
Y189200D01*
Y199159D01*
X-272221Y198982D01*
X-274663Y197970D01*
X-276761Y196361D01*
X-278370Y194263D01*
X-279382Y191821D01*
X-279661Y189695D01*
X-280931Y189778D01*
Y204100D01*
X-281203Y205466D01*
X-281977Y206623D01*
X-285868Y210515D01*
X-285257Y211989D01*
X-284914Y214600D01*
X-285257Y217211D01*
X-286265Y219643D01*
X-286817Y220363D01*
X-286256Y221502D01*
X-283000D01*
X-281049Y221890D01*
X-279395Y222995D01*
X-272142Y230248D01*
X-269600Y229914D01*
X-266989Y230257D01*
X-264557Y231265D01*
X-262468Y232868D01*
X-260865Y234957D01*
X-259857Y237390D01*
X-259514Y240000D01*
X-259857Y242610D01*
X-260865Y245043D01*
X-261410Y245753D01*
X-260848Y246892D01*
X-252952D01*
X-252390Y245753D01*
X-252935Y245043D01*
X-253943Y242610D01*
X-254286Y240000D01*
X-253943Y237390D01*
X-252935Y234957D01*
X-251332Y232868D01*
X-249243Y231265D01*
X-246810Y230257D01*
X-244200Y229914D01*
X-241590Y230257D01*
X-239157Y231265D01*
X-237068Y232868D01*
X-235465Y234957D01*
X-234457Y237390D01*
X-234114Y240000D01*
X-234457Y242610D01*
X-235465Y245043D01*
X-236010Y245753D01*
X-235448Y246892D01*
X-233623D01*
X-228636Y241905D01*
X-228886Y240000D01*
X-228543Y237390D01*
X-227535Y234957D01*
X-225932Y232868D01*
X-223843Y231265D01*
X-221411Y230257D01*
X-218800Y229914D01*
X-216189Y230257D01*
X-213757Y231265D01*
X-211668Y232868D01*
X-210065Y234957D01*
X-209057Y237390D01*
X-208714Y240000D01*
X-209057Y242610D01*
X-210065Y245043D01*
X-211668Y247132D01*
X-213757Y248735D01*
X-216189Y249743D01*
X-218800Y250086D01*
X-220705Y249835D01*
X-227335Y256465D01*
X-229154Y257681D01*
X-231300Y258108D01*
X-235590D01*
X-236216Y259378D01*
X-235465Y260357D01*
X-234457Y262789D01*
X-234114Y265400D01*
X-234457Y268011D01*
X-235465Y270443D01*
X-237068Y272532D01*
X-239157Y274135D01*
X-241590Y275143D01*
X-244200Y275486D01*
X-246810Y275143D01*
X-249243Y274135D01*
X-251332Y272532D01*
X-252935Y270443D01*
X-253943Y268011D01*
X-254286Y265400D01*
X-253943Y262789D01*
X-252935Y260357D01*
X-252184Y259378D01*
X-252810Y258108D01*
X-260990D01*
X-261616Y259378D01*
X-260865Y260357D01*
X-259857Y262789D01*
X-259514Y265400D01*
X-259857Y268011D01*
X-260865Y270443D01*
X-262468Y272532D01*
X-264557Y274135D01*
X-266989Y275143D01*
X-269600Y275486D01*
X-272211Y275143D01*
X-274643Y274135D01*
X-276732Y272532D01*
X-278335Y270443D01*
X-279343Y268011D01*
X-279686Y265400D01*
X-279343Y262789D01*
X-278335Y260357D01*
X-277584Y259378D01*
X-278210Y258108D01*
X-286340D01*
X-286966Y259378D01*
X-286230Y260337D01*
X-285218Y262779D01*
X-285041Y264130D01*
X-304959D01*
X-304782Y262779D01*
X-303770Y260337D01*
X-303034Y259378D01*
X-303660Y258108D01*
X-311380D01*
X-313526Y257681D01*
X-315345Y256465D01*
X-330609Y241201D01*
X-331825Y239382D01*
X-332252Y237236D01*
Y188990D01*
X-332558Y187452D01*
X-332252Y185914D01*
Y185166D01*
X-331825Y183020D01*
X-330609Y181201D01*
X-288056Y138647D01*
Y97790D01*
X-287629Y95644D01*
X-286413Y93825D01*
X-274086Y81497D01*
Y54102D01*
X-273659Y51956D01*
X-272443Y50137D01*
X-237137Y14831D01*
X-235318Y13615D01*
X-233172Y13188D01*
X-178576D01*
X-177038Y12882D01*
X-175500Y13188D01*
X-85889D01*
X-75847Y3147D01*
X-74028Y1931D01*
X-71882Y1504D01*
X-61759D01*
X-20038Y-40216D01*
X-20524Y-41389D01*
X-27732D01*
X-56405Y-12717D01*
X-57562Y-11943D01*
X-58928Y-11671D01*
X-74479D01*
X-75077Y-10551D01*
X-74801Y-10137D01*
X-74350Y-7874D01*
X-74801Y-5611D01*
X-76082Y-3692D01*
X-78001Y-2411D01*
X-80264Y-1960D01*
X-82527Y-2411D01*
X-84446Y-3692D01*
X-85728Y-5611D01*
X-86178Y-7874D01*
X-85728Y-10137D01*
X-85451Y-10551D01*
X-86049Y-11671D01*
X-152973D01*
X-153552Y-10804D01*
X-155471Y-9523D01*
X-157734Y-9072D01*
X-159997Y-9523D01*
X-161916Y-10804D01*
X-162495Y-11671D01*
X-223247D01*
X-223656Y-11058D01*
X-225575Y-9776D01*
X-227838Y-9326D01*
X-230101Y-9776D01*
X-232020Y-11058D01*
X-233302Y-12977D01*
X-233752Y-15240D01*
X-233302Y-17503D01*
X-232020Y-19422D01*
X-230101Y-20703D01*
X-227838Y-21154D01*
X-225575Y-20703D01*
X-223656Y-19422D01*
X-223247Y-18809D01*
X-162155D01*
X-161916Y-19168D01*
X-159997Y-20450D01*
X-157734Y-20900D01*
X-155471Y-20450D01*
X-153552Y-19168D01*
X-153313Y-18809D01*
X-60406D01*
X-31733Y-47481D01*
X-30576Y-48255D01*
X-29210Y-48527D01*
X51234D01*
X51720Y-49700D01*
X36190Y-65231D01*
X36068Y-65206D01*
X33805Y-65656D01*
X31886Y-66938D01*
X30605Y-68857D01*
X30154Y-71120D01*
X30605Y-73383D01*
X31886Y-75302D01*
X33805Y-76583D01*
X36068Y-77034D01*
X38331Y-76583D01*
X40250Y-75302D01*
X41532Y-73383D01*
X41982Y-71120D01*
X41957Y-70998D01*
X58585Y-54370D01*
X76766D01*
X77151Y-55640D01*
X75828Y-56524D01*
X74546Y-58443D01*
X74096Y-60706D01*
X74546Y-62969D01*
X75828Y-64888D01*
X76441Y-65297D01*
Y-97112D01*
X13885Y-159668D01*
X12411Y-159057D01*
X9800Y-158714D01*
X7189Y-159057D01*
X6255Y-159444D01*
X5536Y-158368D01*
X24049Y-139854D01*
X24823Y-138696D01*
X25095Y-137331D01*
Y-112286D01*
X27978Y-109403D01*
X28698Y-109546D01*
X30961Y-109095D01*
X32880Y-107814D01*
X34162Y-105895D01*
X34612Y-103632D01*
X34162Y-101369D01*
X32880Y-99450D01*
X30961Y-98168D01*
X28698Y-97718D01*
X26435Y-98168D01*
X24516Y-99450D01*
X23235Y-101369D01*
X22784Y-103632D01*
X22845Y-103937D01*
X22365Y-104371D01*
X21095Y-103806D01*
Y-61364D01*
X21720Y-60429D01*
X22170Y-58166D01*
X21720Y-55903D01*
X20438Y-53984D01*
X18519Y-52702D01*
X16256Y-52252D01*
X13993Y-52702D01*
X12074Y-53984D01*
X10792Y-55903D01*
X10342Y-58166D01*
X10792Y-60429D01*
X12074Y-62348D01*
X13957Y-63606D01*
Y-134196D01*
X-11515Y-159668D01*
X-12989Y-159057D01*
X-15600Y-158714D01*
X-18211Y-159057D01*
X-20643Y-160065D01*
X-22732Y-161668D01*
X-24335Y-163757D01*
X-25343Y-166189D01*
X-25686Y-168800D01*
X-25343Y-171411D01*
X-24335Y-173843D01*
X-22732Y-175932D01*
X-20643Y-177535D01*
X-18211Y-178543D01*
X-17274Y-178666D01*
X-16866Y-179868D01*
X-18123Y-181126D01*
X-18897Y-182284D01*
X-19169Y-183649D01*
Y-184854D01*
X-20643Y-185465D01*
X-22732Y-187068D01*
X-24335Y-189157D01*
X-25343Y-191590D01*
X-25686Y-194200D01*
X-25343Y-196810D01*
X-24335Y-199243D01*
X-22732Y-201332D01*
X-20643Y-202935D01*
X-18211Y-203943D01*
X-15600Y-204286D01*
X-12989Y-203943D01*
X-10557Y-202935D01*
X-8468Y-201332D01*
X-6865Y-199243D01*
X-5857Y-196810D01*
X-5514Y-194200D01*
X-5857Y-191590D01*
X-6865Y-189157D01*
X-8468Y-187068D01*
X-10557Y-185465D01*
X-10782Y-185372D01*
X-11030Y-184126D01*
X-2577Y-175673D01*
X-1803Y-174515D01*
X-1531Y-173149D01*
Y-169072D01*
X-261Y-168989D01*
X57Y-171411D01*
X1065Y-173843D01*
X2668Y-175932D01*
X4757Y-177535D01*
X7189Y-178543D01*
X8126Y-178666D01*
X8534Y-179868D01*
X7277Y-181126D01*
X6503Y-182284D01*
X6231Y-183649D01*
Y-184854D01*
X4757Y-185465D01*
X2668Y-187068D01*
X1065Y-189157D01*
X57Y-191590D01*
X-286Y-194200D01*
X57Y-196810D01*
X1065Y-199243D01*
X2668Y-201332D01*
X4757Y-202935D01*
X7189Y-203943D01*
X9800Y-204286D01*
X12411Y-203943D01*
X14843Y-202935D01*
X16932Y-201332D01*
X18535Y-199243D01*
X19543Y-196810D01*
X19886Y-194200D01*
X19543Y-191590D01*
X18535Y-189157D01*
X16932Y-187068D01*
X14843Y-185465D01*
X14618Y-185372D01*
X14370Y-184126D01*
X22823Y-175673D01*
X23597Y-174515D01*
X23869Y-173149D01*
Y-169379D01*
X25139Y-169295D01*
X25418Y-171421D01*
X26430Y-173863D01*
X28039Y-175961D01*
X30137Y-177570D01*
X32579Y-178582D01*
X33930Y-178759D01*
Y-168800D01*
Y-158841D01*
X32579Y-159018D01*
X31729Y-159370D01*
X31010Y-158294D01*
X81087Y-108217D01*
X86171D01*
X86750Y-109084D01*
X88669Y-110365D01*
X90932Y-110816D01*
X93195Y-110365D01*
X95114Y-109084D01*
X96396Y-107165D01*
X96846Y-104902D01*
X96396Y-102639D01*
X95114Y-100720D01*
X93195Y-99438D01*
X90932Y-98988D01*
X88669Y-99438D01*
X86750Y-100720D01*
X86510Y-101079D01*
X83903D01*
X83445Y-100223D01*
X83336Y-99809D01*
X83579Y-98590D01*
Y-65297D01*
X84192Y-64888D01*
X85473Y-62969D01*
X85924Y-60706D01*
X85473Y-58443D01*
X84192Y-56524D01*
X82868Y-55640D01*
X83254Y-54370D01*
X100008D01*
X100393Y-55640D01*
X99450Y-56270D01*
X98168Y-58189D01*
X97718Y-60452D01*
X98168Y-62715D01*
X99450Y-64634D01*
X100063Y-65043D01*
Y-124290D01*
X64685Y-159668D01*
X63211Y-159057D01*
X60600Y-158714D01*
X57990Y-159057D01*
X55557Y-160065D01*
X53468Y-161668D01*
X51865Y-163757D01*
X50857Y-166189D01*
X50514Y-168800D01*
X50857Y-171411D01*
X51865Y-173843D01*
X53468Y-175932D01*
X55557Y-177535D01*
X57990Y-178543D01*
X58926Y-178666D01*
X59334Y-179868D01*
X58077Y-181126D01*
X57303Y-182284D01*
X57031Y-183649D01*
Y-184854D01*
X55557Y-185465D01*
X53468Y-187068D01*
X51865Y-189157D01*
X50857Y-191590D01*
X50514Y-194200D01*
X50857Y-196810D01*
X51865Y-199243D01*
X53468Y-201332D01*
X55557Y-202935D01*
X57990Y-203943D01*
X60600Y-204286D01*
X63211Y-203943D01*
X65643Y-202935D01*
X67732Y-201332D01*
X69335Y-199243D01*
X70343Y-196810D01*
X70686Y-194200D01*
X70343Y-191590D01*
X69335Y-189157D01*
X67732Y-187068D01*
X65643Y-185465D01*
X65418Y-185372D01*
X65170Y-184126D01*
X73623Y-175673D01*
X74397Y-174515D01*
X74669Y-173149D01*
Y-169072D01*
X75939Y-168989D01*
X76257Y-171411D01*
X77265Y-173843D01*
X78868Y-175932D01*
X80957Y-177535D01*
X83390Y-178543D01*
X84326Y-178666D01*
X84734Y-179868D01*
X83477Y-181126D01*
X82703Y-182284D01*
X82431Y-183649D01*
Y-184854D01*
X80957Y-185465D01*
X78868Y-187068D01*
X77265Y-189157D01*
X76257Y-191590D01*
X75914Y-194200D01*
X76257Y-196810D01*
X77265Y-199243D01*
X78868Y-201332D01*
X80957Y-202935D01*
X83390Y-203943D01*
X86000Y-204286D01*
X88610Y-203943D01*
X91043Y-202935D01*
X93132Y-201332D01*
X94735Y-199243D01*
X95743Y-196810D01*
X96086Y-194200D01*
X95743Y-191590D01*
X94735Y-189157D01*
X93132Y-187068D01*
X91043Y-185465D01*
X90818Y-185372D01*
X90570Y-184126D01*
X99023Y-175673D01*
X99797Y-174515D01*
X100069Y-173149D01*
Y-169379D01*
X101339Y-169295D01*
X101618Y-171421D01*
X102630Y-173863D01*
X104239Y-175961D01*
X106337Y-177570D01*
X108779Y-178582D01*
X110130Y-178759D01*
Y-168800D01*
Y-158841D01*
X108779Y-159018D01*
X108772Y-159021D01*
X108053Y-157944D01*
X134539Y-131458D01*
X135313Y-130300D01*
X135585Y-128935D01*
Y-114064D01*
X139273Y-110376D01*
X140208Y-110562D01*
X142471Y-110112D01*
X144390Y-108830D01*
X145672Y-106911D01*
X146122Y-104648D01*
X145672Y-102385D01*
X144390Y-100466D01*
X142471Y-99185D01*
X140208Y-98734D01*
X137945Y-99185D01*
X136026Y-100466D01*
X134745Y-102385D01*
X134294Y-104648D01*
X134396Y-105159D01*
X132758Y-106797D01*
X131585Y-106311D01*
Y-64609D01*
X132851Y-63763D01*
X134133Y-61844D01*
X134583Y-59581D01*
X134133Y-57318D01*
X133012Y-55640D01*
X133422Y-54370D01*
X149666D01*
X150051Y-55640D01*
X149488Y-56016D01*
X148207Y-57935D01*
X147756Y-60198D01*
X148207Y-62461D01*
X149488Y-64380D01*
X150101Y-64789D01*
Y-150452D01*
X140885Y-159668D01*
X139410Y-159057D01*
X136800Y-158714D01*
X134190Y-159057D01*
X131757Y-160065D01*
X129668Y-161668D01*
X128065Y-163757D01*
X127057Y-166189D01*
X126714Y-168800D01*
X127057Y-171411D01*
X128065Y-173843D01*
X129668Y-175932D01*
X131757Y-177535D01*
X134190Y-178543D01*
X135126Y-178666D01*
X135534Y-179868D01*
X134277Y-181126D01*
X133503Y-182284D01*
X133231Y-183649D01*
Y-184854D01*
X131757Y-185465D01*
X129668Y-187068D01*
X128065Y-189157D01*
X127057Y-191590D01*
X126714Y-194200D01*
X127057Y-196810D01*
X128065Y-199243D01*
X129668Y-201332D01*
X131757Y-202935D01*
X134190Y-203943D01*
X136800Y-204286D01*
X139410Y-203943D01*
X141843Y-202935D01*
X143932Y-201332D01*
X145535Y-199243D01*
X146543Y-196810D01*
X146886Y-194200D01*
X146543Y-191590D01*
X145535Y-189157D01*
X143932Y-187068D01*
X141843Y-185465D01*
X141618Y-185372D01*
X141370Y-184126D01*
X149823Y-175673D01*
X150597Y-174515D01*
X150869Y-173149D01*
Y-169072D01*
X152139Y-168989D01*
X152457Y-171411D01*
X153465Y-173843D01*
X155068Y-175932D01*
X157157Y-177535D01*
X159590Y-178543D01*
X160526Y-178666D01*
X160934Y-179868D01*
X159677Y-181126D01*
X158903Y-182284D01*
X158631Y-183649D01*
Y-184854D01*
X157157Y-185465D01*
X155068Y-187068D01*
X153465Y-189157D01*
X152457Y-191590D01*
X152114Y-194200D01*
X152457Y-196810D01*
X153465Y-199243D01*
X155068Y-201332D01*
X157157Y-202935D01*
X159590Y-203943D01*
X162200Y-204286D01*
X164811Y-203943D01*
X167243Y-202935D01*
X169332Y-201332D01*
X170935Y-199243D01*
X171943Y-196810D01*
X172286Y-194200D01*
X171943Y-191590D01*
X170935Y-189157D01*
X169332Y-187068D01*
X167243Y-185465D01*
X167018Y-185372D01*
X166770Y-184126D01*
X177021Y-173875D01*
X177292Y-173469D01*
X178725Y-173610D01*
X178830Y-173863D01*
X180439Y-175961D01*
X182537Y-177570D01*
X184979Y-178582D01*
X186330Y-178759D01*
Y-168800D01*
Y-158841D01*
X184979Y-159018D01*
X184129Y-159370D01*
X183410Y-158294D01*
X184577Y-157126D01*
X185351Y-155969D01*
X185623Y-154603D01*
Y-113302D01*
X189188Y-109737D01*
X190246Y-109947D01*
X192509Y-109497D01*
X194428Y-108215D01*
X195709Y-106296D01*
X196160Y-104033D01*
X195709Y-101770D01*
X194428Y-99852D01*
X192509Y-98570D01*
X190246Y-98120D01*
X187983Y-98570D01*
X186064Y-99852D01*
X184783Y-101770D01*
X184332Y-104033D01*
X184410Y-104422D01*
X182796Y-106035D01*
X181623Y-105549D01*
Y-64027D01*
X182236Y-63618D01*
X183517Y-61699D01*
X183968Y-59436D01*
X183517Y-57173D01*
X182493Y-55640D01*
X183024Y-54370D01*
X197241D01*
X197920Y-55640D01*
X197335Y-56517D01*
X196884Y-58780D01*
X197335Y-61043D01*
X198617Y-62962D01*
X198869Y-63131D01*
Y-158238D01*
X199141Y-159604D01*
X199915Y-160761D01*
X203868Y-164715D01*
X203257Y-166189D01*
X202914Y-168800D01*
X203257Y-171411D01*
X204265Y-173843D01*
X205868Y-175932D01*
X207957Y-177535D01*
X210389Y-178543D01*
X213000Y-178886D01*
X215611Y-178543D01*
X218043Y-177535D01*
X218792Y-176960D01*
X219931Y-177522D01*
Y-182222D01*
X217085Y-185068D01*
X215611Y-184457D01*
X213000Y-184114D01*
X210389Y-184457D01*
X207957Y-185465D01*
X205868Y-187068D01*
X204265Y-189157D01*
X203257Y-191590D01*
X202914Y-194200D01*
X203257Y-196810D01*
X204265Y-199243D01*
X205868Y-201332D01*
X207957Y-202935D01*
X210389Y-203943D01*
X213000Y-204286D01*
X215611Y-203943D01*
X218043Y-202935D01*
X220132Y-201332D01*
X221735Y-199243D01*
X222743Y-196810D01*
X223086Y-194200D01*
X222743Y-191590D01*
X222132Y-190115D01*
X226023Y-186223D01*
X226797Y-185066D01*
X227069Y-183700D01*
Y-169072D01*
X228339Y-168989D01*
X228657Y-171411D01*
X229665Y-173843D01*
X231268Y-175932D01*
X233357Y-177535D01*
X235790Y-178543D01*
X238400Y-178886D01*
X241010Y-178543D01*
X243443Y-177535D01*
X244192Y-176960D01*
X245331Y-177522D01*
Y-182222D01*
X242485Y-185068D01*
X241010Y-184457D01*
X238400Y-184114D01*
X235790Y-184457D01*
X233357Y-185465D01*
X231268Y-187068D01*
X229665Y-189157D01*
X228657Y-191590D01*
X228314Y-194200D01*
X228657Y-196810D01*
X229665Y-199243D01*
X231268Y-201332D01*
X233357Y-202935D01*
X235790Y-203943D01*
X238400Y-204286D01*
X241010Y-203943D01*
X243443Y-202935D01*
X245532Y-201332D01*
X247135Y-199243D01*
X248143Y-196810D01*
X248486Y-194200D01*
X248143Y-191590D01*
X247532Y-190115D01*
X251423Y-186223D01*
X252197Y-185066D01*
X252469Y-183700D01*
Y-169379D01*
X252560Y-169373D01*
Y-168228D01*
X252469Y-168221D01*
Y-164451D01*
X252197Y-163085D01*
X251423Y-161927D01*
X245273Y-155777D01*
X244115Y-155003D01*
X242749Y-154731D01*
X240042D01*
X235153Y-149842D01*
Y-112984D01*
X238788Y-109349D01*
X239776Y-109546D01*
X242039Y-109095D01*
X243958Y-107814D01*
X245240Y-105895D01*
X245690Y-103632D01*
X245240Y-101369D01*
X243958Y-99450D01*
X242039Y-98168D01*
X239776Y-97718D01*
X237513Y-98168D01*
X235594Y-99450D01*
X234312Y-101369D01*
X233862Y-103632D01*
X233953Y-104090D01*
X232326Y-105717D01*
X231153Y-105231D01*
Y-64027D01*
X231766Y-63618D01*
X233048Y-61699D01*
X233498Y-59436D01*
X233048Y-57173D01*
X232024Y-55640D01*
X232554Y-54370D01*
X247632D01*
X247952Y-55640D01*
X246758Y-57427D01*
X246308Y-59690D01*
X246758Y-61953D01*
X248040Y-63872D01*
X248653Y-64281D01*
Y-77216D01*
X248925Y-78582D01*
X249699Y-79739D01*
X266428Y-96469D01*
X265803Y-97640D01*
X264922Y-97464D01*
X262659Y-97914D01*
X260740Y-99196D01*
X259459Y-101115D01*
X259008Y-103378D01*
X259459Y-105641D01*
X260740Y-107560D01*
X262659Y-108841D01*
X264922Y-109292D01*
X267185Y-108841D01*
X269104Y-107560D01*
X269513Y-106947D01*
X271249D01*
X281631Y-117329D01*
Y-156473D01*
X276177Y-161927D01*
X275403Y-163085D01*
X275131Y-164451D01*
Y-168221D01*
X275040Y-168228D01*
Y-169373D01*
X275131Y-169379D01*
Y-183700D01*
X275403Y-185066D01*
X276177Y-186223D01*
X280068Y-190115D01*
X279457Y-191590D01*
X279114Y-194200D01*
X279457Y-196810D01*
X280465Y-199243D01*
X282068Y-201332D01*
X284157Y-202935D01*
X286590Y-203943D01*
X289200Y-204286D01*
X291810Y-203943D01*
X294243Y-202935D01*
X296332Y-201332D01*
X297935Y-199243D01*
X298943Y-196810D01*
X299286Y-194200D01*
X298943Y-191590D01*
X297935Y-189157D01*
X296332Y-187068D01*
X294243Y-185465D01*
X291810Y-184457D01*
X289200Y-184114D01*
X286590Y-184457D01*
X285115Y-185068D01*
X282269Y-182222D01*
Y-177522D01*
X283408Y-176960D01*
X284157Y-177535D01*
X286590Y-178543D01*
X289200Y-178886D01*
X291810Y-178543D01*
X294243Y-177535D01*
X296332Y-175932D01*
X297935Y-173843D01*
X298943Y-171411D01*
X299286Y-168800D01*
X298943Y-166189D01*
X297935Y-163757D01*
X296495Y-161881D01*
X297375Y-160941D01*
X297711Y-161166D01*
X299974Y-161616D01*
X302237Y-161166D01*
X304156Y-159884D01*
X305438Y-157965D01*
X305888Y-155702D01*
X305438Y-153439D01*
X304156Y-151520D01*
X302237Y-150239D01*
X299974Y-149788D01*
X299733Y-149590D01*
Y-107207D01*
X300346Y-106798D01*
X301628Y-104879D01*
X302078Y-102616D01*
X301628Y-100353D01*
X300346Y-98434D01*
X298427Y-97153D01*
X296164Y-96702D01*
X293901Y-97153D01*
X291982Y-98434D01*
X290700Y-100353D01*
X290250Y-102616D01*
X290700Y-104879D01*
X291982Y-106798D01*
X292595Y-107207D01*
Y-110747D01*
X291325Y-111273D01*
X255791Y-75738D01*
Y-64281D01*
X256404Y-63872D01*
X257686Y-61953D01*
X258136Y-59690D01*
X257686Y-57427D01*
X256492Y-55640D01*
X256812Y-54370D01*
X310781D01*
X310781Y-54370D01*
X312082Y-54111D01*
X312341Y-54060D01*
X313664Y-53176D01*
X319181Y-47660D01*
X319464Y-47849D01*
X321183Y-48191D01*
X324993D01*
X326458Y-47900D01*
X334518D01*
X334985Y-47807D01*
X335452Y-47722D01*
X335471Y-47710D01*
X335493Y-47705D01*
X335888Y-47442D01*
X336288Y-47184D01*
X337047Y-47171D01*
X337636Y-47470D01*
X337988Y-47705D01*
X337998Y-47708D01*
X338008Y-47714D01*
X338486Y-47805D01*
X338963Y-47900D01*
X340038D01*
X341503Y-48191D01*
X345313D01*
X347032Y-47849D01*
X347107Y-47799D01*
X347916Y-48785D01*
X346825Y-49877D01*
X345313Y-49576D01*
X341503D01*
X340038Y-49867D01*
X338963D01*
X338486Y-49962D01*
X338008Y-50053D01*
X337998Y-50059D01*
X337988Y-50061D01*
X337636Y-50297D01*
X337047Y-50596D01*
X336288Y-50583D01*
X335888Y-50325D01*
X335493Y-50061D01*
X335471Y-50057D01*
X335452Y-50045D01*
X334985Y-49960D01*
X334518Y-49867D01*
X326458D01*
X324993Y-49576D01*
X321183D01*
X319464Y-49918D01*
X318007Y-50892D01*
X317034Y-52349D01*
X316692Y-54067D01*
Y-65497D01*
X317034Y-67216D01*
X318007Y-68673D01*
X319010Y-69343D01*
Y-72020D01*
X318007Y-72689D01*
X317034Y-74146D01*
X316692Y-75865D01*
Y-77502D01*
X297896D01*
X297896Y-77502D01*
X296594Y-77761D01*
X296335Y-77812D01*
X295012Y-78696D01*
X285872Y-87837D01*
X285750Y-87812D01*
X283487Y-88263D01*
X281568Y-89544D01*
X280287Y-91463D01*
X279836Y-93726D01*
X280287Y-95989D01*
X281568Y-97908D01*
X283487Y-99190D01*
X285750Y-99640D01*
X288013Y-99190D01*
X289932Y-97908D01*
X291213Y-95989D01*
X291664Y-93726D01*
X291639Y-93604D01*
X299585Y-85659D01*
X316692D01*
Y-87295D01*
X317034Y-89014D01*
X318007Y-90471D01*
X319010Y-91141D01*
Y-93817D01*
X318007Y-94487D01*
X317034Y-95944D01*
X316692Y-97663D01*
Y-109093D01*
X317034Y-110812D01*
X318007Y-112269D01*
X319464Y-113242D01*
X321183Y-113584D01*
X324993D01*
X326458Y-113293D01*
X334518D01*
X334985Y-113200D01*
X335452Y-113116D01*
X335471Y-113103D01*
X335493Y-113099D01*
X335888Y-112835D01*
X336288Y-112578D01*
X337047Y-112564D01*
X337636Y-112864D01*
X337988Y-113099D01*
X337998Y-113101D01*
X338008Y-113107D01*
X338486Y-113198D01*
X338963Y-113293D01*
X340038D01*
X341503Y-113584D01*
X345313D01*
X347032Y-113242D01*
X348489Y-112269D01*
X349462Y-110812D01*
X349804Y-109093D01*
Y-104372D01*
X350162Y-104060D01*
X351074Y-103563D01*
X353060Y-103958D01*
X355323Y-103507D01*
X357242Y-102226D01*
X358523Y-100307D01*
X358974Y-98044D01*
X358523Y-95781D01*
X357242Y-93862D01*
X355323Y-92580D01*
X353060Y-92130D01*
X350797Y-92580D01*
X349487Y-93456D01*
X348742D01*
X347357Y-93731D01*
X347032Y-93514D01*
X345313Y-93172D01*
X341503D01*
X340038Y-93463D01*
X338963D01*
X338486Y-93558D01*
X338008Y-93649D01*
X337998Y-93655D01*
X337988Y-93657D01*
X337636Y-93892D01*
X337047Y-94192D01*
X336288Y-94178D01*
X335888Y-93921D01*
X335493Y-93657D01*
X335471Y-93653D01*
X335452Y-93640D01*
X334985Y-93556D01*
X334518Y-93463D01*
X327166D01*
Y-91495D01*
X334518D01*
X334985Y-91402D01*
X335452Y-91318D01*
X335471Y-91306D01*
X335493Y-91301D01*
X335888Y-91037D01*
X336288Y-90780D01*
X337047Y-90766D01*
X337636Y-91066D01*
X337988Y-91301D01*
X337998Y-91303D01*
X338008Y-91309D01*
X338486Y-91400D01*
X338963Y-91495D01*
X340038D01*
X341503Y-91786D01*
X345313D01*
X347032Y-91445D01*
X348489Y-90471D01*
X349462Y-89014D01*
X349804Y-87295D01*
Y-84125D01*
X357980Y-75950D01*
X358625Y-75821D01*
X360544Y-74540D01*
X361825Y-72621D01*
X362276Y-70358D01*
X361825Y-68095D01*
X360544Y-66176D01*
X358625Y-64894D01*
X356362Y-64444D01*
X354099Y-64894D01*
X352180Y-66176D01*
X350899Y-68095D01*
X350770Y-68740D01*
X347489Y-72021D01*
X347032Y-71716D01*
X345313Y-71374D01*
X341503D01*
X340038Y-71665D01*
X338963D01*
X338486Y-71760D01*
X338008Y-71851D01*
X337998Y-71857D01*
X337988Y-71859D01*
X337636Y-72094D01*
X337047Y-72394D01*
X336288Y-72380D01*
X335888Y-72123D01*
X335493Y-71859D01*
X335471Y-71855D01*
X335452Y-71842D01*
X334985Y-71758D01*
X334518Y-71665D01*
X327166D01*
Y-69697D01*
X334518D01*
X334985Y-69605D01*
X335452Y-69520D01*
X335471Y-69508D01*
X335493Y-69503D01*
X335888Y-69240D01*
X336288Y-68982D01*
X337047Y-68969D01*
X337636Y-69268D01*
X337988Y-69503D01*
X337998Y-69506D01*
X338008Y-69512D01*
X338486Y-69602D01*
X338963Y-69697D01*
X340038D01*
X341503Y-69989D01*
X345313D01*
X347032Y-69647D01*
X348489Y-68673D01*
X349462Y-67216D01*
X349804Y-65497D01*
Y-59875D01*
X366952Y-42727D01*
X367020Y-42625D01*
X368290Y-43010D01*
X368329Y-135629D01*
X367856Y-146467D01*
X366451Y-157140D01*
X364120Y-167650D01*
X360883Y-177918D01*
X356764Y-187863D01*
X351793Y-197412D01*
X346009Y-206492D01*
X339455Y-215033D01*
X332182Y-222969D01*
X324245Y-230242D01*
X315704Y-236796D01*
X306625Y-242580D01*
X297076Y-247551D01*
X287130Y-251670D01*
X276863Y-254908D01*
X266353Y-257238D01*
X255680Y-258643D01*
X245409Y-259091D01*
X244925Y-258995D01*
X244924Y-258995D01*
X244924Y-258995D01*
X-237524Y-259067D01*
X-344678D01*
X-344747Y-259081D01*
X-346976Y-258787D01*
X-349118Y-257900D01*
X-350956Y-256489D01*
X-352367Y-254650D01*
X-353254Y-252509D01*
X-353548Y-250280D01*
X-353534Y-250211D01*
Y-118618D01*
X-353548Y-118549D01*
X-353254Y-116320D01*
X-352367Y-114178D01*
X-350956Y-112340D01*
X-349118Y-110929D01*
X-346976Y-110042D01*
X-344747Y-109748D01*
X-344678Y-109762D01*
X-294640D01*
Y-109768D01*
X-291411Y-109450D01*
X-288307Y-108508D01*
X-285445Y-106979D01*
X-282938Y-104920D01*
X-280879Y-102413D01*
X-279350Y-99551D01*
X-278408Y-96447D01*
X-278090Y-93218D01*
X-278096D01*
Y70104D01*
X-278090D01*
X-278408Y73333D01*
X-279350Y76437D01*
X-280879Y79299D01*
X-282938Y81806D01*
X-285445Y83865D01*
X-288307Y85394D01*
X-291411Y86336D01*
X-294640Y86654D01*
Y86648D01*
X-344678D01*
X-344747Y86634D01*
X-346976Y86928D01*
X-349118Y87815D01*
X-350956Y89226D01*
X-352367Y91065D01*
X-353254Y93206D01*
X-353548Y95435D01*
X-353534Y95504D01*
Y270844D01*
X-353548Y270913D01*
X-353254Y273142D01*
X-352367Y275283D01*
X-350956Y277122D01*
X-349118Y278533D01*
X-346976Y279420D01*
X-344747Y279713D01*
X-344678Y279700D01*
X-269568D01*
X-269568Y279700D01*
X-269568Y279700D01*
X244841Y279792D01*
X255680Y279319D01*
D02*
G37*
G36*
X-305040Y241270D02*
X-295000D01*
Y238730D01*
X-305040D01*
Y229960D01*
X-305040Y229960D01*
X-305040D01*
X-305022Y228758D01*
X-310605Y223175D01*
X-311710Y221521D01*
X-312098Y219571D01*
Y180210D01*
X-313271Y179724D01*
X-320775Y187228D01*
X-320730Y187452D01*
X-321036Y188990D01*
Y234913D01*
X-309057Y246892D01*
X-305040D01*
Y241270D01*
D02*
G37*
G36*
X-135669Y180478D02*
Y166119D01*
X-142038Y159749D01*
X-142812Y158592D01*
X-143083Y157226D01*
Y128986D01*
X-152065Y120004D01*
X-152189Y119819D01*
X-152564Y119691D01*
X-153773Y119734D01*
X-154673Y120634D01*
Y172080D01*
X-146685Y180068D01*
X-145211Y179457D01*
X-142600Y179114D01*
X-139990Y179457D01*
X-137557Y180465D01*
X-136808Y181040D01*
X-135669Y180478D01*
D02*
G37*
G36*
X344678Y129032D02*
X338963D01*
X331470Y136398D01*
X338963Y143764D01*
X344678D01*
Y129032D01*
D02*
G37*
G36*
X327406Y136398D02*
X334518Y129032D01*
X321818D01*
Y143764D01*
X334518D01*
X327406Y136398D01*
D02*
G37*
G36*
X-20643Y180465D02*
X-18211Y179457D01*
X-15600Y179114D01*
X-12989Y179457D01*
X-12055Y179844D01*
X-11336Y178768D01*
X-19985Y170118D01*
X-20759Y168960D01*
X-21031Y167595D01*
Y116350D01*
X-24973Y112408D01*
X-25908Y112594D01*
X-28171Y112143D01*
X-30090Y110862D01*
X-31372Y108943D01*
X-31822Y106680D01*
X-31372Y104417D01*
X-30090Y102498D01*
X-28171Y101216D01*
X-25908Y100766D01*
X-23645Y101216D01*
X-21726Y102498D01*
X-20445Y104417D01*
X-19994Y106680D01*
X-20096Y107191D01*
X-18204Y109083D01*
X-17031Y108597D01*
Y67837D01*
X-17644Y67428D01*
X-18925Y65509D01*
X-19376Y63246D01*
X-18925Y60983D01*
X-17644Y59064D01*
X-16701Y58434D01*
X-17086Y57164D01*
X-25997D01*
X-49770Y80937D01*
Y104207D01*
X-49666Y104276D01*
X-48384Y106195D01*
X-47934Y108458D01*
X-48384Y110721D01*
X-49666Y112640D01*
X-51585Y113921D01*
X-53848Y114372D01*
X-56111Y113921D01*
X-57899Y112726D01*
X-59169Y113046D01*
Y130348D01*
X-56786Y132732D01*
X-56012Y133889D01*
X-55740Y135255D01*
Y158096D01*
X-55127Y158505D01*
X-53846Y160424D01*
X-53395Y162687D01*
X-53846Y164950D01*
X-55127Y166869D01*
X-56811Y167994D01*
X-57220Y169381D01*
X-55470Y171131D01*
X-34994D01*
X-33628Y171403D01*
X-32471Y172177D01*
X-22646Y182002D01*
X-20643Y180465D01*
D02*
G37*
G36*
X344678Y107234D02*
X338963D01*
X331470Y114600D01*
X338963Y121966D01*
X344678D01*
Y107234D01*
D02*
G37*
G36*
X327406Y114600D02*
X334518Y107234D01*
X321818D01*
Y121966D01*
X334518D01*
X327406Y114600D01*
D02*
G37*
G36*
X319117Y146030D02*
X318007Y145289D01*
X317034Y143832D01*
X316692Y142113D01*
Y130683D01*
X317034Y128964D01*
X318007Y127507D01*
X319010Y126837D01*
Y124161D01*
X318007Y123491D01*
X317034Y122034D01*
X316692Y120315D01*
Y108885D01*
X317034Y107166D01*
X318007Y105709D01*
X319010Y105039D01*
Y102363D01*
X318007Y101693D01*
X317034Y100236D01*
X316692Y98517D01*
Y94502D01*
X175954D01*
X175886Y94606D01*
X173967Y95887D01*
X173693Y95942D01*
X173324Y97157D01*
X174262Y98095D01*
X201664D01*
X203030Y98367D01*
X204187Y99141D01*
X219997Y114950D01*
X221167Y114324D01*
X220960Y113284D01*
Y111012D01*
X220654Y109474D01*
X221105Y107211D01*
X222386Y105292D01*
X224305Y104010D01*
X226568Y103560D01*
X228831Y104010D01*
X230750Y105292D01*
X232031Y107211D01*
X232482Y109474D01*
X232184Y110970D01*
X268515Y147300D01*
X318732D01*
X319117Y146030D01*
D02*
G37*
G36*
X359120Y105752D02*
Y75592D01*
X349804D01*
Y76719D01*
X349462Y78438D01*
X348489Y79895D01*
X347032Y80869D01*
X345313Y81211D01*
X341503D01*
X340038Y80919D01*
X338963D01*
X338486Y80824D01*
X338008Y80734D01*
X337998Y80728D01*
X337988Y80725D01*
X337636Y80490D01*
X337047Y80190D01*
X336288Y80204D01*
X335888Y80461D01*
X335493Y80725D01*
X335471Y80730D01*
X335452Y80742D01*
X334985Y80827D01*
X334518Y80919D01*
X326458D01*
X324993Y81211D01*
X321183D01*
X319464Y80869D01*
X318007Y79895D01*
X317034Y78438D01*
X316692Y76719D01*
Y75083D01*
X201052D01*
X199492Y74772D01*
X198169Y73888D01*
X181445Y57164D01*
X163390D01*
X163004Y58434D01*
X163947Y59064D01*
X165229Y60983D01*
X165679Y63246D01*
X165229Y65509D01*
X163947Y67428D01*
X163335Y67837D01*
Y87168D01*
X164971Y88804D01*
X166186Y88435D01*
X166241Y88161D01*
X167522Y86242D01*
X169441Y84960D01*
X171704Y84510D01*
X173967Y84960D01*
X175886Y86242D01*
X175954Y86346D01*
X316839D01*
X317034Y85368D01*
X318007Y83911D01*
X319464Y82938D01*
X321183Y82596D01*
X324993D01*
X326458Y82887D01*
X334518D01*
X334985Y82980D01*
X335452Y83064D01*
X335471Y83077D01*
X335493Y83081D01*
X335888Y83345D01*
X336288Y83602D01*
X337047Y83616D01*
X337636Y83316D01*
X337988Y83081D01*
X337998Y83079D01*
X338008Y83073D01*
X338486Y82982D01*
X338963Y82887D01*
X340038D01*
X341503Y82596D01*
X345313D01*
X347032Y82938D01*
X348489Y83911D01*
X349462Y85368D01*
X349730Y86713D01*
X350590Y86542D01*
X352853Y86993D01*
X354771Y88274D01*
X356053Y90193D01*
X356503Y92456D01*
X356053Y94719D01*
X354771Y96638D01*
X352853Y97920D01*
X350590Y98370D01*
X350102Y98273D01*
X349804Y98517D01*
X349462Y100236D01*
X348489Y101693D01*
X347032Y102667D01*
X345313Y103008D01*
X341503D01*
X340038Y102717D01*
X338963D01*
X338486Y102622D01*
X338008Y102531D01*
X337998Y102525D01*
X337988Y102523D01*
X337636Y102288D01*
X337047Y101988D01*
X336288Y102002D01*
X335888Y102259D01*
X335493Y102523D01*
X335471Y102528D01*
X335452Y102540D01*
X334985Y102624D01*
X334518Y102717D01*
X327166D01*
Y104685D01*
X334518D01*
X334985Y104778D01*
X335452Y104862D01*
X335471Y104875D01*
X335493Y104879D01*
X335888Y105143D01*
X336288Y105400D01*
X337047Y105414D01*
X337636Y105114D01*
X337988Y104879D01*
X337998Y104877D01*
X338008Y104871D01*
X338486Y104780D01*
X338963Y104685D01*
X340038D01*
X341503Y104394D01*
X345313D01*
X347032Y104736D01*
X347217Y104860D01*
X348116Y103514D01*
X350035Y102233D01*
X352298Y101782D01*
X354561Y102233D01*
X356480Y103514D01*
X357761Y105433D01*
X357850Y105877D01*
X359120Y105752D01*
D02*
G37*
G36*
X344678Y85436D02*
X338963D01*
X331470Y92802D01*
X338963Y100168D01*
X344678D01*
Y85436D01*
D02*
G37*
G36*
X327406Y92802D02*
X334518Y85436D01*
X321818D01*
Y100168D01*
X334518D01*
X327406Y92802D01*
D02*
G37*
G36*
X344678Y63638D02*
X338963D01*
X331470Y71004D01*
X338963Y78370D01*
X344678D01*
Y63638D01*
D02*
G37*
G36*
X327406Y71004D02*
X334518Y63638D01*
X321818D01*
Y78370D01*
X334518D01*
X327406Y71004D01*
D02*
G37*
G36*
X316692Y65289D02*
X317034Y63571D01*
X318007Y62113D01*
X319010Y61444D01*
Y58767D01*
X318007Y58097D01*
X317034Y56640D01*
X316692Y54922D01*
Y43492D01*
X317034Y41773D01*
X318007Y40316D01*
X319010Y39646D01*
Y36969D01*
X318007Y36300D01*
X317034Y34843D01*
X316692Y33124D01*
Y21694D01*
X316621Y21608D01*
X291084D01*
X289457Y21284D01*
X289133Y21220D01*
X287479Y20115D01*
X269312Y1948D01*
X246340D01*
Y5954D01*
X246340D01*
Y6898D01*
X246340D01*
Y25106D01*
X232163D01*
X224987Y32281D01*
X223829Y33055D01*
X222464Y33327D01*
X187431D01*
X187022Y33940D01*
X185103Y35222D01*
X182840Y35672D01*
X180577Y35222D01*
X179734Y34658D01*
X166558Y47834D01*
X167044Y49008D01*
X183134D01*
X183134Y49008D01*
X184436Y49267D01*
X184695Y49318D01*
X186018Y50202D01*
X202742Y66926D01*
X316692D01*
Y65289D01*
D02*
G37*
G36*
X344678Y41841D02*
X338963D01*
X331470Y49207D01*
X338963Y56573D01*
X344678D01*
Y41841D01*
D02*
G37*
G36*
X327406Y49207D02*
X334518Y41841D01*
X321818D01*
Y56573D01*
X334518D01*
X327406Y49207D01*
D02*
G37*
G36*
X344678Y20043D02*
X338963D01*
X331470Y27409D01*
X338963Y34775D01*
X344678D01*
Y20043D01*
D02*
G37*
G36*
X327406Y27409D02*
X334518Y20043D01*
X321818D01*
Y34775D01*
X334518D01*
X327406Y27409D01*
D02*
G37*
G36*
X147095Y37719D02*
X146804Y36258D01*
X147254Y33995D01*
X148536Y32076D01*
X150455Y30794D01*
X152718Y30344D01*
X153441Y30488D01*
X169998Y13931D01*
X169854Y13208D01*
X170305Y10945D01*
X171586Y9026D01*
X173505Y7745D01*
X175768Y7294D01*
X178031Y7745D01*
X179950Y9026D01*
X181231Y10945D01*
X181682Y13208D01*
X181231Y15471D01*
X179950Y17390D01*
X178031Y18671D01*
X175768Y19122D01*
X175045Y18978D01*
X158488Y35535D01*
X158632Y36258D01*
X158474Y37051D01*
X159393Y38257D01*
X160322Y38320D01*
X177907Y20735D01*
X179065Y19961D01*
X180430Y19689D01*
X184495D01*
X184904Y19076D01*
X186823Y17795D01*
X189086Y17344D01*
X191349Y17795D01*
X193268Y19076D01*
X193677Y19689D01*
X201123D01*
Y6898D01*
X201123D01*
Y5954D01*
X201123D01*
Y1948D01*
X174680D01*
X157021Y19607D01*
X155367Y20712D01*
X153416Y21100D01*
X83611D01*
Y25106D01*
X63371D01*
Y21100D01*
X58634D01*
Y25106D01*
X38394D01*
Y20522D01*
X-15452D01*
X-16260Y21649D01*
X-15919Y22594D01*
X-15583Y22661D01*
X-14425Y23435D01*
X-10735Y27125D01*
X-9961Y28283D01*
X-9689Y29648D01*
Y32970D01*
X-3670Y38989D01*
X146156D01*
X147095Y37719D01*
D02*
G37*
G36*
X344678Y-1755D02*
X338963D01*
X331470Y5611D01*
X338963Y12977D01*
X344678D01*
Y-1755D01*
D02*
G37*
G36*
X327406Y5611D02*
X334518Y-1755D01*
X321818D01*
Y12977D01*
X334518D01*
X327406Y5611D01*
D02*
G37*
G36*
X316692Y11326D02*
Y-104D01*
X317034Y-1823D01*
X318007Y-3280D01*
X319010Y-3950D01*
Y-6626D01*
X318007Y-7296D01*
X317034Y-8753D01*
X316692Y-10472D01*
Y-21902D01*
X317034Y-23621D01*
X318007Y-25078D01*
X319010Y-25747D01*
Y-28424D01*
X318007Y-29094D01*
X317034Y-30551D01*
X316692Y-32270D01*
Y-38613D01*
X309091Y-46214D01*
X171058D01*
X170572Y-45040D01*
X181593Y-34019D01*
X182367Y-32862D01*
X182639Y-31496D01*
Y-21844D01*
X182367Y-20478D01*
X181593Y-19321D01*
X171629Y-9356D01*
X172254Y-8186D01*
X172568Y-8248D01*
X201123D01*
Y-12254D01*
X221363D01*
Y-8248D01*
X226100D01*
Y-12254D01*
X246340D01*
Y-8248D01*
X271424D01*
X273375Y-7860D01*
X275029Y-6755D01*
X293195Y11412D01*
X316621D01*
X316692Y11326D01*
D02*
G37*
G36*
X38394Y6898D02*
X38394D01*
Y5954D01*
X38394D01*
Y-12254D01*
X52571D01*
X55423Y-15106D01*
Y-15915D01*
X53253Y-18085D01*
X25546D01*
X25264Y-17662D01*
X23345Y-16380D01*
X21082Y-15930D01*
X18819Y-16380D01*
X16900Y-17662D01*
X16395Y-18419D01*
X-7776D01*
X-35251Y9056D01*
X-34725Y10326D01*
X38394D01*
Y6898D01*
D02*
G37*
G36*
X344678Y-23553D02*
X338963D01*
X331470Y-16187D01*
X338963Y-8821D01*
X344678D01*
Y-23553D01*
D02*
G37*
G36*
X327406Y-16187D02*
X334518Y-23553D01*
X321818D01*
Y-8821D01*
X334518D01*
X327406Y-16187D01*
D02*
G37*
G36*
X344678Y-45351D02*
X338963D01*
X331470Y-37985D01*
X338963Y-30619D01*
X344678D01*
Y-45351D01*
D02*
G37*
G36*
X327406Y-37985D02*
X334518Y-45351D01*
X321818D01*
Y-30619D01*
X334518D01*
X327406Y-37985D01*
D02*
G37*
G36*
X344678Y-67148D02*
X338963D01*
X331470Y-59782D01*
X338963Y-52416D01*
X344678D01*
Y-67148D01*
D02*
G37*
G36*
X327406Y-59782D02*
X334518Y-67148D01*
X321818D01*
Y-52416D01*
X334518D01*
X327406Y-59782D01*
D02*
G37*
G36*
X344678Y-88946D02*
X338963D01*
X331470Y-81580D01*
X338963Y-74214D01*
X344678D01*
Y-88946D01*
D02*
G37*
G36*
X327406Y-81580D02*
X334518Y-88946D01*
X321818D01*
Y-74214D01*
X334518D01*
X327406Y-81580D01*
D02*
G37*
G36*
X344678Y-110744D02*
X338963D01*
X331470Y-103378D01*
X338963Y-96012D01*
X344678D01*
Y-110744D01*
D02*
G37*
G36*
X327406Y-103378D02*
X334518Y-110744D01*
X321818D01*
Y-96012D01*
X334518D01*
X327406Y-103378D01*
D02*
G37*
%LPC*%
G36*
X265070Y275359D02*
Y266670D01*
X273759D01*
X273582Y268021D01*
X272570Y270463D01*
X270961Y272561D01*
X268863Y274170D01*
X266421Y275182D01*
X265070Y275359D01*
D02*
G37*
G36*
X262530D02*
X261179Y275182D01*
X258737Y274170D01*
X256639Y272561D01*
X255030Y270463D01*
X254018Y268021D01*
X253841Y266670D01*
X262530D01*
Y275359D01*
D02*
G37*
G36*
X239670D02*
Y266670D01*
X248359D01*
X248182Y268021D01*
X247170Y270463D01*
X245561Y272561D01*
X243463Y274170D01*
X241021Y275182D01*
X239670Y275359D01*
D02*
G37*
G36*
X237130D02*
X235779Y275182D01*
X233337Y274170D01*
X231239Y272561D01*
X229630Y270463D01*
X228618Y268021D01*
X228441Y266670D01*
X237130D01*
Y275359D01*
D02*
G37*
G36*
X-293730D02*
Y266670D01*
X-285041D01*
X-285218Y268021D01*
X-286230Y270463D01*
X-287839Y272561D01*
X-289937Y274170D01*
X-292379Y275182D01*
X-293730Y275359D01*
D02*
G37*
G36*
X-296270D02*
X-297621Y275182D01*
X-300063Y274170D01*
X-302161Y272561D01*
X-303770Y270463D01*
X-304782Y268021D01*
X-304959Y266670D01*
X-296270D01*
Y275359D01*
D02*
G37*
G36*
X273759Y264130D02*
X265070D01*
Y255441D01*
X266421Y255618D01*
X268863Y256630D01*
X270961Y258239D01*
X272570Y260337D01*
X273582Y262779D01*
X273759Y264130D01*
D02*
G37*
G36*
X262530D02*
X253841D01*
X254018Y262779D01*
X255030Y260337D01*
X256639Y258239D01*
X258737Y256630D01*
X261179Y255618D01*
X262530Y255441D01*
Y264130D01*
D02*
G37*
G36*
X248359D02*
X239670D01*
Y255441D01*
X241021Y255618D01*
X243463Y256630D01*
X245561Y258239D01*
X247170Y260337D01*
X248182Y262779D01*
X248359Y264130D01*
D02*
G37*
G36*
X237130D02*
X228441D01*
X228618Y262779D01*
X229630Y260337D01*
X231239Y258239D01*
X233337Y256630D01*
X235779Y255618D01*
X237130Y255441D01*
Y264130D01*
D02*
G37*
G36*
X213000Y275486D02*
X210389Y275143D01*
X207957Y274135D01*
X205868Y272532D01*
X204265Y270443D01*
X203257Y268011D01*
X202914Y265400D01*
X203257Y262789D01*
X204265Y260357D01*
X205868Y258268D01*
X207957Y256665D01*
X210389Y255657D01*
X213000Y255314D01*
X215611Y255657D01*
X218043Y256665D01*
X220132Y258268D01*
X221735Y260357D01*
X222743Y262789D01*
X223086Y265400D01*
X222743Y268011D01*
X221735Y270443D01*
X220132Y272532D01*
X218043Y274135D01*
X215611Y275143D01*
X213000Y275486D01*
D02*
G37*
G36*
X187600D02*
X184989Y275143D01*
X182557Y274135D01*
X180468Y272532D01*
X178865Y270443D01*
X177857Y268011D01*
X177514Y265400D01*
X177857Y262789D01*
X178865Y260357D01*
X180468Y258268D01*
X182557Y256665D01*
X184989Y255657D01*
X187600Y255314D01*
X190210Y255657D01*
X192643Y256665D01*
X194732Y258268D01*
X196335Y260357D01*
X197343Y262789D01*
X197686Y265400D01*
X197343Y268011D01*
X196335Y270443D01*
X194732Y272532D01*
X192643Y274135D01*
X190210Y275143D01*
X187600Y275486D01*
D02*
G37*
G36*
X162200D02*
X159590Y275143D01*
X157157Y274135D01*
X155068Y272532D01*
X153465Y270443D01*
X152457Y268011D01*
X152114Y265400D01*
X152457Y262789D01*
X153465Y260357D01*
X155068Y258268D01*
X157157Y256665D01*
X159590Y255657D01*
X162200Y255314D01*
X164811Y255657D01*
X167243Y256665D01*
X169332Y258268D01*
X170935Y260357D01*
X171943Y262789D01*
X172286Y265400D01*
X171943Y268011D01*
X170935Y270443D01*
X169332Y272532D01*
X167243Y274135D01*
X164811Y275143D01*
X162200Y275486D01*
D02*
G37*
G36*
X136800D02*
X134190Y275143D01*
X131757Y274135D01*
X129668Y272532D01*
X128065Y270443D01*
X127057Y268011D01*
X126714Y265400D01*
X127057Y262789D01*
X128065Y260357D01*
X129668Y258268D01*
X131757Y256665D01*
X134190Y255657D01*
X136800Y255314D01*
X139410Y255657D01*
X141843Y256665D01*
X143932Y258268D01*
X145535Y260357D01*
X146543Y262789D01*
X146886Y265400D01*
X146543Y268011D01*
X145535Y270443D01*
X143932Y272532D01*
X141843Y274135D01*
X139410Y275143D01*
X136800Y275486D01*
D02*
G37*
G36*
X111400D02*
X108790Y275143D01*
X106357Y274135D01*
X104268Y272532D01*
X102665Y270443D01*
X101657Y268011D01*
X101314Y265400D01*
X101657Y262789D01*
X102665Y260357D01*
X104268Y258268D01*
X106357Y256665D01*
X108790Y255657D01*
X111400Y255314D01*
X114010Y255657D01*
X116443Y256665D01*
X118532Y258268D01*
X120135Y260357D01*
X121143Y262789D01*
X121486Y265400D01*
X121143Y268011D01*
X120135Y270443D01*
X118532Y272532D01*
X116443Y274135D01*
X114010Y275143D01*
X111400Y275486D01*
D02*
G37*
G36*
X86000D02*
X83390Y275143D01*
X80957Y274135D01*
X78868Y272532D01*
X77265Y270443D01*
X76257Y268011D01*
X75914Y265400D01*
X76257Y262789D01*
X77265Y260357D01*
X78868Y258268D01*
X80957Y256665D01*
X83390Y255657D01*
X86000Y255314D01*
X88610Y255657D01*
X91043Y256665D01*
X93132Y258268D01*
X94735Y260357D01*
X95743Y262789D01*
X96086Y265400D01*
X95743Y268011D01*
X94735Y270443D01*
X93132Y272532D01*
X91043Y274135D01*
X88610Y275143D01*
X86000Y275486D01*
D02*
G37*
G36*
X60600D02*
X57990Y275143D01*
X55557Y274135D01*
X53468Y272532D01*
X51865Y270443D01*
X50857Y268011D01*
X50514Y265400D01*
X50857Y262789D01*
X51865Y260357D01*
X53468Y258268D01*
X55557Y256665D01*
X57990Y255657D01*
X60600Y255314D01*
X63211Y255657D01*
X65643Y256665D01*
X67732Y258268D01*
X69335Y260357D01*
X70343Y262789D01*
X70686Y265400D01*
X70343Y268011D01*
X69335Y270443D01*
X67732Y272532D01*
X65643Y274135D01*
X63211Y275143D01*
X60600Y275486D01*
D02*
G37*
G36*
X35200D02*
X32589Y275143D01*
X30157Y274135D01*
X28068Y272532D01*
X26465Y270443D01*
X25457Y268011D01*
X25114Y265400D01*
X25457Y262789D01*
X26465Y260357D01*
X28068Y258268D01*
X30157Y256665D01*
X32589Y255657D01*
X35200Y255314D01*
X37810Y255657D01*
X40243Y256665D01*
X42332Y258268D01*
X43935Y260357D01*
X44943Y262789D01*
X45286Y265400D01*
X44943Y268011D01*
X43935Y270443D01*
X42332Y272532D01*
X40243Y274135D01*
X37810Y275143D01*
X35200Y275486D01*
D02*
G37*
G36*
X9800D02*
X7189Y275143D01*
X4757Y274135D01*
X2668Y272532D01*
X1065Y270443D01*
X57Y268011D01*
X-286Y265400D01*
X57Y262789D01*
X1065Y260357D01*
X2668Y258268D01*
X4757Y256665D01*
X7189Y255657D01*
X9800Y255314D01*
X12411Y255657D01*
X14843Y256665D01*
X16932Y258268D01*
X18535Y260357D01*
X19543Y262789D01*
X19886Y265400D01*
X19543Y268011D01*
X18535Y270443D01*
X16932Y272532D01*
X14843Y274135D01*
X12411Y275143D01*
X9800Y275486D01*
D02*
G37*
G36*
X-142600D02*
X-145211Y275143D01*
X-147643Y274135D01*
X-149732Y272532D01*
X-151335Y270443D01*
X-152343Y268011D01*
X-152686Y265400D01*
X-152343Y262789D01*
X-151335Y260357D01*
X-149732Y258268D01*
X-147643Y256665D01*
X-145211Y255657D01*
X-142600Y255314D01*
X-139990Y255657D01*
X-137557Y256665D01*
X-135468Y258268D01*
X-133865Y260357D01*
X-132857Y262789D01*
X-132514Y265400D01*
X-132857Y268011D01*
X-133865Y270443D01*
X-135468Y272532D01*
X-137557Y274135D01*
X-139990Y275143D01*
X-142600Y275486D01*
D02*
G37*
G36*
X-168000D02*
X-170611Y275143D01*
X-173043Y274135D01*
X-175132Y272532D01*
X-176735Y270443D01*
X-177743Y268011D01*
X-178086Y265400D01*
X-177743Y262789D01*
X-176735Y260357D01*
X-175132Y258268D01*
X-173043Y256665D01*
X-170611Y255657D01*
X-168000Y255314D01*
X-165389Y255657D01*
X-162957Y256665D01*
X-160868Y258268D01*
X-159265Y260357D01*
X-158257Y262789D01*
X-157914Y265400D01*
X-158257Y268011D01*
X-159265Y270443D01*
X-160868Y272532D01*
X-162957Y274135D01*
X-165389Y275143D01*
X-168000Y275486D01*
D02*
G37*
G36*
X-193400D02*
X-196010Y275143D01*
X-198443Y274135D01*
X-200532Y272532D01*
X-202135Y270443D01*
X-203143Y268011D01*
X-203486Y265400D01*
X-203143Y262789D01*
X-202135Y260357D01*
X-200532Y258268D01*
X-198443Y256665D01*
X-196010Y255657D01*
X-193400Y255314D01*
X-190790Y255657D01*
X-188357Y256665D01*
X-186268Y258268D01*
X-184665Y260357D01*
X-183657Y262789D01*
X-183314Y265400D01*
X-183657Y268011D01*
X-184665Y270443D01*
X-186268Y272532D01*
X-188357Y274135D01*
X-190790Y275143D01*
X-193400Y275486D01*
D02*
G37*
G36*
X-218800D02*
X-221411Y275143D01*
X-223843Y274135D01*
X-225932Y272532D01*
X-227535Y270443D01*
X-228543Y268011D01*
X-228886Y265400D01*
X-228543Y262789D01*
X-227535Y260357D01*
X-225932Y258268D01*
X-223843Y256665D01*
X-221411Y255657D01*
X-218800Y255314D01*
X-216189Y255657D01*
X-213757Y256665D01*
X-211668Y258268D01*
X-210065Y260357D01*
X-209057Y262789D01*
X-208714Y265400D01*
X-209057Y268011D01*
X-210065Y270443D01*
X-211668Y272532D01*
X-213757Y274135D01*
X-216189Y275143D01*
X-218800Y275486D01*
D02*
G37*
G36*
X265070Y249959D02*
Y241270D01*
X273759D01*
X273582Y242621D01*
X272570Y245063D01*
X270961Y247161D01*
X268863Y248770D01*
X266421Y249782D01*
X265070Y249959D01*
D02*
G37*
G36*
X262530D02*
X261179Y249782D01*
X258737Y248770D01*
X256639Y247161D01*
X255030Y245063D01*
X254018Y242621D01*
X253841Y241270D01*
X262530D01*
Y249959D01*
D02*
G37*
G36*
X239670D02*
Y241270D01*
X248359D01*
X248182Y242621D01*
X247170Y245063D01*
X245561Y247161D01*
X243463Y248770D01*
X241021Y249782D01*
X239670Y249959D01*
D02*
G37*
G36*
X237130D02*
X235779Y249782D01*
X233337Y248770D01*
X231239Y247161D01*
X229630Y245063D01*
X228618Y242621D01*
X228441Y241270D01*
X237130D01*
Y249959D01*
D02*
G37*
G36*
X273759Y238730D02*
X265070D01*
Y230041D01*
X266421Y230218D01*
X268863Y231230D01*
X270961Y232839D01*
X272570Y234937D01*
X273582Y237379D01*
X273759Y238730D01*
D02*
G37*
G36*
X262530D02*
X253841D01*
X254018Y237379D01*
X255030Y234937D01*
X256639Y232839D01*
X258737Y231230D01*
X261179Y230218D01*
X262530Y230041D01*
Y238730D01*
D02*
G37*
G36*
X248359D02*
X239670D01*
Y230041D01*
X241021Y230218D01*
X243463Y231230D01*
X245561Y232839D01*
X247170Y234937D01*
X248182Y237379D01*
X248359Y238730D01*
D02*
G37*
G36*
X237130D02*
X228441D01*
X228618Y237379D01*
X229630Y234937D01*
X231239Y232839D01*
X233337Y231230D01*
X235779Y230218D01*
X237130Y230041D01*
Y238730D01*
D02*
G37*
G36*
X213000Y250086D02*
X210389Y249743D01*
X207957Y248735D01*
X205868Y247132D01*
X204265Y245043D01*
X203257Y242610D01*
X202914Y240000D01*
X203257Y237390D01*
X204265Y234957D01*
X205868Y232868D01*
X207957Y231265D01*
X210389Y230257D01*
X213000Y229914D01*
X215611Y230257D01*
X218043Y231265D01*
X220132Y232868D01*
X221735Y234957D01*
X222743Y237390D01*
X223086Y240000D01*
X222743Y242610D01*
X221735Y245043D01*
X220132Y247132D01*
X218043Y248735D01*
X215611Y249743D01*
X213000Y250086D01*
D02*
G37*
G36*
X187600D02*
X184989Y249743D01*
X182557Y248735D01*
X180468Y247132D01*
X178865Y245043D01*
X177857Y242610D01*
X177514Y240000D01*
X177857Y237390D01*
X178865Y234957D01*
X180468Y232868D01*
X182557Y231265D01*
X184989Y230257D01*
X187600Y229914D01*
X190210Y230257D01*
X192643Y231265D01*
X194732Y232868D01*
X196335Y234957D01*
X197343Y237390D01*
X197686Y240000D01*
X197343Y242610D01*
X196335Y245043D01*
X194732Y247132D01*
X192643Y248735D01*
X190210Y249743D01*
X187600Y250086D01*
D02*
G37*
G36*
X162200D02*
X159590Y249743D01*
X157157Y248735D01*
X155068Y247132D01*
X153465Y245043D01*
X152457Y242610D01*
X152114Y240000D01*
X152457Y237390D01*
X153465Y234957D01*
X155068Y232868D01*
X157157Y231265D01*
X159590Y230257D01*
X162200Y229914D01*
X164811Y230257D01*
X167243Y231265D01*
X169332Y232868D01*
X170935Y234957D01*
X171943Y237390D01*
X172286Y240000D01*
X171943Y242610D01*
X170935Y245043D01*
X169332Y247132D01*
X167243Y248735D01*
X164811Y249743D01*
X162200Y250086D01*
D02*
G37*
G36*
X136800D02*
X134190Y249743D01*
X131757Y248735D01*
X129668Y247132D01*
X128065Y245043D01*
X127057Y242610D01*
X126714Y240000D01*
X127057Y237390D01*
X128065Y234957D01*
X129668Y232868D01*
X131757Y231265D01*
X134190Y230257D01*
X136800Y229914D01*
X139410Y230257D01*
X141843Y231265D01*
X143932Y232868D01*
X145535Y234957D01*
X146543Y237390D01*
X146886Y240000D01*
X146543Y242610D01*
X145535Y245043D01*
X143932Y247132D01*
X141843Y248735D01*
X139410Y249743D01*
X136800Y250086D01*
D02*
G37*
G36*
X111400D02*
X108790Y249743D01*
X106357Y248735D01*
X104268Y247132D01*
X102665Y245043D01*
X101657Y242610D01*
X101314Y240000D01*
X101657Y237390D01*
X102665Y234957D01*
X104268Y232868D01*
X106357Y231265D01*
X108790Y230257D01*
X111400Y229914D01*
X114010Y230257D01*
X116443Y231265D01*
X118532Y232868D01*
X120135Y234957D01*
X121143Y237390D01*
X121486Y240000D01*
X121143Y242610D01*
X120135Y245043D01*
X118532Y247132D01*
X116443Y248735D01*
X114010Y249743D01*
X111400Y250086D01*
D02*
G37*
G36*
X86000D02*
X83390Y249743D01*
X80957Y248735D01*
X78868Y247132D01*
X77265Y245043D01*
X76257Y242610D01*
X75914Y240000D01*
X76257Y237390D01*
X77265Y234957D01*
X78868Y232868D01*
X80957Y231265D01*
X83390Y230257D01*
X86000Y229914D01*
X88610Y230257D01*
X91043Y231265D01*
X93132Y232868D01*
X94735Y234957D01*
X95743Y237390D01*
X96086Y240000D01*
X95743Y242610D01*
X94735Y245043D01*
X93132Y247132D01*
X91043Y248735D01*
X88610Y249743D01*
X86000Y250086D01*
D02*
G37*
G36*
X60600D02*
X57990Y249743D01*
X55557Y248735D01*
X53468Y247132D01*
X51865Y245043D01*
X50857Y242610D01*
X50514Y240000D01*
X50857Y237390D01*
X51865Y234957D01*
X53468Y232868D01*
X55557Y231265D01*
X57990Y230257D01*
X60600Y229914D01*
X63211Y230257D01*
X65643Y231265D01*
X67732Y232868D01*
X69335Y234957D01*
X70343Y237390D01*
X70686Y240000D01*
X70343Y242610D01*
X69335Y245043D01*
X67732Y247132D01*
X65643Y248735D01*
X63211Y249743D01*
X60600Y250086D01*
D02*
G37*
G36*
X35200D02*
X32589Y249743D01*
X30157Y248735D01*
X28068Y247132D01*
X26465Y245043D01*
X25457Y242610D01*
X25114Y240000D01*
X25457Y237390D01*
X26465Y234957D01*
X28068Y232868D01*
X30157Y231265D01*
X32589Y230257D01*
X35200Y229914D01*
X37810Y230257D01*
X40243Y231265D01*
X42332Y232868D01*
X43935Y234957D01*
X44943Y237390D01*
X45286Y240000D01*
X44943Y242610D01*
X43935Y245043D01*
X42332Y247132D01*
X40243Y248735D01*
X37810Y249743D01*
X35200Y250086D01*
D02*
G37*
G36*
X-168000D02*
X-170611Y249743D01*
X-173043Y248735D01*
X-175132Y247132D01*
X-176735Y245043D01*
X-177743Y242610D01*
X-178086Y240000D01*
X-177743Y237390D01*
X-176735Y234957D01*
X-175132Y232868D01*
X-173043Y231265D01*
X-170611Y230257D01*
X-168000Y229914D01*
X-165389Y230257D01*
X-162957Y231265D01*
X-160868Y232868D01*
X-159265Y234957D01*
X-158257Y237390D01*
X-157914Y240000D01*
X-158257Y242610D01*
X-159265Y245043D01*
X-160868Y247132D01*
X-162957Y248735D01*
X-165389Y249743D01*
X-168000Y250086D01*
D02*
G37*
G36*
X-193400D02*
X-196010Y249743D01*
X-198443Y248735D01*
X-200532Y247132D01*
X-202135Y245043D01*
X-203143Y242610D01*
X-203486Y240000D01*
X-203143Y237390D01*
X-202135Y234957D01*
X-200532Y232868D01*
X-198443Y231265D01*
X-196010Y230257D01*
X-193400Y229914D01*
X-190790Y230257D01*
X-188357Y231265D01*
X-186268Y232868D01*
X-184665Y234957D01*
X-183657Y237390D01*
X-183314Y240000D01*
X-183657Y242610D01*
X-184665Y245043D01*
X-186268Y247132D01*
X-188357Y248735D01*
X-190790Y249743D01*
X-193400Y250086D01*
D02*
G37*
G36*
X265070Y224559D02*
Y215870D01*
X273759D01*
X273582Y217221D01*
X272570Y219663D01*
X270961Y221761D01*
X268863Y223370D01*
X266421Y224382D01*
X265070Y224559D01*
D02*
G37*
G36*
X262530D02*
X261179Y224382D01*
X258737Y223370D01*
X256639Y221761D01*
X255030Y219663D01*
X254018Y217221D01*
X253841Y215870D01*
X262530D01*
Y224559D01*
D02*
G37*
G36*
X188870D02*
Y215870D01*
X197559D01*
X197382Y217221D01*
X196370Y219663D01*
X194761Y221761D01*
X192663Y223370D01*
X190221Y224382D01*
X188870Y224559D01*
D02*
G37*
G36*
X186330D02*
X184979Y224382D01*
X182537Y223370D01*
X180439Y221761D01*
X178830Y219663D01*
X177818Y217221D01*
X177641Y215870D01*
X186330D01*
Y224559D01*
D02*
G37*
G36*
X112670D02*
Y215870D01*
X121359D01*
X121182Y217221D01*
X120170Y219663D01*
X118561Y221761D01*
X116463Y223370D01*
X114021Y224382D01*
X112670Y224559D01*
D02*
G37*
G36*
X110130D02*
X108779Y224382D01*
X106337Y223370D01*
X104239Y221761D01*
X102630Y219663D01*
X101618Y217221D01*
X101441Y215870D01*
X110130D01*
Y224559D01*
D02*
G37*
G36*
X36470D02*
Y215870D01*
X45159D01*
X44982Y217221D01*
X43970Y219663D01*
X42361Y221761D01*
X40263Y223370D01*
X37821Y224382D01*
X36470Y224559D01*
D02*
G37*
G36*
X33930D02*
X32579Y224382D01*
X30137Y223370D01*
X28039Y221761D01*
X26430Y219663D01*
X25418Y217221D01*
X25241Y215870D01*
X33930D01*
Y224559D01*
D02*
G37*
G36*
X-39730D02*
Y215870D01*
X-31041D01*
X-31218Y217221D01*
X-32230Y219663D01*
X-33839Y221761D01*
X-35937Y223370D01*
X-38379Y224382D01*
X-39730Y224559D01*
D02*
G37*
G36*
X-42270D02*
X-43621Y224382D01*
X-46063Y223370D01*
X-48161Y221761D01*
X-49770Y219663D01*
X-50782Y217221D01*
X-50959Y215870D01*
X-42270D01*
Y224559D01*
D02*
G37*
G36*
X-115930D02*
Y215870D01*
X-107241D01*
X-107418Y217221D01*
X-108430Y219663D01*
X-110039Y221761D01*
X-112137Y223370D01*
X-114579Y224382D01*
X-115930Y224559D01*
D02*
G37*
G36*
X-192130D02*
Y215870D01*
X-183441D01*
X-183618Y217221D01*
X-184630Y219663D01*
X-186239Y221761D01*
X-188337Y223370D01*
X-190779Y224382D01*
X-192130Y224559D01*
D02*
G37*
G36*
X-194670D02*
X-196021Y224382D01*
X-198463Y223370D01*
X-200561Y221761D01*
X-202170Y219663D01*
X-203182Y217221D01*
X-203359Y215870D01*
X-194670D01*
Y224559D01*
D02*
G37*
G36*
X-268330D02*
Y215870D01*
X-259641D01*
X-259818Y217221D01*
X-260830Y219663D01*
X-262439Y221761D01*
X-264537Y223370D01*
X-266979Y224382D01*
X-268330Y224559D01*
D02*
G37*
G36*
X-270870D02*
X-272221Y224382D01*
X-274663Y223370D01*
X-276761Y221761D01*
X-278370Y219663D01*
X-279382Y217221D01*
X-279559Y215870D01*
X-270870D01*
Y224559D01*
D02*
G37*
G36*
X273759Y213330D02*
X265070D01*
Y204641D01*
X266421Y204818D01*
X268863Y205830D01*
X270961Y207439D01*
X272570Y209537D01*
X273582Y211979D01*
X273759Y213330D01*
D02*
G37*
G36*
X262530D02*
X253841D01*
X254018Y211979D01*
X255030Y209537D01*
X256639Y207439D01*
X258737Y205830D01*
X261179Y204818D01*
X262530Y204641D01*
Y213330D01*
D02*
G37*
G36*
X197559D02*
X188870D01*
Y204641D01*
X190221Y204818D01*
X192663Y205830D01*
X194761Y207439D01*
X196370Y209537D01*
X197382Y211979D01*
X197559Y213330D01*
D02*
G37*
G36*
X186330D02*
X177641D01*
X177818Y211979D01*
X178830Y209537D01*
X180439Y207439D01*
X182537Y205830D01*
X184979Y204818D01*
X186330Y204641D01*
Y213330D01*
D02*
G37*
G36*
X121359D02*
X112670D01*
Y204641D01*
X114021Y204818D01*
X116463Y205830D01*
X118561Y207439D01*
X120170Y209537D01*
X121182Y211979D01*
X121359Y213330D01*
D02*
G37*
G36*
X110130D02*
X101441D01*
X101618Y211979D01*
X102630Y209537D01*
X104239Y207439D01*
X106337Y205830D01*
X108779Y204818D01*
X110130Y204641D01*
Y213330D01*
D02*
G37*
G36*
X45159D02*
X36470D01*
Y204641D01*
X37821Y204818D01*
X40263Y205830D01*
X42361Y207439D01*
X43970Y209537D01*
X44982Y211979D01*
X45159Y213330D01*
D02*
G37*
G36*
X33930D02*
X25241D01*
X25418Y211979D01*
X26430Y209537D01*
X28039Y207439D01*
X30137Y205830D01*
X32579Y204818D01*
X33930Y204641D01*
Y213330D01*
D02*
G37*
G36*
X-31041D02*
X-39730D01*
Y204641D01*
X-38379Y204818D01*
X-35937Y205830D01*
X-33839Y207439D01*
X-32230Y209537D01*
X-31218Y211979D01*
X-31041Y213330D01*
D02*
G37*
G36*
X-42270D02*
X-50959D01*
X-50782Y211979D01*
X-49770Y209537D01*
X-48161Y207439D01*
X-46063Y205830D01*
X-43621Y204818D01*
X-42270Y204641D01*
Y213330D01*
D02*
G37*
G36*
X-107241D02*
X-115930D01*
Y204641D01*
X-114579Y204818D01*
X-112137Y205830D01*
X-110039Y207439D01*
X-108430Y209537D01*
X-107418Y211979D01*
X-107241Y213330D01*
D02*
G37*
G36*
X-183441D02*
X-192130D01*
Y204641D01*
X-190779Y204818D01*
X-188337Y205830D01*
X-186239Y207439D01*
X-184630Y209537D01*
X-183618Y211979D01*
X-183441Y213330D01*
D02*
G37*
G36*
X-194670D02*
X-203359D01*
X-203182Y211979D01*
X-202170Y209537D01*
X-200561Y207439D01*
X-198463Y205830D01*
X-196021Y204818D01*
X-194670Y204641D01*
Y213330D01*
D02*
G37*
G36*
X-259641D02*
X-268330D01*
Y204641D01*
X-266979Y204818D01*
X-264537Y205830D01*
X-262439Y207439D01*
X-260830Y209537D01*
X-259818Y211979D01*
X-259641Y213330D01*
D02*
G37*
G36*
X-270870D02*
X-279559D01*
X-279382Y211979D01*
X-278370Y209537D01*
X-276761Y207439D01*
X-274663Y205830D01*
X-272221Y204818D01*
X-270870Y204641D01*
Y213330D01*
D02*
G37*
G36*
X-218800Y224686D02*
X-221411Y224343D01*
X-223843Y223335D01*
X-225932Y221732D01*
X-227535Y219643D01*
X-228543Y217211D01*
X-228886Y214600D01*
X-228543Y211989D01*
X-227535Y209557D01*
X-225932Y207468D01*
X-223843Y205865D01*
X-221411Y204857D01*
X-218800Y204514D01*
X-216189Y204857D01*
X-214715Y205468D01*
X-211869Y202622D01*
Y197922D01*
X-213008Y197360D01*
X-213757Y197935D01*
X-216189Y198943D01*
X-218800Y199286D01*
X-221411Y198943D01*
X-223843Y197935D01*
X-225932Y196332D01*
X-227535Y194243D01*
X-228543Y191810D01*
X-228753Y190214D01*
D01*
X-228756Y190191D01*
X-228867Y189389D01*
X-228873Y189389D01*
X-228920Y189393D01*
X-229015Y189399D01*
X-230131Y189472D01*
Y204100D01*
X-230403Y205466D01*
X-231177Y206623D01*
X-235068Y210515D01*
X-234457Y211989D01*
X-234114Y214600D01*
X-234457Y217211D01*
X-235465Y219643D01*
X-237068Y221732D01*
X-239157Y223335D01*
X-241590Y224343D01*
X-244200Y224686D01*
X-246810Y224343D01*
X-249243Y223335D01*
X-251332Y221732D01*
X-252935Y219643D01*
X-253943Y217211D01*
X-254286Y214600D01*
X-253943Y211989D01*
X-252935Y209557D01*
X-251332Y207468D01*
X-249243Y205865D01*
X-246810Y204857D01*
X-244200Y204514D01*
X-241590Y204857D01*
X-240115Y205468D01*
X-237269Y202622D01*
Y197922D01*
X-238408Y197360D01*
X-239157Y197935D01*
X-241590Y198943D01*
X-244200Y199286D01*
X-246810Y198943D01*
X-249243Y197935D01*
X-251332Y196332D01*
X-252935Y194243D01*
X-253943Y191810D01*
X-254286Y189200D01*
X-253943Y186590D01*
X-252935Y184157D01*
X-251332Y182068D01*
X-249243Y180465D01*
X-247769Y179854D01*
Y81132D01*
X-247497Y79766D01*
X-246723Y78609D01*
X-230686Y62572D01*
X-230704Y62484D01*
X-230254Y60221D01*
X-228972Y58302D01*
X-227053Y57021D01*
X-224790Y56570D01*
X-222527Y57021D01*
X-220608Y58302D01*
X-219326Y60221D01*
X-218876Y62484D01*
X-219326Y64747D01*
X-220608Y66666D01*
X-222527Y67948D01*
X-224790Y68398D01*
X-226149Y68127D01*
X-240631Y82610D01*
Y100715D01*
X-239511Y101314D01*
X-239245Y101136D01*
X-236982Y100686D01*
X-234719Y101136D01*
X-232800Y102418D01*
X-231518Y104337D01*
X-231068Y106600D01*
X-231518Y108863D01*
X-232800Y110781D01*
X-234719Y112063D01*
X-236631Y112444D01*
Y176873D01*
X-231177Y182327D01*
X-230403Y183485D01*
X-230131Y184851D01*
Y188928D01*
X-229015Y189001D01*
X-228920Y189007D01*
X-228873Y189011D01*
X-228867Y189011D01*
X-228756Y188209D01*
X-228753Y188186D01*
Y188186D01*
X-228543Y186590D01*
X-227535Y184157D01*
X-225932Y182068D01*
X-223843Y180465D01*
X-222369Y179854D01*
Y81386D01*
X-222097Y80020D01*
X-221323Y78863D01*
X-205414Y62953D01*
X-205558Y62230D01*
X-205107Y59967D01*
X-203826Y58048D01*
X-201907Y56767D01*
X-199644Y56316D01*
X-197381Y56767D01*
X-195462Y58048D01*
X-194181Y59967D01*
X-193730Y62230D01*
X-194181Y64493D01*
X-195462Y66412D01*
X-197381Y67694D01*
X-199644Y68144D01*
X-200367Y68000D01*
X-215231Y82864D01*
Y100392D01*
X-213961Y101139D01*
X-212090Y100766D01*
X-209827Y101216D01*
X-207908Y102498D01*
X-206626Y104417D01*
X-206176Y106680D01*
X-206626Y108943D01*
X-207908Y110862D01*
X-209827Y112143D01*
X-211231Y112423D01*
Y175306D01*
X-205777Y180761D01*
X-205003Y181918D01*
X-204731Y183284D01*
Y188622D01*
X-204640Y188627D01*
Y189773D01*
X-204731Y189778D01*
Y204100D01*
X-205003Y205466D01*
X-205777Y206623D01*
X-209668Y210515D01*
X-209057Y211989D01*
X-208714Y214600D01*
X-209057Y217211D01*
X-210065Y219643D01*
X-211668Y221732D01*
X-213757Y223335D01*
X-216189Y224343D01*
X-218800Y224686D01*
D02*
G37*
G36*
X262530Y199159D02*
X261179Y198982D01*
X258737Y197970D01*
X256639Y196361D01*
X255030Y194263D01*
X254018Y191821D01*
X253841Y190470D01*
X262530D01*
Y199159D01*
D02*
G37*
G36*
X186330D02*
X184979Y198982D01*
X182537Y197970D01*
X180439Y196361D01*
X178830Y194263D01*
X177818Y191821D01*
X177641Y190470D01*
X186330D01*
Y199159D01*
D02*
G37*
G36*
X110130D02*
X108779Y198982D01*
X106337Y197970D01*
X104239Y196361D01*
X102630Y194263D01*
X101618Y191821D01*
X101441Y190470D01*
X110130D01*
Y199159D01*
D02*
G37*
G36*
X33930D02*
X32579Y198982D01*
X30137Y197970D01*
X28039Y196361D01*
X26430Y194263D01*
X25418Y191821D01*
X25241Y190470D01*
X33930D01*
Y199159D01*
D02*
G37*
G36*
X-42270D02*
X-43621Y198982D01*
X-46063Y197970D01*
X-48161Y196361D01*
X-49770Y194263D01*
X-50782Y191821D01*
X-50959Y190470D01*
X-42270D01*
Y199159D01*
D02*
G37*
G36*
X-115930D02*
Y190470D01*
X-107241D01*
X-107418Y191821D01*
X-108430Y194263D01*
X-110039Y196361D01*
X-112137Y197970D01*
X-114579Y198982D01*
X-115930Y199159D01*
D02*
G37*
G36*
X-194670D02*
X-196021Y198982D01*
X-198463Y197970D01*
X-200561Y196361D01*
X-202170Y194263D01*
X-203182Y191821D01*
X-203270Y191146D01*
X-203359Y190470D01*
X-194670D01*
Y199159D01*
D02*
G37*
G36*
X-268330D02*
Y190470D01*
X-259641D01*
X-259818Y191821D01*
X-260830Y194263D01*
X-262439Y196361D01*
X-264537Y197970D01*
X-266979Y198982D01*
X-268330Y199159D01*
D02*
G37*
G36*
X262530Y187930D02*
X253841D01*
X254018Y186579D01*
X255030Y184137D01*
X256639Y182039D01*
X258737Y180430D01*
X261179Y179418D01*
X262530Y179241D01*
Y187930D01*
D02*
G37*
G36*
X186330D02*
X177641D01*
X177818Y186579D01*
X178830Y184137D01*
X180439Y182039D01*
X182537Y180430D01*
X184979Y179418D01*
X186330Y179241D01*
Y187930D01*
D02*
G37*
G36*
X110130D02*
X101441D01*
X101618Y186579D01*
X102630Y184137D01*
X104239Y182039D01*
X106337Y180430D01*
X108779Y179418D01*
X110130Y179241D01*
Y187930D01*
D02*
G37*
G36*
X33930D02*
X25241D01*
X25418Y186579D01*
X26430Y184137D01*
X28039Y182039D01*
X30137Y180430D01*
X32579Y179418D01*
X33930Y179241D01*
Y187930D01*
D02*
G37*
G36*
X-107241D02*
X-115930D01*
Y179241D01*
X-114579Y179418D01*
X-112137Y180430D01*
X-110039Y182039D01*
X-108430Y184137D01*
X-107418Y186579D01*
X-107241Y187930D01*
D02*
G37*
G36*
X-194670D02*
X-203359D01*
X-203270Y187254D01*
X-203182Y186579D01*
X-202170Y184137D01*
X-200561Y182039D01*
X-198463Y180430D01*
X-196021Y179418D01*
X-194670Y179241D01*
Y187930D01*
D02*
G37*
G36*
X-259641D02*
X-268330D01*
Y179241D01*
X-266979Y179418D01*
X-264537Y180430D01*
X-262439Y182039D01*
X-260830Y184137D01*
X-259818Y186579D01*
X-259641Y187930D01*
D02*
G37*
G36*
X-181356Y-37520D02*
X-183619Y-37970D01*
X-185538Y-39252D01*
X-186819Y-41171D01*
X-187270Y-43434D01*
X-186819Y-45697D01*
X-185538Y-47616D01*
X-183619Y-48898D01*
X-181356Y-49348D01*
X-179093Y-48898D01*
X-177174Y-47616D01*
X-176935Y-47257D01*
X-158515D01*
X-158106Y-47870D01*
X-156187Y-49152D01*
X-153924Y-49602D01*
X-151661Y-49152D01*
X-149742Y-47870D01*
X-148461Y-45951D01*
X-148010Y-43688D01*
X-148461Y-41425D01*
X-149742Y-39506D01*
X-151661Y-38224D01*
X-153924Y-37774D01*
X-156187Y-38224D01*
X-158106Y-39506D01*
X-158515Y-40119D01*
X-176595D01*
X-177174Y-39252D01*
X-179093Y-37970D01*
X-181356Y-37520D01*
D02*
G37*
G36*
X-132261Y-51301D02*
X-134524Y-51752D01*
X-136443Y-53033D01*
X-137725Y-54952D01*
X-138175Y-57215D01*
X-137725Y-59478D01*
X-136443Y-61397D01*
X-135830Y-61806D01*
Y-102843D01*
X-138356Y-105369D01*
X-139744Y-105091D01*
X-139802Y-105019D01*
X-139374Y-102870D01*
X-139824Y-100607D01*
X-141106Y-98688D01*
X-143025Y-97407D01*
X-145288Y-96956D01*
X-147551Y-97407D01*
X-149470Y-98688D01*
X-149879Y-99301D01*
X-165747D01*
X-166233Y-98128D01*
X-153687Y-85581D01*
X-152913Y-84424D01*
X-152641Y-83058D01*
Y-63011D01*
X-152028Y-62602D01*
X-150746Y-60683D01*
X-150296Y-58420D01*
X-150746Y-56157D01*
X-152028Y-54238D01*
X-153947Y-52957D01*
X-156210Y-52506D01*
X-158473Y-52957D01*
X-160392Y-54238D01*
X-161674Y-56157D01*
X-162124Y-58420D01*
X-161674Y-60683D01*
X-160392Y-62602D01*
X-159779Y-63011D01*
Y-81580D01*
X-178262Y-100063D01*
X-227330D01*
X-228696Y-100335D01*
X-229853Y-101109D01*
X-287545Y-158800D01*
X-305000D01*
Y-178800D01*
X-286135D01*
X-285917Y-180070D01*
X-290915Y-185068D01*
X-292390Y-184457D01*
X-295000Y-184114D01*
X-297610Y-184457D01*
X-300043Y-185465D01*
X-302132Y-187068D01*
X-303735Y-189157D01*
X-304743Y-191590D01*
X-305086Y-194200D01*
X-304743Y-196810D01*
X-303735Y-199243D01*
X-302132Y-201332D01*
X-300043Y-202935D01*
X-297610Y-203943D01*
X-295000Y-204286D01*
X-292390Y-203943D01*
X-289957Y-202935D01*
X-287868Y-201332D01*
X-286265Y-199243D01*
X-285257Y-196810D01*
X-284914Y-194200D01*
X-285257Y-191590D01*
X-285868Y-190115D01*
X-279671Y-183917D01*
X-278897Y-182760D01*
X-278625Y-181394D01*
Y-175616D01*
X-277355Y-175185D01*
X-276761Y-175961D01*
X-274663Y-177570D01*
X-272221Y-178582D01*
X-270870Y-178759D01*
Y-168800D01*
X-269600D01*
Y-167530D01*
X-259641D01*
X-259818Y-166179D01*
X-260830Y-163737D01*
X-262439Y-161639D01*
X-264537Y-160030D01*
X-266979Y-159018D01*
X-269600Y-158673D01*
X-270023Y-158729D01*
X-270584Y-157590D01*
X-224195Y-111201D01*
X-193443D01*
X-192917Y-112471D01*
X-240115Y-159668D01*
X-241590Y-159057D01*
X-244200Y-158714D01*
X-246810Y-159057D01*
X-249243Y-160065D01*
X-251332Y-161668D01*
X-252935Y-163757D01*
X-253943Y-166189D01*
X-254286Y-168800D01*
X-253943Y-171411D01*
X-252935Y-173843D01*
X-251332Y-175932D01*
X-249243Y-177535D01*
X-246810Y-178543D01*
X-244200Y-178886D01*
X-241590Y-178543D01*
X-239157Y-177535D01*
X-237068Y-175932D01*
X-236673Y-175418D01*
X-235471Y-175826D01*
Y-180424D01*
X-240115Y-185068D01*
X-241590Y-184457D01*
X-244200Y-184114D01*
X-246810Y-184457D01*
X-249243Y-185465D01*
X-251332Y-187068D01*
X-252935Y-189157D01*
X-253943Y-191590D01*
X-254286Y-194200D01*
X-253943Y-196810D01*
X-252935Y-199243D01*
X-251332Y-201332D01*
X-249243Y-202935D01*
X-246810Y-203943D01*
X-244200Y-204286D01*
X-241590Y-203943D01*
X-239157Y-202935D01*
X-237068Y-201332D01*
X-235465Y-199243D01*
X-234457Y-196810D01*
X-234114Y-194200D01*
X-234457Y-191590D01*
X-235068Y-190115D01*
X-229379Y-184425D01*
X-228605Y-183268D01*
X-228333Y-181902D01*
Y-174889D01*
X-227063Y-174458D01*
X-225932Y-175932D01*
X-223843Y-177535D01*
X-221411Y-178543D01*
X-218800Y-178886D01*
X-216189Y-178543D01*
X-213757Y-177535D01*
X-212611Y-176655D01*
X-211341Y-177282D01*
Y-181694D01*
X-214715Y-185068D01*
X-216189Y-184457D01*
X-218800Y-184114D01*
X-221411Y-184457D01*
X-223843Y-185465D01*
X-225932Y-187068D01*
X-227535Y-189157D01*
X-228543Y-191590D01*
X-228886Y-194200D01*
X-228543Y-196810D01*
X-227535Y-199243D01*
X-225932Y-201332D01*
X-223843Y-202935D01*
X-221411Y-203943D01*
X-218800Y-204286D01*
X-216189Y-203943D01*
X-213757Y-202935D01*
X-211668Y-201332D01*
X-210065Y-199243D01*
X-209057Y-196810D01*
X-208714Y-194200D01*
X-209057Y-191590D01*
X-209668Y-190115D01*
X-205249Y-185695D01*
X-204475Y-184538D01*
X-204203Y-183172D01*
Y-172273D01*
X-202933Y-172020D01*
X-202170Y-173863D01*
X-200561Y-175961D01*
X-198463Y-177570D01*
X-196021Y-178582D01*
X-194670Y-178759D01*
Y-168800D01*
Y-158841D01*
X-196021Y-159018D01*
X-196871Y-159370D01*
X-197590Y-158294D01*
X-173103Y-133807D01*
X-139849D01*
X-139323Y-135077D01*
X-163915Y-159668D01*
X-165389Y-159057D01*
X-168000Y-158714D01*
X-170611Y-159057D01*
X-173043Y-160065D01*
X-175132Y-161668D01*
X-176735Y-163757D01*
X-177743Y-166189D01*
X-178086Y-168800D01*
X-177743Y-171411D01*
X-176735Y-173843D01*
X-175132Y-175932D01*
X-173043Y-177535D01*
X-170611Y-178543D01*
X-168000Y-178886D01*
X-165389Y-178543D01*
X-162957Y-177535D01*
X-160868Y-175932D01*
X-160727Y-175749D01*
X-159525Y-176157D01*
Y-180678D01*
X-163915Y-185068D01*
X-165389Y-184457D01*
X-168000Y-184114D01*
X-170611Y-184457D01*
X-173043Y-185465D01*
X-175132Y-187068D01*
X-176735Y-189157D01*
X-177743Y-191590D01*
X-178086Y-194200D01*
X-177743Y-196810D01*
X-176735Y-199243D01*
X-175132Y-201332D01*
X-173043Y-202935D01*
X-170611Y-203943D01*
X-168000Y-204286D01*
X-165389Y-203943D01*
X-162957Y-202935D01*
X-160868Y-201332D01*
X-159265Y-199243D01*
X-158257Y-196810D01*
X-157914Y-194200D01*
X-158257Y-191590D01*
X-158868Y-190115D01*
X-153433Y-184679D01*
X-152659Y-183522D01*
X-152387Y-182156D01*
Y-174450D01*
X-152383Y-174448D01*
X-151117Y-174127D01*
X-149732Y-175932D01*
X-147643Y-177535D01*
X-145211Y-178543D01*
X-142600Y-178886D01*
X-139990Y-178543D01*
X-137557Y-177535D01*
X-136411Y-176655D01*
X-135141Y-177282D01*
Y-181694D01*
X-138515Y-185068D01*
X-139990Y-184457D01*
X-142600Y-184114D01*
X-145211Y-184457D01*
X-147643Y-185465D01*
X-149732Y-187068D01*
X-151335Y-189157D01*
X-152343Y-191590D01*
X-152686Y-194200D01*
X-152343Y-196810D01*
X-151335Y-199243D01*
X-149732Y-201332D01*
X-147643Y-202935D01*
X-145211Y-203943D01*
X-142600Y-204286D01*
X-139990Y-203943D01*
X-137557Y-202935D01*
X-135468Y-201332D01*
X-133865Y-199243D01*
X-132857Y-196810D01*
X-132514Y-194200D01*
X-132857Y-191590D01*
X-133468Y-190115D01*
X-129049Y-185695D01*
X-128275Y-184538D01*
X-128003Y-183172D01*
Y-172273D01*
X-126733Y-172020D01*
X-125970Y-173863D01*
X-124361Y-175961D01*
X-122263Y-177570D01*
X-119821Y-178582D01*
X-118470Y-178759D01*
Y-168800D01*
Y-158841D01*
X-119821Y-159018D01*
X-120671Y-159370D01*
X-121390Y-158294D01*
X-120017Y-156921D01*
X-88836D01*
X-87470Y-156649D01*
X-86313Y-155875D01*
X-43451Y-113013D01*
X-42677Y-111856D01*
X-42405Y-110490D01*
Y-108054D01*
X-42046Y-107814D01*
X-40764Y-105895D01*
X-40314Y-103632D01*
X-40764Y-101369D01*
X-42046Y-99450D01*
X-43965Y-98168D01*
X-46228Y-97718D01*
X-48491Y-98168D01*
X-50410Y-99450D01*
X-51691Y-101369D01*
X-52142Y-103632D01*
X-51691Y-105895D01*
X-50410Y-107814D01*
X-50144Y-107991D01*
X-50024Y-109493D01*
X-53170Y-112639D01*
X-54343Y-112153D01*
Y-64027D01*
X-53730Y-63618D01*
X-52449Y-61699D01*
X-51998Y-59436D01*
X-52449Y-57173D01*
X-53730Y-55254D01*
X-55649Y-53973D01*
X-57912Y-53522D01*
X-60175Y-53973D01*
X-62094Y-55254D01*
X-63376Y-57173D01*
X-63826Y-59436D01*
X-63376Y-61699D01*
X-62094Y-63618D01*
X-61481Y-64027D01*
Y-115293D01*
X-91971Y-145783D01*
X-98297D01*
X-98422Y-144513D01*
X-98138Y-144457D01*
X-96981Y-143683D01*
X-68089Y-114791D01*
X-67315Y-113634D01*
X-67043Y-112268D01*
Y-108477D01*
X-66430Y-108068D01*
X-65149Y-106149D01*
X-64698Y-103886D01*
X-65149Y-101623D01*
X-66430Y-99704D01*
X-68349Y-98422D01*
X-70612Y-97972D01*
X-72875Y-98422D01*
X-74794Y-99704D01*
X-76076Y-101623D01*
X-76526Y-103886D01*
X-76076Y-106149D01*
X-74794Y-108068D01*
X-74181Y-108477D01*
Y-110790D01*
X-78062Y-114671D01*
X-79235Y-114185D01*
Y-63531D01*
X-78659Y-63146D01*
X-77377Y-61227D01*
X-76927Y-58964D01*
X-77377Y-56701D01*
X-78659Y-54783D01*
X-80577Y-53501D01*
X-82840Y-53051D01*
X-85103Y-53501D01*
X-87022Y-54783D01*
X-88304Y-56701D01*
X-88754Y-58964D01*
X-88304Y-61227D01*
X-87022Y-63146D01*
X-86373Y-63580D01*
Y-117325D01*
X-102639Y-133591D01*
X-120584D01*
X-121110Y-132321D01*
X-97495Y-108707D01*
X-95831Y-109038D01*
X-93568Y-108588D01*
X-91649Y-107306D01*
X-90367Y-105387D01*
X-89917Y-103124D01*
X-90367Y-100861D01*
X-91649Y-98942D01*
X-93568Y-97661D01*
X-95831Y-97210D01*
X-98094Y-97661D01*
X-100012Y-98942D01*
X-101294Y-100861D01*
X-101679Y-102797D01*
X-102809Y-103927D01*
X-103982Y-103441D01*
Y-62420D01*
X-103369Y-62010D01*
X-102087Y-60092D01*
X-101637Y-57828D01*
X-102087Y-55566D01*
X-103369Y-53647D01*
X-105288Y-52365D01*
X-107551Y-51915D01*
X-109814Y-52365D01*
X-111732Y-53647D01*
X-113014Y-55566D01*
X-113464Y-57828D01*
X-113014Y-60092D01*
X-111732Y-62010D01*
X-111119Y-62420D01*
Y-106581D01*
X-127208Y-122669D01*
X-138595D01*
X-138922Y-121399D01*
X-138060Y-120823D01*
X-124708Y-107472D01*
X-123419Y-108334D01*
X-121156Y-108784D01*
X-118893Y-108334D01*
X-116974Y-107052D01*
X-115693Y-105133D01*
X-115242Y-102870D01*
X-115693Y-100607D01*
X-116974Y-98688D01*
X-118893Y-97407D01*
X-121156Y-96956D01*
X-123419Y-97407D01*
X-125337Y-98688D01*
X-125838Y-99438D01*
X-126430Y-99555D01*
X-126519Y-99573D01*
X-127423Y-100177D01*
X-128693Y-99756D01*
Y-61806D01*
X-128080Y-61397D01*
X-126798Y-59478D01*
X-126348Y-57215D01*
X-126798Y-54952D01*
X-128080Y-53033D01*
X-129998Y-51752D01*
X-132261Y-51301D01*
D02*
G37*
G36*
X-8128Y-53268D02*
X-10391Y-53719D01*
X-12310Y-55000D01*
X-13592Y-56919D01*
X-14042Y-59182D01*
X-13592Y-61445D01*
X-12310Y-63364D01*
X-11697Y-63773D01*
Y-107419D01*
X-62423Y-158146D01*
X-63197Y-159303D01*
X-63790Y-159057D01*
X-66400Y-158714D01*
X-67424Y-158848D01*
X-68017Y-157646D01*
X-19311Y-108939D01*
X-18819Y-108841D01*
X-16900Y-107560D01*
X-15618Y-105641D01*
X-15168Y-103378D01*
X-15618Y-101115D01*
X-16900Y-99196D01*
X-18819Y-97914D01*
X-21082Y-97464D01*
X-23345Y-97914D01*
X-25264Y-99196D01*
X-26546Y-101115D01*
X-26996Y-103378D01*
X-26546Y-105641D01*
X-26369Y-105905D01*
X-28532Y-108067D01*
X-29705Y-107581D01*
Y-63780D01*
X-29240Y-63470D01*
X-27959Y-61551D01*
X-27508Y-59288D01*
X-27959Y-57025D01*
X-29240Y-55107D01*
X-31159Y-53825D01*
X-33422Y-53374D01*
X-35685Y-53825D01*
X-37603Y-55107D01*
X-38885Y-57025D01*
X-39336Y-59288D01*
X-38885Y-61551D01*
X-37603Y-63470D01*
X-36843Y-63978D01*
Y-110721D01*
X-86434Y-160313D01*
X-86757Y-160065D01*
X-89190Y-159057D01*
X-91800Y-158714D01*
X-94410Y-159057D01*
X-96843Y-160065D01*
X-98932Y-161668D01*
X-100535Y-163757D01*
X-101543Y-166189D01*
X-101886Y-168800D01*
X-101543Y-171411D01*
X-100535Y-173843D01*
X-98932Y-175932D01*
X-96843Y-177535D01*
X-94410Y-178543D01*
X-91800Y-178886D01*
X-89190Y-178543D01*
X-86757Y-177535D01*
X-86008Y-176960D01*
X-84869Y-177522D01*
Y-182222D01*
X-87715Y-185068D01*
X-89190Y-184457D01*
X-91800Y-184114D01*
X-94410Y-184457D01*
X-96843Y-185465D01*
X-98932Y-187068D01*
X-100535Y-189157D01*
X-101543Y-191590D01*
X-101886Y-194200D01*
X-101543Y-196810D01*
X-100535Y-199243D01*
X-98932Y-201332D01*
X-96843Y-202935D01*
X-94410Y-203943D01*
X-91800Y-204286D01*
X-89190Y-203943D01*
X-86757Y-202935D01*
X-84668Y-201332D01*
X-83065Y-199243D01*
X-82057Y-196810D01*
X-81714Y-194200D01*
X-82057Y-191590D01*
X-82668Y-190115D01*
X-78777Y-186223D01*
X-78003Y-185066D01*
X-77731Y-183700D01*
Y-169072D01*
X-76461Y-168989D01*
X-76143Y-171411D01*
X-75135Y-173843D01*
X-73532Y-175932D01*
X-71443Y-177535D01*
X-69011Y-178543D01*
X-68074Y-178666D01*
X-67666Y-179868D01*
X-68923Y-181126D01*
X-69697Y-182284D01*
X-69969Y-183649D01*
Y-184854D01*
X-71443Y-185465D01*
X-73532Y-187068D01*
X-75135Y-189157D01*
X-76143Y-191590D01*
X-76486Y-194200D01*
X-76143Y-196810D01*
X-75135Y-199243D01*
X-73532Y-201332D01*
X-71443Y-202935D01*
X-69011Y-203943D01*
X-66400Y-204286D01*
X-63790Y-203943D01*
X-61357Y-202935D01*
X-59268Y-201332D01*
X-57665Y-199243D01*
X-56657Y-196810D01*
X-56314Y-194200D01*
X-56657Y-191590D01*
X-57665Y-189157D01*
X-59268Y-187068D01*
X-61357Y-185465D01*
X-61582Y-185372D01*
X-61830Y-184126D01*
X-53377Y-175673D01*
X-52603Y-174515D01*
X-52331Y-173149D01*
Y-169379D01*
X-52240Y-169373D01*
Y-168227D01*
X-52331Y-168221D01*
Y-163804D01*
X2415Y-109058D01*
X3589Y-109292D01*
X5852Y-108841D01*
X7771Y-107560D01*
X9052Y-105641D01*
X9503Y-103378D01*
X9052Y-101115D01*
X7771Y-99196D01*
X5852Y-97914D01*
X3589Y-97464D01*
X1326Y-97914D01*
X-593Y-99196D01*
X-1875Y-101115D01*
X-2325Y-103378D01*
X-2271Y-103650D01*
X-3386Y-104765D01*
X-4559Y-104279D01*
Y-63773D01*
X-3946Y-63364D01*
X-2664Y-61445D01*
X-2214Y-59182D01*
X-2664Y-56919D01*
X-3946Y-55000D01*
X-5865Y-53719D01*
X-8128Y-53268D01*
D02*
G37*
G36*
X265070Y-158841D02*
Y-167530D01*
X273759D01*
X273582Y-166179D01*
X272570Y-163737D01*
X270961Y-161639D01*
X268863Y-160030D01*
X266421Y-159018D01*
X265070Y-158841D01*
D02*
G37*
G36*
X262530D02*
X261179Y-159018D01*
X258737Y-160030D01*
X256639Y-161639D01*
X255030Y-163737D01*
X254018Y-166179D01*
X253841Y-167530D01*
X262530D01*
Y-158841D01*
D02*
G37*
G36*
X188870D02*
Y-167530D01*
X197559D01*
X197382Y-166179D01*
X196370Y-163737D01*
X194761Y-161639D01*
X192663Y-160030D01*
X190221Y-159018D01*
X188870Y-158841D01*
D02*
G37*
G36*
X112670D02*
Y-167530D01*
X121359D01*
X121182Y-166179D01*
X120170Y-163737D01*
X118561Y-161639D01*
X116463Y-160030D01*
X114021Y-159018D01*
X112670Y-158841D01*
D02*
G37*
G36*
X36470D02*
Y-167530D01*
X45159D01*
X44982Y-166179D01*
X43970Y-163737D01*
X42361Y-161639D01*
X40263Y-160030D01*
X37821Y-159018D01*
X36470Y-158841D01*
D02*
G37*
G36*
X-39730D02*
Y-167530D01*
X-31041D01*
X-31218Y-166179D01*
X-32230Y-163737D01*
X-33839Y-161639D01*
X-35937Y-160030D01*
X-38379Y-159018D01*
X-39730Y-158841D01*
D02*
G37*
G36*
X-42270D02*
X-43621Y-159018D01*
X-46063Y-160030D01*
X-48161Y-161639D01*
X-49770Y-163737D01*
X-50782Y-166179D01*
X-50959Y-167530D01*
X-42270D01*
Y-158841D01*
D02*
G37*
G36*
X-115930D02*
Y-167530D01*
X-107241D01*
X-107418Y-166179D01*
X-108430Y-163737D01*
X-110039Y-161639D01*
X-112137Y-160030D01*
X-114579Y-159018D01*
X-115930Y-158841D01*
D02*
G37*
G36*
X-192130D02*
Y-167530D01*
X-183441D01*
X-183618Y-166179D01*
X-184630Y-163737D01*
X-186239Y-161639D01*
X-188337Y-160030D01*
X-190779Y-159018D01*
X-192130Y-158841D01*
D02*
G37*
G36*
X273759Y-170070D02*
X265070D01*
Y-178759D01*
X266421Y-178582D01*
X268863Y-177570D01*
X270961Y-175961D01*
X272570Y-173863D01*
X273582Y-171421D01*
X273759Y-170070D01*
D02*
G37*
G36*
X262530D02*
X253841D01*
X254018Y-171421D01*
X255030Y-173863D01*
X256639Y-175961D01*
X258737Y-177570D01*
X261179Y-178582D01*
X262530Y-178759D01*
Y-170070D01*
D02*
G37*
G36*
X197559D02*
X188870D01*
Y-178759D01*
X190221Y-178582D01*
X192663Y-177570D01*
X194761Y-175961D01*
X196370Y-173863D01*
X197382Y-171421D01*
X197559Y-170070D01*
D02*
G37*
G36*
X121359D02*
X112670D01*
Y-178759D01*
X114021Y-178582D01*
X116463Y-177570D01*
X118561Y-175961D01*
X120170Y-173863D01*
X121182Y-171421D01*
X121359Y-170070D01*
D02*
G37*
G36*
X45159D02*
X36470D01*
Y-178759D01*
X37821Y-178582D01*
X40263Y-177570D01*
X42361Y-175961D01*
X43970Y-173863D01*
X44982Y-171421D01*
X45159Y-170070D01*
D02*
G37*
G36*
X-31041D02*
X-39730D01*
Y-178759D01*
X-38379Y-178582D01*
X-35937Y-177570D01*
X-33839Y-175961D01*
X-32230Y-173863D01*
X-31218Y-171421D01*
X-31041Y-170070D01*
D02*
G37*
G36*
X-42270D02*
X-50959D01*
X-50870Y-170746D01*
X-50782Y-171421D01*
X-49770Y-173863D01*
X-48161Y-175961D01*
X-46063Y-177570D01*
X-43621Y-178582D01*
X-42270Y-178759D01*
Y-170070D01*
D02*
G37*
G36*
X-107241D02*
X-115930D01*
Y-178759D01*
X-114579Y-178582D01*
X-112137Y-177570D01*
X-110039Y-175961D01*
X-108430Y-173863D01*
X-107418Y-171421D01*
X-107241Y-170070D01*
D02*
G37*
G36*
X-183441D02*
X-192130D01*
Y-178759D01*
X-190779Y-178582D01*
X-188337Y-177570D01*
X-186239Y-175961D01*
X-184630Y-173863D01*
X-183618Y-171421D01*
X-183441Y-170070D01*
D02*
G37*
G36*
X-259641D02*
X-268330D01*
Y-178759D01*
X-266979Y-178582D01*
X-264537Y-177570D01*
X-262439Y-175961D01*
X-260830Y-173863D01*
X-259818Y-171421D01*
X-259641Y-170070D01*
D02*
G37*
G36*
X265070Y-184241D02*
Y-192930D01*
X273759D01*
X273582Y-191579D01*
X272570Y-189137D01*
X270961Y-187039D01*
X268863Y-185430D01*
X266421Y-184418D01*
X265070Y-184241D01*
D02*
G37*
G36*
X262530D02*
X261179Y-184418D01*
X258737Y-185430D01*
X256639Y-187039D01*
X255030Y-189137D01*
X254018Y-191579D01*
X253841Y-192930D01*
X262530D01*
Y-184241D01*
D02*
G37*
G36*
X188870D02*
Y-192930D01*
X197559D01*
X197382Y-191579D01*
X196370Y-189137D01*
X194761Y-187039D01*
X192663Y-185430D01*
X190221Y-184418D01*
X188870Y-184241D01*
D02*
G37*
G36*
X186330D02*
X184979Y-184418D01*
X182537Y-185430D01*
X180439Y-187039D01*
X178830Y-189137D01*
X177818Y-191579D01*
X177641Y-192930D01*
X186330D01*
Y-184241D01*
D02*
G37*
G36*
X112670D02*
Y-192930D01*
X121359D01*
X121182Y-191579D01*
X120170Y-189137D01*
X118561Y-187039D01*
X116463Y-185430D01*
X114021Y-184418D01*
X112670Y-184241D01*
D02*
G37*
G36*
X110130D02*
X108779Y-184418D01*
X106337Y-185430D01*
X104239Y-187039D01*
X102630Y-189137D01*
X101618Y-191579D01*
X101441Y-192930D01*
X110130D01*
Y-184241D01*
D02*
G37*
G36*
X36470D02*
Y-192930D01*
X45159D01*
X44982Y-191579D01*
X43970Y-189137D01*
X42361Y-187039D01*
X40263Y-185430D01*
X37821Y-184418D01*
X36470Y-184241D01*
D02*
G37*
G36*
X33930D02*
X32579Y-184418D01*
X30137Y-185430D01*
X28039Y-187039D01*
X26430Y-189137D01*
X25418Y-191579D01*
X25241Y-192930D01*
X33930D01*
Y-184241D01*
D02*
G37*
G36*
X-39730D02*
Y-192930D01*
X-31041D01*
X-31218Y-191579D01*
X-32230Y-189137D01*
X-33839Y-187039D01*
X-35937Y-185430D01*
X-38379Y-184418D01*
X-39730Y-184241D01*
D02*
G37*
G36*
X-42270D02*
X-43621Y-184418D01*
X-46063Y-185430D01*
X-48161Y-187039D01*
X-49770Y-189137D01*
X-50782Y-191579D01*
X-50959Y-192930D01*
X-42270D01*
Y-184241D01*
D02*
G37*
G36*
X-115930D02*
Y-192930D01*
X-107241D01*
X-107418Y-191579D01*
X-108430Y-189137D01*
X-110039Y-187039D01*
X-112137Y-185430D01*
X-114579Y-184418D01*
X-115930Y-184241D01*
D02*
G37*
G36*
X-118470D02*
X-119821Y-184418D01*
X-122263Y-185430D01*
X-124361Y-187039D01*
X-125970Y-189137D01*
X-126982Y-191579D01*
X-127159Y-192930D01*
X-118470D01*
Y-184241D01*
D02*
G37*
G36*
X-192130D02*
Y-192930D01*
X-183441D01*
X-183618Y-191579D01*
X-184630Y-189137D01*
X-186239Y-187039D01*
X-188337Y-185430D01*
X-190779Y-184418D01*
X-192130Y-184241D01*
D02*
G37*
G36*
X-194670D02*
X-196021Y-184418D01*
X-198463Y-185430D01*
X-200561Y-187039D01*
X-202170Y-189137D01*
X-203182Y-191579D01*
X-203359Y-192930D01*
X-194670D01*
Y-184241D01*
D02*
G37*
G36*
X-268330D02*
Y-192930D01*
X-259641D01*
X-259818Y-191579D01*
X-260830Y-189137D01*
X-262439Y-187039D01*
X-264537Y-185430D01*
X-266979Y-184418D01*
X-268330Y-184241D01*
D02*
G37*
G36*
X-270870D02*
X-272221Y-184418D01*
X-274663Y-185430D01*
X-276761Y-187039D01*
X-278370Y-189137D01*
X-279382Y-191579D01*
X-279559Y-192930D01*
X-270870D01*
Y-184241D01*
D02*
G37*
G36*
X273759Y-195470D02*
X265070D01*
Y-204159D01*
X266421Y-203982D01*
X268863Y-202970D01*
X270961Y-201361D01*
X272570Y-199263D01*
X273582Y-196821D01*
X273759Y-195470D01*
D02*
G37*
G36*
X262530D02*
X253841D01*
X254018Y-196821D01*
X255030Y-199263D01*
X256639Y-201361D01*
X258737Y-202970D01*
X261179Y-203982D01*
X262530Y-204159D01*
Y-195470D01*
D02*
G37*
G36*
X197559D02*
X188870D01*
Y-204159D01*
X190221Y-203982D01*
X192663Y-202970D01*
X194761Y-201361D01*
X196370Y-199263D01*
X197382Y-196821D01*
X197559Y-195470D01*
D02*
G37*
G36*
X186330D02*
X177641D01*
X177818Y-196821D01*
X178830Y-199263D01*
X180439Y-201361D01*
X182537Y-202970D01*
X184979Y-203982D01*
X186330Y-204159D01*
Y-195470D01*
D02*
G37*
G36*
X121359D02*
X112670D01*
Y-204159D01*
X114021Y-203982D01*
X116463Y-202970D01*
X118561Y-201361D01*
X120170Y-199263D01*
X121182Y-196821D01*
X121359Y-195470D01*
D02*
G37*
G36*
X110130D02*
X101441D01*
X101618Y-196821D01*
X102630Y-199263D01*
X104239Y-201361D01*
X106337Y-202970D01*
X108779Y-203982D01*
X110130Y-204159D01*
Y-195470D01*
D02*
G37*
G36*
X45159D02*
X36470D01*
Y-204159D01*
X37821Y-203982D01*
X40263Y-202970D01*
X42361Y-201361D01*
X43970Y-199263D01*
X44982Y-196821D01*
X45159Y-195470D01*
D02*
G37*
G36*
X33930D02*
X25241D01*
X25418Y-196821D01*
X26430Y-199263D01*
X28039Y-201361D01*
X30137Y-202970D01*
X32579Y-203982D01*
X33930Y-204159D01*
Y-195470D01*
D02*
G37*
G36*
X-31041D02*
X-39730D01*
Y-204159D01*
X-38379Y-203982D01*
X-35937Y-202970D01*
X-33839Y-201361D01*
X-32230Y-199263D01*
X-31218Y-196821D01*
X-31041Y-195470D01*
D02*
G37*
G36*
X-42270D02*
X-50959D01*
X-50782Y-196821D01*
X-49770Y-199263D01*
X-48161Y-201361D01*
X-46063Y-202970D01*
X-43621Y-203982D01*
X-42270Y-204159D01*
Y-195470D01*
D02*
G37*
G36*
X-107241D02*
X-115930D01*
Y-204159D01*
X-114579Y-203982D01*
X-112137Y-202970D01*
X-110039Y-201361D01*
X-108430Y-199263D01*
X-107418Y-196821D01*
X-107241Y-195470D01*
D02*
G37*
G36*
X-118470D02*
X-127159D01*
X-126982Y-196821D01*
X-125970Y-199263D01*
X-124361Y-201361D01*
X-122263Y-202970D01*
X-119821Y-203982D01*
X-118470Y-204159D01*
Y-195470D01*
D02*
G37*
G36*
X-183441D02*
X-192130D01*
Y-204159D01*
X-190779Y-203982D01*
X-188337Y-202970D01*
X-186239Y-201361D01*
X-184630Y-199263D01*
X-183618Y-196821D01*
X-183441Y-195470D01*
D02*
G37*
G36*
X-194670D02*
X-203359D01*
X-203182Y-196821D01*
X-202170Y-199263D01*
X-200561Y-201361D01*
X-198463Y-202970D01*
X-196021Y-203982D01*
X-194670Y-204159D01*
Y-195470D01*
D02*
G37*
G36*
X-259641D02*
X-268330D01*
Y-204159D01*
X-266979Y-203982D01*
X-264537Y-202970D01*
X-262439Y-201361D01*
X-260830Y-199263D01*
X-259818Y-196821D01*
X-259641Y-195470D01*
D02*
G37*
G36*
X-270870D02*
X-279559D01*
X-279382Y-196821D01*
X-278370Y-199263D01*
X-276761Y-201361D01*
X-274663Y-202970D01*
X-272221Y-203982D01*
X-270870Y-204159D01*
Y-195470D01*
D02*
G37*
G36*
X-293730Y-209641D02*
Y-218330D01*
X-285041D01*
X-285218Y-216979D01*
X-286230Y-214537D01*
X-287839Y-212439D01*
X-289937Y-210830D01*
X-292379Y-209818D01*
X-293730Y-209641D01*
D02*
G37*
G36*
X-296270D02*
X-297621Y-209818D01*
X-300063Y-210830D01*
X-302161Y-212439D01*
X-303770Y-214537D01*
X-304782Y-216979D01*
X-304959Y-218330D01*
X-296270D01*
Y-209641D01*
D02*
G37*
G36*
X-285041Y-220870D02*
X-293730D01*
Y-229559D01*
X-292379Y-229382D01*
X-289937Y-228370D01*
X-287839Y-226761D01*
X-286230Y-224663D01*
X-285218Y-222221D01*
X-285041Y-220870D01*
D02*
G37*
G36*
X-296270D02*
X-304959D01*
X-304782Y-222221D01*
X-303770Y-224663D01*
X-302161Y-226761D01*
X-300063Y-228370D01*
X-297621Y-229382D01*
X-296270Y-229559D01*
Y-220870D01*
D02*
G37*
G36*
X263800Y-209514D02*
X261189Y-209857D01*
X258757Y-210865D01*
X256668Y-212468D01*
X255065Y-214557D01*
X254057Y-216989D01*
X253714Y-219600D01*
X254057Y-222211D01*
X255065Y-224643D01*
X256668Y-226732D01*
X258757Y-228335D01*
X261189Y-229343D01*
X263800Y-229686D01*
X266411Y-229343D01*
X268843Y-228335D01*
X270932Y-226732D01*
X272535Y-224643D01*
X273543Y-222211D01*
X273886Y-219600D01*
X273543Y-216989D01*
X272535Y-214557D01*
X270932Y-212468D01*
X268843Y-210865D01*
X266411Y-209857D01*
X263800Y-209514D01*
D02*
G37*
G36*
X238400D02*
X235790Y-209857D01*
X233357Y-210865D01*
X231268Y-212468D01*
X229665Y-214557D01*
X228657Y-216989D01*
X228314Y-219600D01*
X228657Y-222211D01*
X229665Y-224643D01*
X231268Y-226732D01*
X233357Y-228335D01*
X235790Y-229343D01*
X238400Y-229686D01*
X241010Y-229343D01*
X243443Y-228335D01*
X245532Y-226732D01*
X247135Y-224643D01*
X248143Y-222211D01*
X248486Y-219600D01*
X248143Y-216989D01*
X247135Y-214557D01*
X245532Y-212468D01*
X243443Y-210865D01*
X241010Y-209857D01*
X238400Y-209514D01*
D02*
G37*
G36*
X213000D02*
X210389Y-209857D01*
X207957Y-210865D01*
X205868Y-212468D01*
X204265Y-214557D01*
X203257Y-216989D01*
X202914Y-219600D01*
X203257Y-222211D01*
X204265Y-224643D01*
X205868Y-226732D01*
X207957Y-228335D01*
X210389Y-229343D01*
X213000Y-229686D01*
X215611Y-229343D01*
X218043Y-228335D01*
X220132Y-226732D01*
X221735Y-224643D01*
X222743Y-222211D01*
X223086Y-219600D01*
X222743Y-216989D01*
X221735Y-214557D01*
X220132Y-212468D01*
X218043Y-210865D01*
X215611Y-209857D01*
X213000Y-209514D01*
D02*
G37*
G36*
X187600D02*
X184989Y-209857D01*
X182557Y-210865D01*
X180468Y-212468D01*
X178865Y-214557D01*
X177857Y-216989D01*
X177514Y-219600D01*
X177857Y-222211D01*
X178865Y-224643D01*
X180468Y-226732D01*
X182557Y-228335D01*
X184989Y-229343D01*
X187600Y-229686D01*
X190210Y-229343D01*
X192643Y-228335D01*
X194732Y-226732D01*
X196335Y-224643D01*
X197343Y-222211D01*
X197686Y-219600D01*
X197343Y-216989D01*
X196335Y-214557D01*
X194732Y-212468D01*
X192643Y-210865D01*
X190210Y-209857D01*
X187600Y-209514D01*
D02*
G37*
G36*
X162200D02*
X159590Y-209857D01*
X157157Y-210865D01*
X155068Y-212468D01*
X153465Y-214557D01*
X152457Y-216989D01*
X152114Y-219600D01*
X152457Y-222211D01*
X153465Y-224643D01*
X155068Y-226732D01*
X157157Y-228335D01*
X159590Y-229343D01*
X162200Y-229686D01*
X164811Y-229343D01*
X167243Y-228335D01*
X169332Y-226732D01*
X170935Y-224643D01*
X171943Y-222211D01*
X172286Y-219600D01*
X171943Y-216989D01*
X170935Y-214557D01*
X169332Y-212468D01*
X167243Y-210865D01*
X164811Y-209857D01*
X162200Y-209514D01*
D02*
G37*
G36*
X136800D02*
X134190Y-209857D01*
X131757Y-210865D01*
X129668Y-212468D01*
X128065Y-214557D01*
X127057Y-216989D01*
X126714Y-219600D01*
X127057Y-222211D01*
X128065Y-224643D01*
X129668Y-226732D01*
X131757Y-228335D01*
X134190Y-229343D01*
X136800Y-229686D01*
X139410Y-229343D01*
X141843Y-228335D01*
X143932Y-226732D01*
X145535Y-224643D01*
X146543Y-222211D01*
X146886Y-219600D01*
X146543Y-216989D01*
X145535Y-214557D01*
X143932Y-212468D01*
X141843Y-210865D01*
X139410Y-209857D01*
X136800Y-209514D01*
D02*
G37*
G36*
X111400D02*
X108790Y-209857D01*
X106357Y-210865D01*
X104268Y-212468D01*
X102665Y-214557D01*
X101657Y-216989D01*
X101314Y-219600D01*
X101657Y-222211D01*
X102665Y-224643D01*
X104268Y-226732D01*
X106357Y-228335D01*
X108790Y-229343D01*
X111400Y-229686D01*
X114010Y-229343D01*
X116443Y-228335D01*
X118532Y-226732D01*
X120135Y-224643D01*
X121143Y-222211D01*
X121486Y-219600D01*
X121143Y-216989D01*
X120135Y-214557D01*
X118532Y-212468D01*
X116443Y-210865D01*
X114010Y-209857D01*
X111400Y-209514D01*
D02*
G37*
G36*
X86000D02*
X83390Y-209857D01*
X80957Y-210865D01*
X78868Y-212468D01*
X77265Y-214557D01*
X76257Y-216989D01*
X75914Y-219600D01*
X76257Y-222211D01*
X77265Y-224643D01*
X78868Y-226732D01*
X80957Y-228335D01*
X83390Y-229343D01*
X86000Y-229686D01*
X88610Y-229343D01*
X91043Y-228335D01*
X93132Y-226732D01*
X94735Y-224643D01*
X95743Y-222211D01*
X96086Y-219600D01*
X95743Y-216989D01*
X94735Y-214557D01*
X93132Y-212468D01*
X91043Y-210865D01*
X88610Y-209857D01*
X86000Y-209514D01*
D02*
G37*
G36*
X60600D02*
X57990Y-209857D01*
X55557Y-210865D01*
X53468Y-212468D01*
X51865Y-214557D01*
X50857Y-216989D01*
X50514Y-219600D01*
X50857Y-222211D01*
X51865Y-224643D01*
X53468Y-226732D01*
X55557Y-228335D01*
X57990Y-229343D01*
X60600Y-229686D01*
X63211Y-229343D01*
X65643Y-228335D01*
X67732Y-226732D01*
X69335Y-224643D01*
X70343Y-222211D01*
X70686Y-219600D01*
X70343Y-216989D01*
X69335Y-214557D01*
X67732Y-212468D01*
X65643Y-210865D01*
X63211Y-209857D01*
X60600Y-209514D01*
D02*
G37*
G36*
X35200D02*
X32589Y-209857D01*
X30157Y-210865D01*
X28068Y-212468D01*
X26465Y-214557D01*
X25457Y-216989D01*
X25114Y-219600D01*
X25457Y-222211D01*
X26465Y-224643D01*
X28068Y-226732D01*
X30157Y-228335D01*
X32589Y-229343D01*
X35200Y-229686D01*
X37810Y-229343D01*
X40243Y-228335D01*
X42332Y-226732D01*
X43935Y-224643D01*
X44943Y-222211D01*
X45286Y-219600D01*
X44943Y-216989D01*
X43935Y-214557D01*
X42332Y-212468D01*
X40243Y-210865D01*
X37810Y-209857D01*
X35200Y-209514D01*
D02*
G37*
G36*
X9800D02*
X7189Y-209857D01*
X4757Y-210865D01*
X2668Y-212468D01*
X1065Y-214557D01*
X57Y-216989D01*
X-286Y-219600D01*
X57Y-222211D01*
X1065Y-224643D01*
X2668Y-226732D01*
X4757Y-228335D01*
X7189Y-229343D01*
X9800Y-229686D01*
X12411Y-229343D01*
X14843Y-228335D01*
X16932Y-226732D01*
X18535Y-224643D01*
X19543Y-222211D01*
X19886Y-219600D01*
X19543Y-216989D01*
X18535Y-214557D01*
X16932Y-212468D01*
X14843Y-210865D01*
X12411Y-209857D01*
X9800Y-209514D01*
D02*
G37*
G36*
X-15600D02*
X-18211Y-209857D01*
X-20643Y-210865D01*
X-22732Y-212468D01*
X-24335Y-214557D01*
X-25343Y-216989D01*
X-25686Y-219600D01*
X-25343Y-222211D01*
X-24335Y-224643D01*
X-22732Y-226732D01*
X-20643Y-228335D01*
X-18211Y-229343D01*
X-15600Y-229686D01*
X-12989Y-229343D01*
X-10557Y-228335D01*
X-8468Y-226732D01*
X-6865Y-224643D01*
X-5857Y-222211D01*
X-5514Y-219600D01*
X-5857Y-216989D01*
X-6865Y-214557D01*
X-8468Y-212468D01*
X-10557Y-210865D01*
X-12989Y-209857D01*
X-15600Y-209514D01*
D02*
G37*
G36*
X-41000D02*
X-43611Y-209857D01*
X-46043Y-210865D01*
X-48132Y-212468D01*
X-49735Y-214557D01*
X-50743Y-216989D01*
X-51086Y-219600D01*
X-50743Y-222211D01*
X-49735Y-224643D01*
X-48132Y-226732D01*
X-46043Y-228335D01*
X-43611Y-229343D01*
X-41000Y-229686D01*
X-38389Y-229343D01*
X-35957Y-228335D01*
X-33868Y-226732D01*
X-32265Y-224643D01*
X-31257Y-222211D01*
X-30914Y-219600D01*
X-31257Y-216989D01*
X-32265Y-214557D01*
X-33868Y-212468D01*
X-35957Y-210865D01*
X-38389Y-209857D01*
X-41000Y-209514D01*
D02*
G37*
G36*
X-66400D02*
X-69011Y-209857D01*
X-71443Y-210865D01*
X-73532Y-212468D01*
X-75135Y-214557D01*
X-76143Y-216989D01*
X-76486Y-219600D01*
X-76143Y-222211D01*
X-75135Y-224643D01*
X-73532Y-226732D01*
X-71443Y-228335D01*
X-69011Y-229343D01*
X-66400Y-229686D01*
X-63790Y-229343D01*
X-61357Y-228335D01*
X-59268Y-226732D01*
X-57665Y-224643D01*
X-56657Y-222211D01*
X-56314Y-219600D01*
X-56657Y-216989D01*
X-57665Y-214557D01*
X-59268Y-212468D01*
X-61357Y-210865D01*
X-63790Y-209857D01*
X-66400Y-209514D01*
D02*
G37*
G36*
X-91800D02*
X-94410Y-209857D01*
X-96843Y-210865D01*
X-98932Y-212468D01*
X-100535Y-214557D01*
X-101543Y-216989D01*
X-101886Y-219600D01*
X-101543Y-222211D01*
X-100535Y-224643D01*
X-98932Y-226732D01*
X-96843Y-228335D01*
X-94410Y-229343D01*
X-91800Y-229686D01*
X-89190Y-229343D01*
X-86757Y-228335D01*
X-84668Y-226732D01*
X-83065Y-224643D01*
X-82057Y-222211D01*
X-81714Y-219600D01*
X-82057Y-216989D01*
X-83065Y-214557D01*
X-84668Y-212468D01*
X-86757Y-210865D01*
X-89190Y-209857D01*
X-91800Y-209514D01*
D02*
G37*
G36*
X-117200D02*
X-119810Y-209857D01*
X-122243Y-210865D01*
X-124332Y-212468D01*
X-125935Y-214557D01*
X-126943Y-216989D01*
X-127286Y-219600D01*
X-126943Y-222211D01*
X-125935Y-224643D01*
X-124332Y-226732D01*
X-122243Y-228335D01*
X-119810Y-229343D01*
X-117200Y-229686D01*
X-114590Y-229343D01*
X-112157Y-228335D01*
X-110068Y-226732D01*
X-108465Y-224643D01*
X-107457Y-222211D01*
X-107114Y-219600D01*
X-107457Y-216989D01*
X-108465Y-214557D01*
X-110068Y-212468D01*
X-112157Y-210865D01*
X-114590Y-209857D01*
X-117200Y-209514D01*
D02*
G37*
G36*
X-142600D02*
X-145211Y-209857D01*
X-147643Y-210865D01*
X-149732Y-212468D01*
X-151335Y-214557D01*
X-152343Y-216989D01*
X-152686Y-219600D01*
X-152343Y-222211D01*
X-151335Y-224643D01*
X-149732Y-226732D01*
X-147643Y-228335D01*
X-145211Y-229343D01*
X-142600Y-229686D01*
X-139990Y-229343D01*
X-137557Y-228335D01*
X-135468Y-226732D01*
X-133865Y-224643D01*
X-132857Y-222211D01*
X-132514Y-219600D01*
X-132857Y-216989D01*
X-133865Y-214557D01*
X-135468Y-212468D01*
X-137557Y-210865D01*
X-139990Y-209857D01*
X-142600Y-209514D01*
D02*
G37*
G36*
X-168000D02*
X-170611Y-209857D01*
X-173043Y-210865D01*
X-175132Y-212468D01*
X-176735Y-214557D01*
X-177743Y-216989D01*
X-178086Y-219600D01*
X-177743Y-222211D01*
X-176735Y-224643D01*
X-175132Y-226732D01*
X-173043Y-228335D01*
X-170611Y-229343D01*
X-168000Y-229686D01*
X-165389Y-229343D01*
X-162957Y-228335D01*
X-160868Y-226732D01*
X-159265Y-224643D01*
X-158257Y-222211D01*
X-157914Y-219600D01*
X-158257Y-216989D01*
X-159265Y-214557D01*
X-160868Y-212468D01*
X-162957Y-210865D01*
X-165389Y-209857D01*
X-168000Y-209514D01*
D02*
G37*
G36*
X-193400D02*
X-196010Y-209857D01*
X-198443Y-210865D01*
X-200532Y-212468D01*
X-202135Y-214557D01*
X-203143Y-216989D01*
X-203486Y-219600D01*
X-203143Y-222211D01*
X-202135Y-224643D01*
X-200532Y-226732D01*
X-198443Y-228335D01*
X-196010Y-229343D01*
X-193400Y-229686D01*
X-190790Y-229343D01*
X-188357Y-228335D01*
X-186268Y-226732D01*
X-184665Y-224643D01*
X-183657Y-222211D01*
X-183314Y-219600D01*
X-183657Y-216989D01*
X-184665Y-214557D01*
X-186268Y-212468D01*
X-188357Y-210865D01*
X-190790Y-209857D01*
X-193400Y-209514D01*
D02*
G37*
G36*
X-218800D02*
X-221411Y-209857D01*
X-223843Y-210865D01*
X-225932Y-212468D01*
X-227535Y-214557D01*
X-228543Y-216989D01*
X-228886Y-219600D01*
X-228543Y-222211D01*
X-227535Y-224643D01*
X-225932Y-226732D01*
X-223843Y-228335D01*
X-221411Y-229343D01*
X-218800Y-229686D01*
X-216189Y-229343D01*
X-213757Y-228335D01*
X-211668Y-226732D01*
X-210065Y-224643D01*
X-209057Y-222211D01*
X-208714Y-219600D01*
X-209057Y-216989D01*
X-210065Y-214557D01*
X-211668Y-212468D01*
X-213757Y-210865D01*
X-216189Y-209857D01*
X-218800Y-209514D01*
D02*
G37*
G36*
X-244200D02*
X-246810Y-209857D01*
X-249243Y-210865D01*
X-251332Y-212468D01*
X-252935Y-214557D01*
X-253943Y-216989D01*
X-254286Y-219600D01*
X-253943Y-222211D01*
X-252935Y-224643D01*
X-251332Y-226732D01*
X-249243Y-228335D01*
X-246810Y-229343D01*
X-244200Y-229686D01*
X-241590Y-229343D01*
X-239157Y-228335D01*
X-237068Y-226732D01*
X-235465Y-224643D01*
X-234457Y-222211D01*
X-234114Y-219600D01*
X-234457Y-216989D01*
X-235465Y-214557D01*
X-237068Y-212468D01*
X-239157Y-210865D01*
X-241590Y-209857D01*
X-244200Y-209514D01*
D02*
G37*
G36*
X-269600D02*
X-272211Y-209857D01*
X-274643Y-210865D01*
X-276732Y-212468D01*
X-278335Y-214557D01*
X-279343Y-216989D01*
X-279686Y-219600D01*
X-279343Y-222211D01*
X-278335Y-224643D01*
X-276732Y-226732D01*
X-274643Y-228335D01*
X-272211Y-229343D01*
X-269600Y-229686D01*
X-266989Y-229343D01*
X-264557Y-228335D01*
X-262468Y-226732D01*
X-260865Y-224643D01*
X-259857Y-222211D01*
X-259514Y-219600D01*
X-259857Y-216989D01*
X-260865Y-214557D01*
X-262468Y-212468D01*
X-264557Y-210865D01*
X-266989Y-209857D01*
X-269600Y-209514D01*
D02*
G37*
G36*
X-284960Y-234960D02*
X-293730D01*
Y-243730D01*
X-284960D01*
Y-234960D01*
D02*
G37*
G36*
X-296270D02*
X-305040D01*
Y-243730D01*
X-296270D01*
Y-234960D01*
D02*
G37*
G36*
X-284960Y-246270D02*
X-293730D01*
Y-255040D01*
X-284960D01*
Y-246270D01*
D02*
G37*
G36*
X-296270D02*
X-305040D01*
Y-255040D01*
X-296270D01*
Y-246270D01*
D02*
G37*
G36*
X263800Y-234914D02*
X261189Y-235257D01*
X258757Y-236265D01*
X256668Y-237868D01*
X255065Y-239957D01*
X254057Y-242390D01*
X253714Y-245000D01*
X254057Y-247610D01*
X255065Y-250043D01*
X256668Y-252132D01*
X258757Y-253735D01*
X261189Y-254743D01*
X263800Y-255086D01*
X266411Y-254743D01*
X268843Y-253735D01*
X270932Y-252132D01*
X272535Y-250043D01*
X273543Y-247610D01*
X273886Y-245000D01*
X273543Y-242390D01*
X272535Y-239957D01*
X270932Y-237868D01*
X268843Y-236265D01*
X266411Y-235257D01*
X263800Y-234914D01*
D02*
G37*
G36*
X238400D02*
X235790Y-235257D01*
X233357Y-236265D01*
X231268Y-237868D01*
X229665Y-239957D01*
X228657Y-242390D01*
X228314Y-245000D01*
X228657Y-247610D01*
X229665Y-250043D01*
X231268Y-252132D01*
X233357Y-253735D01*
X235790Y-254743D01*
X238400Y-255086D01*
X241010Y-254743D01*
X243443Y-253735D01*
X245532Y-252132D01*
X247135Y-250043D01*
X248143Y-247610D01*
X248486Y-245000D01*
X248143Y-242390D01*
X247135Y-239957D01*
X245532Y-237868D01*
X243443Y-236265D01*
X241010Y-235257D01*
X238400Y-234914D01*
D02*
G37*
G36*
X213000D02*
X210389Y-235257D01*
X207957Y-236265D01*
X205868Y-237868D01*
X204265Y-239957D01*
X203257Y-242390D01*
X202914Y-245000D01*
X203257Y-247610D01*
X204265Y-250043D01*
X205868Y-252132D01*
X207957Y-253735D01*
X210389Y-254743D01*
X213000Y-255086D01*
X215611Y-254743D01*
X218043Y-253735D01*
X220132Y-252132D01*
X221735Y-250043D01*
X222743Y-247610D01*
X223086Y-245000D01*
X222743Y-242390D01*
X221735Y-239957D01*
X220132Y-237868D01*
X218043Y-236265D01*
X215611Y-235257D01*
X213000Y-234914D01*
D02*
G37*
G36*
X187600D02*
X184989Y-235257D01*
X182557Y-236265D01*
X180468Y-237868D01*
X178865Y-239957D01*
X177857Y-242390D01*
X177514Y-245000D01*
X177857Y-247610D01*
X178865Y-250043D01*
X180468Y-252132D01*
X182557Y-253735D01*
X184989Y-254743D01*
X187600Y-255086D01*
X190210Y-254743D01*
X192643Y-253735D01*
X194732Y-252132D01*
X196335Y-250043D01*
X197343Y-247610D01*
X197686Y-245000D01*
X197343Y-242390D01*
X196335Y-239957D01*
X194732Y-237868D01*
X192643Y-236265D01*
X190210Y-235257D01*
X187600Y-234914D01*
D02*
G37*
G36*
X162200D02*
X159590Y-235257D01*
X157157Y-236265D01*
X155068Y-237868D01*
X153465Y-239957D01*
X152457Y-242390D01*
X152114Y-245000D01*
X152457Y-247610D01*
X153465Y-250043D01*
X155068Y-252132D01*
X157157Y-253735D01*
X159590Y-254743D01*
X162200Y-255086D01*
X164811Y-254743D01*
X167243Y-253735D01*
X169332Y-252132D01*
X170935Y-250043D01*
X171943Y-247610D01*
X172286Y-245000D01*
X171943Y-242390D01*
X170935Y-239957D01*
X169332Y-237868D01*
X167243Y-236265D01*
X164811Y-235257D01*
X162200Y-234914D01*
D02*
G37*
G36*
X136800D02*
X134190Y-235257D01*
X131757Y-236265D01*
X129668Y-237868D01*
X128065Y-239957D01*
X127057Y-242390D01*
X126714Y-245000D01*
X127057Y-247610D01*
X128065Y-250043D01*
X129668Y-252132D01*
X131757Y-253735D01*
X134190Y-254743D01*
X136800Y-255086D01*
X139410Y-254743D01*
X141843Y-253735D01*
X143932Y-252132D01*
X145535Y-250043D01*
X146543Y-247610D01*
X146886Y-245000D01*
X146543Y-242390D01*
X145535Y-239957D01*
X143932Y-237868D01*
X141843Y-236265D01*
X139410Y-235257D01*
X136800Y-234914D01*
D02*
G37*
G36*
X111400D02*
X108790Y-235257D01*
X106357Y-236265D01*
X104268Y-237868D01*
X102665Y-239957D01*
X101657Y-242390D01*
X101314Y-245000D01*
X101657Y-247610D01*
X102665Y-250043D01*
X104268Y-252132D01*
X106357Y-253735D01*
X108790Y-254743D01*
X111400Y-255086D01*
X114010Y-254743D01*
X116443Y-253735D01*
X118532Y-252132D01*
X120135Y-250043D01*
X121143Y-247610D01*
X121486Y-245000D01*
X121143Y-242390D01*
X120135Y-239957D01*
X118532Y-237868D01*
X116443Y-236265D01*
X114010Y-235257D01*
X111400Y-234914D01*
D02*
G37*
G36*
X86000D02*
X83390Y-235257D01*
X80957Y-236265D01*
X78868Y-237868D01*
X77265Y-239957D01*
X76257Y-242390D01*
X75914Y-245000D01*
X76257Y-247610D01*
X77265Y-250043D01*
X78868Y-252132D01*
X80957Y-253735D01*
X83390Y-254743D01*
X86000Y-255086D01*
X88610Y-254743D01*
X91043Y-253735D01*
X93132Y-252132D01*
X94735Y-250043D01*
X95743Y-247610D01*
X96086Y-245000D01*
X95743Y-242390D01*
X94735Y-239957D01*
X93132Y-237868D01*
X91043Y-236265D01*
X88610Y-235257D01*
X86000Y-234914D01*
D02*
G37*
G36*
X60600D02*
X57990Y-235257D01*
X55557Y-236265D01*
X53468Y-237868D01*
X51865Y-239957D01*
X50857Y-242390D01*
X50514Y-245000D01*
X50857Y-247610D01*
X51865Y-250043D01*
X53468Y-252132D01*
X55557Y-253735D01*
X57990Y-254743D01*
X60600Y-255086D01*
X63211Y-254743D01*
X65643Y-253735D01*
X67732Y-252132D01*
X69335Y-250043D01*
X70343Y-247610D01*
X70686Y-245000D01*
X70343Y-242390D01*
X69335Y-239957D01*
X67732Y-237868D01*
X65643Y-236265D01*
X63211Y-235257D01*
X60600Y-234914D01*
D02*
G37*
G36*
X35200D02*
X32589Y-235257D01*
X30157Y-236265D01*
X28068Y-237868D01*
X26465Y-239957D01*
X25457Y-242390D01*
X25114Y-245000D01*
X25457Y-247610D01*
X26465Y-250043D01*
X28068Y-252132D01*
X30157Y-253735D01*
X32589Y-254743D01*
X35200Y-255086D01*
X37810Y-254743D01*
X40243Y-253735D01*
X42332Y-252132D01*
X43935Y-250043D01*
X44943Y-247610D01*
X45286Y-245000D01*
X44943Y-242390D01*
X43935Y-239957D01*
X42332Y-237868D01*
X40243Y-236265D01*
X37810Y-235257D01*
X35200Y-234914D01*
D02*
G37*
G36*
X9800D02*
X7189Y-235257D01*
X4757Y-236265D01*
X2668Y-237868D01*
X1065Y-239957D01*
X57Y-242390D01*
X-286Y-245000D01*
X57Y-247610D01*
X1065Y-250043D01*
X2668Y-252132D01*
X4757Y-253735D01*
X7189Y-254743D01*
X9800Y-255086D01*
X12411Y-254743D01*
X14843Y-253735D01*
X16932Y-252132D01*
X18535Y-250043D01*
X19543Y-247610D01*
X19886Y-245000D01*
X19543Y-242390D01*
X18535Y-239957D01*
X16932Y-237868D01*
X14843Y-236265D01*
X12411Y-235257D01*
X9800Y-234914D01*
D02*
G37*
G36*
X-15600D02*
X-18211Y-235257D01*
X-20643Y-236265D01*
X-22732Y-237868D01*
X-24335Y-239957D01*
X-25343Y-242390D01*
X-25686Y-245000D01*
X-25343Y-247610D01*
X-24335Y-250043D01*
X-22732Y-252132D01*
X-20643Y-253735D01*
X-18211Y-254743D01*
X-15600Y-255086D01*
X-12989Y-254743D01*
X-10557Y-253735D01*
X-8468Y-252132D01*
X-6865Y-250043D01*
X-5857Y-247610D01*
X-5514Y-245000D01*
X-5857Y-242390D01*
X-6865Y-239957D01*
X-8468Y-237868D01*
X-10557Y-236265D01*
X-12989Y-235257D01*
X-15600Y-234914D01*
D02*
G37*
G36*
X-41000D02*
X-43611Y-235257D01*
X-46043Y-236265D01*
X-48132Y-237868D01*
X-49735Y-239957D01*
X-50743Y-242390D01*
X-51086Y-245000D01*
X-50743Y-247610D01*
X-49735Y-250043D01*
X-48132Y-252132D01*
X-46043Y-253735D01*
X-43611Y-254743D01*
X-41000Y-255086D01*
X-38389Y-254743D01*
X-35957Y-253735D01*
X-33868Y-252132D01*
X-32265Y-250043D01*
X-31257Y-247610D01*
X-30914Y-245000D01*
X-31257Y-242390D01*
X-32265Y-239957D01*
X-33868Y-237868D01*
X-35957Y-236265D01*
X-38389Y-235257D01*
X-41000Y-234914D01*
D02*
G37*
G36*
X-66400D02*
X-69011Y-235257D01*
X-71443Y-236265D01*
X-73532Y-237868D01*
X-75135Y-239957D01*
X-76143Y-242390D01*
X-76486Y-245000D01*
X-76143Y-247610D01*
X-75135Y-250043D01*
X-73532Y-252132D01*
X-71443Y-253735D01*
X-69011Y-254743D01*
X-66400Y-255086D01*
X-63790Y-254743D01*
X-61357Y-253735D01*
X-59268Y-252132D01*
X-57665Y-250043D01*
X-56657Y-247610D01*
X-56314Y-245000D01*
X-56657Y-242390D01*
X-57665Y-239957D01*
X-59268Y-237868D01*
X-61357Y-236265D01*
X-63790Y-235257D01*
X-66400Y-234914D01*
D02*
G37*
G36*
X-91800D02*
X-94410Y-235257D01*
X-96843Y-236265D01*
X-98932Y-237868D01*
X-100535Y-239957D01*
X-101543Y-242390D01*
X-101886Y-245000D01*
X-101543Y-247610D01*
X-100535Y-250043D01*
X-98932Y-252132D01*
X-96843Y-253735D01*
X-94410Y-254743D01*
X-91800Y-255086D01*
X-89190Y-254743D01*
X-86757Y-253735D01*
X-84668Y-252132D01*
X-83065Y-250043D01*
X-82057Y-247610D01*
X-81714Y-245000D01*
X-82057Y-242390D01*
X-83065Y-239957D01*
X-84668Y-237868D01*
X-86757Y-236265D01*
X-89190Y-235257D01*
X-91800Y-234914D01*
D02*
G37*
G36*
X-117200D02*
X-119810Y-235257D01*
X-122243Y-236265D01*
X-124332Y-237868D01*
X-125935Y-239957D01*
X-126943Y-242390D01*
X-127286Y-245000D01*
X-126943Y-247610D01*
X-125935Y-250043D01*
X-124332Y-252132D01*
X-122243Y-253735D01*
X-119810Y-254743D01*
X-117200Y-255086D01*
X-114590Y-254743D01*
X-112157Y-253735D01*
X-110068Y-252132D01*
X-108465Y-250043D01*
X-107457Y-247610D01*
X-107114Y-245000D01*
X-107457Y-242390D01*
X-108465Y-239957D01*
X-110068Y-237868D01*
X-112157Y-236265D01*
X-114590Y-235257D01*
X-117200Y-234914D01*
D02*
G37*
G36*
X-142600D02*
X-145211Y-235257D01*
X-147643Y-236265D01*
X-149732Y-237868D01*
X-151335Y-239957D01*
X-152343Y-242390D01*
X-152686Y-245000D01*
X-152343Y-247610D01*
X-151335Y-250043D01*
X-149732Y-252132D01*
X-147643Y-253735D01*
X-145211Y-254743D01*
X-142600Y-255086D01*
X-139990Y-254743D01*
X-137557Y-253735D01*
X-135468Y-252132D01*
X-133865Y-250043D01*
X-132857Y-247610D01*
X-132514Y-245000D01*
X-132857Y-242390D01*
X-133865Y-239957D01*
X-135468Y-237868D01*
X-137557Y-236265D01*
X-139990Y-235257D01*
X-142600Y-234914D01*
D02*
G37*
G36*
X-168000D02*
X-170611Y-235257D01*
X-173043Y-236265D01*
X-175132Y-237868D01*
X-176735Y-239957D01*
X-177743Y-242390D01*
X-178086Y-245000D01*
X-177743Y-247610D01*
X-176735Y-250043D01*
X-175132Y-252132D01*
X-173043Y-253735D01*
X-170611Y-254743D01*
X-168000Y-255086D01*
X-165389Y-254743D01*
X-162957Y-253735D01*
X-160868Y-252132D01*
X-159265Y-250043D01*
X-158257Y-247610D01*
X-157914Y-245000D01*
X-158257Y-242390D01*
X-159265Y-239957D01*
X-160868Y-237868D01*
X-162957Y-236265D01*
X-165389Y-235257D01*
X-168000Y-234914D01*
D02*
G37*
G36*
X-193400D02*
X-196010Y-235257D01*
X-198443Y-236265D01*
X-200532Y-237868D01*
X-202135Y-239957D01*
X-203143Y-242390D01*
X-203486Y-245000D01*
X-203143Y-247610D01*
X-202135Y-250043D01*
X-200532Y-252132D01*
X-198443Y-253735D01*
X-196010Y-254743D01*
X-193400Y-255086D01*
X-190790Y-254743D01*
X-188357Y-253735D01*
X-186268Y-252132D01*
X-184665Y-250043D01*
X-183657Y-247610D01*
X-183314Y-245000D01*
X-183657Y-242390D01*
X-184665Y-239957D01*
X-186268Y-237868D01*
X-188357Y-236265D01*
X-190790Y-235257D01*
X-193400Y-234914D01*
D02*
G37*
G36*
X-218800D02*
X-221411Y-235257D01*
X-223843Y-236265D01*
X-225932Y-237868D01*
X-227535Y-239957D01*
X-228543Y-242390D01*
X-228886Y-245000D01*
X-228543Y-247610D01*
X-227535Y-250043D01*
X-225932Y-252132D01*
X-223843Y-253735D01*
X-221411Y-254743D01*
X-218800Y-255086D01*
X-216189Y-254743D01*
X-213757Y-253735D01*
X-211668Y-252132D01*
X-210065Y-250043D01*
X-209057Y-247610D01*
X-208714Y-245000D01*
X-209057Y-242390D01*
X-210065Y-239957D01*
X-211668Y-237868D01*
X-213757Y-236265D01*
X-216189Y-235257D01*
X-218800Y-234914D01*
D02*
G37*
G36*
X-244200D02*
X-246810Y-235257D01*
X-249243Y-236265D01*
X-251332Y-237868D01*
X-252935Y-239957D01*
X-253943Y-242390D01*
X-254286Y-245000D01*
X-253943Y-247610D01*
X-252935Y-250043D01*
X-251332Y-252132D01*
X-249243Y-253735D01*
X-246810Y-254743D01*
X-244200Y-255086D01*
X-241590Y-254743D01*
X-239157Y-253735D01*
X-237068Y-252132D01*
X-235465Y-250043D01*
X-234457Y-247610D01*
X-234114Y-245000D01*
X-234457Y-242390D01*
X-235465Y-239957D01*
X-237068Y-237868D01*
X-239157Y-236265D01*
X-241590Y-235257D01*
X-244200Y-234914D01*
D02*
G37*
G36*
X-269600D02*
X-272211Y-235257D01*
X-274643Y-236265D01*
X-276732Y-237868D01*
X-278335Y-239957D01*
X-279343Y-242390D01*
X-279686Y-245000D01*
X-279343Y-247610D01*
X-278335Y-250043D01*
X-276732Y-252132D01*
X-274643Y-253735D01*
X-272211Y-254743D01*
X-269600Y-255086D01*
X-266989Y-254743D01*
X-264557Y-253735D01*
X-262468Y-252132D01*
X-260865Y-250043D01*
X-259857Y-247610D01*
X-259514Y-245000D01*
X-259857Y-242390D01*
X-260865Y-239957D01*
X-262468Y-237868D01*
X-264557Y-236265D01*
X-266989Y-235257D01*
X-269600Y-234914D01*
D02*
G37*
%LPD*%
D14*
X-145542Y92202D02*
X-136208Y82868D01*
X-139954Y50019D02*
X-136208Y53765D01*
Y82868D01*
X-149542Y90545D02*
X-140208Y81211D01*
Y55422D02*
Y81211D01*
X-151892Y43738D02*
X-140208Y55422D01*
X-139954Y44450D02*
Y50019D01*
X-149542Y117481D02*
X-139515Y127508D01*
X-149542Y90545D02*
Y117481D01*
X-145542Y115824D02*
X-135515Y125851D01*
X-145542Y92202D02*
Y115824D01*
X-139515Y127508D02*
Y157226D01*
X-135515Y125851D02*
Y155569D01*
X-158242Y119156D02*
X-155956Y116870D01*
Y68337D02*
Y116870D01*
Y68337D02*
X-150114Y62495D01*
X-162242Y175215D02*
X-154114Y183343D01*
X-162242Y117500D02*
Y175215D01*
Y117500D02*
X-162052Y117310D01*
Y106172D02*
Y117310D01*
X-158242Y173558D02*
X-142600Y189200D01*
X-158242Y119156D02*
Y173558D01*
X-154114Y183343D02*
Y203086D01*
X-151892Y43738D02*
X-146000Y37846D01*
X-35814Y25908D02*
X-25180D01*
X-33210Y29908D02*
X-23455D01*
X62992Y-19050D02*
Y-13649D01*
X56388Y-25654D02*
X62992Y-19050D01*
X29798Y-25654D02*
X56388D01*
X58992Y-17393D02*
Y-13628D01*
X54731Y-21654D02*
X58992Y-17393D01*
X21272Y-21654D02*
X54731D01*
X222464Y29758D02*
X236220Y16002D01*
X182840Y29758D02*
X222464D01*
X203987Y23258D02*
X211243Y16002D01*
X189086Y23258D02*
X203987D01*
X48514Y-3150D02*
X58992Y-13628D01*
X62992Y-13649D02*
X73491Y-3150D01*
X26964Y-28488D02*
X29798Y-25654D01*
X21082Y-21844D02*
X21272Y-21654D01*
X-13258Y29648D02*
Y34448D01*
X-16948Y25958D02*
X-13258Y29648D01*
X-21748Y25958D02*
X-16948D01*
X-21948Y25758D02*
X-21748Y25958D01*
X179587Y29758D02*
X182840D01*
X-76708Y154940D02*
X-56948Y174700D01*
X-80708Y156597D02*
X-58605Y178700D01*
X-76708Y63754D02*
Y154940D01*
X-56948Y174700D02*
X-34994D01*
X-80708Y113094D02*
Y156597D01*
X-58605Y178700D02*
X-36651D01*
X-76900Y177423D02*
Y204100D01*
X-135515Y155569D02*
X-127700Y163384D01*
Y244349D01*
X-139515Y157226D02*
X-132100Y164641D01*
Y245606D01*
X-123206Y254500D01*
X-127700Y244349D02*
X-121549Y250500D01*
X-36651D01*
X-123206Y254500D02*
X-34994D01*
X-30994Y250500D01*
X-36651D02*
X-26151Y240000D01*
X-30994Y250500D02*
X-700D01*
X9800Y240000D01*
X-129476Y143897D02*
X-102300Y171073D01*
X-129476Y113094D02*
Y143897D01*
X-125476Y142240D02*
X-91800Y175916D01*
X-125476Y62484D02*
Y142240D01*
X-102300Y171073D02*
Y204100D01*
X-91800Y175916D02*
Y189200D01*
X-179006Y203594D02*
X-168000Y214600D01*
X-179006Y114364D02*
Y203594D01*
X-175006Y182194D02*
X-168000Y189200D01*
X-175006Y62484D02*
Y182194D01*
X-187198Y106172D02*
X-179006Y114364D01*
X-26151Y240000D02*
X-15600D01*
X26620Y-28144D02*
X26964Y-28488D01*
X21082Y-21844D02*
X21226Y-21988D01*
X-25180Y25908D02*
X-22496Y23224D01*
X-22100Y189200D02*
X-15600D01*
X-22100Y187594D02*
Y189200D01*
X-34994Y174700D02*
X-22100Y187594D01*
X-26100Y189251D02*
Y204100D01*
X-36651Y178700D02*
X-26100Y189251D01*
X-66400Y182266D02*
Y189200D01*
X296164Y-151892D02*
Y-102616D01*
Y-151892D02*
X299974Y-155702D01*
X252222Y-77216D02*
Y-59690D01*
X285200Y-157951D02*
Y-115851D01*
X272727Y-103378D02*
X285200Y-115851D01*
X264922Y-103378D02*
X272727D01*
X289200Y-168800D02*
Y-114194D01*
X252222Y-77216D02*
X289200Y-114194D01*
X-125153Y-102870D02*
X-121156D01*
X-132261Y-104321D02*
Y-57215D01*
X-142240Y-114300D02*
X-132261Y-104321D01*
X-145288Y-102870D02*
Y-102108D01*
X180430Y23258D02*
X189086D01*
X-175127Y-107632D02*
X-170365Y-102870D01*
X-225673Y-107632D02*
X-175127D01*
X-282194Y-164153D02*
X-225673Y-107632D01*
X-176784Y-103632D02*
X-156210Y-83058D01*
X-227330Y-103632D02*
X-176784D01*
X-292498Y-168800D02*
X-227330Y-103632D01*
X-189700Y-114300D02*
X-142240D01*
X-244200Y-168800D02*
X-189700Y-114300D01*
X-188043Y-118300D02*
X-140583D01*
X-231902Y-162159D02*
X-188043Y-118300D01*
X-140583D02*
X-125153Y-102870D01*
X-231902Y-181902D02*
Y-162159D01*
X-96959Y-103124D02*
X-95831D01*
X-124073Y-130238D02*
X-96959Y-103124D01*
X-174581Y-130238D02*
X-124073D01*
X-207772Y-163429D02*
X-174581Y-130238D01*
X-125730Y-126238D02*
X-107551Y-108059D01*
X-176238Y-126238D02*
X-125730D01*
X-218800Y-168800D02*
X-176238Y-126238D01*
X-134703Y-141160D02*
X-99504D01*
X-155956Y-162413D02*
X-134703Y-141160D01*
X-155956Y-182156D02*
Y-162413D01*
X-136360Y-137160D02*
X-101161D01*
X-168000Y-168800D02*
X-136360Y-137160D01*
X-99504Y-141160D02*
X-70612Y-112268D01*
X-101161Y-137160D02*
X-82804Y-118803D01*
X-88836Y-153352D02*
X-45974Y-110490D01*
X-121495Y-153352D02*
X-88836D01*
X-131572Y-163429D02*
X-121495Y-153352D01*
X-90493Y-149352D02*
X-57912Y-116771D01*
X-123152Y-149352D02*
X-90493D01*
X-142600Y-168800D02*
X-123152Y-149352D01*
X-131572Y-183172D02*
Y-163429D01*
X-170365Y-102870D02*
X-146050D01*
X-145288Y-102108D01*
X-282194Y-181394D02*
Y-164153D01*
X-295000Y-168800D02*
X-292498D01*
X-156210Y-83058D02*
Y-58420D01*
X-295000Y-194200D02*
X-282194Y-181394D01*
X-244200Y-194200D02*
X-231902Y-181902D01*
X-107551Y-108059D02*
Y-57828D01*
X-207772Y-183172D02*
Y-163429D01*
X-218800Y-194200D02*
X-207772Y-183172D01*
X-82804Y-118803D02*
Y-58928D01*
X-82840Y-58964D02*
X-82804Y-58928D01*
X-70612Y-112268D02*
Y-103886D01*
X-168000Y-194200D02*
X-155956Y-182156D01*
X-57912Y-116771D02*
Y-59436D01*
X-46228Y-103632D02*
X-45974Y-103886D01*
Y-110490D02*
Y-103886D01*
X-142600Y-194200D02*
X-131572Y-183172D01*
X-85300Y-168800D02*
Y-164225D01*
X-33422Y-59288D02*
X-33274Y-59436D01*
Y-112199D02*
Y-59436D01*
X-85300Y-164225D02*
X-33274Y-112199D01*
X-91800Y-168800D02*
X-85300D01*
X-21082Y-105664D02*
Y-103378D01*
X-81300Y-165882D02*
X-21082Y-105664D01*
X-81300Y-183700D02*
Y-165882D01*
X-91800Y-194200D02*
X-81300Y-183700D01*
X-8128Y-108897D02*
Y-59182D01*
X-59900Y-160669D02*
X-8128Y-108897D01*
X-59900Y-165056D02*
Y-160669D01*
X-63644Y-168800D02*
X-59900Y-165056D01*
X-66400Y-168800D02*
X-63644D01*
X3048Y-103378D02*
X3589D01*
X-55900Y-162326D02*
X3048Y-103378D01*
X-55900Y-173149D02*
Y-162326D01*
X-66400Y-183649D02*
X-55900Y-173149D01*
X-66400Y-194200D02*
Y-183649D01*
X21526Y-110808D02*
X28702Y-103632D01*
X28698D02*
X28702D01*
X21526Y-137331D02*
Y-110808D01*
X-5100Y-163957D02*
X21526Y-137331D01*
X-5100Y-173149D02*
Y-163957D01*
X-15600Y-183649D02*
X-5100Y-173149D01*
X-15600Y-194200D02*
Y-183649D01*
Y-168800D02*
X17526Y-135674D01*
X79609Y-104648D02*
X90932D01*
Y-104902D02*
Y-104648D01*
X20300Y-163957D02*
X79609Y-104648D01*
X20300Y-173149D02*
Y-163957D01*
X9800Y-183649D02*
X20300Y-173149D01*
X9800Y-194200D02*
Y-183649D01*
X107632Y-112586D02*
X115316Y-104902D01*
X107632Y-127425D02*
Y-112586D01*
X71100Y-163957D02*
X107632Y-127425D01*
X71100Y-173149D02*
Y-163957D01*
X60600Y-183649D02*
X71100Y-173149D01*
X60600Y-194200D02*
Y-183649D01*
Y-168800D02*
X103632Y-125768D01*
X139954Y-104648D02*
X140208D01*
X132016Y-112586D02*
X139954Y-104648D01*
X132016Y-128935D02*
Y-112586D01*
X96500Y-164451D02*
X132016Y-128935D01*
X96500Y-173149D02*
Y-164451D01*
X86000Y-183649D02*
X96500Y-173149D01*
X86000Y-194200D02*
Y-183649D01*
X128016Y-126784D02*
Y-58928D01*
X128669Y-59581D01*
X86000Y-168800D02*
X128016Y-126784D01*
X157670Y-111570D02*
X165862Y-103378D01*
X166370Y-103886D01*
X157670Y-153587D02*
Y-111570D01*
X147300Y-163957D02*
X157670Y-153587D01*
X147300Y-173149D02*
Y-163957D01*
X136800Y-183649D02*
X147300Y-173149D01*
X136800Y-194200D02*
Y-183649D01*
X153670Y-151930D02*
Y-60198D01*
X136800Y-168800D02*
X153670Y-151930D01*
X182054Y-111824D02*
X190246Y-103632D01*
Y-104033D02*
Y-103632D01*
X182054Y-154603D02*
Y-111824D01*
X174498Y-162159D02*
X182054Y-154603D01*
X174498Y-171351D02*
Y-162159D01*
X162200Y-183649D02*
X174498Y-171351D01*
X162200Y-194200D02*
Y-183649D01*
X178054Y-152946D02*
Y-59436D01*
X162200Y-168800D02*
X178054Y-152946D01*
X206438Y-112586D02*
X214884Y-104140D01*
X206438Y-155384D02*
Y-112586D01*
Y-155384D02*
X209354Y-158300D01*
X217349D01*
X223500Y-164451D01*
Y-183700D02*
Y-164451D01*
X213000Y-194200D02*
X223500Y-183700D01*
X202438Y-158238D02*
Y-58420D01*
X202798Y-58780D01*
X202438Y-158238D02*
X213000Y-168800D01*
X231584Y-111506D02*
X239966Y-103124D01*
X239776Y-103632D02*
X240284Y-103124D01*
X239966D02*
X240284D01*
X231584Y-151320D02*
Y-111506D01*
Y-151320D02*
X238564Y-158300D01*
X242749D01*
X248900Y-164451D01*
Y-183700D02*
Y-164451D01*
X238400Y-194200D02*
X248900Y-183700D01*
X227584Y-157984D02*
Y-59436D01*
Y-157984D02*
X238400Y-168800D01*
X278700Y-164451D02*
X285200Y-157951D01*
X278700Y-183700D02*
Y-164451D01*
Y-183700D02*
X289200Y-194200D01*
X-261874Y105733D02*
Y106426D01*
X-295000Y214600D02*
X-284500Y204100D01*
X-240200Y109136D02*
X-236982Y105918D01*
Y106600D01*
X-240200Y109136D02*
Y178351D01*
X-233700Y184851D01*
Y204100D01*
X-244200Y214600D02*
X-233700Y204100D01*
X-244200Y81132D02*
X-224790Y61722D01*
X-244200Y81132D02*
Y189200D01*
X-224790Y61722D02*
Y62484D01*
X-214800Y109136D02*
X-212090Y106426D01*
Y106680D01*
X-218800Y81386D02*
Y189200D01*
Y81386D02*
X-199644Y62230D01*
X-214800Y109136D02*
Y176784D01*
X-208300Y183284D01*
Y204100D01*
X-218800Y214600D02*
X-208300Y204100D01*
X-187352Y106326D02*
X-187198Y106172D01*
X-162306Y106426D02*
X-162052Y106172D01*
X-154114Y203086D02*
X-142600Y214600D01*
X-137414Y105156D02*
Y106680D01*
Y105156D02*
X-129476Y113094D01*
X-137414Y106680D02*
X-137389D01*
X-102300Y204100D02*
X-91800Y214600D01*
X-112014Y105664D02*
Y106680D01*
X-76900Y204100D02*
X-66400Y214600D01*
X-87884Y105918D02*
X-80708Y113094D01*
X-87931Y105965D02*
Y106680D01*
Y105965D02*
X-87884Y105918D01*
X-26100Y204100D02*
X-15600Y214600D01*
X-76708Y63754D02*
X-75946Y62992D01*
X23622Y106680D02*
X23713Y106771D01*
X110272Y63246D02*
X115824Y68798D01*
Y114554D02*
X136906Y135636D01*
X115824Y68798D02*
Y114554D01*
X85525Y63246D02*
X88138Y65859D01*
X35306Y63754D02*
X36576Y65024D01*
Y139776D01*
X11684Y63500D02*
X11938D01*
Y140538D01*
X98552Y106172D02*
X101785D01*
X135249Y139636D01*
X129217Y106680D02*
X145663Y123126D01*
X125984Y106680D02*
X129217D01*
X123698Y104394D02*
X125984Y106680D01*
X148082Y107442D02*
X149860Y105664D01*
X200007D01*
X-25908Y106680D02*
X-25781Y106553D01*
X-17462Y114872D01*
X-1270Y106426D02*
X-1016Y106172D01*
X7938Y115126D01*
X23713Y106771D02*
Y107025D01*
X32576Y115888D01*
X73515Y106680D02*
X74023D01*
X-17462Y114872D02*
Y167595D01*
X-700Y184357D01*
Y204100D01*
X9800Y214600D01*
X-13462Y63246D02*
Y165938D01*
X9800Y189200D01*
X7938Y115126D02*
Y142195D01*
X50100Y184357D01*
Y204100D01*
X60600Y214600D01*
X11938Y140538D02*
X60600Y189200D01*
X32576Y115888D02*
Y141433D01*
X75500Y184357D01*
Y204100D01*
X86000Y214600D01*
X36576Y139776D02*
X86000Y189200D01*
X48768Y106825D02*
X126300Y184357D01*
X48614Y106979D02*
X48768Y106825D01*
X126300Y184357D02*
Y204100D01*
X136800Y214600D01*
X60960Y63246D02*
Y113360D01*
X136800Y189200D01*
X74023Y106680D02*
X151700Y184357D01*
Y204100D01*
X162200Y214600D01*
X88138Y65859D02*
Y115138D01*
X162200Y189200D01*
X135249Y139636D02*
X157779D01*
X202500Y184357D01*
Y204100D01*
X213000Y214600D01*
X136906Y135636D02*
X159436D01*
X145663Y123126D02*
X166669D01*
X227900Y184357D01*
Y204100D01*
X238400Y214600D01*
X159436Y135636D02*
X213000Y189200D01*
X134620Y63246D02*
Y106426D01*
X147320Y119126D01*
X168326D01*
X238400Y189200D01*
X201664Y101664D02*
X289200Y189200D01*
X172784Y101664D02*
X201664D01*
X159766Y88646D02*
X172784Y101664D01*
X159766Y63246D02*
Y88646D01*
X200007Y105664D02*
X276352Y182009D01*
Y201752D01*
X289200Y214600D01*
X-284500Y184851D02*
Y204100D01*
X-295000Y189200D02*
X-268174Y162374D01*
X-264174Y108033D02*
X-261874Y105733D01*
X-264174Y108033D02*
Y164031D01*
X-284747Y184604D02*
X-264174Y164031D01*
X-284747Y184604D02*
X-284500Y184851D01*
X-268174Y103816D02*
Y162374D01*
X-254596Y68414D02*
X-249174Y62992D01*
X-268174Y103816D02*
X-254596Y90239D01*
Y68414D02*
Y90239D01*
X-9254Y-21988D02*
X21226D01*
X-10911Y-25988D02*
X16316D01*
X18472Y-28144D01*
X26620D01*
X-146000Y37846D02*
X-127693D01*
X-139954Y44450D02*
X-126746D01*
X-127693Y37846D02*
X-119501Y46038D01*
X-126746Y44450D02*
X-121158Y50038D01*
X-104838Y149485D02*
X-76900Y177423D01*
X-100838Y147828D02*
X-66400Y182266D01*
X-112014Y105664D02*
X-104838Y112840D01*
Y149485D01*
X-100838Y62738D02*
Y147828D01*
X-119501Y46038D02*
X-82937D01*
X-10911Y-25988D01*
X-121158Y50038D02*
X-81280D01*
X-9254Y-21988D01*
X-48958Y39052D02*
X-35814Y25908D01*
X-48958Y39052D02*
Y39999D01*
X-66040Y156210D02*
X-63309Y153479D01*
X-62738Y59436D02*
X-33210Y29908D01*
X-66738Y57779D02*
X-48958Y39999D01*
X-62738Y59436D02*
Y131826D01*
X-59309Y135255D01*
Y162687D01*
X-66738Y133483D02*
X-63309Y136912D01*
Y153479D01*
X-66738Y57779D02*
Y133483D01*
X317309Y16510D02*
X350012D01*
X357632Y24130D01*
Y47613D01*
X356039Y49207D02*
X357632Y47613D01*
X9800Y-168800D02*
X80010Y-98590D01*
X103632Y-125768D02*
Y-60452D01*
X80010Y-98590D02*
Y-60706D01*
X15748Y-57658D02*
X17526Y-59436D01*
Y-135674D02*
Y-59436D01*
X-58928Y-15240D02*
X-29210Y-44958D01*
X165608D01*
X179070Y-31496D01*
Y-21844D01*
X157480Y-254D02*
X179070Y-21844D01*
X81534Y-24130D02*
X105410Y-254D01*
X157480D01*
X-80264Y-15240D02*
Y-7874D01*
Y-15240D02*
X-58928D01*
X-157734Y-14986D02*
Y-13716D01*
X-227838Y-15240D02*
X-80264D01*
X-215392Y-24384D02*
X-203708Y-36068D01*
X-164338D01*
X-181102Y-43688D02*
X-153924D01*
X-181356Y-43434D02*
X-181102Y-43688D01*
X-13258Y34448D02*
X-5148Y42558D01*
X-23455Y29908D02*
X-6805Y46558D01*
X162787D01*
X-5148Y42558D02*
X161130D01*
X162787Y46558D02*
X179587Y29758D01*
X161130Y42558D02*
X180430Y23258D01*
X152718Y36258D02*
X175768Y13208D01*
D16*
X211243Y-3150D02*
D03*
Y16002D02*
D03*
X236220Y-3150D02*
D03*
Y16002D02*
D03*
X48514D02*
D03*
Y-3150D02*
D03*
X73491Y16002D02*
D03*
Y-3150D02*
D03*
D27*
X343408Y5611D02*
X362435D01*
X343408Y71004D02*
X362320D01*
X343408Y-59782D02*
X363708Y-39482D01*
X350590Y92456D02*
X350936Y92802D01*
X352044Y-29349D02*
Y-27940D01*
X341491Y-37985D02*
X343408D01*
X351536Y-27940D02*
X352044D01*
X348742Y-98044D02*
X353060D01*
X343408Y-103378D02*
X348742Y-98044D01*
X341491Y-37985D02*
X351536Y-27940D01*
X343408Y27409D02*
X350566D01*
X343408Y133096D02*
Y136398D01*
Y133096D02*
X363708Y112796D01*
Y-39482D02*
Y112796D01*
X343408Y92802D02*
X350936D01*
D28*
X-47244Y26416D02*
X-36252Y15424D01*
X47936D01*
X48514Y16002D01*
X153416D02*
X172568Y-3150D01*
X73491Y16002D02*
X153416D01*
X-307000Y219571D02*
X-299970Y226600D01*
X-283000D01*
X-269600Y240000D01*
X211243Y-3150D02*
X236220D01*
X172568D02*
X211243D01*
X48514Y16002D02*
X73491D01*
X-307000Y177714D02*
Y219571D01*
Y177714D02*
X-273674Y144388D01*
Y101538D02*
Y144388D01*
Y101538D02*
X-260096Y87960D01*
Y57658D02*
Y87960D01*
Y57658D02*
X-229362Y26924D01*
X-73660D01*
X-65672Y18937D01*
X345140Y-81580D02*
X356362Y-70358D01*
X343408Y-81580D02*
X345140D01*
X343408Y-16187D02*
X356039D01*
X343408Y49207D02*
X356039D01*
X236220Y-3150D02*
X271424D01*
X291084Y16510D01*
X317309D01*
X343408Y114600D02*
X345394D01*
X352298Y107696D01*
D29*
X-231300Y252500D02*
X-218800Y240000D01*
X-311380Y252500D02*
X-231300D01*
X-326644Y237236D02*
X-311380Y252500D01*
X-326644Y187452D02*
Y237236D01*
Y185166D02*
Y187452D01*
Y185166D02*
X-282448Y140970D01*
Y97790D02*
Y140970D01*
Y97790D02*
X-268478Y83820D01*
Y54102D02*
Y83820D01*
Y54102D02*
X-233172Y18796D01*
X-177038D01*
X-14732Y-37592D02*
X46228D01*
X-71882Y7112D02*
X-59436D01*
X-177038Y18796D02*
X-83566D01*
X-71882Y7112D01*
X337312Y152908D02*
X343408Y146812D01*
Y136398D02*
Y146812D01*
X266192Y152908D02*
X337312D01*
X226568Y109474D02*
Y113284D01*
X266192Y152908D01*
X-59436Y7112D02*
X-14732Y-37592D01*
X46228D02*
X160782D01*
X170434Y-27940D01*
D30*
X323088Y92802D02*
Y114600D01*
Y136398D01*
Y27409D02*
Y49207D01*
Y71004D01*
Y-37985D02*
Y-16187D01*
Y5611D01*
Y-103378D02*
Y-81580D01*
Y-59782D01*
X297896Y-81580D02*
X323088D01*
X285750Y-93726D02*
X297896Y-81580D01*
X201052Y71004D02*
X323088D01*
X183134Y53086D02*
X201052Y71004D01*
X-27686Y53086D02*
X183134D01*
X-53848Y79248D02*
X-27686Y53086D01*
X-53848Y79248D02*
Y108458D01*
X320710Y90424D02*
X323088Y92802D01*
X171704Y90424D02*
X320710D01*
X310781Y-50292D02*
X323088Y-37985D01*
X36068Y-71120D02*
X56896Y-50292D01*
X310781D01*
D31*
X-295000Y-168800D02*
D03*
X289200Y189200D02*
D03*
X-295000Y240000D02*
D03*
Y-245000D02*
D03*
D32*
Y-194200D02*
D03*
X-269600Y-168800D02*
D03*
Y-194200D02*
D03*
X-244200Y-168800D02*
D03*
Y-194200D02*
D03*
X-218800Y-168800D02*
D03*
Y-194200D02*
D03*
X-193400Y-168800D02*
D03*
Y-194200D02*
D03*
X-168000Y-168800D02*
D03*
Y-194200D02*
D03*
X-142600Y-168800D02*
D03*
Y-194200D02*
D03*
X-117200Y-168800D02*
D03*
Y-194200D02*
D03*
X-91800Y-168800D02*
D03*
Y-194200D02*
D03*
X-66400Y-168800D02*
D03*
Y-194200D02*
D03*
X-41000Y-168800D02*
D03*
Y-194200D02*
D03*
X-15600Y-168800D02*
D03*
Y-194200D02*
D03*
X9800Y-168800D02*
D03*
Y-194200D02*
D03*
X35200Y-168800D02*
D03*
Y-194200D02*
D03*
X60600Y-168800D02*
D03*
Y-194200D02*
D03*
X86000Y-168800D02*
D03*
Y-194200D02*
D03*
X111400Y-168800D02*
D03*
Y-194200D02*
D03*
X136800Y-168800D02*
D03*
Y-194200D02*
D03*
X162200Y-168800D02*
D03*
Y-194200D02*
D03*
X187600Y-168800D02*
D03*
Y-194200D02*
D03*
X213000Y-168800D02*
D03*
Y-194200D02*
D03*
X238400Y-168800D02*
D03*
Y-194200D02*
D03*
X263800Y-168800D02*
D03*
Y-194200D02*
D03*
X289200Y-168800D02*
D03*
Y-194200D02*
D03*
Y214600D02*
D03*
X263800Y189200D02*
D03*
Y214600D02*
D03*
X238400Y189200D02*
D03*
Y214600D02*
D03*
X213000Y189200D02*
D03*
Y214600D02*
D03*
X187600Y189200D02*
D03*
Y214600D02*
D03*
X162200Y189200D02*
D03*
Y214600D02*
D03*
X136800Y189200D02*
D03*
Y214600D02*
D03*
X111400Y189200D02*
D03*
Y214600D02*
D03*
X86000Y189200D02*
D03*
Y214600D02*
D03*
X60600Y189200D02*
D03*
Y214600D02*
D03*
X35200Y189200D02*
D03*
Y214600D02*
D03*
X9800Y189200D02*
D03*
Y214600D02*
D03*
X-15600Y189200D02*
D03*
Y214600D02*
D03*
X-41000Y189200D02*
D03*
Y214600D02*
D03*
X-66400Y189200D02*
D03*
Y214600D02*
D03*
X-91800Y189200D02*
D03*
Y214600D02*
D03*
X-117200Y189200D02*
D03*
Y214600D02*
D03*
X-142600Y189200D02*
D03*
Y214600D02*
D03*
X-168000Y189200D02*
D03*
Y214600D02*
D03*
X-193400Y189200D02*
D03*
Y214600D02*
D03*
X-218800Y189200D02*
D03*
Y214600D02*
D03*
X-244200Y189200D02*
D03*
Y214600D02*
D03*
X-269600Y189200D02*
D03*
Y214600D02*
D03*
X-295000Y189200D02*
D03*
Y214600D02*
D03*
X213000Y240000D02*
D03*
X263800Y265400D02*
D03*
Y240000D02*
D03*
X238400Y265400D02*
D03*
Y240000D02*
D03*
X213000Y265400D02*
D03*
X-193400D02*
D03*
Y240000D02*
D03*
X-218800Y265400D02*
D03*
Y240000D02*
D03*
X-244200Y265400D02*
D03*
Y240000D02*
D03*
X-269600Y265400D02*
D03*
Y240000D02*
D03*
X-295000Y265400D02*
D03*
X-168000D02*
D03*
X-142600Y240000D02*
D03*
Y265400D02*
D03*
X-117200Y240000D02*
D03*
Y265400D02*
D03*
X-91800Y240000D02*
D03*
Y265400D02*
D03*
X-66400Y240000D02*
D03*
Y265400D02*
D03*
X-41000D02*
D03*
X-15600Y240000D02*
D03*
Y265400D02*
D03*
X9800Y240000D02*
D03*
Y265400D02*
D03*
X35200Y240000D02*
D03*
Y265400D02*
D03*
X60600Y240000D02*
D03*
Y265400D02*
D03*
X86000D02*
D03*
X111400Y240000D02*
D03*
Y265400D02*
D03*
X136800Y240000D02*
D03*
Y265400D02*
D03*
X162200Y240000D02*
D03*
Y265400D02*
D03*
X187600Y240000D02*
D03*
Y265400D02*
D03*
X-168000Y240000D02*
D03*
X-41000D02*
D03*
X86000D02*
D03*
X213000Y-245000D02*
D03*
X263800Y-219600D02*
D03*
Y-245000D02*
D03*
X238400Y-219600D02*
D03*
Y-245000D02*
D03*
X213000Y-219600D02*
D03*
X-193400D02*
D03*
Y-245000D02*
D03*
X-218800Y-219600D02*
D03*
Y-245000D02*
D03*
X-244200Y-219600D02*
D03*
Y-245000D02*
D03*
X-269600Y-219600D02*
D03*
Y-245000D02*
D03*
X-295000Y-219600D02*
D03*
X-168000D02*
D03*
X-142600Y-245000D02*
D03*
Y-219600D02*
D03*
X-117200Y-245000D02*
D03*
Y-219600D02*
D03*
X-91800Y-245000D02*
D03*
Y-219600D02*
D03*
X-66400Y-245000D02*
D03*
Y-219600D02*
D03*
X-41000D02*
D03*
X-15600Y-245000D02*
D03*
Y-219600D02*
D03*
X9800Y-245000D02*
D03*
Y-219600D02*
D03*
X35200Y-245000D02*
D03*
Y-219600D02*
D03*
X60600Y-245000D02*
D03*
Y-219600D02*
D03*
X86000D02*
D03*
X111400Y-245000D02*
D03*
Y-219600D02*
D03*
X136800Y-245000D02*
D03*
Y-219600D02*
D03*
X162200Y-245000D02*
D03*
Y-219600D02*
D03*
X187600Y-245000D02*
D03*
Y-219600D02*
D03*
X-168000Y-245000D02*
D03*
X-41000D02*
D03*
X86000D02*
D03*
D33*
X-234950Y-133350D02*
D03*
X-222250Y-76200D02*
D03*
X57150Y31750D02*
D03*
X-196850Y158750D02*
D03*
X-146050Y165100D02*
D03*
X6350D02*
D03*
X158750Y158750D02*
D03*
X209550Y133350D02*
D03*
X234950Y158750D02*
D03*
X222250Y146050D02*
D03*
X355600Y165100D02*
D03*
X349250Y190500D02*
D03*
X336550Y215900D02*
D03*
X317500Y234950D02*
D03*
X292100Y254000D02*
D03*
X355600Y-127000D02*
D03*
Y-158750D02*
D03*
X342900Y-184150D02*
D03*
X330200Y-203200D02*
D03*
X311150Y-222250D02*
D03*
X285750Y-241300D02*
D03*
X-317500Y-247650D02*
D03*
X-342900D02*
D03*
Y-222250D02*
D03*
Y-196850D02*
D03*
Y-171450D02*
D03*
Y-146050D02*
D03*
X-330200Y-120650D02*
D03*
X-304800D02*
D03*
X-273050Y-107950D02*
D03*
X-266700Y-82550D02*
D03*
Y-50800D02*
D03*
Y-19050D02*
D03*
Y19050D02*
D03*
X-311150Y107950D02*
D03*
X-349250Y215900D02*
D03*
Y254000D02*
D03*
X-342900Y171450D02*
D03*
Y107950D02*
D03*
Y139700D02*
D03*
X184150Y-12700D02*
D03*
X6350Y-6350D02*
D03*
X-44450Y133350D02*
D03*
X-31750Y158750D02*
D03*
X298450Y-25400D02*
D03*
X273050Y-19050D02*
D03*
Y31750D02*
D03*
X285750Y57150D02*
D03*
X254000D02*
D03*
X222250D02*
D03*
X234950Y82550D02*
D03*
X273050D02*
D03*
X266700Y101600D02*
D03*
X241300D02*
D03*
X-139954Y44450D02*
D03*
X-151892Y43738D02*
D03*
X-65672Y18937D02*
D03*
X-47244Y26416D02*
D03*
X-59309Y162687D02*
D03*
X-66040Y156210D02*
D03*
X26964Y-28488D02*
D03*
X21082Y-21844D02*
D03*
X-19558Y32258D02*
D03*
X296164Y-102616D02*
D03*
X299974Y-155702D02*
D03*
X-121156Y-102870D02*
D03*
X-145288D02*
D03*
X-132261Y-57215D02*
D03*
X-22496Y23224D02*
D03*
X189086Y23258D02*
D03*
X182840Y29758D02*
D03*
X-156210Y-58420D02*
D03*
X-107551Y-57828D02*
D03*
X-95831Y-103124D02*
D03*
X-82840Y-58964D02*
D03*
X-70612Y-103886D02*
D03*
X-57912Y-59436D02*
D03*
X-46228Y-103632D02*
D03*
X-33422Y-59288D02*
D03*
X-21082Y-103378D02*
D03*
X-8128Y-59182D02*
D03*
X3589Y-103378D02*
D03*
X28698Y-103632D02*
D03*
X16256Y-58166D02*
D03*
X90932Y-104902D02*
D03*
X80010Y-60706D02*
D03*
X115316Y-104902D02*
D03*
X103632Y-60452D02*
D03*
X140208Y-104648D02*
D03*
X128669Y-59581D02*
D03*
X166370Y-103886D02*
D03*
X153670Y-60198D02*
D03*
X190246Y-104033D02*
D03*
X178054Y-59436D02*
D03*
X214884Y-104140D02*
D03*
X202798Y-58780D02*
D03*
X239776Y-103632D02*
D03*
X227584Y-59436D02*
D03*
X264922Y-103378D02*
D03*
X252222Y-59690D02*
D03*
X-261874Y106426D02*
D03*
X-249174Y62992D02*
D03*
X-236982Y106600D02*
D03*
X-224790Y62484D02*
D03*
X-212090Y106680D02*
D03*
X-199644Y62230D02*
D03*
X-187352Y106326D02*
D03*
X-175006Y62484D02*
D03*
X-162306Y106426D02*
D03*
X-150114Y62495D02*
D03*
X-137389Y106680D02*
D03*
X-125476Y62484D02*
D03*
X-112014Y106680D02*
D03*
X-87931D02*
D03*
X-75946Y62992D02*
D03*
X-25908Y106680D02*
D03*
X-13462Y63246D02*
D03*
X-1052Y106680D02*
D03*
X11285Y63246D02*
D03*
X23803Y106680D02*
D03*
X36032Y63246D02*
D03*
X48659Y106680D02*
D03*
X60778Y63246D02*
D03*
X73515Y106680D02*
D03*
X85525Y63246D02*
D03*
X98371Y106680D02*
D03*
X123226D02*
D03*
X110272Y63246D02*
D03*
X135019D02*
D03*
X148082Y106680D02*
D03*
X159766Y63246D02*
D03*
X-326644Y187452D02*
D03*
X170434Y-27940D02*
D03*
X-177038Y18796D02*
D03*
X-72390Y8128D02*
D03*
X285750Y-93726D02*
D03*
X36068Y-71120D02*
D03*
X-100838Y62738D02*
D03*
X-53848Y108458D02*
D03*
X171704Y90424D02*
D03*
X356362Y-70358D02*
D03*
X356039Y-16187D02*
D03*
X356039Y49207D02*
D03*
X350590Y92456D02*
D03*
X352044Y-27940D02*
D03*
X353060Y-98044D02*
D03*
X350566Y27409D02*
D03*
X226568Y109474D02*
D03*
X352298Y107696D02*
D03*
X-227838Y-15240D02*
D03*
X46228Y-37592D02*
D03*
X157480Y-254D02*
D03*
X81534Y-24130D02*
D03*
X-80264Y-7874D02*
D03*
X-157734Y-14986D02*
D03*
X-215392Y-24384D02*
D03*
X-164338Y-36068D02*
D03*
X-153924Y-43688D02*
D03*
X-181356Y-43434D02*
D03*
X152718Y36258D02*
D03*
X175768Y13208D02*
D03*
D34*
X343408Y92802D02*
D03*
X323088D02*
D03*
X343408Y114600D02*
D03*
X323088D02*
D03*
X343408Y136398D02*
D03*
X323088D02*
D03*
X343408Y27409D02*
D03*
X323088D02*
D03*
X343408Y49207D02*
D03*
X323088D02*
D03*
X343408Y71004D02*
D03*
X323088D02*
D03*
X343408Y-37985D02*
D03*
X323088D02*
D03*
X343408Y-16187D02*
D03*
X323088D02*
D03*
X343408Y5611D02*
D03*
X323088D02*
D03*
X343408Y-103378D02*
D03*
X323088D02*
D03*
X343408Y-81580D02*
D03*
X323088D02*
D03*
X343408Y-59782D02*
D03*
X323088D02*
D03*
M02*
