G04*
G04 #@! TF.GenerationSoftware,Altium Limited,Altium Designer,19.1.8 (144)*
G04*
G04 Layer_Color=16711935*
%FSLAX44Y44*%
%MOMM*%
G71*
G01*
G75*
%ADD20R,1.7272X1.5240*%
%ADD24R,1.7032X1.7032*%
%ADD25C,1.7032*%
%ADD35R,2.9337X1.6637*%
G04:AMPARAMS|DCode=36|XSize=0.9652mm|YSize=1.7272mm|CornerRadius=0.2921mm|HoleSize=0mm|Usage=FLASHONLY|Rotation=180.000|XOffset=0mm|YOffset=0mm|HoleType=Round|Shape=RoundedRectangle|*
%AMROUNDEDRECTD36*
21,1,0.9652,1.1430,0,0,180.0*
21,1,0.3810,1.7272,0,0,180.0*
1,1,0.5842,-0.1905,0.5715*
1,1,0.5842,0.1905,0.5715*
1,1,0.5842,0.1905,-0.5715*
1,1,0.5842,-0.1905,-0.5715*
%
%ADD36ROUNDEDRECTD36*%
D20*
X211243Y-3150D02*
D03*
Y16002D02*
D03*
X236220Y-3150D02*
D03*
Y16002D02*
D03*
X48514D02*
D03*
Y-3150D02*
D03*
X73491Y16002D02*
D03*
Y-3150D02*
D03*
D24*
X-295000Y-168800D02*
D03*
X289200Y189200D02*
D03*
X-295000Y240000D02*
D03*
Y-245000D02*
D03*
D25*
Y-194200D02*
D03*
X-269600Y-168800D02*
D03*
Y-194200D02*
D03*
X-244200Y-168800D02*
D03*
Y-194200D02*
D03*
X-218800Y-168800D02*
D03*
Y-194200D02*
D03*
X-193400Y-168800D02*
D03*
Y-194200D02*
D03*
X-168000Y-168800D02*
D03*
Y-194200D02*
D03*
X-142600Y-168800D02*
D03*
Y-194200D02*
D03*
X-117200Y-168800D02*
D03*
Y-194200D02*
D03*
X-91800Y-168800D02*
D03*
Y-194200D02*
D03*
X-66400Y-168800D02*
D03*
Y-194200D02*
D03*
X-41000Y-168800D02*
D03*
Y-194200D02*
D03*
X-15600Y-168800D02*
D03*
Y-194200D02*
D03*
X9800Y-168800D02*
D03*
Y-194200D02*
D03*
X35200Y-168800D02*
D03*
Y-194200D02*
D03*
X60600Y-168800D02*
D03*
Y-194200D02*
D03*
X86000Y-168800D02*
D03*
Y-194200D02*
D03*
X111400Y-168800D02*
D03*
Y-194200D02*
D03*
X136800Y-168800D02*
D03*
Y-194200D02*
D03*
X162200Y-168800D02*
D03*
Y-194200D02*
D03*
X187600Y-168800D02*
D03*
Y-194200D02*
D03*
X213000Y-168800D02*
D03*
Y-194200D02*
D03*
X238400Y-168800D02*
D03*
Y-194200D02*
D03*
X263800Y-168800D02*
D03*
Y-194200D02*
D03*
X289200Y-168800D02*
D03*
Y-194200D02*
D03*
Y214600D02*
D03*
X263800Y189200D02*
D03*
Y214600D02*
D03*
X238400Y189200D02*
D03*
Y214600D02*
D03*
X213000Y189200D02*
D03*
Y214600D02*
D03*
X187600Y189200D02*
D03*
Y214600D02*
D03*
X162200Y189200D02*
D03*
Y214600D02*
D03*
X136800Y189200D02*
D03*
Y214600D02*
D03*
X111400Y189200D02*
D03*
Y214600D02*
D03*
X86000Y189200D02*
D03*
Y214600D02*
D03*
X60600Y189200D02*
D03*
Y214600D02*
D03*
X35200Y189200D02*
D03*
Y214600D02*
D03*
X9800Y189200D02*
D03*
Y214600D02*
D03*
X-15600Y189200D02*
D03*
Y214600D02*
D03*
X-41000Y189200D02*
D03*
Y214600D02*
D03*
X-66400Y189200D02*
D03*
Y214600D02*
D03*
X-91800Y189200D02*
D03*
Y214600D02*
D03*
X-117200Y189200D02*
D03*
Y214600D02*
D03*
X-142600Y189200D02*
D03*
Y214600D02*
D03*
X-168000Y189200D02*
D03*
Y214600D02*
D03*
X-193400Y189200D02*
D03*
Y214600D02*
D03*
X-218800Y189200D02*
D03*
Y214600D02*
D03*
X-244200Y189200D02*
D03*
Y214600D02*
D03*
X-269600Y189200D02*
D03*
Y214600D02*
D03*
X-295000Y189200D02*
D03*
Y214600D02*
D03*
X213000Y240000D02*
D03*
X263800Y265400D02*
D03*
Y240000D02*
D03*
X238400Y265400D02*
D03*
Y240000D02*
D03*
X213000Y265400D02*
D03*
X-193400D02*
D03*
Y240000D02*
D03*
X-218800Y265400D02*
D03*
Y240000D02*
D03*
X-244200Y265400D02*
D03*
Y240000D02*
D03*
X-269600Y265400D02*
D03*
Y240000D02*
D03*
X-295000Y265400D02*
D03*
X-168000D02*
D03*
X-142600Y240000D02*
D03*
Y265400D02*
D03*
X-117200Y240000D02*
D03*
Y265400D02*
D03*
X-91800Y240000D02*
D03*
Y265400D02*
D03*
X-66400Y240000D02*
D03*
Y265400D02*
D03*
X-41000D02*
D03*
X-15600Y240000D02*
D03*
Y265400D02*
D03*
X9800Y240000D02*
D03*
Y265400D02*
D03*
X35200Y240000D02*
D03*
Y265400D02*
D03*
X60600Y240000D02*
D03*
Y265400D02*
D03*
X86000D02*
D03*
X111400Y240000D02*
D03*
Y265400D02*
D03*
X136800Y240000D02*
D03*
Y265400D02*
D03*
X162200Y240000D02*
D03*
Y265400D02*
D03*
X187600Y240000D02*
D03*
Y265400D02*
D03*
X-168000Y240000D02*
D03*
X-41000D02*
D03*
X86000D02*
D03*
X213000Y-245000D02*
D03*
X263800Y-219600D02*
D03*
Y-245000D02*
D03*
X238400Y-219600D02*
D03*
Y-245000D02*
D03*
X213000Y-219600D02*
D03*
X-193400D02*
D03*
Y-245000D02*
D03*
X-218800Y-219600D02*
D03*
Y-245000D02*
D03*
X-244200Y-219600D02*
D03*
Y-245000D02*
D03*
X-269600Y-219600D02*
D03*
Y-245000D02*
D03*
X-295000Y-219600D02*
D03*
X-168000D02*
D03*
X-142600Y-245000D02*
D03*
Y-219600D02*
D03*
X-117200Y-245000D02*
D03*
Y-219600D02*
D03*
X-91800Y-245000D02*
D03*
Y-219600D02*
D03*
X-66400Y-245000D02*
D03*
Y-219600D02*
D03*
X-41000D02*
D03*
X-15600Y-245000D02*
D03*
Y-219600D02*
D03*
X9800Y-245000D02*
D03*
Y-219600D02*
D03*
X35200Y-245000D02*
D03*
Y-219600D02*
D03*
X60600Y-245000D02*
D03*
Y-219600D02*
D03*
X86000D02*
D03*
X111400Y-245000D02*
D03*
Y-219600D02*
D03*
X136800Y-245000D02*
D03*
Y-219600D02*
D03*
X162200Y-245000D02*
D03*
Y-219600D02*
D03*
X187600Y-245000D02*
D03*
Y-219600D02*
D03*
X-168000Y-245000D02*
D03*
X-41000D02*
D03*
X86000D02*
D03*
D35*
X333185Y92866D02*
D03*
Y114663D02*
D03*
Y136461D02*
D03*
Y27472D02*
D03*
Y49270D02*
D03*
Y71068D02*
D03*
Y-37921D02*
D03*
Y-16123D02*
D03*
Y5674D02*
D03*
Y-103315D02*
D03*
Y-81517D02*
D03*
Y-59719D02*
D03*
D36*
X343408Y92802D02*
D03*
X323088D02*
D03*
X343408Y114600D02*
D03*
X323088D02*
D03*
X343408Y136398D02*
D03*
X323088D02*
D03*
X343408Y27409D02*
D03*
X323088D02*
D03*
X343408Y49207D02*
D03*
X323088D02*
D03*
X343408Y71004D02*
D03*
X323088D02*
D03*
X343408Y-37985D02*
D03*
X323088D02*
D03*
X343408Y-16187D02*
D03*
X323088D02*
D03*
X343408Y5611D02*
D03*
X323088D02*
D03*
X343408Y-103378D02*
D03*
X323088D02*
D03*
X343408Y-81580D02*
D03*
X323088D02*
D03*
X343408Y-59782D02*
D03*
X323088D02*
D03*
M02*
