G04*
G04 #@! TF.GenerationSoftware,Altium Limited,Altium Designer,19.1.8 (144)*
G04*
G04 Layer_Color=255*
%FSLAX44Y44*%
%MOMM*%
G71*
G01*
G75*
%ADD16R,1.5240X1.3208*%
%ADD17R,0.9906X0.3048*%
%ADD18R,1.3208X1.5240*%
%ADD19R,0.6000X1.5000*%
%ADD31R,1.5000X1.5000*%
%ADD32C,1.5000*%
D16*
X-325882Y242062D02*
D03*
Y261214D02*
D03*
X227508Y-71882D02*
D03*
Y-91034D02*
D03*
X252218Y-71882D02*
D03*
Y-91034D02*
D03*
X-46482Y73152D02*
D03*
Y92304D02*
D03*
X49276Y-70612D02*
D03*
Y-89764D02*
D03*
X15998Y-70612D02*
D03*
Y-89764D02*
D03*
X-187198Y-70612D02*
D03*
Y-89764D02*
D03*
X190246Y73152D02*
D03*
Y92304D02*
D03*
X28698Y-114554D02*
D03*
Y-133706D02*
D03*
X3843Y-114554D02*
D03*
Y-133706D02*
D03*
X-21012Y-114554D02*
D03*
Y-133706D02*
D03*
X-45867Y-114554D02*
D03*
Y-133706D02*
D03*
X-70722Y-114554D02*
D03*
Y-133706D02*
D03*
X-95578Y-114554D02*
D03*
Y-133706D02*
D03*
X-120433Y-114554D02*
D03*
Y-133706D02*
D03*
X-145288Y-114554D02*
D03*
Y-133706D02*
D03*
X-8712Y-70612D02*
D03*
Y-89764D02*
D03*
X-33422Y-70612D02*
D03*
Y-89764D02*
D03*
X-58132Y-70612D02*
D03*
Y-89764D02*
D03*
X-82842Y-70612D02*
D03*
Y-89764D02*
D03*
X-107552Y-70612D02*
D03*
Y-89764D02*
D03*
X-132262Y-70612D02*
D03*
Y-89764D02*
D03*
X-156972Y-70612D02*
D03*
Y-89764D02*
D03*
X159718Y73152D02*
D03*
Y92304D02*
D03*
X148034Y117094D02*
D03*
Y136246D02*
D03*
X135008Y73152D02*
D03*
Y92304D02*
D03*
X123179Y117094D02*
D03*
Y136246D02*
D03*
X110298Y73152D02*
D03*
Y92304D02*
D03*
X98324Y117094D02*
D03*
Y136246D02*
D03*
X85588Y73152D02*
D03*
Y92304D02*
D03*
X73469Y117094D02*
D03*
Y136246D02*
D03*
X60878Y73152D02*
D03*
Y92304D02*
D03*
X48614Y117094D02*
D03*
Y136246D02*
D03*
X36168Y73152D02*
D03*
Y92304D02*
D03*
X23759Y117094D02*
D03*
Y136246D02*
D03*
X11458Y73152D02*
D03*
Y92304D02*
D03*
X-1096Y117094D02*
D03*
Y136246D02*
D03*
X-13252Y73152D02*
D03*
Y92304D02*
D03*
X-25951Y117094D02*
D03*
Y136246D02*
D03*
X79248Y-71882D02*
D03*
Y-91034D02*
D03*
X-76248Y73152D02*
D03*
Y92304D02*
D03*
X90932Y-115824D02*
D03*
Y-134976D02*
D03*
X-87932Y117094D02*
D03*
Y136246D02*
D03*
X103958Y-71882D02*
D03*
Y-91034D02*
D03*
X-100958Y73152D02*
D03*
Y92304D02*
D03*
X115787Y-115824D02*
D03*
Y-134976D02*
D03*
X-112787Y117094D02*
D03*
Y136246D02*
D03*
X128668Y-71882D02*
D03*
Y-91034D02*
D03*
X-125668Y73152D02*
D03*
Y92304D02*
D03*
X140642Y-115824D02*
D03*
Y-134976D02*
D03*
X-137642Y117094D02*
D03*
Y136246D02*
D03*
X153378Y-71882D02*
D03*
Y-91034D02*
D03*
X-150378Y73152D02*
D03*
Y92304D02*
D03*
X165497Y-115824D02*
D03*
Y-134976D02*
D03*
X-162497Y117094D02*
D03*
Y136246D02*
D03*
X178088Y-71882D02*
D03*
Y-91034D02*
D03*
X-175088Y73152D02*
D03*
Y92304D02*
D03*
X190353Y-115824D02*
D03*
Y-134976D02*
D03*
X-187352Y117094D02*
D03*
Y136246D02*
D03*
X202798Y-71882D02*
D03*
Y-91034D02*
D03*
X-199797Y73152D02*
D03*
Y92304D02*
D03*
X215208Y-115824D02*
D03*
Y-134976D02*
D03*
X-212207Y117094D02*
D03*
Y136246D02*
D03*
X-224508Y73152D02*
D03*
Y92304D02*
D03*
X240063Y-115824D02*
D03*
Y-134976D02*
D03*
X-237062Y117094D02*
D03*
Y136246D02*
D03*
X-249217Y73152D02*
D03*
Y92304D02*
D03*
X264918Y-115824D02*
D03*
Y-134976D02*
D03*
X-261917Y117094D02*
D03*
Y136246D02*
D03*
X289052Y-134976D02*
D03*
Y-115824D02*
D03*
X-244856Y-10312D02*
D03*
Y-29464D02*
D03*
X-325882Y199034D02*
D03*
Y218186D02*
D03*
D17*
X143542Y36258D02*
D03*
Y29758D02*
D03*
Y23258D02*
D03*
Y16758D02*
D03*
Y10258D02*
D03*
Y3758D02*
D03*
Y-2794D02*
D03*
Y-9398D02*
D03*
Y-15748D02*
D03*
Y-22352D02*
D03*
X201930D02*
D03*
Y-15748D02*
D03*
Y-9398D02*
D03*
Y-2794D02*
D03*
Y3758D02*
D03*
Y10258D02*
D03*
Y16758D02*
D03*
Y23258D02*
D03*
Y29758D02*
D03*
Y36258D02*
D03*
X143542Y-28956D02*
D03*
X201930D02*
D03*
X143542Y-35306D02*
D03*
X201930D02*
D03*
X95424Y-34988D02*
D03*
Y-28488D02*
D03*
Y-21988D02*
D03*
Y-15488D02*
D03*
Y-8988D02*
D03*
Y-2488D02*
D03*
Y4064D02*
D03*
Y10668D02*
D03*
Y17018D02*
D03*
Y23622D02*
D03*
X37036D02*
D03*
Y17018D02*
D03*
Y10668D02*
D03*
Y4064D02*
D03*
Y-2488D02*
D03*
Y-8988D02*
D03*
Y-15488D02*
D03*
Y-21988D02*
D03*
Y-28488D02*
D03*
Y-34988D02*
D03*
X95424Y30226D02*
D03*
X37036D02*
D03*
X95424Y36576D02*
D03*
X37036D02*
D03*
X-92678Y37528D02*
D03*
Y31028D02*
D03*
Y24528D02*
D03*
Y18028D02*
D03*
Y11528D02*
D03*
Y5028D02*
D03*
Y-1524D02*
D03*
Y-8128D02*
D03*
Y-14478D02*
D03*
Y-21082D02*
D03*
X-34290D02*
D03*
Y-14478D02*
D03*
Y-8128D02*
D03*
Y-1524D02*
D03*
Y5028D02*
D03*
Y11528D02*
D03*
Y18028D02*
D03*
Y24528D02*
D03*
Y31028D02*
D03*
Y37528D02*
D03*
X-92678Y-27686D02*
D03*
X-34290D02*
D03*
X-92678Y-34036D02*
D03*
X-34290D02*
D03*
X-140541Y-34988D02*
D03*
Y-28488D02*
D03*
Y-21988D02*
D03*
Y-15488D02*
D03*
Y-8988D02*
D03*
Y-2488D02*
D03*
Y4064D02*
D03*
Y10668D02*
D03*
Y17018D02*
D03*
Y23622D02*
D03*
X-198930D02*
D03*
Y17018D02*
D03*
Y10668D02*
D03*
Y4064D02*
D03*
Y-2488D02*
D03*
Y-8988D02*
D03*
Y-15488D02*
D03*
Y-21988D02*
D03*
Y-28488D02*
D03*
Y-34988D02*
D03*
X-140541Y30226D02*
D03*
X-198930D02*
D03*
X-140541Y36576D02*
D03*
X-198930D02*
D03*
D18*
X316840Y75184D02*
D03*
X297688D02*
D03*
X316840Y144272D02*
D03*
X297688D02*
D03*
D19*
X298348Y100228D02*
D03*
X317348D02*
D03*
X307848Y119228D02*
D03*
D31*
X-295000Y-168800D02*
D03*
X289200Y189200D02*
D03*
X-295000Y240000D02*
D03*
Y-245000D02*
D03*
D32*
Y-194200D02*
D03*
X-269600Y-168800D02*
D03*
Y-194200D02*
D03*
X-244200Y-168800D02*
D03*
Y-194200D02*
D03*
X-218800Y-168800D02*
D03*
Y-194200D02*
D03*
X-193400Y-168800D02*
D03*
Y-194200D02*
D03*
X-168000Y-168800D02*
D03*
Y-194200D02*
D03*
X-142600Y-168800D02*
D03*
Y-194200D02*
D03*
X-117200Y-168800D02*
D03*
Y-194200D02*
D03*
X-91800Y-168800D02*
D03*
Y-194200D02*
D03*
X-66400Y-168800D02*
D03*
Y-194200D02*
D03*
X-41000Y-168800D02*
D03*
Y-194200D02*
D03*
X-15600Y-168800D02*
D03*
Y-194200D02*
D03*
X9800Y-168800D02*
D03*
Y-194200D02*
D03*
X35200Y-168800D02*
D03*
Y-194200D02*
D03*
X60600Y-168800D02*
D03*
Y-194200D02*
D03*
X86000Y-168800D02*
D03*
Y-194200D02*
D03*
X111400Y-168800D02*
D03*
Y-194200D02*
D03*
X136800Y-168800D02*
D03*
Y-194200D02*
D03*
X162200Y-168800D02*
D03*
Y-194200D02*
D03*
X187600Y-168800D02*
D03*
Y-194200D02*
D03*
X213000Y-168800D02*
D03*
Y-194200D02*
D03*
X238400Y-168800D02*
D03*
Y-194200D02*
D03*
X263800Y-168800D02*
D03*
Y-194200D02*
D03*
X289200Y-168800D02*
D03*
Y-194200D02*
D03*
Y214600D02*
D03*
X263800Y189200D02*
D03*
Y214600D02*
D03*
X238400Y189200D02*
D03*
Y214600D02*
D03*
X213000Y189200D02*
D03*
Y214600D02*
D03*
X187600Y189200D02*
D03*
Y214600D02*
D03*
X162200Y189200D02*
D03*
Y214600D02*
D03*
X136800Y189200D02*
D03*
Y214600D02*
D03*
X111400Y189200D02*
D03*
Y214600D02*
D03*
X86000Y189200D02*
D03*
Y214600D02*
D03*
X60600Y189200D02*
D03*
Y214600D02*
D03*
X35200Y189200D02*
D03*
Y214600D02*
D03*
X9800Y189200D02*
D03*
Y214600D02*
D03*
X-15600Y189200D02*
D03*
Y214600D02*
D03*
X-41000Y189200D02*
D03*
Y214600D02*
D03*
X-66400Y189200D02*
D03*
Y214600D02*
D03*
X-91800Y189200D02*
D03*
Y214600D02*
D03*
X-117200Y189200D02*
D03*
Y214600D02*
D03*
X-142600Y189200D02*
D03*
Y214600D02*
D03*
X-168000Y189200D02*
D03*
Y214600D02*
D03*
X-193400Y189200D02*
D03*
Y214600D02*
D03*
X-218800Y189200D02*
D03*
Y214600D02*
D03*
X-244200Y189200D02*
D03*
Y214600D02*
D03*
X-269600Y189200D02*
D03*
Y214600D02*
D03*
X-295000Y189200D02*
D03*
Y214600D02*
D03*
X213000Y240000D02*
D03*
X263800Y265400D02*
D03*
Y240000D02*
D03*
X238400Y265400D02*
D03*
Y240000D02*
D03*
X213000Y265400D02*
D03*
X-193400D02*
D03*
Y240000D02*
D03*
X-218800Y265400D02*
D03*
Y240000D02*
D03*
X-244200Y265400D02*
D03*
Y240000D02*
D03*
X-269600Y265400D02*
D03*
Y240000D02*
D03*
X-295000Y265400D02*
D03*
X-168000D02*
D03*
X-142600Y240000D02*
D03*
Y265400D02*
D03*
X-117200Y240000D02*
D03*
Y265400D02*
D03*
X-91800Y240000D02*
D03*
Y265400D02*
D03*
X-66400Y240000D02*
D03*
Y265400D02*
D03*
X-41000D02*
D03*
X-15600Y240000D02*
D03*
Y265400D02*
D03*
X9800Y240000D02*
D03*
Y265400D02*
D03*
X35200Y240000D02*
D03*
Y265400D02*
D03*
X60600Y240000D02*
D03*
Y265400D02*
D03*
X86000D02*
D03*
X111400Y240000D02*
D03*
Y265400D02*
D03*
X136800Y240000D02*
D03*
Y265400D02*
D03*
X162200Y240000D02*
D03*
Y265400D02*
D03*
X187600Y240000D02*
D03*
Y265400D02*
D03*
X-168000Y240000D02*
D03*
X-41000D02*
D03*
X86000D02*
D03*
X213000Y-245000D02*
D03*
X263800Y-219600D02*
D03*
Y-245000D02*
D03*
X238400Y-219600D02*
D03*
Y-245000D02*
D03*
X213000Y-219600D02*
D03*
X-193400D02*
D03*
Y-245000D02*
D03*
X-218800Y-219600D02*
D03*
Y-245000D02*
D03*
X-244200Y-219600D02*
D03*
Y-245000D02*
D03*
X-269600Y-219600D02*
D03*
Y-245000D02*
D03*
X-295000Y-219600D02*
D03*
X-168000D02*
D03*
X-142600Y-245000D02*
D03*
Y-219600D02*
D03*
X-117200Y-245000D02*
D03*
Y-219600D02*
D03*
X-91800Y-245000D02*
D03*
Y-219600D02*
D03*
X-66400Y-245000D02*
D03*
Y-219600D02*
D03*
X-41000D02*
D03*
X-15600Y-245000D02*
D03*
Y-219600D02*
D03*
X9800Y-245000D02*
D03*
Y-219600D02*
D03*
X35200Y-245000D02*
D03*
Y-219600D02*
D03*
X60600Y-245000D02*
D03*
Y-219600D02*
D03*
X86000D02*
D03*
X111400Y-245000D02*
D03*
Y-219600D02*
D03*
X136800Y-245000D02*
D03*
Y-219600D02*
D03*
X162200Y-245000D02*
D03*
Y-219600D02*
D03*
X187600Y-245000D02*
D03*
Y-219600D02*
D03*
X-168000Y-245000D02*
D03*
X-41000D02*
D03*
X86000D02*
D03*
M02*
