G04*
G04 #@! TF.GenerationSoftware,Altium Limited,Altium Designer,19.1.8 (144)*
G04*
G04 Layer_Physical_Order=1*
G04 Layer_Color=255*
%FSLAX44Y44*%
%MOMM*%
G71*
G01*
G75*
%ADD14C,0.2000*%
%ADD16R,1.5240X1.3208*%
%ADD17R,0.9906X0.3048*%
%ADD18R,1.3208X1.5240*%
%ADD19R,0.6000X1.5000*%
%ADD26C,1.0000*%
%ADD27C,0.4000*%
%ADD28C,0.5000*%
%ADD29C,0.6000*%
%ADD30C,0.3000*%
%ADD31R,1.5000X1.5000*%
%ADD32C,1.5000*%
%ADD33C,0.6600*%
G36*
X255680Y279319D02*
X266353Y277914D01*
X276863Y275584D01*
X287130Y272347D01*
X297076Y268227D01*
X306625Y263256D01*
X315704Y257472D01*
X324245Y250918D01*
X332182Y243645D01*
X339455Y235709D01*
X346009Y227168D01*
X351793Y218088D01*
X356764Y208539D01*
X360883Y198594D01*
X364120Y188326D01*
X366451Y177816D01*
X367856Y167143D01*
X368304Y156872D01*
X368208Y156388D01*
X368208Y156387D01*
X368208Y156386D01*
X368329Y-135629D01*
X367856Y-146467D01*
X366451Y-157140D01*
X364120Y-167650D01*
X360883Y-177918D01*
X356764Y-187863D01*
X351793Y-197412D01*
X346009Y-206492D01*
X339455Y-215033D01*
X332182Y-222969D01*
X324245Y-230242D01*
X315704Y-236796D01*
X306625Y-242580D01*
X297076Y-247551D01*
X287130Y-251670D01*
X276863Y-254908D01*
X266353Y-257238D01*
X255680Y-258643D01*
X245409Y-259091D01*
X244925Y-258995D01*
X244924Y-258995D01*
X244924Y-258995D01*
X-237524Y-259067D01*
X-344678D01*
X-344747Y-259081D01*
X-346976Y-258787D01*
X-349118Y-257900D01*
X-350956Y-256489D01*
X-352367Y-254650D01*
X-353254Y-252509D01*
X-353548Y-250280D01*
X-353534Y-250211D01*
Y-118618D01*
X-353548Y-118549D01*
X-353254Y-116320D01*
X-352367Y-114178D01*
X-350956Y-112340D01*
X-349118Y-110929D01*
X-346976Y-110042D01*
X-344747Y-109748D01*
X-344678Y-109762D01*
X-294640D01*
Y-109768D01*
X-291411Y-109450D01*
X-288307Y-108508D01*
X-285445Y-106979D01*
X-282938Y-104920D01*
X-280879Y-102413D01*
X-279350Y-99551D01*
X-278408Y-96447D01*
X-278090Y-93218D01*
X-278096D01*
Y70104D01*
X-278090D01*
X-278408Y73333D01*
X-279350Y76437D01*
X-280879Y79299D01*
X-282938Y81806D01*
X-285445Y83865D01*
X-288307Y85394D01*
X-291411Y86336D01*
X-294640Y86654D01*
Y86648D01*
X-344678D01*
X-344747Y86634D01*
X-346976Y86928D01*
X-349118Y87815D01*
X-350956Y89226D01*
X-352367Y91065D01*
X-353254Y93206D01*
X-353548Y95435D01*
X-353534Y95504D01*
Y270844D01*
X-353548Y270913D01*
X-353254Y273142D01*
X-352367Y275283D01*
X-350956Y277122D01*
X-349118Y278533D01*
X-346976Y279420D01*
X-344747Y279713D01*
X-344678Y279700D01*
X-316265D01*
X-315779Y278526D01*
X-323988Y270318D01*
X-336002D01*
Y252476D01*
Y252459D01*
X-336042Y251206D01*
Y251206D01*
X-336042Y250857D01*
Y243332D01*
X-315722D01*
Y250856D01*
X-315722Y251206D01*
Y251206D01*
X-315762Y252459D01*
Y252476D01*
Y264124D01*
X-307584Y272302D01*
X-303795D01*
X-303233Y271163D01*
X-303770Y270463D01*
X-304782Y268021D01*
X-304959Y266670D01*
X-285041D01*
X-285218Y268021D01*
X-286230Y270463D01*
X-286767Y271163D01*
X-286205Y272302D01*
X-283712D01*
X-279352Y267942D01*
X-279686Y265400D01*
X-279343Y262789D01*
X-278335Y260357D01*
X-277165Y258832D01*
Y246568D01*
X-278335Y245043D01*
X-279343Y242610D01*
X-279686Y240000D01*
X-279343Y237390D01*
X-278335Y234957D01*
X-276732Y232868D01*
X-274643Y231265D01*
X-272211Y230257D01*
X-269600Y229914D01*
X-266989Y230257D01*
X-264557Y231265D01*
X-262468Y232868D01*
X-260865Y234957D01*
X-259857Y237390D01*
X-259514Y240000D01*
X-259857Y242610D01*
X-260865Y245043D01*
X-262035Y246568D01*
Y258832D01*
X-260865Y260357D01*
X-259857Y262789D01*
X-259514Y265400D01*
X-259857Y268011D01*
X-260865Y270443D01*
X-262468Y272532D01*
X-264557Y274135D01*
X-266989Y275143D01*
X-269600Y275486D01*
X-272142Y275152D01*
X-275517Y278526D01*
X-275031Y279700D01*
X-269568D01*
X-269568Y279700D01*
X-269568Y279700D01*
X244841Y279792D01*
X255680Y279319D01*
D02*
G37*
%LPC*%
G36*
X265070Y275359D02*
Y266670D01*
X273759D01*
X273582Y268021D01*
X272570Y270463D01*
X270961Y272561D01*
X268863Y274170D01*
X266421Y275182D01*
X265070Y275359D01*
D02*
G37*
G36*
X262530D02*
X261179Y275182D01*
X258737Y274170D01*
X256639Y272561D01*
X255030Y270463D01*
X254018Y268021D01*
X253841Y266670D01*
X262530D01*
Y275359D01*
D02*
G37*
G36*
X239670D02*
Y266670D01*
X248359D01*
X248182Y268021D01*
X247170Y270463D01*
X245561Y272561D01*
X243463Y274170D01*
X241021Y275182D01*
X239670Y275359D01*
D02*
G37*
G36*
X237130D02*
X235779Y275182D01*
X233337Y274170D01*
X231239Y272561D01*
X229630Y270463D01*
X228618Y268021D01*
X228441Y266670D01*
X237130D01*
Y275359D01*
D02*
G37*
G36*
X273759Y264130D02*
X265070D01*
Y255441D01*
X266421Y255618D01*
X268863Y256630D01*
X270961Y258239D01*
X272570Y260337D01*
X273582Y262779D01*
X273759Y264130D01*
D02*
G37*
G36*
X262530D02*
X253841D01*
X254018Y262779D01*
X255030Y260337D01*
X256639Y258239D01*
X258737Y256630D01*
X261179Y255618D01*
X262530Y255441D01*
Y264130D01*
D02*
G37*
G36*
X248359D02*
X239670D01*
Y255441D01*
X241021Y255618D01*
X243463Y256630D01*
X245561Y258239D01*
X247170Y260337D01*
X248182Y262779D01*
X248359Y264130D01*
D02*
G37*
G36*
X237130D02*
X228441D01*
X228618Y262779D01*
X229630Y260337D01*
X231239Y258239D01*
X233337Y256630D01*
X235779Y255618D01*
X237130Y255441D01*
Y264130D01*
D02*
G37*
G36*
X-285041D02*
X-293730D01*
Y255441D01*
X-292379Y255618D01*
X-289937Y256630D01*
X-287839Y258239D01*
X-286230Y260337D01*
X-285218Y262779D01*
X-285041Y264130D01*
D02*
G37*
G36*
X-296270D02*
X-304959D01*
X-304782Y262779D01*
X-303770Y260337D01*
X-302161Y258239D01*
X-300063Y256630D01*
X-297621Y255618D01*
X-296270Y255441D01*
Y264130D01*
D02*
G37*
G36*
X213000Y275486D02*
X210389Y275143D01*
X207957Y274135D01*
X205868Y272532D01*
X204265Y270443D01*
X203257Y268011D01*
X202914Y265400D01*
X203257Y262789D01*
X204265Y260357D01*
X205868Y258268D01*
X207957Y256665D01*
X210389Y255657D01*
X213000Y255314D01*
X215611Y255657D01*
X218043Y256665D01*
X220132Y258268D01*
X221735Y260357D01*
X222743Y262789D01*
X223086Y265400D01*
X222743Y268011D01*
X221735Y270443D01*
X220132Y272532D01*
X218043Y274135D01*
X215611Y275143D01*
X213000Y275486D01*
D02*
G37*
G36*
X187600D02*
X184989Y275143D01*
X182557Y274135D01*
X180468Y272532D01*
X178865Y270443D01*
X177857Y268011D01*
X177514Y265400D01*
X177857Y262789D01*
X178865Y260357D01*
X180468Y258268D01*
X182557Y256665D01*
X184989Y255657D01*
X187600Y255314D01*
X190210Y255657D01*
X192643Y256665D01*
X194732Y258268D01*
X196335Y260357D01*
X197343Y262789D01*
X197686Y265400D01*
X197343Y268011D01*
X196335Y270443D01*
X194732Y272532D01*
X192643Y274135D01*
X190210Y275143D01*
X187600Y275486D01*
D02*
G37*
G36*
X162200D02*
X159590Y275143D01*
X157157Y274135D01*
X155068Y272532D01*
X153465Y270443D01*
X152457Y268011D01*
X152114Y265400D01*
X152457Y262789D01*
X153465Y260357D01*
X155068Y258268D01*
X157157Y256665D01*
X159590Y255657D01*
X162200Y255314D01*
X164811Y255657D01*
X167243Y256665D01*
X169332Y258268D01*
X170935Y260357D01*
X171943Y262789D01*
X172286Y265400D01*
X171943Y268011D01*
X170935Y270443D01*
X169332Y272532D01*
X167243Y274135D01*
X164811Y275143D01*
X162200Y275486D01*
D02*
G37*
G36*
X136800D02*
X134190Y275143D01*
X131757Y274135D01*
X129668Y272532D01*
X128065Y270443D01*
X127057Y268011D01*
X126714Y265400D01*
X127057Y262789D01*
X128065Y260357D01*
X129668Y258268D01*
X131757Y256665D01*
X134190Y255657D01*
X136800Y255314D01*
X139410Y255657D01*
X141843Y256665D01*
X143932Y258268D01*
X145535Y260357D01*
X146543Y262789D01*
X146886Y265400D01*
X146543Y268011D01*
X145535Y270443D01*
X143932Y272532D01*
X141843Y274135D01*
X139410Y275143D01*
X136800Y275486D01*
D02*
G37*
G36*
X111400D02*
X108790Y275143D01*
X106357Y274135D01*
X104268Y272532D01*
X102665Y270443D01*
X101657Y268011D01*
X101314Y265400D01*
X101657Y262789D01*
X102665Y260357D01*
X104268Y258268D01*
X106357Y256665D01*
X108790Y255657D01*
X111400Y255314D01*
X114010Y255657D01*
X116443Y256665D01*
X118532Y258268D01*
X120135Y260357D01*
X121143Y262789D01*
X121486Y265400D01*
X121143Y268011D01*
X120135Y270443D01*
X118532Y272532D01*
X116443Y274135D01*
X114010Y275143D01*
X111400Y275486D01*
D02*
G37*
G36*
X86000D02*
X83390Y275143D01*
X80957Y274135D01*
X78868Y272532D01*
X77265Y270443D01*
X76257Y268011D01*
X75914Y265400D01*
X76257Y262789D01*
X77265Y260357D01*
X78868Y258268D01*
X80957Y256665D01*
X83390Y255657D01*
X86000Y255314D01*
X88610Y255657D01*
X91043Y256665D01*
X93132Y258268D01*
X94735Y260357D01*
X95743Y262789D01*
X96086Y265400D01*
X95743Y268011D01*
X94735Y270443D01*
X93132Y272532D01*
X91043Y274135D01*
X88610Y275143D01*
X86000Y275486D01*
D02*
G37*
G36*
X60600D02*
X57990Y275143D01*
X55557Y274135D01*
X53468Y272532D01*
X51865Y270443D01*
X50857Y268011D01*
X50514Y265400D01*
X50857Y262789D01*
X51865Y260357D01*
X53468Y258268D01*
X55557Y256665D01*
X57990Y255657D01*
X60600Y255314D01*
X63211Y255657D01*
X65643Y256665D01*
X67732Y258268D01*
X69335Y260357D01*
X70343Y262789D01*
X70686Y265400D01*
X70343Y268011D01*
X69335Y270443D01*
X67732Y272532D01*
X65643Y274135D01*
X63211Y275143D01*
X60600Y275486D01*
D02*
G37*
G36*
X35200D02*
X32589Y275143D01*
X30157Y274135D01*
X28068Y272532D01*
X26465Y270443D01*
X25457Y268011D01*
X25114Y265400D01*
X25457Y262789D01*
X26465Y260357D01*
X28068Y258268D01*
X30157Y256665D01*
X32589Y255657D01*
X35200Y255314D01*
X37810Y255657D01*
X40243Y256665D01*
X42332Y258268D01*
X43935Y260357D01*
X44943Y262789D01*
X45286Y265400D01*
X44943Y268011D01*
X43935Y270443D01*
X42332Y272532D01*
X40243Y274135D01*
X37810Y275143D01*
X35200Y275486D01*
D02*
G37*
G36*
X9800D02*
X7189Y275143D01*
X4757Y274135D01*
X2668Y272532D01*
X1065Y270443D01*
X57Y268011D01*
X-286Y265400D01*
X57Y262789D01*
X1065Y260357D01*
X2668Y258268D01*
X4757Y256665D01*
X7189Y255657D01*
X9800Y255314D01*
X12411Y255657D01*
X14843Y256665D01*
X16932Y258268D01*
X18535Y260357D01*
X19543Y262789D01*
X19886Y265400D01*
X19543Y268011D01*
X18535Y270443D01*
X16932Y272532D01*
X14843Y274135D01*
X12411Y275143D01*
X9800Y275486D01*
D02*
G37*
G36*
X-15600D02*
X-18211Y275143D01*
X-20643Y274135D01*
X-22732Y272532D01*
X-24335Y270443D01*
X-25343Y268011D01*
X-25686Y265400D01*
X-25343Y262789D01*
X-24335Y260357D01*
X-22732Y258268D01*
X-20643Y256665D01*
X-18211Y255657D01*
X-15600Y255314D01*
X-12989Y255657D01*
X-10557Y256665D01*
X-8468Y258268D01*
X-6865Y260357D01*
X-5857Y262789D01*
X-5514Y265400D01*
X-5857Y268011D01*
X-6865Y270443D01*
X-8468Y272532D01*
X-10557Y274135D01*
X-12989Y275143D01*
X-15600Y275486D01*
D02*
G37*
G36*
X-41000D02*
X-43611Y275143D01*
X-46043Y274135D01*
X-48132Y272532D01*
X-49735Y270443D01*
X-50743Y268011D01*
X-51086Y265400D01*
X-50743Y262789D01*
X-49735Y260357D01*
X-48132Y258268D01*
X-46043Y256665D01*
X-43611Y255657D01*
X-41000Y255314D01*
X-38389Y255657D01*
X-35957Y256665D01*
X-33868Y258268D01*
X-32265Y260357D01*
X-31257Y262789D01*
X-30914Y265400D01*
X-31257Y268011D01*
X-32265Y270443D01*
X-33868Y272532D01*
X-35957Y274135D01*
X-38389Y275143D01*
X-41000Y275486D01*
D02*
G37*
G36*
X-66400D02*
X-69011Y275143D01*
X-71443Y274135D01*
X-73532Y272532D01*
X-75135Y270443D01*
X-76143Y268011D01*
X-76486Y265400D01*
X-76143Y262789D01*
X-75532Y261315D01*
X-83423Y253423D01*
X-84197Y252266D01*
X-84469Y250900D01*
Y248580D01*
X-85739Y247954D01*
X-86757Y248735D01*
X-89190Y249743D01*
X-91800Y250086D01*
X-94410Y249743D01*
X-96843Y248735D01*
X-98932Y247132D01*
X-100535Y245043D01*
X-101543Y242610D01*
X-101886Y240000D01*
X-101543Y237390D01*
X-100535Y234957D01*
X-98932Y232868D01*
X-96843Y231265D01*
X-94410Y230257D01*
X-91800Y229914D01*
X-89190Y230257D01*
X-86757Y231265D01*
X-85739Y232046D01*
X-84469Y231420D01*
Y223180D01*
X-85739Y222554D01*
X-86757Y223335D01*
X-89190Y224343D01*
X-91800Y224686D01*
X-94410Y224343D01*
X-96843Y223335D01*
X-98932Y221732D01*
X-100535Y219643D01*
X-101543Y217211D01*
X-101886Y214600D01*
X-101543Y211989D01*
X-100535Y209557D01*
X-98932Y207468D01*
X-96843Y205865D01*
X-94410Y204857D01*
X-91800Y204514D01*
X-89190Y204857D01*
X-86757Y205865D01*
X-85739Y206646D01*
X-84469Y206020D01*
Y197780D01*
X-85739Y197154D01*
X-86757Y197935D01*
X-89190Y198943D01*
X-91800Y199286D01*
X-94410Y198943D01*
X-96843Y197935D01*
X-98932Y196332D01*
X-100535Y194243D01*
X-101543Y191810D01*
X-101886Y189200D01*
X-101543Y186590D01*
X-100535Y184157D01*
X-98932Y182068D01*
X-96843Y180465D01*
X-94410Y179457D01*
X-91800Y179114D01*
X-89190Y179457D01*
X-86757Y180465D01*
X-85739Y181246D01*
X-84469Y180620D01*
Y172525D01*
X-84197Y171159D01*
X-83423Y170002D01*
X-71568Y158147D01*
X-71954Y156210D01*
X-71504Y153947D01*
X-70222Y152028D01*
X-68303Y150746D01*
X-66040Y150296D01*
X-63777Y150746D01*
X-61858Y152028D01*
X-60577Y153947D01*
X-60235Y155663D01*
X-59309Y156773D01*
X-57046Y157224D01*
X-55127Y158505D01*
X-53846Y160424D01*
X-53395Y162687D01*
X-53846Y164950D01*
X-55127Y166869D01*
X-57046Y168151D01*
X-59309Y168601D01*
X-61572Y168151D01*
X-63491Y166869D01*
X-64826Y167155D01*
X-73331Y175660D01*
Y180478D01*
X-72192Y181040D01*
X-71443Y180465D01*
X-69011Y179457D01*
X-66400Y179114D01*
X-63790Y179457D01*
X-61357Y180465D01*
X-59268Y182068D01*
X-57665Y184157D01*
X-56657Y186590D01*
X-56314Y189200D01*
X-56657Y191810D01*
X-57665Y194243D01*
X-59268Y196332D01*
X-61357Y197935D01*
X-63790Y198943D01*
X-66400Y199286D01*
X-69011Y198943D01*
X-71443Y197935D01*
X-72192Y197360D01*
X-73331Y197922D01*
Y205878D01*
X-72192Y206440D01*
X-71443Y205865D01*
X-69011Y204857D01*
X-66400Y204514D01*
X-63790Y204857D01*
X-61357Y205865D01*
X-59268Y207468D01*
X-57665Y209557D01*
X-56657Y211989D01*
X-56314Y214600D01*
X-56657Y217211D01*
X-57665Y219643D01*
X-59268Y221732D01*
X-61357Y223335D01*
X-63790Y224343D01*
X-66400Y224686D01*
X-69011Y224343D01*
X-71443Y223335D01*
X-72192Y222760D01*
X-73331Y223322D01*
Y228022D01*
X-70485Y230868D01*
X-69011Y230257D01*
X-66400Y229914D01*
X-63790Y230257D01*
X-61357Y231265D01*
X-59268Y232868D01*
X-57665Y234957D01*
X-56657Y237390D01*
X-56314Y240000D01*
X-56657Y242610D01*
X-57665Y245043D01*
X-59268Y247132D01*
X-61357Y248735D01*
X-63790Y249743D01*
X-66400Y250086D01*
X-69011Y249743D01*
X-71443Y248735D01*
X-73532Y247132D01*
X-75135Y245043D01*
X-76143Y242610D01*
X-77331Y242898D01*
Y249422D01*
X-70485Y256268D01*
X-69011Y255657D01*
X-66400Y255314D01*
X-63790Y255657D01*
X-61357Y256665D01*
X-59268Y258268D01*
X-57665Y260357D01*
X-56657Y262789D01*
X-56314Y265400D01*
X-56657Y268011D01*
X-57665Y270443D01*
X-59268Y272532D01*
X-61357Y274135D01*
X-63790Y275143D01*
X-66400Y275486D01*
D02*
G37*
G36*
X-91800D02*
X-94410Y275143D01*
X-96843Y274135D01*
X-98932Y272532D01*
X-100535Y270443D01*
X-101543Y268011D01*
X-101886Y265400D01*
X-101543Y262789D01*
X-100535Y260357D01*
X-98932Y258268D01*
X-96843Y256665D01*
X-94410Y255657D01*
X-91800Y255314D01*
X-89190Y255657D01*
X-86757Y256665D01*
X-84668Y258268D01*
X-83065Y260357D01*
X-82057Y262789D01*
X-81714Y265400D01*
X-82057Y268011D01*
X-83065Y270443D01*
X-84668Y272532D01*
X-86757Y274135D01*
X-89190Y275143D01*
X-91800Y275486D01*
D02*
G37*
G36*
X-117200D02*
X-119810Y275143D01*
X-122243Y274135D01*
X-124332Y272532D01*
X-125935Y270443D01*
X-126943Y268011D01*
X-127286Y265400D01*
X-126943Y262789D01*
X-125935Y260357D01*
X-124332Y258268D01*
X-122243Y256665D01*
X-119810Y255657D01*
X-117200Y255314D01*
X-114590Y255657D01*
X-112157Y256665D01*
X-110068Y258268D01*
X-108465Y260357D01*
X-107457Y262789D01*
X-107114Y265400D01*
X-107457Y268011D01*
X-108465Y270443D01*
X-110068Y272532D01*
X-112157Y274135D01*
X-114590Y275143D01*
X-117200Y275486D01*
D02*
G37*
G36*
X-142600D02*
X-145211Y275143D01*
X-147643Y274135D01*
X-149732Y272532D01*
X-151335Y270443D01*
X-152343Y268011D01*
X-152686Y265400D01*
X-152343Y262789D01*
X-151335Y260357D01*
X-149732Y258268D01*
X-147643Y256665D01*
X-145211Y255657D01*
X-142600Y255314D01*
X-139990Y255657D01*
X-137557Y256665D01*
X-135468Y258268D01*
X-133865Y260357D01*
X-132857Y262789D01*
X-132514Y265400D01*
X-132857Y268011D01*
X-133865Y270443D01*
X-135468Y272532D01*
X-137557Y274135D01*
X-139990Y275143D01*
X-142600Y275486D01*
D02*
G37*
G36*
X-168000D02*
X-170611Y275143D01*
X-173043Y274135D01*
X-175132Y272532D01*
X-176735Y270443D01*
X-177743Y268011D01*
X-178086Y265400D01*
X-177743Y262789D01*
X-176735Y260357D01*
X-175132Y258268D01*
X-173043Y256665D01*
X-170611Y255657D01*
X-168000Y255314D01*
X-165389Y255657D01*
X-162957Y256665D01*
X-160868Y258268D01*
X-159265Y260357D01*
X-158257Y262789D01*
X-157914Y265400D01*
X-158257Y268011D01*
X-159265Y270443D01*
X-160868Y272532D01*
X-162957Y274135D01*
X-165389Y275143D01*
X-168000Y275486D01*
D02*
G37*
G36*
X-193400D02*
X-196010Y275143D01*
X-198443Y274135D01*
X-200532Y272532D01*
X-202135Y270443D01*
X-203143Y268011D01*
X-203486Y265400D01*
X-203143Y262789D01*
X-202135Y260357D01*
X-200532Y258268D01*
X-198443Y256665D01*
X-196010Y255657D01*
X-193400Y255314D01*
X-190790Y255657D01*
X-188357Y256665D01*
X-186268Y258268D01*
X-184665Y260357D01*
X-183657Y262789D01*
X-183314Y265400D01*
X-183657Y268011D01*
X-184665Y270443D01*
X-186268Y272532D01*
X-188357Y274135D01*
X-190790Y275143D01*
X-193400Y275486D01*
D02*
G37*
G36*
X265070Y249959D02*
Y241270D01*
X273759D01*
X273582Y242621D01*
X272570Y245063D01*
X270961Y247161D01*
X268863Y248770D01*
X266421Y249782D01*
X265070Y249959D01*
D02*
G37*
G36*
X262530D02*
X261179Y249782D01*
X258737Y248770D01*
X256639Y247161D01*
X255030Y245063D01*
X254018Y242621D01*
X253841Y241270D01*
X262530D01*
Y249959D01*
D02*
G37*
G36*
X239670D02*
Y241270D01*
X248359D01*
X248182Y242621D01*
X247170Y245063D01*
X245561Y247161D01*
X243463Y248770D01*
X241021Y249782D01*
X239670Y249959D01*
D02*
G37*
G36*
X237130D02*
X235779Y249782D01*
X233337Y248770D01*
X231239Y247161D01*
X229630Y245063D01*
X228618Y242621D01*
X228441Y241270D01*
X237130D01*
Y249959D01*
D02*
G37*
G36*
X-284960Y250040D02*
X-293730D01*
Y241270D01*
X-284960D01*
Y250040D01*
D02*
G37*
G36*
X-296270D02*
X-305040D01*
Y241270D01*
X-296270D01*
Y250040D01*
D02*
G37*
G36*
X-315722Y240792D02*
X-324612D01*
Y232918D01*
X-315722D01*
Y240792D01*
D02*
G37*
G36*
X-327152D02*
X-336042D01*
Y232918D01*
X-327152D01*
Y240792D01*
D02*
G37*
G36*
X273759Y238730D02*
X265070D01*
Y230041D01*
X266421Y230218D01*
X268863Y231230D01*
X270961Y232839D01*
X272570Y234937D01*
X273582Y237379D01*
X273759Y238730D01*
D02*
G37*
G36*
X262530D02*
X253841D01*
X254018Y237379D01*
X255030Y234937D01*
X256639Y232839D01*
X258737Y231230D01*
X261179Y230218D01*
X262530Y230041D01*
Y238730D01*
D02*
G37*
G36*
X248359D02*
X239670D01*
Y230041D01*
X241021Y230218D01*
X243463Y231230D01*
X245561Y232839D01*
X247170Y234937D01*
X248182Y237379D01*
X248359Y238730D01*
D02*
G37*
G36*
X237130D02*
X228441D01*
X228618Y237379D01*
X229630Y234937D01*
X231239Y232839D01*
X233337Y231230D01*
X235779Y230218D01*
X237130Y230041D01*
Y238730D01*
D02*
G37*
G36*
X-284960D02*
X-293730D01*
Y229960D01*
X-284960D01*
Y238730D01*
D02*
G37*
G36*
X-296270D02*
X-305040D01*
Y229960D01*
X-296270D01*
Y238730D01*
D02*
G37*
G36*
X213000Y250086D02*
X210389Y249743D01*
X207957Y248735D01*
X205868Y247132D01*
X204265Y245043D01*
X203257Y242610D01*
X202914Y240000D01*
X203257Y237390D01*
X204265Y234957D01*
X205868Y232868D01*
X207957Y231265D01*
X210389Y230257D01*
X213000Y229914D01*
X215611Y230257D01*
X218043Y231265D01*
X220132Y232868D01*
X221735Y234957D01*
X222743Y237390D01*
X223086Y240000D01*
X222743Y242610D01*
X221735Y245043D01*
X220132Y247132D01*
X218043Y248735D01*
X215611Y249743D01*
X213000Y250086D01*
D02*
G37*
G36*
X187600D02*
X184989Y249743D01*
X182557Y248735D01*
X180468Y247132D01*
X178865Y245043D01*
X177857Y242610D01*
X177514Y240000D01*
X177857Y237390D01*
X178865Y234957D01*
X180468Y232868D01*
X182557Y231265D01*
X184989Y230257D01*
X187600Y229914D01*
X190210Y230257D01*
X192643Y231265D01*
X194732Y232868D01*
X196335Y234957D01*
X197343Y237390D01*
X197686Y240000D01*
X197343Y242610D01*
X196335Y245043D01*
X194732Y247132D01*
X192643Y248735D01*
X190210Y249743D01*
X187600Y250086D01*
D02*
G37*
G36*
X162200D02*
X159590Y249743D01*
X157157Y248735D01*
X155068Y247132D01*
X153465Y245043D01*
X152457Y242610D01*
X152114Y240000D01*
X152457Y237390D01*
X153465Y234957D01*
X155068Y232868D01*
X157157Y231265D01*
X159590Y230257D01*
X162200Y229914D01*
X164811Y230257D01*
X167243Y231265D01*
X169332Y232868D01*
X170935Y234957D01*
X171943Y237390D01*
X172286Y240000D01*
X171943Y242610D01*
X170935Y245043D01*
X169332Y247132D01*
X167243Y248735D01*
X164811Y249743D01*
X162200Y250086D01*
D02*
G37*
G36*
X136800D02*
X134190Y249743D01*
X131757Y248735D01*
X129668Y247132D01*
X128065Y245043D01*
X127057Y242610D01*
X126714Y240000D01*
X127057Y237390D01*
X128065Y234957D01*
X129668Y232868D01*
X131757Y231265D01*
X134190Y230257D01*
X136800Y229914D01*
X139410Y230257D01*
X141843Y231265D01*
X143932Y232868D01*
X145535Y234957D01*
X146543Y237390D01*
X146886Y240000D01*
X146543Y242610D01*
X145535Y245043D01*
X143932Y247132D01*
X141843Y248735D01*
X139410Y249743D01*
X136800Y250086D01*
D02*
G37*
G36*
X111400D02*
X108790Y249743D01*
X106357Y248735D01*
X104268Y247132D01*
X102665Y245043D01*
X101657Y242610D01*
X101314Y240000D01*
X101657Y237390D01*
X102665Y234957D01*
X104268Y232868D01*
X106357Y231265D01*
X108790Y230257D01*
X111400Y229914D01*
X114010Y230257D01*
X116443Y231265D01*
X118532Y232868D01*
X120135Y234957D01*
X121143Y237390D01*
X121486Y240000D01*
X121143Y242610D01*
X120135Y245043D01*
X118532Y247132D01*
X116443Y248735D01*
X114010Y249743D01*
X111400Y250086D01*
D02*
G37*
G36*
X86000D02*
X83390Y249743D01*
X80957Y248735D01*
X78868Y247132D01*
X77265Y245043D01*
X76257Y242610D01*
X75914Y240000D01*
X76257Y237390D01*
X77265Y234957D01*
X78868Y232868D01*
X80957Y231265D01*
X83390Y230257D01*
X86000Y229914D01*
X88610Y230257D01*
X91043Y231265D01*
X93132Y232868D01*
X94735Y234957D01*
X95743Y237390D01*
X96086Y240000D01*
X95743Y242610D01*
X94735Y245043D01*
X93132Y247132D01*
X91043Y248735D01*
X88610Y249743D01*
X86000Y250086D01*
D02*
G37*
G36*
X60600D02*
X57990Y249743D01*
X55557Y248735D01*
X53468Y247132D01*
X51865Y245043D01*
X50857Y242610D01*
X50514Y240000D01*
X50857Y237390D01*
X51865Y234957D01*
X53468Y232868D01*
X55557Y231265D01*
X57990Y230257D01*
X60600Y229914D01*
X63211Y230257D01*
X65643Y231265D01*
X67732Y232868D01*
X69335Y234957D01*
X70343Y237390D01*
X70686Y240000D01*
X70343Y242610D01*
X69335Y245043D01*
X67732Y247132D01*
X65643Y248735D01*
X63211Y249743D01*
X60600Y250086D01*
D02*
G37*
G36*
X35200D02*
X32589Y249743D01*
X30157Y248735D01*
X28068Y247132D01*
X26465Y245043D01*
X25457Y242610D01*
X25114Y240000D01*
X25457Y237390D01*
X26465Y234957D01*
X28068Y232868D01*
X30157Y231265D01*
X32589Y230257D01*
X35200Y229914D01*
X37810Y230257D01*
X40243Y231265D01*
X42332Y232868D01*
X43935Y234957D01*
X44943Y237390D01*
X45286Y240000D01*
X44943Y242610D01*
X43935Y245043D01*
X42332Y247132D01*
X40243Y248735D01*
X37810Y249743D01*
X35200Y250086D01*
D02*
G37*
G36*
X9800D02*
X7189Y249743D01*
X4757Y248735D01*
X2668Y247132D01*
X1065Y245043D01*
X57Y242610D01*
X-286Y240000D01*
X57Y237390D01*
X1065Y234957D01*
X2668Y232868D01*
X4757Y231265D01*
X7189Y230257D01*
X9800Y229914D01*
X12411Y230257D01*
X14843Y231265D01*
X16932Y232868D01*
X18535Y234957D01*
X19543Y237390D01*
X19886Y240000D01*
X19543Y242610D01*
X18535Y245043D01*
X16932Y247132D01*
X14843Y248735D01*
X12411Y249743D01*
X9800Y250086D01*
D02*
G37*
G36*
X-15600D02*
X-18211Y249743D01*
X-20643Y248735D01*
X-22732Y247132D01*
X-24335Y245043D01*
X-25343Y242610D01*
X-25686Y240000D01*
X-25343Y237390D01*
X-24335Y234957D01*
X-22732Y232868D01*
X-20643Y231265D01*
X-18211Y230257D01*
X-15600Y229914D01*
X-12989Y230257D01*
X-10557Y231265D01*
X-8468Y232868D01*
X-6865Y234957D01*
X-5857Y237390D01*
X-5514Y240000D01*
X-5857Y242610D01*
X-6865Y245043D01*
X-8468Y247132D01*
X-10557Y248735D01*
X-12989Y249743D01*
X-15600Y250086D01*
D02*
G37*
G36*
X-41000D02*
X-43611Y249743D01*
X-46043Y248735D01*
X-48132Y247132D01*
X-49735Y245043D01*
X-50743Y242610D01*
X-51086Y240000D01*
X-50743Y237390D01*
X-49735Y234957D01*
X-48132Y232868D01*
X-46043Y231265D01*
X-43611Y230257D01*
X-41000Y229914D01*
X-38389Y230257D01*
X-35957Y231265D01*
X-33868Y232868D01*
X-32265Y234957D01*
X-31257Y237390D01*
X-30914Y240000D01*
X-31257Y242610D01*
X-32265Y245043D01*
X-33868Y247132D01*
X-35957Y248735D01*
X-38389Y249743D01*
X-41000Y250086D01*
D02*
G37*
G36*
X-117200D02*
X-119810Y249743D01*
X-122243Y248735D01*
X-124332Y247132D01*
X-125935Y245043D01*
X-126943Y242610D01*
X-127286Y240000D01*
X-126943Y237390D01*
X-125935Y234957D01*
X-124332Y232868D01*
X-122243Y231265D01*
X-119810Y230257D01*
X-117200Y229914D01*
X-114590Y230257D01*
X-112157Y231265D01*
X-110068Y232868D01*
X-108465Y234957D01*
X-107457Y237390D01*
X-107114Y240000D01*
X-107457Y242610D01*
X-108465Y245043D01*
X-110068Y247132D01*
X-112157Y248735D01*
X-114590Y249743D01*
X-117200Y250086D01*
D02*
G37*
G36*
X-142600D02*
X-145211Y249743D01*
X-147643Y248735D01*
X-149732Y247132D01*
X-151335Y245043D01*
X-152343Y242610D01*
X-152686Y240000D01*
X-152343Y237390D01*
X-151335Y234957D01*
X-149732Y232868D01*
X-147643Y231265D01*
X-145211Y230257D01*
X-142600Y229914D01*
X-139990Y230257D01*
X-137557Y231265D01*
X-135468Y232868D01*
X-133865Y234957D01*
X-132857Y237390D01*
X-132514Y240000D01*
X-132857Y242610D01*
X-133865Y245043D01*
X-135468Y247132D01*
X-137557Y248735D01*
X-139990Y249743D01*
X-142600Y250086D01*
D02*
G37*
G36*
X-168000D02*
X-170611Y249743D01*
X-173043Y248735D01*
X-175132Y247132D01*
X-176735Y245043D01*
X-177743Y242610D01*
X-178086Y240000D01*
X-177743Y237390D01*
X-176735Y234957D01*
X-175132Y232868D01*
X-173043Y231265D01*
X-170611Y230257D01*
X-168000Y229914D01*
X-165389Y230257D01*
X-162957Y231265D01*
X-160868Y232868D01*
X-159265Y234957D01*
X-158257Y237390D01*
X-157914Y240000D01*
X-158257Y242610D01*
X-159265Y245043D01*
X-160868Y247132D01*
X-162957Y248735D01*
X-165389Y249743D01*
X-168000Y250086D01*
D02*
G37*
G36*
X-193400D02*
X-196010Y249743D01*
X-198443Y248735D01*
X-200532Y247132D01*
X-202135Y245043D01*
X-203143Y242610D01*
X-203486Y240000D01*
X-203143Y237390D01*
X-202135Y234957D01*
X-200532Y232868D01*
X-198443Y231265D01*
X-196010Y230257D01*
X-193400Y229914D01*
X-190790Y230257D01*
X-188357Y231265D01*
X-186268Y232868D01*
X-184665Y234957D01*
X-183657Y237390D01*
X-183314Y240000D01*
X-183657Y242610D01*
X-184665Y245043D01*
X-186268Y247132D01*
X-188357Y248735D01*
X-190790Y249743D01*
X-193400Y250086D01*
D02*
G37*
G36*
X-218800Y275486D02*
X-221411Y275143D01*
X-223843Y274135D01*
X-225932Y272532D01*
X-227535Y270443D01*
X-228543Y268011D01*
X-228886Y265400D01*
X-228543Y262789D01*
X-227535Y260357D01*
X-226365Y258832D01*
Y246568D01*
X-227535Y245043D01*
X-228543Y242610D01*
X-228886Y240000D01*
X-228543Y237390D01*
X-227535Y234957D01*
X-225932Y232868D01*
X-223843Y231265D01*
X-221411Y230257D01*
X-218800Y229914D01*
X-216189Y230257D01*
X-213757Y231265D01*
X-211668Y232868D01*
X-210065Y234957D01*
X-209057Y237390D01*
X-208714Y240000D01*
X-209057Y242610D01*
X-210065Y245043D01*
X-211235Y246568D01*
Y258832D01*
X-210065Y260357D01*
X-209057Y262789D01*
X-208714Y265400D01*
X-209057Y268011D01*
X-210065Y270443D01*
X-211668Y272532D01*
X-213757Y274135D01*
X-216189Y275143D01*
X-218800Y275486D01*
D02*
G37*
G36*
X-244200D02*
X-246810Y275143D01*
X-249243Y274135D01*
X-251332Y272532D01*
X-252935Y270443D01*
X-253943Y268011D01*
X-254286Y265400D01*
X-253943Y262789D01*
X-252935Y260357D01*
X-251765Y258832D01*
Y246568D01*
X-252935Y245043D01*
X-253943Y242610D01*
X-254286Y240000D01*
X-253943Y237390D01*
X-252935Y234957D01*
X-251332Y232868D01*
X-249243Y231265D01*
X-246810Y230257D01*
X-244200Y229914D01*
X-241590Y230257D01*
X-239157Y231265D01*
X-237068Y232868D01*
X-235465Y234957D01*
X-234457Y237390D01*
X-234114Y240000D01*
X-234457Y242610D01*
X-235465Y245043D01*
X-236635Y246568D01*
Y258832D01*
X-235465Y260357D01*
X-234457Y262789D01*
X-234114Y265400D01*
X-234457Y268011D01*
X-235465Y270443D01*
X-237068Y272532D01*
X-239157Y274135D01*
X-241590Y275143D01*
X-244200Y275486D01*
D02*
G37*
G36*
X-315722Y227330D02*
X-324612D01*
Y219456D01*
X-315722D01*
Y227330D01*
D02*
G37*
G36*
X-327152D02*
X-336042D01*
Y219456D01*
X-327152D01*
Y227330D01*
D02*
G37*
G36*
X265070Y224559D02*
Y215870D01*
X273759D01*
X273582Y217221D01*
X272570Y219663D01*
X270961Y221761D01*
X268863Y223370D01*
X266421Y224382D01*
X265070Y224559D01*
D02*
G37*
G36*
X262530D02*
X261179Y224382D01*
X258737Y223370D01*
X256639Y221761D01*
X255030Y219663D01*
X254018Y217221D01*
X253841Y215870D01*
X262530D01*
Y224559D01*
D02*
G37*
G36*
X188870D02*
Y215870D01*
X197559D01*
X197382Y217221D01*
X196370Y219663D01*
X194761Y221761D01*
X192663Y223370D01*
X190221Y224382D01*
X188870Y224559D01*
D02*
G37*
G36*
X186330D02*
X184979Y224382D01*
X182537Y223370D01*
X180439Y221761D01*
X178830Y219663D01*
X177818Y217221D01*
X177641Y215870D01*
X186330D01*
Y224559D01*
D02*
G37*
G36*
X112670D02*
Y215870D01*
X121359D01*
X121182Y217221D01*
X120170Y219663D01*
X118561Y221761D01*
X116463Y223370D01*
X114021Y224382D01*
X112670Y224559D01*
D02*
G37*
G36*
X110130D02*
X108779Y224382D01*
X106337Y223370D01*
X104239Y221761D01*
X102630Y219663D01*
X101618Y217221D01*
X101441Y215870D01*
X110130D01*
Y224559D01*
D02*
G37*
G36*
X36470D02*
Y215870D01*
X45159D01*
X44982Y217221D01*
X43970Y219663D01*
X42361Y221761D01*
X40263Y223370D01*
X37821Y224382D01*
X36470Y224559D01*
D02*
G37*
G36*
X33930D02*
X32579Y224382D01*
X30137Y223370D01*
X28039Y221761D01*
X26430Y219663D01*
X25418Y217221D01*
X25241Y215870D01*
X33930D01*
Y224559D01*
D02*
G37*
G36*
X-39730D02*
Y215870D01*
X-31041D01*
X-31218Y217221D01*
X-32230Y219663D01*
X-33839Y221761D01*
X-35937Y223370D01*
X-38379Y224382D01*
X-39730Y224559D01*
D02*
G37*
G36*
X-42270D02*
X-43621Y224382D01*
X-46063Y223370D01*
X-48161Y221761D01*
X-49770Y219663D01*
X-50782Y217221D01*
X-50959Y215870D01*
X-42270D01*
Y224559D01*
D02*
G37*
G36*
X-115930D02*
Y215870D01*
X-107241D01*
X-107418Y217221D01*
X-108430Y219663D01*
X-110039Y221761D01*
X-112137Y223370D01*
X-114579Y224382D01*
X-115930Y224559D01*
D02*
G37*
G36*
X-118470D02*
X-119821Y224382D01*
X-122263Y223370D01*
X-124361Y221761D01*
X-125970Y219663D01*
X-126982Y217221D01*
X-127159Y215870D01*
X-118470D01*
Y224559D01*
D02*
G37*
G36*
X-192130D02*
Y215870D01*
X-183441D01*
X-183618Y217221D01*
X-184630Y219663D01*
X-186239Y221761D01*
X-188337Y223370D01*
X-190779Y224382D01*
X-192130Y224559D01*
D02*
G37*
G36*
X-194670D02*
X-196021Y224382D01*
X-198463Y223370D01*
X-200561Y221761D01*
X-202170Y219663D01*
X-203182Y217221D01*
X-203359Y215870D01*
X-194670D01*
Y224559D01*
D02*
G37*
G36*
X-268330D02*
Y215870D01*
X-259641D01*
X-259818Y217221D01*
X-260830Y219663D01*
X-262439Y221761D01*
X-264537Y223370D01*
X-266979Y224382D01*
X-268330Y224559D01*
D02*
G37*
G36*
X-270870D02*
X-272221Y224382D01*
X-274663Y223370D01*
X-276761Y221761D01*
X-278370Y219663D01*
X-279382Y217221D01*
X-279559Y215870D01*
X-270870D01*
Y224559D01*
D02*
G37*
G36*
X273759Y213330D02*
X265070D01*
Y204641D01*
X266421Y204818D01*
X268863Y205830D01*
X270961Y207439D01*
X272570Y209537D01*
X273582Y211979D01*
X273759Y213330D01*
D02*
G37*
G36*
X262530D02*
X253841D01*
X254018Y211979D01*
X255030Y209537D01*
X256639Y207439D01*
X258737Y205830D01*
X261179Y204818D01*
X262530Y204641D01*
Y213330D01*
D02*
G37*
G36*
X197559D02*
X188870D01*
Y204641D01*
X190221Y204818D01*
X192663Y205830D01*
X194761Y207439D01*
X196370Y209537D01*
X197382Y211979D01*
X197559Y213330D01*
D02*
G37*
G36*
X186330D02*
X177641D01*
X177818Y211979D01*
X178830Y209537D01*
X180439Y207439D01*
X182537Y205830D01*
X184979Y204818D01*
X186330Y204641D01*
Y213330D01*
D02*
G37*
G36*
X121359D02*
X112670D01*
Y204641D01*
X114021Y204818D01*
X116463Y205830D01*
X118561Y207439D01*
X120170Y209537D01*
X121182Y211979D01*
X121359Y213330D01*
D02*
G37*
G36*
X110130D02*
X101441D01*
X101618Y211979D01*
X102630Y209537D01*
X104239Y207439D01*
X106337Y205830D01*
X108779Y204818D01*
X110130Y204641D01*
Y213330D01*
D02*
G37*
G36*
X45159D02*
X36470D01*
Y204641D01*
X37821Y204818D01*
X40263Y205830D01*
X42361Y207439D01*
X43970Y209537D01*
X44982Y211979D01*
X45159Y213330D01*
D02*
G37*
G36*
X33930D02*
X25241D01*
X25418Y211979D01*
X26430Y209537D01*
X28039Y207439D01*
X30137Y205830D01*
X32579Y204818D01*
X33930Y204641D01*
Y213330D01*
D02*
G37*
G36*
X-31041D02*
X-39730D01*
Y204641D01*
X-38379Y204818D01*
X-35937Y205830D01*
X-33839Y207439D01*
X-32230Y209537D01*
X-31218Y211979D01*
X-31041Y213330D01*
D02*
G37*
G36*
X-42270D02*
X-50959D01*
X-50782Y211979D01*
X-49770Y209537D01*
X-48161Y207439D01*
X-46063Y205830D01*
X-43621Y204818D01*
X-42270Y204641D01*
Y213330D01*
D02*
G37*
G36*
X-107241D02*
X-115930D01*
Y204641D01*
X-114579Y204818D01*
X-112137Y205830D01*
X-110039Y207439D01*
X-108430Y209537D01*
X-107418Y211979D01*
X-107241Y213330D01*
D02*
G37*
G36*
X-118470D02*
X-127159D01*
X-126982Y211979D01*
X-125970Y209537D01*
X-124361Y207439D01*
X-122263Y205830D01*
X-119821Y204818D01*
X-118470Y204641D01*
Y213330D01*
D02*
G37*
G36*
X-183441D02*
X-192130D01*
Y204641D01*
X-190779Y204818D01*
X-188337Y205830D01*
X-186239Y207439D01*
X-184630Y209537D01*
X-183618Y211979D01*
X-183441Y213330D01*
D02*
G37*
G36*
X-194670D02*
X-203359D01*
X-203182Y211979D01*
X-202170Y209537D01*
X-200561Y207439D01*
X-198463Y205830D01*
X-196021Y204818D01*
X-194670Y204641D01*
Y213330D01*
D02*
G37*
G36*
X-259641D02*
X-268330D01*
Y204641D01*
X-266979Y204818D01*
X-264537Y205830D01*
X-262439Y207439D01*
X-260830Y209537D01*
X-259818Y211979D01*
X-259641Y213330D01*
D02*
G37*
G36*
X-270870D02*
X-279559D01*
X-279382Y211979D01*
X-278370Y209537D01*
X-276761Y207439D01*
X-274663Y205830D01*
X-272221Y204818D01*
X-270870Y204641D01*
Y213330D01*
D02*
G37*
G36*
X289200Y224686D02*
X286590Y224343D01*
X284157Y223335D01*
X282068Y221732D01*
X280465Y219643D01*
X279457Y217211D01*
X279114Y214600D01*
X279457Y211989D01*
X280465Y209557D01*
X282068Y207468D01*
X284157Y205865D01*
X286590Y204857D01*
X289200Y204514D01*
X291810Y204857D01*
X294243Y205865D01*
X296332Y207468D01*
X297935Y209557D01*
X298943Y211989D01*
X299286Y214600D01*
X298943Y217211D01*
X297935Y219643D01*
X296332Y221732D01*
X294243Y223335D01*
X291810Y224343D01*
X289200Y224686D01*
D02*
G37*
G36*
X238400D02*
X235790Y224343D01*
X233357Y223335D01*
X231268Y221732D01*
X229665Y219643D01*
X228657Y217211D01*
X228314Y214600D01*
X228657Y211989D01*
X229665Y209557D01*
X231268Y207468D01*
X233357Y205865D01*
X235790Y204857D01*
X238400Y204514D01*
X241010Y204857D01*
X243443Y205865D01*
X245532Y207468D01*
X247135Y209557D01*
X248143Y211989D01*
X248486Y214600D01*
X248143Y217211D01*
X247135Y219643D01*
X245532Y221732D01*
X243443Y223335D01*
X241010Y224343D01*
X238400Y224686D01*
D02*
G37*
G36*
X213000D02*
X210389Y224343D01*
X207957Y223335D01*
X205868Y221732D01*
X204265Y219643D01*
X203257Y217211D01*
X202914Y214600D01*
X203257Y211989D01*
X204265Y209557D01*
X205868Y207468D01*
X207957Y205865D01*
X210389Y204857D01*
X213000Y204514D01*
X215611Y204857D01*
X218043Y205865D01*
X220132Y207468D01*
X221735Y209557D01*
X222743Y211989D01*
X223086Y214600D01*
X222743Y217211D01*
X221735Y219643D01*
X220132Y221732D01*
X218043Y223335D01*
X215611Y224343D01*
X213000Y224686D01*
D02*
G37*
G36*
X162200D02*
X159590Y224343D01*
X157157Y223335D01*
X155068Y221732D01*
X153465Y219643D01*
X152457Y217211D01*
X152114Y214600D01*
X152457Y211989D01*
X153465Y209557D01*
X155068Y207468D01*
X157157Y205865D01*
X159590Y204857D01*
X162200Y204514D01*
X164811Y204857D01*
X167243Y205865D01*
X169332Y207468D01*
X170935Y209557D01*
X171943Y211989D01*
X172286Y214600D01*
X171943Y217211D01*
X170935Y219643D01*
X169332Y221732D01*
X167243Y223335D01*
X164811Y224343D01*
X162200Y224686D01*
D02*
G37*
G36*
X136800D02*
X134190Y224343D01*
X131757Y223335D01*
X129668Y221732D01*
X128065Y219643D01*
X127057Y217211D01*
X126714Y214600D01*
X127057Y211989D01*
X128065Y209557D01*
X129668Y207468D01*
X131757Y205865D01*
X134190Y204857D01*
X136800Y204514D01*
X139410Y204857D01*
X141843Y205865D01*
X143932Y207468D01*
X145535Y209557D01*
X146543Y211989D01*
X146886Y214600D01*
X146543Y217211D01*
X145535Y219643D01*
X143932Y221732D01*
X141843Y223335D01*
X139410Y224343D01*
X136800Y224686D01*
D02*
G37*
G36*
X86000D02*
X83390Y224343D01*
X80957Y223335D01*
X78868Y221732D01*
X77265Y219643D01*
X76257Y217211D01*
X75914Y214600D01*
X76257Y211989D01*
X77265Y209557D01*
X78868Y207468D01*
X80957Y205865D01*
X83390Y204857D01*
X86000Y204514D01*
X88610Y204857D01*
X91043Y205865D01*
X93132Y207468D01*
X94735Y209557D01*
X95743Y211989D01*
X96086Y214600D01*
X95743Y217211D01*
X94735Y219643D01*
X93132Y221732D01*
X91043Y223335D01*
X88610Y224343D01*
X86000Y224686D01*
D02*
G37*
G36*
X60600D02*
X57990Y224343D01*
X55557Y223335D01*
X53468Y221732D01*
X51865Y219643D01*
X50857Y217211D01*
X50514Y214600D01*
X50857Y211989D01*
X51865Y209557D01*
X53468Y207468D01*
X55557Y205865D01*
X57990Y204857D01*
X60600Y204514D01*
X63211Y204857D01*
X65643Y205865D01*
X67732Y207468D01*
X69335Y209557D01*
X70343Y211989D01*
X70686Y214600D01*
X70343Y217211D01*
X69335Y219643D01*
X67732Y221732D01*
X65643Y223335D01*
X63211Y224343D01*
X60600Y224686D01*
D02*
G37*
G36*
X9800D02*
X7189Y224343D01*
X4757Y223335D01*
X2668Y221732D01*
X1065Y219643D01*
X57Y217211D01*
X-286Y214600D01*
X57Y211989D01*
X1065Y209557D01*
X2668Y207468D01*
X4757Y205865D01*
X7189Y204857D01*
X9800Y204514D01*
X12411Y204857D01*
X14843Y205865D01*
X16932Y207468D01*
X18535Y209557D01*
X19543Y211989D01*
X19886Y214600D01*
X19543Y217211D01*
X18535Y219643D01*
X16932Y221732D01*
X14843Y223335D01*
X12411Y224343D01*
X9800Y224686D01*
D02*
G37*
G36*
X-15600D02*
X-18211Y224343D01*
X-20643Y223335D01*
X-22732Y221732D01*
X-24335Y219643D01*
X-25343Y217211D01*
X-25686Y214600D01*
X-25343Y211989D01*
X-24335Y209557D01*
X-22732Y207468D01*
X-20643Y205865D01*
X-18211Y204857D01*
X-15600Y204514D01*
X-12989Y204857D01*
X-10557Y205865D01*
X-8468Y207468D01*
X-6865Y209557D01*
X-5857Y211989D01*
X-5514Y214600D01*
X-5857Y217211D01*
X-6865Y219643D01*
X-8468Y221732D01*
X-10557Y223335D01*
X-12989Y224343D01*
X-15600Y224686D01*
D02*
G37*
G36*
X-142600D02*
X-145211Y224343D01*
X-147643Y223335D01*
X-149732Y221732D01*
X-151335Y219643D01*
X-152343Y217211D01*
X-152686Y214600D01*
X-152343Y211989D01*
X-151335Y209557D01*
X-149732Y207468D01*
X-147643Y205865D01*
X-145211Y204857D01*
X-142600Y204514D01*
X-139990Y204857D01*
X-137557Y205865D01*
X-135468Y207468D01*
X-133865Y209557D01*
X-132857Y211989D01*
X-132514Y214600D01*
X-132857Y217211D01*
X-133865Y219643D01*
X-135468Y221732D01*
X-137557Y223335D01*
X-139990Y224343D01*
X-142600Y224686D01*
D02*
G37*
G36*
X-168000D02*
X-170611Y224343D01*
X-173043Y223335D01*
X-175132Y221732D01*
X-176735Y219643D01*
X-177743Y217211D01*
X-178086Y214600D01*
X-177743Y211989D01*
X-176735Y209557D01*
X-175132Y207468D01*
X-173043Y205865D01*
X-170611Y204857D01*
X-168000Y204514D01*
X-165389Y204857D01*
X-162957Y205865D01*
X-160868Y207468D01*
X-159265Y209557D01*
X-158257Y211989D01*
X-157914Y214600D01*
X-158257Y217211D01*
X-159265Y219643D01*
X-160868Y221732D01*
X-162957Y223335D01*
X-165389Y224343D01*
X-168000Y224686D01*
D02*
G37*
G36*
X-218800D02*
X-221411Y224343D01*
X-223843Y223335D01*
X-225932Y221732D01*
X-227535Y219643D01*
X-228543Y217211D01*
X-228886Y214600D01*
X-228543Y211989D01*
X-227535Y209557D01*
X-225932Y207468D01*
X-223843Y205865D01*
X-221411Y204857D01*
X-218800Y204514D01*
X-216189Y204857D01*
X-213757Y205865D01*
X-211668Y207468D01*
X-210065Y209557D01*
X-209057Y211989D01*
X-208714Y214600D01*
X-209057Y217211D01*
X-210065Y219643D01*
X-211668Y221732D01*
X-213757Y223335D01*
X-216189Y224343D01*
X-218800Y224686D01*
D02*
G37*
G36*
X-244200D02*
X-246810Y224343D01*
X-249243Y223335D01*
X-251332Y221732D01*
X-252935Y219643D01*
X-253943Y217211D01*
X-254286Y214600D01*
X-253943Y211989D01*
X-252935Y209557D01*
X-251332Y207468D01*
X-249243Y205865D01*
X-246810Y204857D01*
X-244200Y204514D01*
X-241590Y204857D01*
X-239157Y205865D01*
X-237068Y207468D01*
X-235465Y209557D01*
X-234457Y211989D01*
X-234114Y214600D01*
X-234457Y217211D01*
X-235465Y219643D01*
X-237068Y221732D01*
X-239157Y223335D01*
X-241590Y224343D01*
X-244200Y224686D01*
D02*
G37*
G36*
X-295000D02*
X-297610Y224343D01*
X-300043Y223335D01*
X-302132Y221732D01*
X-303735Y219643D01*
X-304743Y217211D01*
X-305086Y214600D01*
X-304743Y211989D01*
X-303735Y209557D01*
X-302132Y207468D01*
X-300043Y205865D01*
X-297610Y204857D01*
X-295000Y204514D01*
X-292390Y204857D01*
X-289957Y205865D01*
X-287868Y207468D01*
X-286265Y209557D01*
X-285257Y211989D01*
X-284914Y214600D01*
X-285257Y217211D01*
X-286265Y219643D01*
X-287868Y221732D01*
X-289957Y223335D01*
X-292390Y224343D01*
X-295000Y224686D01*
D02*
G37*
G36*
X265070Y199159D02*
Y190470D01*
X273759D01*
X273582Y191821D01*
X272570Y194263D01*
X270961Y196361D01*
X268863Y197970D01*
X266421Y198982D01*
X265070Y199159D01*
D02*
G37*
G36*
X262530D02*
X261179Y198982D01*
X258737Y197970D01*
X256639Y196361D01*
X255030Y194263D01*
X254018Y191821D01*
X253841Y190470D01*
X262530D01*
Y199159D01*
D02*
G37*
G36*
X188870D02*
Y190470D01*
X197559D01*
X197382Y191821D01*
X196370Y194263D01*
X194761Y196361D01*
X192663Y197970D01*
X190221Y198982D01*
X188870Y199159D01*
D02*
G37*
G36*
X186330D02*
X184979Y198982D01*
X182537Y197970D01*
X180439Y196361D01*
X178830Y194263D01*
X177818Y191821D01*
X177641Y190470D01*
X186330D01*
Y199159D01*
D02*
G37*
G36*
X112670D02*
Y190470D01*
X121359D01*
X121182Y191821D01*
X120170Y194263D01*
X118561Y196361D01*
X116463Y197970D01*
X114021Y198982D01*
X112670Y199159D01*
D02*
G37*
G36*
X110130D02*
X108779Y198982D01*
X106337Y197970D01*
X104239Y196361D01*
X102630Y194263D01*
X101618Y191821D01*
X101441Y190470D01*
X110130D01*
Y199159D01*
D02*
G37*
G36*
X36470D02*
Y190470D01*
X45159D01*
X44982Y191821D01*
X43970Y194263D01*
X42361Y196361D01*
X40263Y197970D01*
X37821Y198982D01*
X36470Y199159D01*
D02*
G37*
G36*
X33930D02*
X32579Y198982D01*
X30137Y197970D01*
X28039Y196361D01*
X26430Y194263D01*
X25418Y191821D01*
X25241Y190470D01*
X33930D01*
Y199159D01*
D02*
G37*
G36*
X-39730D02*
Y190470D01*
X-31041D01*
X-31218Y191821D01*
X-32230Y194263D01*
X-33839Y196361D01*
X-35937Y197970D01*
X-38379Y198982D01*
X-39730Y199159D01*
D02*
G37*
G36*
X-42270D02*
X-43621Y198982D01*
X-46063Y197970D01*
X-48161Y196361D01*
X-49770Y194263D01*
X-50782Y191821D01*
X-50959Y190470D01*
X-42270D01*
Y199159D01*
D02*
G37*
G36*
X-115930D02*
Y190470D01*
X-107241D01*
X-107418Y191821D01*
X-108430Y194263D01*
X-110039Y196361D01*
X-112137Y197970D01*
X-114579Y198982D01*
X-115930Y199159D01*
D02*
G37*
G36*
X-118470D02*
X-119821Y198982D01*
X-122263Y197970D01*
X-124361Y196361D01*
X-125970Y194263D01*
X-126982Y191821D01*
X-127159Y190470D01*
X-118470D01*
Y199159D01*
D02*
G37*
G36*
X-192130D02*
Y190470D01*
X-183441D01*
X-183618Y191821D01*
X-184630Y194263D01*
X-186239Y196361D01*
X-188337Y197970D01*
X-190779Y198982D01*
X-192130Y199159D01*
D02*
G37*
G36*
X-194670D02*
X-196021Y198982D01*
X-198463Y197970D01*
X-200561Y196361D01*
X-202170Y194263D01*
X-203182Y191821D01*
X-203359Y190470D01*
X-194670D01*
Y199159D01*
D02*
G37*
G36*
X-268330D02*
Y190470D01*
X-259641D01*
X-259818Y191821D01*
X-260830Y194263D01*
X-262439Y196361D01*
X-264537Y197970D01*
X-266979Y198982D01*
X-268330Y199159D01*
D02*
G37*
G36*
X-270870D02*
X-272221Y198982D01*
X-274663Y197970D01*
X-276761Y196361D01*
X-278370Y194263D01*
X-279382Y191821D01*
X-279559Y190470D01*
X-270870D01*
Y199159D01*
D02*
G37*
G36*
X-315722Y216916D02*
X-336042D01*
Y209391D01*
X-336042Y209042D01*
Y209042D01*
X-336002Y207789D01*
Y207772D01*
Y189930D01*
X-333035D01*
X-332317Y188660D01*
X-332558Y187452D01*
X-332108Y185189D01*
X-330826Y183270D01*
X-328907Y181989D01*
X-326644Y181538D01*
X-324381Y181989D01*
X-322462Y183270D01*
X-321180Y185189D01*
X-320730Y187452D01*
X-320971Y188660D01*
X-320253Y189930D01*
X-315762D01*
Y207772D01*
Y207789D01*
X-315722Y209042D01*
Y209042D01*
X-315722Y209391D01*
Y216916D01*
D02*
G37*
G36*
X273759Y187930D02*
X265070D01*
Y179241D01*
X266421Y179418D01*
X268863Y180430D01*
X270961Y182039D01*
X272570Y184137D01*
X273582Y186579D01*
X273759Y187930D01*
D02*
G37*
G36*
X262530D02*
X253841D01*
X254018Y186579D01*
X255030Y184137D01*
X256639Y182039D01*
X258737Y180430D01*
X261179Y179418D01*
X262530Y179241D01*
Y187930D01*
D02*
G37*
G36*
X197559D02*
X188870D01*
Y179241D01*
X190221Y179418D01*
X192663Y180430D01*
X194761Y182039D01*
X196370Y184137D01*
X197382Y186579D01*
X197559Y187930D01*
D02*
G37*
G36*
X186330D02*
X177641D01*
X177818Y186579D01*
X178830Y184137D01*
X180439Y182039D01*
X182537Y180430D01*
X184979Y179418D01*
X186330Y179241D01*
Y187930D01*
D02*
G37*
G36*
X121359D02*
X112670D01*
Y179241D01*
X114021Y179418D01*
X116463Y180430D01*
X118561Y182039D01*
X120170Y184137D01*
X121182Y186579D01*
X121359Y187930D01*
D02*
G37*
G36*
X110130D02*
X101441D01*
X101618Y186579D01*
X102630Y184137D01*
X104239Y182039D01*
X106337Y180430D01*
X108779Y179418D01*
X110130Y179241D01*
Y187930D01*
D02*
G37*
G36*
X45159D02*
X36470D01*
Y179241D01*
X37821Y179418D01*
X40263Y180430D01*
X42361Y182039D01*
X43970Y184137D01*
X44982Y186579D01*
X45159Y187930D01*
D02*
G37*
G36*
X33930D02*
X25241D01*
X25418Y186579D01*
X26430Y184137D01*
X28039Y182039D01*
X30137Y180430D01*
X32579Y179418D01*
X33930Y179241D01*
Y187930D01*
D02*
G37*
G36*
X-31041D02*
X-39730D01*
Y179241D01*
X-38379Y179418D01*
X-35937Y180430D01*
X-33839Y182039D01*
X-32230Y184137D01*
X-31218Y186579D01*
X-31041Y187930D01*
D02*
G37*
G36*
X-42270D02*
X-50959D01*
X-50782Y186579D01*
X-49770Y184137D01*
X-48161Y182039D01*
X-46063Y180430D01*
X-43621Y179418D01*
X-42270Y179241D01*
Y187930D01*
D02*
G37*
G36*
X-107241D02*
X-115930D01*
Y179241D01*
X-114579Y179418D01*
X-112137Y180430D01*
X-110039Y182039D01*
X-108430Y184137D01*
X-107418Y186579D01*
X-107241Y187930D01*
D02*
G37*
G36*
X-118470D02*
X-127159D01*
X-126982Y186579D01*
X-125970Y184137D01*
X-124361Y182039D01*
X-122263Y180430D01*
X-119821Y179418D01*
X-118470Y179241D01*
Y187930D01*
D02*
G37*
G36*
X-183441D02*
X-192130D01*
Y179241D01*
X-190779Y179418D01*
X-188337Y180430D01*
X-186239Y182039D01*
X-184630Y184137D01*
X-183618Y186579D01*
X-183441Y187930D01*
D02*
G37*
G36*
X-194670D02*
X-203359D01*
X-203182Y186579D01*
X-202170Y184137D01*
X-200561Y182039D01*
X-198463Y180430D01*
X-196021Y179418D01*
X-194670Y179241D01*
Y187930D01*
D02*
G37*
G36*
X-259641D02*
X-268330D01*
Y179241D01*
X-266979Y179418D01*
X-264537Y180430D01*
X-262439Y182039D01*
X-260830Y184137D01*
X-259818Y186579D01*
X-259641Y187930D01*
D02*
G37*
G36*
X-270870D02*
X-279559D01*
X-279382Y186579D01*
X-278370Y184137D01*
X-276761Y182039D01*
X-274663Y180430D01*
X-272221Y179418D01*
X-270870Y179241D01*
Y187930D01*
D02*
G37*
G36*
X299200Y199200D02*
X279200D01*
Y179200D01*
X299200D01*
Y199200D01*
D02*
G37*
G36*
X238400Y199286D02*
X235790Y198943D01*
X233357Y197935D01*
X231268Y196332D01*
X229665Y194243D01*
X228657Y191810D01*
X228314Y189200D01*
X228657Y186590D01*
X229665Y184157D01*
X231268Y182068D01*
X233357Y180465D01*
X235790Y179457D01*
X238400Y179114D01*
X241010Y179457D01*
X243443Y180465D01*
X245532Y182068D01*
X247135Y184157D01*
X248143Y186590D01*
X248486Y189200D01*
X248143Y191810D01*
X247135Y194243D01*
X245532Y196332D01*
X243443Y197935D01*
X241010Y198943D01*
X238400Y199286D01*
D02*
G37*
G36*
X213000D02*
X210389Y198943D01*
X207957Y197935D01*
X205868Y196332D01*
X204265Y194243D01*
X203257Y191810D01*
X202914Y189200D01*
X203257Y186590D01*
X204265Y184157D01*
X205868Y182068D01*
X207957Y180465D01*
X210389Y179457D01*
X213000Y179114D01*
X215611Y179457D01*
X218043Y180465D01*
X220132Y182068D01*
X221735Y184157D01*
X222743Y186590D01*
X223086Y189200D01*
X222743Y191810D01*
X221735Y194243D01*
X220132Y196332D01*
X218043Y197935D01*
X215611Y198943D01*
X213000Y199286D01*
D02*
G37*
G36*
X162200D02*
X159590Y198943D01*
X157157Y197935D01*
X155068Y196332D01*
X153465Y194243D01*
X152457Y191810D01*
X152114Y189200D01*
X152457Y186590D01*
X153465Y184157D01*
X155068Y182068D01*
X157157Y180465D01*
X159590Y179457D01*
X162200Y179114D01*
X164811Y179457D01*
X167243Y180465D01*
X169332Y182068D01*
X170935Y184157D01*
X171943Y186590D01*
X172286Y189200D01*
X171943Y191810D01*
X170935Y194243D01*
X169332Y196332D01*
X167243Y197935D01*
X164811Y198943D01*
X162200Y199286D01*
D02*
G37*
G36*
X136800D02*
X134190Y198943D01*
X131757Y197935D01*
X129668Y196332D01*
X128065Y194243D01*
X127057Y191810D01*
X126714Y189200D01*
X127057Y186590D01*
X128065Y184157D01*
X129668Y182068D01*
X131757Y180465D01*
X134190Y179457D01*
X136800Y179114D01*
X139410Y179457D01*
X141843Y180465D01*
X143932Y182068D01*
X145535Y184157D01*
X146543Y186590D01*
X146886Y189200D01*
X146543Y191810D01*
X145535Y194243D01*
X143932Y196332D01*
X141843Y197935D01*
X139410Y198943D01*
X136800Y199286D01*
D02*
G37*
G36*
X86000D02*
X83390Y198943D01*
X80957Y197935D01*
X78868Y196332D01*
X77265Y194243D01*
X76257Y191810D01*
X75914Y189200D01*
X76257Y186590D01*
X77265Y184157D01*
X78868Y182068D01*
X80957Y180465D01*
X83390Y179457D01*
X86000Y179114D01*
X88610Y179457D01*
X91043Y180465D01*
X93132Y182068D01*
X94735Y184157D01*
X95743Y186590D01*
X96086Y189200D01*
X95743Y191810D01*
X94735Y194243D01*
X93132Y196332D01*
X91043Y197935D01*
X88610Y198943D01*
X86000Y199286D01*
D02*
G37*
G36*
X60600D02*
X57990Y198943D01*
X55557Y197935D01*
X53468Y196332D01*
X51865Y194243D01*
X50857Y191810D01*
X50514Y189200D01*
X50857Y186590D01*
X51865Y184157D01*
X53468Y182068D01*
X55557Y180465D01*
X57990Y179457D01*
X60600Y179114D01*
X63211Y179457D01*
X65643Y180465D01*
X67732Y182068D01*
X69335Y184157D01*
X70343Y186590D01*
X70686Y189200D01*
X70343Y191810D01*
X69335Y194243D01*
X67732Y196332D01*
X65643Y197935D01*
X63211Y198943D01*
X60600Y199286D01*
D02*
G37*
G36*
X9800D02*
X7189Y198943D01*
X4757Y197935D01*
X2668Y196332D01*
X1065Y194243D01*
X57Y191810D01*
X-286Y189200D01*
X57Y186590D01*
X1065Y184157D01*
X2668Y182068D01*
X4757Y180465D01*
X7189Y179457D01*
X9800Y179114D01*
X12411Y179457D01*
X14843Y180465D01*
X16932Y182068D01*
X18535Y184157D01*
X19543Y186590D01*
X19886Y189200D01*
X19543Y191810D01*
X18535Y194243D01*
X16932Y196332D01*
X14843Y197935D01*
X12411Y198943D01*
X9800Y199286D01*
D02*
G37*
G36*
X-15600D02*
X-18211Y198943D01*
X-20643Y197935D01*
X-22732Y196332D01*
X-24335Y194243D01*
X-25343Y191810D01*
X-25686Y189200D01*
X-25343Y186590D01*
X-24335Y184157D01*
X-22732Y182068D01*
X-20643Y180465D01*
X-18211Y179457D01*
X-15600Y179114D01*
X-12989Y179457D01*
X-10557Y180465D01*
X-8468Y182068D01*
X-6865Y184157D01*
X-5857Y186590D01*
X-5514Y189200D01*
X-5857Y191810D01*
X-6865Y194243D01*
X-8468Y196332D01*
X-10557Y197935D01*
X-12989Y198943D01*
X-15600Y199286D01*
D02*
G37*
G36*
X-142600D02*
X-145211Y198943D01*
X-147643Y197935D01*
X-149732Y196332D01*
X-151335Y194243D01*
X-152343Y191810D01*
X-152686Y189200D01*
X-152343Y186590D01*
X-151335Y184157D01*
X-149732Y182068D01*
X-147643Y180465D01*
X-145211Y179457D01*
X-142600Y179114D01*
X-139990Y179457D01*
X-137557Y180465D01*
X-135468Y182068D01*
X-133865Y184157D01*
X-132857Y186590D01*
X-132514Y189200D01*
X-132857Y191810D01*
X-133865Y194243D01*
X-135468Y196332D01*
X-137557Y197935D01*
X-139990Y198943D01*
X-142600Y199286D01*
D02*
G37*
G36*
X-168000D02*
X-170611Y198943D01*
X-173043Y197935D01*
X-175132Y196332D01*
X-176735Y194243D01*
X-177743Y191810D01*
X-178086Y189200D01*
X-177743Y186590D01*
X-176735Y184157D01*
X-175132Y182068D01*
X-173043Y180465D01*
X-170611Y179457D01*
X-168000Y179114D01*
X-165389Y179457D01*
X-162957Y180465D01*
X-160868Y182068D01*
X-159265Y184157D01*
X-158257Y186590D01*
X-157914Y189200D01*
X-158257Y191810D01*
X-159265Y194243D01*
X-160868Y196332D01*
X-162957Y197935D01*
X-165389Y198943D01*
X-168000Y199286D01*
D02*
G37*
G36*
X-218800D02*
X-221411Y198943D01*
X-223843Y197935D01*
X-225932Y196332D01*
X-227535Y194243D01*
X-228543Y191810D01*
X-228886Y189200D01*
X-228543Y186590D01*
X-227535Y184157D01*
X-225932Y182068D01*
X-223843Y180465D01*
X-221411Y179457D01*
X-218800Y179114D01*
X-216189Y179457D01*
X-213757Y180465D01*
X-211668Y182068D01*
X-210065Y184157D01*
X-209057Y186590D01*
X-208714Y189200D01*
X-209057Y191810D01*
X-210065Y194243D01*
X-211668Y196332D01*
X-213757Y197935D01*
X-216189Y198943D01*
X-218800Y199286D01*
D02*
G37*
G36*
X-244200D02*
X-246810Y198943D01*
X-249243Y197935D01*
X-251332Y196332D01*
X-252935Y194243D01*
X-253943Y191810D01*
X-254286Y189200D01*
X-253943Y186590D01*
X-252935Y184157D01*
X-251332Y182068D01*
X-249243Y180465D01*
X-246810Y179457D01*
X-244200Y179114D01*
X-241590Y179457D01*
X-239157Y180465D01*
X-237068Y182068D01*
X-235465Y184157D01*
X-234457Y186590D01*
X-234114Y189200D01*
X-234457Y191810D01*
X-235465Y194243D01*
X-237068Y196332D01*
X-239157Y197935D01*
X-241590Y198943D01*
X-244200Y199286D01*
D02*
G37*
G36*
X-295000D02*
X-297610Y198943D01*
X-300043Y197935D01*
X-302132Y196332D01*
X-303735Y194243D01*
X-304743Y191810D01*
X-305086Y189200D01*
X-304743Y186590D01*
X-303735Y184157D01*
X-302132Y182068D01*
X-300043Y180465D01*
X-297610Y179457D01*
X-295000Y179114D01*
X-292390Y179457D01*
X-289957Y180465D01*
X-287868Y182068D01*
X-286265Y184157D01*
X-285257Y186590D01*
X-284914Y189200D01*
X-285257Y191810D01*
X-286265Y194243D01*
X-287868Y196332D01*
X-289957Y197935D01*
X-292390Y198943D01*
X-295000Y199286D01*
D02*
G37*
G36*
X296418Y154432D02*
X288544D01*
Y145542D01*
X296418D01*
Y154432D01*
D02*
G37*
G36*
X158154Y145350D02*
X137914D01*
Y139815D01*
X133299D01*
Y145350D01*
X113059D01*
Y139815D01*
X108444D01*
Y145350D01*
X88204D01*
Y139815D01*
X83589D01*
Y145350D01*
X63349D01*
Y139815D01*
X58734D01*
Y145350D01*
X38494D01*
Y139815D01*
X33879D01*
Y145350D01*
X13639D01*
Y139815D01*
X9024D01*
Y145350D01*
X-11216D01*
Y139815D01*
X-15832D01*
Y145350D01*
X-36072D01*
Y127142D01*
X-36072D01*
Y126198D01*
X-36072D01*
Y107990D01*
X-32562D01*
X-31756Y107008D01*
X-31822Y106680D01*
X-31372Y104417D01*
X-30090Y102498D01*
X-29033Y101792D01*
Y63217D01*
X-30225Y62890D01*
X-31220Y64378D01*
X-36362Y69521D01*
Y81890D01*
Y81907D01*
X-36322Y83160D01*
Y83160D01*
X-36322Y83509D01*
Y91034D01*
X-56642D01*
Y83510D01*
X-56642Y83160D01*
Y83160D01*
X-56602Y81907D01*
Y81890D01*
Y64048D01*
X-43867D01*
X-39052Y59233D01*
Y42116D01*
X-59246D01*
X-61002Y41767D01*
X-62490Y40772D01*
X-76217Y27046D01*
X-77211Y25557D01*
X-77561Y23802D01*
Y10829D01*
X-77853Y10391D01*
X-78304Y8128D01*
X-77853Y5865D01*
X-76572Y3946D01*
X-74653Y2664D01*
X-72390Y2214D01*
X-70127Y2664D01*
X-68208Y3946D01*
X-66926Y5865D01*
X-66476Y8128D01*
X-66926Y10391D01*
X-68149Y12221D01*
X-68047Y12576D01*
X-67956Y12725D01*
X-67114Y13310D01*
X-65672Y13023D01*
X-63410Y13473D01*
X-61491Y14755D01*
X-60209Y16674D01*
X-60207Y16685D01*
X-55573Y21318D01*
X-50054D01*
X-49507Y20952D01*
X-47244Y20502D01*
X-44981Y20952D01*
X-43062Y22234D01*
X-43013Y22308D01*
X-42354Y22196D01*
X-41783Y21863D01*
Y19298D01*
X-34290D01*
Y16758D01*
X-41783D01*
Y13964D01*
X-41743D01*
Y7504D01*
Y1004D01*
Y-5548D01*
Y-12152D01*
Y-18502D01*
Y-25106D01*
Y-31710D01*
Y-38060D01*
X-28207D01*
Y-41702D01*
X-29672Y-43167D01*
X-42741D01*
X-44106Y-43439D01*
X-45264Y-44213D01*
X-55274Y-54223D01*
X-55649Y-53973D01*
X-57912Y-53522D01*
X-60175Y-53973D01*
X-62094Y-55254D01*
X-63376Y-57173D01*
X-63826Y-59436D01*
X-63609Y-60526D01*
X-64415Y-61508D01*
X-66789D01*
Y-57658D01*
X-67061Y-56292D01*
X-67835Y-55135D01*
X-76725Y-46245D01*
X-77882Y-45471D01*
X-79248Y-45199D01*
X-94280D01*
X-98988Y-40492D01*
Y-38100D01*
X-93948D01*
Y-34036D01*
X-92678D01*
Y-32766D01*
X-85185D01*
Y-29972D01*
X-85225D01*
Y-25106D01*
Y-18502D01*
Y-13001D01*
X-83955Y-12383D01*
X-82527Y-13338D01*
X-80264Y-13788D01*
X-78001Y-13338D01*
X-76082Y-12056D01*
X-74801Y-10137D01*
X-74350Y-7874D01*
X-74801Y-5611D01*
X-76082Y-3692D01*
X-78001Y-2411D01*
X-80264Y-1960D01*
X-81121Y-836D01*
Y22714D01*
X-81393Y24080D01*
X-82167Y25237D01*
X-83981Y27051D01*
X-85138Y27825D01*
X-85185Y27834D01*
Y29758D01*
X-92678D01*
Y32298D01*
X-85185D01*
Y33464D01*
Y36258D01*
X-92678D01*
Y37528D01*
X-93948D01*
Y41592D01*
X-95720D01*
X-96206Y42765D01*
X-80158Y58813D01*
X-80128Y58810D01*
X-78209Y57529D01*
X-75946Y57078D01*
X-73683Y57529D01*
X-71764Y58810D01*
X-70483Y60729D01*
X-70032Y62992D01*
X-70047Y63066D01*
X-69241Y64048D01*
X-66128D01*
Y82256D01*
X-66128D01*
Y83200D01*
X-66128D01*
Y96656D01*
X-59137Y103647D01*
X-58030Y104276D01*
X-56111Y102994D01*
X-54721Y102718D01*
X-54846Y101448D01*
X-56642D01*
Y93574D01*
X-47752D01*
Y101448D01*
X-52850D01*
X-52975Y102718D01*
X-51585Y102994D01*
X-49666Y104276D01*
X-48384Y106195D01*
X-47934Y108458D01*
X-48384Y110721D01*
X-49666Y112640D01*
X-51585Y113921D01*
X-53848Y114372D01*
X-56111Y113921D01*
X-58030Y112640D01*
X-58099Y112536D01*
X-60093D01*
X-61654Y112226D01*
X-62977Y111342D01*
X-62977Y111342D01*
X-71506Y102814D01*
X-72679Y103300D01*
Y126492D01*
X-72951Y127858D01*
X-73724Y129015D01*
X-77812Y133103D01*
Y145350D01*
X-98052D01*
Y139815D01*
X-102667D01*
Y145350D01*
X-122907D01*
Y139815D01*
X-127522D01*
Y145350D01*
X-147762D01*
Y139815D01*
X-152377D01*
Y145350D01*
X-172617D01*
Y139815D01*
X-177232D01*
Y145350D01*
X-197472D01*
Y139815D01*
X-202087D01*
Y145350D01*
X-222327D01*
Y139815D01*
X-226942D01*
Y145350D01*
X-247182D01*
Y139815D01*
X-251798D01*
Y145350D01*
X-272038D01*
Y127142D01*
X-272038D01*
Y126198D01*
X-272038D01*
Y107990D01*
X-268477D01*
X-267672Y107008D01*
X-267788Y106426D01*
X-267337Y104163D01*
X-266056Y102244D01*
X-265486Y101864D01*
Y59479D01*
X-265214Y58114D01*
X-264441Y56956D01*
X-240468Y32983D01*
Y24762D01*
X-240196Y23397D01*
X-239423Y22239D01*
X-206852Y-10332D01*
X-206423Y-11424D01*
X-206423Y-11424D01*
X-206423D01*
X-206423Y-11424D01*
Y-14218D01*
X-198930D01*
Y-16758D01*
X-206423D01*
Y-19552D01*
X-206383D01*
Y-26012D01*
Y-30400D01*
X-233838D01*
X-234736Y-29502D01*
Y-20686D01*
X-234736Y-20360D01*
Y-20079D01*
X-234439Y-19260D01*
X-233582Y-18809D01*
X-232429D01*
X-232020Y-19422D01*
X-230101Y-20703D01*
X-227838Y-21154D01*
X-225575Y-20703D01*
X-223656Y-19422D01*
X-222374Y-17503D01*
X-221924Y-15240D01*
X-222374Y-12977D01*
X-223656Y-11058D01*
X-225575Y-9776D01*
X-227838Y-9326D01*
X-230101Y-9776D01*
X-232020Y-11058D01*
X-232429Y-11671D01*
X-234736D01*
Y-1208D01*
X-254976D01*
Y-19090D01*
X-254976Y-19416D01*
Y-19888D01*
Y-20360D01*
X-254976Y-20686D01*
Y-38568D01*
X-242074D01*
X-241088Y-39227D01*
X-239332Y-39576D01*
X-187101D01*
X-186502Y-40696D01*
X-186819Y-41171D01*
X-187270Y-43434D01*
X-186819Y-45697D01*
X-185538Y-47616D01*
X-184626Y-48225D01*
X-184501Y-49489D01*
X-190442Y-55430D01*
X-191437Y-56918D01*
X-191786Y-58674D01*
Y-61508D01*
X-197318D01*
Y-79350D01*
Y-79367D01*
X-197358Y-80620D01*
Y-80620D01*
X-197358Y-80969D01*
Y-88494D01*
X-177038D01*
Y-80969D01*
X-177038Y-80620D01*
Y-80620D01*
X-177078Y-79367D01*
Y-79350D01*
Y-61508D01*
X-181798D01*
X-182273Y-60238D01*
X-174556Y-52520D01*
X-173561Y-51032D01*
X-173212Y-49276D01*
Y-43688D01*
Y14377D01*
X-172856Y14614D01*
X-171574Y16533D01*
X-171124Y18796D01*
X-171574Y21059D01*
X-172856Y22978D01*
X-174775Y24260D01*
X-177038Y24710D01*
X-178803Y24358D01*
X-180073Y25155D01*
Y27478D01*
X-167382Y40169D01*
X-156483D01*
X-156074Y39556D01*
X-154155Y38275D01*
X-151892Y37824D01*
X-149629Y38275D01*
X-149155Y38591D01*
X-148034Y37993D01*
Y37846D01*
X-140541D01*
Y35306D01*
X-148034D01*
Y32512D01*
X-147994D01*
Y26202D01*
Y19598D01*
Y12994D01*
Y6644D01*
Y40D01*
Y-6512D01*
Y-13012D01*
Y-17964D01*
Y-18394D01*
X-149264Y-18409D01*
X-151964Y-15709D01*
X-151820Y-14986D01*
X-152270Y-12723D01*
X-153552Y-10804D01*
X-155471Y-9523D01*
X-157734Y-9072D01*
X-159997Y-9523D01*
X-161916Y-10804D01*
X-163197Y-12723D01*
X-163648Y-14986D01*
X-163197Y-17249D01*
X-161916Y-19168D01*
X-159997Y-20450D01*
X-157734Y-20900D01*
X-157011Y-20756D01*
X-153255Y-24511D01*
X-152098Y-25285D01*
X-150732Y-25557D01*
X-148933D01*
X-148034Y-26455D01*
Y-27218D01*
X-140541D01*
Y-29758D01*
X-148034D01*
Y-32552D01*
X-148791Y-33509D01*
X-153201Y-37918D01*
X-153924Y-37774D01*
X-156187Y-38224D01*
X-158106Y-39506D01*
X-159388Y-41425D01*
X-159838Y-43688D01*
X-159388Y-45951D01*
X-158106Y-47870D01*
X-156187Y-49152D01*
X-153924Y-49602D01*
X-151661Y-49152D01*
X-149742Y-47870D01*
X-148461Y-45951D01*
X-148010Y-43688D01*
X-148154Y-42965D01*
X-144201Y-39012D01*
X-138497D01*
X-138011Y-40185D01*
X-152050Y-54224D01*
X-153947Y-52957D01*
X-156210Y-52506D01*
X-158473Y-52957D01*
X-160392Y-54238D01*
X-161674Y-56157D01*
X-162124Y-58420D01*
X-161762Y-60238D01*
X-162533Y-61508D01*
X-167092D01*
Y-79716D01*
X-167092D01*
Y-80660D01*
X-167092D01*
Y-98868D01*
X-160541D01*
Y-123952D01*
X-160269Y-125318D01*
X-159495Y-126475D01*
X-155408Y-130563D01*
Y-142810D01*
X-135168D01*
Y-137275D01*
X-130553D01*
Y-142810D01*
X-110313D01*
Y-137275D01*
X-105698D01*
Y-142810D01*
X-85458D01*
Y-137275D01*
X-80843D01*
Y-142810D01*
X-60602D01*
Y-137275D01*
X-55987D01*
Y-142810D01*
X-35747D01*
Y-137275D01*
X-31132D01*
Y-142810D01*
X-10892D01*
Y-137275D01*
X-6277D01*
Y-142810D01*
X13963D01*
Y-137275D01*
X18578D01*
Y-142810D01*
X38818D01*
Y-130526D01*
X43016Y-126328D01*
X43900Y-125005D01*
X43951Y-124746D01*
X44210Y-123444D01*
X44210Y-123444D01*
Y-104394D01*
X43900Y-102833D01*
X43016Y-101510D01*
X43016Y-101510D01*
X41587Y-100081D01*
X42073Y-98908D01*
X48006D01*
Y-89764D01*
X49276D01*
Y-88494D01*
X59436D01*
Y-80969D01*
X59436Y-80620D01*
X59436Y-80620D01*
X59396Y-79716D01*
X59396D01*
X59396Y-79716D01*
Y-61508D01*
X46661D01*
X41625Y-56472D01*
Y-42750D01*
X42895Y-42340D01*
X43965Y-43056D01*
X46228Y-43506D01*
X48491Y-43056D01*
X50410Y-41774D01*
X51691Y-39855D01*
X52142Y-37592D01*
X51691Y-35329D01*
X50410Y-33410D01*
X48491Y-32129D01*
X46228Y-31678D01*
X45471Y-31829D01*
X44489Y-31023D01*
Y-26012D01*
Y-19552D01*
X44530D01*
Y-16758D01*
X29543D01*
Y-18275D01*
X25673D01*
X25264Y-17662D01*
X23345Y-16380D01*
X21082Y-15930D01*
X18819Y-16380D01*
X16900Y-17662D01*
X15618Y-19581D01*
X15168Y-21844D01*
X15618Y-24107D01*
X16900Y-26026D01*
X18819Y-27308D01*
X21082Y-27758D01*
X21106Y-28210D01*
X21050Y-28488D01*
X21500Y-30751D01*
X22782Y-32670D01*
X24701Y-33951D01*
X26964Y-34402D01*
X28314Y-34133D01*
X29583Y-35124D01*
Y-39012D01*
X32448D01*
Y-49093D01*
X31363Y-49491D01*
X31178Y-49500D01*
X7248Y-25570D01*
Y-22222D01*
X6977Y-20857D01*
X6203Y-19699D01*
X-26367Y12872D01*
X-26797Y13964D01*
X-26797Y13964D01*
X-26797D01*
X-26797Y13964D01*
Y17595D01*
X-25527Y18274D01*
X-24759Y17760D01*
X-22496Y17310D01*
X-20233Y17760D01*
X-18314Y19042D01*
X-17033Y20961D01*
X-16582Y23224D01*
X-17033Y25487D01*
X-17129Y25631D01*
X-16779Y27140D01*
X-15376Y28076D01*
X-14095Y29995D01*
X-13644Y32258D01*
X-14095Y34521D01*
X-15376Y36440D01*
X-17295Y37722D01*
X-19558Y38172D01*
X-21821Y37722D01*
X-23740Y36440D01*
X-24971Y34597D01*
X-26837D01*
Y41552D01*
X-29876D01*
Y61134D01*
X-29908Y61295D01*
X-28761Y61690D01*
X-27987Y60533D01*
X-21065Y53611D01*
X-19908Y52837D01*
X-18542Y52565D01*
X-7320D01*
X-4502Y49747D01*
Y24762D01*
X-4230Y23397D01*
X-3457Y22239D01*
X29114Y-10332D01*
X29543Y-11424D01*
X29543Y-11424D01*
X29543D01*
X29543Y-11424D01*
Y-14218D01*
X44530D01*
Y-11424D01*
X44489D01*
Y-6512D01*
Y40D01*
Y6644D01*
Y12994D01*
Y19598D01*
Y26202D01*
Y32552D01*
Y40600D01*
X30953D01*
Y47544D01*
X32165Y48755D01*
X40050D01*
X41416Y49027D01*
X42574Y49801D01*
X54119Y61346D01*
X54790Y61142D01*
X55410Y60841D01*
X56597Y59064D01*
X58516Y57783D01*
X60778Y57332D01*
X63042Y57783D01*
X64960Y59064D01*
X66242Y60983D01*
X66692Y63246D01*
X67350Y64048D01*
X69887D01*
X70581Y63009D01*
X79979Y53611D01*
X81137Y52837D01*
X82502Y52565D01*
X91877D01*
X101734Y42709D01*
Y40640D01*
X96694D01*
Y36576D01*
X95424D01*
Y35306D01*
X87931D01*
Y32512D01*
X87971D01*
Y26202D01*
Y19598D01*
Y12994D01*
Y6644D01*
Y40D01*
Y-6512D01*
Y-13012D01*
Y-18419D01*
X83676D01*
X83115Y-18531D01*
X81534Y-18216D01*
X79271Y-18666D01*
X77352Y-19948D01*
X76070Y-21867D01*
X75620Y-24130D01*
X76070Y-26393D01*
X77352Y-28312D01*
X79271Y-29594D01*
X81534Y-30044D01*
X83797Y-29594D01*
X85716Y-28312D01*
X86662Y-26896D01*
X87723Y-27218D01*
X95424D01*
Y-29758D01*
X87931D01*
Y-32552D01*
Y-33718D01*
X95424D01*
Y-34988D01*
X96694D01*
Y-39052D01*
X98006D01*
X98492Y-40225D01*
X82993Y-55724D01*
X82273Y-55243D01*
X80010Y-54792D01*
X77747Y-55243D01*
X75828Y-56524D01*
X74546Y-58443D01*
X74096Y-60706D01*
X74313Y-61796D01*
X73507Y-62778D01*
X69128D01*
Y-80986D01*
X69128D01*
Y-81930D01*
X69128D01*
Y-100138D01*
X75679D01*
Y-125222D01*
X75951Y-126588D01*
X76725Y-127745D01*
X80812Y-131833D01*
Y-144080D01*
X101052D01*
Y-138545D01*
X105667D01*
Y-144080D01*
X125907D01*
Y-138545D01*
X130522D01*
Y-144080D01*
X150762D01*
Y-138545D01*
X155378D01*
Y-144080D01*
X175618D01*
Y-138545D01*
X180233D01*
Y-144080D01*
X200473D01*
Y-138545D01*
X205088D01*
Y-144080D01*
X225328D01*
Y-138545D01*
X229943D01*
Y-144080D01*
X250183D01*
Y-138545D01*
X254798D01*
Y-144080D01*
X275038D01*
Y-132812D01*
X277719Y-130131D01*
X278892Y-130617D01*
Y-133706D01*
X299212D01*
Y-125832D01*
X299212Y-125832D01*
X299212D01*
Y-125832D01*
X299212Y-125830D01*
X299172Y-124579D01*
Y-110510D01*
X299461Y-110078D01*
X299733Y-108712D01*
Y-107207D01*
X300346Y-106798D01*
X301628Y-104879D01*
X302078Y-102616D01*
X301628Y-100353D01*
X300346Y-98434D01*
X298427Y-97153D01*
X296164Y-96702D01*
X293901Y-97153D01*
X291982Y-98434D01*
X290700Y-100353D01*
X290250Y-102616D01*
X290700Y-104879D01*
X291182Y-105600D01*
X290583Y-106720D01*
X281700D01*
Y-103543D01*
X285628Y-99615D01*
X285750Y-99640D01*
X288013Y-99190D01*
X289932Y-97908D01*
X291213Y-95989D01*
X291664Y-93726D01*
X291213Y-91463D01*
X289932Y-89544D01*
X288013Y-88263D01*
X285750Y-87812D01*
X283487Y-88263D01*
X281568Y-89544D01*
X280287Y-91463D01*
X279836Y-93726D01*
X279861Y-93848D01*
X274738Y-98970D01*
X273854Y-100293D01*
X273803Y-100552D01*
X273544Y-101854D01*
X273544Y-101854D01*
Y-106720D01*
X270975D01*
X270424Y-105450D01*
X270836Y-103378D01*
X270385Y-101115D01*
X269104Y-99196D01*
X268487Y-98784D01*
Y-54098D01*
X268215Y-52732D01*
X267441Y-51575D01*
X243468Y-27602D01*
Y-23492D01*
X243197Y-22127D01*
X242423Y-20969D01*
X209853Y11602D01*
X209423Y12694D01*
X209423Y12694D01*
X209423D01*
X209423Y12694D01*
Y15488D01*
X194437D01*
Y12694D01*
X194477D01*
Y6234D01*
Y-266D01*
Y-6818D01*
Y-13422D01*
Y-19772D01*
Y-26376D01*
Y-32980D01*
Y-39330D01*
X208013D01*
Y-43421D01*
X195003D01*
X193638Y-43693D01*
X192480Y-44467D01*
X181910Y-55037D01*
X180317Y-53973D01*
X178054Y-53522D01*
X175791Y-53973D01*
X173872Y-55254D01*
X172591Y-57173D01*
X172140Y-59436D01*
X172553Y-61508D01*
X172001Y-62778D01*
X169431D01*
Y-59944D01*
X169159Y-58578D01*
X168385Y-57421D01*
X158479Y-47515D01*
X157322Y-46741D01*
X155956Y-46469D01*
X142448D01*
X137233Y-41254D01*
Y-39370D01*
X142272D01*
Y-35306D01*
X143542D01*
Y-34036D01*
X151035D01*
Y-31242D01*
X150995D01*
Y-26376D01*
Y-19772D01*
Y-13422D01*
Y-6818D01*
Y-3274D01*
X152265Y-2889D01*
X153298Y-4436D01*
X155217Y-5717D01*
X157480Y-6168D01*
X159743Y-5717D01*
X161662Y-4436D01*
X162943Y-2517D01*
X163394Y-254D01*
X162943Y2009D01*
X161662Y3928D01*
X161049Y4337D01*
Y17526D01*
X160777Y18892D01*
X160003Y20049D01*
X154271Y25781D01*
X153114Y26555D01*
X151748Y26827D01*
X151035D01*
Y29678D01*
X152017Y30484D01*
X152718Y30344D01*
X154981Y30794D01*
X156900Y32076D01*
X158181Y33995D01*
X158632Y36258D01*
X158181Y38521D01*
X156900Y40440D01*
X154981Y41722D01*
X152718Y42172D01*
X150455Y41722D01*
X148536Y40440D01*
X148431Y40282D01*
X136871D01*
Y45258D01*
X152987Y61374D01*
X154188Y61095D01*
X154338Y60929D01*
X155584Y59064D01*
X157503Y57783D01*
X159766Y57332D01*
X162029Y57783D01*
X163947Y59064D01*
X165229Y60983D01*
X165679Y63246D01*
X166338Y64048D01*
X169838D01*
Y82256D01*
X169838D01*
Y83200D01*
X170316Y84272D01*
X170820Y84686D01*
X171704Y84510D01*
X173967Y84960D01*
X175886Y86242D01*
X177167Y88161D01*
X177618Y90424D01*
X177167Y92687D01*
X175886Y94606D01*
X173967Y95887D01*
X171704Y96338D01*
X170820Y96162D01*
X169838Y96967D01*
Y101408D01*
X163287D01*
Y126492D01*
X163015Y127858D01*
X162242Y129015D01*
X158154Y133103D01*
Y145350D01*
D02*
G37*
G36*
X296418Y143002D02*
X288544D01*
Y134112D01*
X296418D01*
Y143002D01*
D02*
G37*
G36*
X306832Y154432D02*
X306832D01*
X305591Y154432D01*
X298958D01*
Y144272D01*
Y134112D01*
X302290D01*
X303053Y132842D01*
X302750Y131318D01*
Y129228D01*
X302348D01*
Y110268D01*
X299618D01*
Y101498D01*
X303888D01*
Y109228D01*
X311848D01*
Y90228D01*
X313014D01*
Y86202D01*
X312116Y85304D01*
X308102D01*
X308085D01*
X306832Y85344D01*
X306832D01*
X306483Y85344D01*
X298958D01*
Y75184D01*
Y65024D01*
X306483D01*
X306832Y65024D01*
X306832D01*
X308085Y65064D01*
X308102D01*
X325944D01*
Y85304D01*
X322190D01*
Y87868D01*
X346002D01*
Y55982D01*
X345494Y55475D01*
X344500Y53986D01*
X344150Y52230D01*
Y46183D01*
X344500Y44427D01*
X345494Y42938D01*
X346002Y42431D01*
Y31017D01*
X345103Y29672D01*
X344653Y27409D01*
X345103Y25146D01*
X346002Y23801D01*
Y-9412D01*
X345494Y-9919D01*
X344500Y-11407D01*
X344151Y-13163D01*
Y-24635D01*
X344500Y-26391D01*
X345494Y-27879D01*
X346273Y-28658D01*
X346581Y-30203D01*
X347456Y-31513D01*
Y-62452D01*
X345818Y-64090D01*
X344823Y-65578D01*
X344474Y-67334D01*
Y-73382D01*
X344823Y-75138D01*
X345818Y-76626D01*
X348980Y-79788D01*
Y-93795D01*
X348878Y-93862D01*
X347597Y-95781D01*
X347146Y-98044D01*
X347597Y-100307D01*
X348878Y-102226D01*
X350797Y-103507D01*
X353060Y-103958D01*
X355323Y-103507D01*
X357242Y-102226D01*
X358523Y-100307D01*
X358974Y-98044D01*
X358523Y-95781D01*
X358156Y-95231D01*
Y-77888D01*
X358026Y-77235D01*
X358625Y-75821D01*
X360544Y-74540D01*
X361825Y-72621D01*
X361954Y-71976D01*
X363449Y-70481D01*
X364554Y-68827D01*
X364618Y-68503D01*
X364942Y-66876D01*
Y100150D01*
X364618Y101777D01*
X364554Y102101D01*
X363449Y103755D01*
X357890Y109314D01*
X357761Y109959D01*
X356480Y111878D01*
X354561Y113160D01*
X353916Y113288D01*
X344371Y122833D01*
X342717Y123938D01*
X340766Y124326D01*
X313348D01*
Y129228D01*
X313348Y129228D01*
X313348D01*
X313965Y130226D01*
X317892Y134152D01*
X325944D01*
Y154392D01*
X308085D01*
X308059Y154393D01*
X306834Y154432D01*
X306832Y154432D01*
D02*
G37*
G36*
X297078Y110268D02*
X292808D01*
Y101498D01*
X297078D01*
Y110268D01*
D02*
G37*
G36*
X200406Y101448D02*
X191516D01*
Y93574D01*
X200406D01*
Y101448D01*
D02*
G37*
G36*
X188976D02*
X180086D01*
Y93574D01*
X188976D01*
Y101448D01*
D02*
G37*
G36*
X-36322D02*
X-45212D01*
Y93574D01*
X-36322D01*
Y101448D01*
D02*
G37*
G36*
X303888Y98958D02*
X299618D01*
Y90188D01*
X303888D01*
Y98958D01*
D02*
G37*
G36*
X297078D02*
X292808D01*
Y90188D01*
X297078D01*
Y98958D01*
D02*
G37*
G36*
X226568Y115388D02*
X224305Y114937D01*
X222386Y113656D01*
X221105Y111737D01*
X220654Y109474D01*
X220960Y107936D01*
Y107733D01*
X201579Y88352D01*
X200406Y88838D01*
Y91034D01*
X180086D01*
Y83160D01*
X180086Y83160D01*
X180086D01*
Y83160D01*
X180086Y83158D01*
X180126Y81907D01*
Y64048D01*
X184638D01*
Y57441D01*
X177970Y50772D01*
X169659Y42461D01*
X168443Y40642D01*
X168016Y38496D01*
Y13208D01*
Y-21405D01*
X166469Y-22952D01*
X165253Y-24771D01*
X165117Y-25459D01*
X164970Y-25677D01*
X164520Y-27940D01*
X164970Y-30203D01*
X166252Y-32122D01*
X168171Y-33403D01*
X170434Y-33854D01*
X172697Y-33403D01*
X174616Y-32122D01*
X175898Y-30203D01*
X176101Y-29181D01*
X177589Y-27693D01*
X178805Y-25873D01*
X179232Y-23728D01*
Y8547D01*
X179950Y9026D01*
X181231Y10945D01*
X181682Y13208D01*
X181231Y15471D01*
X179950Y17390D01*
X179232Y17869D01*
Y23846D01*
X180352Y24445D01*
X180577Y24295D01*
X182840Y23844D01*
X183295Y22640D01*
X183622Y20995D01*
X184904Y19076D01*
X186823Y17795D01*
X189086Y17344D01*
X191349Y17795D01*
X193167Y19009D01*
X193668Y18893D01*
X194437Y18541D01*
Y18028D01*
X209423D01*
Y20822D01*
X209383D01*
Y25734D01*
Y32234D01*
Y40282D01*
X204007D01*
X203686Y40497D01*
X201930Y40846D01*
X194384D01*
X189145Y46086D01*
X194211Y51153D01*
X195427Y52972D01*
X195854Y55118D01*
Y64048D01*
X200366D01*
Y71277D01*
X230533Y101445D01*
X231749Y103264D01*
X232176Y105410D01*
Y107936D01*
X232482Y109474D01*
X232031Y111737D01*
X230750Y113656D01*
X228831Y114937D01*
X226568Y115388D01*
D02*
G37*
G36*
X296418Y85344D02*
X288544D01*
Y76454D01*
X296418D01*
Y85344D01*
D02*
G37*
G36*
Y73914D02*
X288544D01*
Y65024D01*
X296418D01*
Y73914D01*
D02*
G37*
G36*
X-85185Y41592D02*
X-91408D01*
Y38798D01*
X-85185D01*
Y41592D01*
D02*
G37*
G36*
X94155Y40640D02*
X87931D01*
Y37846D01*
X94155D01*
Y40640D01*
D02*
G37*
G36*
X-85185Y-35306D02*
X-91408D01*
Y-38100D01*
X-85185D01*
Y-35306D01*
D02*
G37*
G36*
X94155Y-36258D02*
X87931D01*
Y-39052D01*
X94155D01*
Y-36258D01*
D02*
G37*
G36*
X151035Y-36576D02*
X144812D01*
Y-39370D01*
X151035D01*
Y-36576D01*
D02*
G37*
G36*
X59436Y-91034D02*
X50546D01*
Y-98908D01*
X59436D01*
Y-91034D01*
D02*
G37*
G36*
X-177038D02*
X-185928D01*
Y-98908D01*
X-177038D01*
Y-91034D01*
D02*
G37*
G36*
X-188468D02*
X-197358D01*
Y-98908D01*
X-188468D01*
Y-91034D01*
D02*
G37*
G36*
X299212Y-136246D02*
X290322D01*
Y-144120D01*
X299212D01*
Y-136246D01*
D02*
G37*
G36*
X287782D02*
X278892D01*
Y-144120D01*
X287782D01*
Y-136246D01*
D02*
G37*
G36*
X299974Y-149788D02*
X297711Y-150239D01*
X295792Y-151520D01*
X294510Y-153439D01*
X294060Y-155702D01*
X294510Y-157965D01*
X295476Y-159410D01*
X294537Y-160290D01*
X294243Y-160065D01*
X291810Y-159057D01*
X289200Y-158714D01*
X286590Y-159057D01*
X284157Y-160065D01*
X282068Y-161668D01*
X280465Y-163757D01*
X279457Y-166189D01*
X279114Y-168800D01*
X279457Y-171411D01*
X280465Y-173843D01*
X282068Y-175932D01*
X284157Y-177535D01*
X286590Y-178543D01*
X289200Y-178886D01*
X291810Y-178543D01*
X294243Y-177535D01*
X294992Y-176960D01*
X296131Y-177522D01*
Y-185478D01*
X294992Y-186040D01*
X294243Y-185465D01*
X291810Y-184457D01*
X289200Y-184114D01*
X286590Y-184457D01*
X284157Y-185465D01*
X282068Y-187068D01*
X280465Y-189157D01*
X279457Y-191590D01*
X279114Y-194200D01*
X279457Y-196810D01*
X280465Y-199243D01*
X282068Y-201332D01*
X284157Y-202935D01*
X285380Y-203441D01*
X285127Y-204711D01*
X267978D01*
X267725Y-203441D01*
X268863Y-202970D01*
X270961Y-201361D01*
X272570Y-199263D01*
X273582Y-196821D01*
X273759Y-195470D01*
X253841D01*
X254018Y-196821D01*
X255030Y-199263D01*
X256639Y-201361D01*
X258737Y-202970D01*
X259875Y-203441D01*
X259622Y-204711D01*
X249720D01*
X248354Y-204983D01*
X247197Y-205757D01*
X242485Y-210468D01*
X241010Y-209857D01*
X238400Y-209514D01*
X235790Y-209857D01*
X233357Y-210865D01*
X231268Y-212468D01*
X229665Y-214557D01*
X228657Y-216989D01*
X228314Y-219600D01*
X228657Y-222211D01*
X229665Y-224643D01*
X231268Y-226732D01*
X233357Y-228335D01*
X235790Y-229343D01*
X238400Y-229686D01*
X241010Y-229343D01*
X243443Y-228335D01*
X245532Y-226732D01*
X247135Y-224643D01*
X248143Y-222211D01*
X248486Y-219600D01*
X248143Y-216989D01*
X247532Y-215515D01*
X251198Y-211849D01*
X255542D01*
X256169Y-213119D01*
X255065Y-214557D01*
X254057Y-216989D01*
X253714Y-219600D01*
X254057Y-222211D01*
X255065Y-224643D01*
X256668Y-226732D01*
X258757Y-228335D01*
X261189Y-229343D01*
X263800Y-229686D01*
X266411Y-229343D01*
X268843Y-228335D01*
X270932Y-226732D01*
X272535Y-224643D01*
X273543Y-222211D01*
X273886Y-219600D01*
X273543Y-216989D01*
X272535Y-214557D01*
X271431Y-213119D01*
X272058Y-211849D01*
X289969D01*
X291335Y-211577D01*
X292493Y-210803D01*
X302223Y-201073D01*
X302997Y-199915D01*
X303269Y-198549D01*
Y-160476D01*
X304156Y-159884D01*
X305438Y-157965D01*
X305888Y-155702D01*
X305438Y-153439D01*
X304156Y-151520D01*
X302237Y-150239D01*
X299974Y-149788D01*
D02*
G37*
G36*
X265070Y-158841D02*
Y-167530D01*
X273759D01*
X273582Y-166179D01*
X272570Y-163737D01*
X270961Y-161639D01*
X268863Y-160030D01*
X266421Y-159018D01*
X265070Y-158841D01*
D02*
G37*
G36*
X262530D02*
X261179Y-159018D01*
X258737Y-160030D01*
X256639Y-161639D01*
X255030Y-163737D01*
X254018Y-166179D01*
X253841Y-167530D01*
X262530D01*
Y-158841D01*
D02*
G37*
G36*
X188870D02*
Y-167530D01*
X197559D01*
X197382Y-166179D01*
X196370Y-163737D01*
X194761Y-161639D01*
X192663Y-160030D01*
X190221Y-159018D01*
X188870Y-158841D01*
D02*
G37*
G36*
X186330D02*
X184979Y-159018D01*
X182537Y-160030D01*
X180439Y-161639D01*
X178830Y-163737D01*
X177818Y-166179D01*
X177641Y-167530D01*
X186330D01*
Y-158841D01*
D02*
G37*
G36*
X112670D02*
Y-167530D01*
X121359D01*
X121182Y-166179D01*
X120170Y-163737D01*
X118561Y-161639D01*
X116463Y-160030D01*
X114021Y-159018D01*
X112670Y-158841D01*
D02*
G37*
G36*
X110130D02*
X108779Y-159018D01*
X106337Y-160030D01*
X104239Y-161639D01*
X102630Y-163737D01*
X101618Y-166179D01*
X101441Y-167530D01*
X110130D01*
Y-158841D01*
D02*
G37*
G36*
X36470D02*
Y-167530D01*
X45159D01*
X44982Y-166179D01*
X43970Y-163737D01*
X42361Y-161639D01*
X40263Y-160030D01*
X37821Y-159018D01*
X36470Y-158841D01*
D02*
G37*
G36*
X33930D02*
X32579Y-159018D01*
X30137Y-160030D01*
X28039Y-161639D01*
X26430Y-163737D01*
X25418Y-166179D01*
X25241Y-167530D01*
X33930D01*
Y-158841D01*
D02*
G37*
G36*
X-39730D02*
Y-167530D01*
X-31041D01*
X-31218Y-166179D01*
X-32230Y-163737D01*
X-33839Y-161639D01*
X-35937Y-160030D01*
X-38379Y-159018D01*
X-39730Y-158841D01*
D02*
G37*
G36*
X-42270D02*
X-43621Y-159018D01*
X-46063Y-160030D01*
X-48161Y-161639D01*
X-49770Y-163737D01*
X-50782Y-166179D01*
X-50959Y-167530D01*
X-42270D01*
Y-158841D01*
D02*
G37*
G36*
X-115930D02*
Y-167530D01*
X-107241D01*
X-107418Y-166179D01*
X-108430Y-163737D01*
X-110039Y-161639D01*
X-112137Y-160030D01*
X-114579Y-159018D01*
X-115930Y-158841D01*
D02*
G37*
G36*
X-118470D02*
X-119821Y-159018D01*
X-122263Y-160030D01*
X-124361Y-161639D01*
X-125970Y-163737D01*
X-126982Y-166179D01*
X-127159Y-167530D01*
X-118470D01*
Y-158841D01*
D02*
G37*
G36*
X-192130D02*
Y-167530D01*
X-183441D01*
X-183618Y-166179D01*
X-184630Y-163737D01*
X-186239Y-161639D01*
X-188337Y-160030D01*
X-190779Y-159018D01*
X-192130Y-158841D01*
D02*
G37*
G36*
X-194670D02*
X-196021Y-159018D01*
X-198463Y-160030D01*
X-200561Y-161639D01*
X-202170Y-163737D01*
X-203182Y-166179D01*
X-203359Y-167530D01*
X-194670D01*
Y-158841D01*
D02*
G37*
G36*
X-268330D02*
Y-167530D01*
X-259641D01*
X-259818Y-166179D01*
X-260830Y-163737D01*
X-262439Y-161639D01*
X-264537Y-160030D01*
X-266979Y-159018D01*
X-268330Y-158841D01*
D02*
G37*
G36*
X-270870D02*
X-272221Y-159018D01*
X-274663Y-160030D01*
X-276761Y-161639D01*
X-278370Y-163737D01*
X-279382Y-166179D01*
X-279559Y-167530D01*
X-270870D01*
Y-158841D01*
D02*
G37*
G36*
X273759Y-170070D02*
X265070D01*
Y-178759D01*
X266421Y-178582D01*
X268863Y-177570D01*
X270961Y-175961D01*
X272570Y-173863D01*
X273582Y-171421D01*
X273759Y-170070D01*
D02*
G37*
G36*
X262530D02*
X253841D01*
X254018Y-171421D01*
X255030Y-173863D01*
X256639Y-175961D01*
X258737Y-177570D01*
X261179Y-178582D01*
X262530Y-178759D01*
Y-170070D01*
D02*
G37*
G36*
X197559D02*
X188870D01*
Y-178759D01*
X190221Y-178582D01*
X192663Y-177570D01*
X194761Y-175961D01*
X196370Y-173863D01*
X197382Y-171421D01*
X197559Y-170070D01*
D02*
G37*
G36*
X186330D02*
X177641D01*
X177818Y-171421D01*
X178830Y-173863D01*
X180439Y-175961D01*
X182537Y-177570D01*
X184979Y-178582D01*
X186330Y-178759D01*
Y-170070D01*
D02*
G37*
G36*
X121359D02*
X112670D01*
Y-178759D01*
X114021Y-178582D01*
X116463Y-177570D01*
X118561Y-175961D01*
X120170Y-173863D01*
X121182Y-171421D01*
X121359Y-170070D01*
D02*
G37*
G36*
X110130D02*
X101441D01*
X101618Y-171421D01*
X102630Y-173863D01*
X104239Y-175961D01*
X106337Y-177570D01*
X108779Y-178582D01*
X110130Y-178759D01*
Y-170070D01*
D02*
G37*
G36*
X45159D02*
X36470D01*
Y-178759D01*
X37821Y-178582D01*
X40263Y-177570D01*
X42361Y-175961D01*
X43970Y-173863D01*
X44982Y-171421D01*
X45159Y-170070D01*
D02*
G37*
G36*
X33930D02*
X25241D01*
X25418Y-171421D01*
X26430Y-173863D01*
X28039Y-175961D01*
X30137Y-177570D01*
X32579Y-178582D01*
X33930Y-178759D01*
Y-170070D01*
D02*
G37*
G36*
X-31041D02*
X-39730D01*
Y-178759D01*
X-38379Y-178582D01*
X-35937Y-177570D01*
X-33839Y-175961D01*
X-32230Y-173863D01*
X-31218Y-171421D01*
X-31041Y-170070D01*
D02*
G37*
G36*
X-42270D02*
X-50959D01*
X-50782Y-171421D01*
X-49770Y-173863D01*
X-48161Y-175961D01*
X-46063Y-177570D01*
X-43621Y-178582D01*
X-42270Y-178759D01*
Y-170070D01*
D02*
G37*
G36*
X-107241D02*
X-115930D01*
Y-178759D01*
X-114579Y-178582D01*
X-112137Y-177570D01*
X-110039Y-175961D01*
X-108430Y-173863D01*
X-107418Y-171421D01*
X-107241Y-170070D01*
D02*
G37*
G36*
X-118470D02*
X-127159D01*
X-126982Y-171421D01*
X-125970Y-173863D01*
X-124361Y-175961D01*
X-122263Y-177570D01*
X-119821Y-178582D01*
X-118470Y-178759D01*
Y-170070D01*
D02*
G37*
G36*
X-183441D02*
X-192130D01*
Y-178759D01*
X-190779Y-178582D01*
X-188337Y-177570D01*
X-186239Y-175961D01*
X-184630Y-173863D01*
X-183618Y-171421D01*
X-183441Y-170070D01*
D02*
G37*
G36*
X-194670D02*
X-203359D01*
X-203182Y-171421D01*
X-202170Y-173863D01*
X-200561Y-175961D01*
X-198463Y-177570D01*
X-196021Y-178582D01*
X-194670Y-178759D01*
Y-170070D01*
D02*
G37*
G36*
X-259641D02*
X-268330D01*
Y-178759D01*
X-266979Y-178582D01*
X-264537Y-177570D01*
X-262439Y-175961D01*
X-260830Y-173863D01*
X-259818Y-171421D01*
X-259641Y-170070D01*
D02*
G37*
G36*
X-270870D02*
X-279559D01*
X-279382Y-171421D01*
X-278370Y-173863D01*
X-276761Y-175961D01*
X-274663Y-177570D01*
X-272221Y-178582D01*
X-270870Y-178759D01*
Y-170070D01*
D02*
G37*
G36*
X-285000Y-158800D02*
X-305000D01*
Y-178800D01*
X-285000D01*
Y-158800D01*
D02*
G37*
G36*
X238400Y-158714D02*
X235790Y-159057D01*
X233357Y-160065D01*
X231268Y-161668D01*
X229665Y-163757D01*
X228657Y-166189D01*
X228314Y-168800D01*
X228657Y-171411D01*
X229665Y-173843D01*
X231268Y-175932D01*
X233357Y-177535D01*
X235790Y-178543D01*
X238400Y-178886D01*
X241010Y-178543D01*
X243443Y-177535D01*
X245532Y-175932D01*
X247135Y-173843D01*
X248143Y-171411D01*
X248486Y-168800D01*
X248143Y-166189D01*
X247135Y-163757D01*
X245532Y-161668D01*
X243443Y-160065D01*
X241010Y-159057D01*
X238400Y-158714D01*
D02*
G37*
G36*
X213000D02*
X210389Y-159057D01*
X207957Y-160065D01*
X205868Y-161668D01*
X204265Y-163757D01*
X203257Y-166189D01*
X202914Y-168800D01*
X203257Y-171411D01*
X204265Y-173843D01*
X205868Y-175932D01*
X207957Y-177535D01*
X210389Y-178543D01*
X213000Y-178886D01*
X215611Y-178543D01*
X218043Y-177535D01*
X220132Y-175932D01*
X221735Y-173843D01*
X222743Y-171411D01*
X223086Y-168800D01*
X222743Y-166189D01*
X221735Y-163757D01*
X220132Y-161668D01*
X218043Y-160065D01*
X215611Y-159057D01*
X213000Y-158714D01*
D02*
G37*
G36*
X162200D02*
X159590Y-159057D01*
X157157Y-160065D01*
X155068Y-161668D01*
X153465Y-163757D01*
X152457Y-166189D01*
X152114Y-168800D01*
X152457Y-171411D01*
X153465Y-173843D01*
X155068Y-175932D01*
X157157Y-177535D01*
X159590Y-178543D01*
X162200Y-178886D01*
X164811Y-178543D01*
X167243Y-177535D01*
X169332Y-175932D01*
X170935Y-173843D01*
X171943Y-171411D01*
X172286Y-168800D01*
X171943Y-166189D01*
X170935Y-163757D01*
X169332Y-161668D01*
X167243Y-160065D01*
X164811Y-159057D01*
X162200Y-158714D01*
D02*
G37*
G36*
X136800D02*
X134190Y-159057D01*
X131757Y-160065D01*
X129668Y-161668D01*
X128065Y-163757D01*
X127057Y-166189D01*
X126714Y-168800D01*
X127057Y-171411D01*
X128065Y-173843D01*
X129668Y-175932D01*
X131757Y-177535D01*
X134190Y-178543D01*
X136800Y-178886D01*
X139410Y-178543D01*
X141843Y-177535D01*
X143932Y-175932D01*
X145535Y-173843D01*
X146543Y-171411D01*
X146886Y-168800D01*
X146543Y-166189D01*
X145535Y-163757D01*
X143932Y-161668D01*
X141843Y-160065D01*
X139410Y-159057D01*
X136800Y-158714D01*
D02*
G37*
G36*
X86000D02*
X83390Y-159057D01*
X80957Y-160065D01*
X78868Y-161668D01*
X77265Y-163757D01*
X76257Y-166189D01*
X75914Y-168800D01*
X76257Y-171411D01*
X77265Y-173843D01*
X78868Y-175932D01*
X80957Y-177535D01*
X83390Y-178543D01*
X86000Y-178886D01*
X88610Y-178543D01*
X91043Y-177535D01*
X93132Y-175932D01*
X94735Y-173843D01*
X95743Y-171411D01*
X96086Y-168800D01*
X95743Y-166189D01*
X94735Y-163757D01*
X93132Y-161668D01*
X91043Y-160065D01*
X88610Y-159057D01*
X86000Y-158714D01*
D02*
G37*
G36*
X60600D02*
X57990Y-159057D01*
X55557Y-160065D01*
X53468Y-161668D01*
X51865Y-163757D01*
X50857Y-166189D01*
X50514Y-168800D01*
X50857Y-171411D01*
X51865Y-173843D01*
X53468Y-175932D01*
X55557Y-177535D01*
X57990Y-178543D01*
X60600Y-178886D01*
X63211Y-178543D01*
X65643Y-177535D01*
X67732Y-175932D01*
X69335Y-173843D01*
X70343Y-171411D01*
X70686Y-168800D01*
X70343Y-166189D01*
X69335Y-163757D01*
X67732Y-161668D01*
X65643Y-160065D01*
X63211Y-159057D01*
X60600Y-158714D01*
D02*
G37*
G36*
X9800D02*
X7189Y-159057D01*
X4757Y-160065D01*
X2668Y-161668D01*
X1065Y-163757D01*
X57Y-166189D01*
X-286Y-168800D01*
X57Y-171411D01*
X1065Y-173843D01*
X2668Y-175932D01*
X4757Y-177535D01*
X7189Y-178543D01*
X9800Y-178886D01*
X12411Y-178543D01*
X14843Y-177535D01*
X16932Y-175932D01*
X18535Y-173843D01*
X19543Y-171411D01*
X19886Y-168800D01*
X19543Y-166189D01*
X18535Y-163757D01*
X16932Y-161668D01*
X14843Y-160065D01*
X12411Y-159057D01*
X9800Y-158714D01*
D02*
G37*
G36*
X-15600D02*
X-18211Y-159057D01*
X-20643Y-160065D01*
X-22732Y-161668D01*
X-24335Y-163757D01*
X-25343Y-166189D01*
X-25686Y-168800D01*
X-25343Y-171411D01*
X-24335Y-173843D01*
X-22732Y-175932D01*
X-20643Y-177535D01*
X-18211Y-178543D01*
X-15600Y-178886D01*
X-12989Y-178543D01*
X-10557Y-177535D01*
X-8468Y-175932D01*
X-6865Y-173843D01*
X-5857Y-171411D01*
X-5514Y-168800D01*
X-5857Y-166189D01*
X-6865Y-163757D01*
X-8468Y-161668D01*
X-10557Y-160065D01*
X-12989Y-159057D01*
X-15600Y-158714D01*
D02*
G37*
G36*
X-66400D02*
X-69011Y-159057D01*
X-71443Y-160065D01*
X-73532Y-161668D01*
X-75135Y-163757D01*
X-76143Y-166189D01*
X-76486Y-168800D01*
X-76143Y-171411D01*
X-75135Y-173843D01*
X-73532Y-175932D01*
X-71443Y-177535D01*
X-69011Y-178543D01*
X-66400Y-178886D01*
X-63790Y-178543D01*
X-61357Y-177535D01*
X-59268Y-175932D01*
X-57665Y-173843D01*
X-56657Y-171411D01*
X-56314Y-168800D01*
X-56657Y-166189D01*
X-57665Y-163757D01*
X-59268Y-161668D01*
X-61357Y-160065D01*
X-63790Y-159057D01*
X-66400Y-158714D01*
D02*
G37*
G36*
X-91800D02*
X-94410Y-159057D01*
X-96843Y-160065D01*
X-98932Y-161668D01*
X-100535Y-163757D01*
X-101543Y-166189D01*
X-101886Y-168800D01*
X-101543Y-171411D01*
X-100535Y-173843D01*
X-98932Y-175932D01*
X-96843Y-177535D01*
X-94410Y-178543D01*
X-91800Y-178886D01*
X-89190Y-178543D01*
X-86757Y-177535D01*
X-84668Y-175932D01*
X-83065Y-173843D01*
X-82057Y-171411D01*
X-81714Y-168800D01*
X-82057Y-166189D01*
X-83065Y-163757D01*
X-84668Y-161668D01*
X-86757Y-160065D01*
X-89190Y-159057D01*
X-91800Y-158714D01*
D02*
G37*
G36*
X-142600D02*
X-145211Y-159057D01*
X-147643Y-160065D01*
X-149732Y-161668D01*
X-151335Y-163757D01*
X-152343Y-166189D01*
X-152686Y-168800D01*
X-152343Y-171411D01*
X-151335Y-173843D01*
X-149732Y-175932D01*
X-147643Y-177535D01*
X-145211Y-178543D01*
X-142600Y-178886D01*
X-139990Y-178543D01*
X-137557Y-177535D01*
X-135468Y-175932D01*
X-133865Y-173843D01*
X-132857Y-171411D01*
X-132514Y-168800D01*
X-132857Y-166189D01*
X-133865Y-163757D01*
X-135468Y-161668D01*
X-137557Y-160065D01*
X-139990Y-159057D01*
X-142600Y-158714D01*
D02*
G37*
G36*
X-168000D02*
X-170611Y-159057D01*
X-173043Y-160065D01*
X-175132Y-161668D01*
X-176735Y-163757D01*
X-177743Y-166189D01*
X-178086Y-168800D01*
X-177743Y-171411D01*
X-176735Y-173843D01*
X-175132Y-175932D01*
X-173043Y-177535D01*
X-170611Y-178543D01*
X-168000Y-178886D01*
X-165389Y-178543D01*
X-162957Y-177535D01*
X-160868Y-175932D01*
X-159265Y-173843D01*
X-158257Y-171411D01*
X-157914Y-168800D01*
X-158257Y-166189D01*
X-159265Y-163757D01*
X-160868Y-161668D01*
X-162957Y-160065D01*
X-165389Y-159057D01*
X-168000Y-158714D01*
D02*
G37*
G36*
X-218800D02*
X-221411Y-159057D01*
X-223843Y-160065D01*
X-225932Y-161668D01*
X-227535Y-163757D01*
X-228543Y-166189D01*
X-228886Y-168800D01*
X-228543Y-171411D01*
X-227535Y-173843D01*
X-225932Y-175932D01*
X-223843Y-177535D01*
X-221411Y-178543D01*
X-218800Y-178886D01*
X-216189Y-178543D01*
X-213757Y-177535D01*
X-211668Y-175932D01*
X-210065Y-173843D01*
X-209057Y-171411D01*
X-208714Y-168800D01*
X-209057Y-166189D01*
X-210065Y-163757D01*
X-211668Y-161668D01*
X-213757Y-160065D01*
X-216189Y-159057D01*
X-218800Y-158714D01*
D02*
G37*
G36*
X-244200D02*
X-246810Y-159057D01*
X-249243Y-160065D01*
X-251332Y-161668D01*
X-252935Y-163757D01*
X-253943Y-166189D01*
X-254286Y-168800D01*
X-253943Y-171411D01*
X-252935Y-173843D01*
X-251332Y-175932D01*
X-249243Y-177535D01*
X-246810Y-178543D01*
X-244200Y-178886D01*
X-241590Y-178543D01*
X-239157Y-177535D01*
X-237068Y-175932D01*
X-235465Y-173843D01*
X-234457Y-171411D01*
X-234114Y-168800D01*
X-234457Y-166189D01*
X-235465Y-163757D01*
X-237068Y-161668D01*
X-239157Y-160065D01*
X-241590Y-159057D01*
X-244200Y-158714D01*
D02*
G37*
G36*
X265070Y-184241D02*
Y-192930D01*
X273759D01*
X273582Y-191579D01*
X272570Y-189137D01*
X270961Y-187039D01*
X268863Y-185430D01*
X266421Y-184418D01*
X265070Y-184241D01*
D02*
G37*
G36*
X262530D02*
X261179Y-184418D01*
X258737Y-185430D01*
X256639Y-187039D01*
X255030Y-189137D01*
X254018Y-191579D01*
X253841Y-192930D01*
X262530D01*
Y-184241D01*
D02*
G37*
G36*
X188870D02*
Y-192930D01*
X197559D01*
X197382Y-191579D01*
X196370Y-189137D01*
X194761Y-187039D01*
X192663Y-185430D01*
X190221Y-184418D01*
X188870Y-184241D01*
D02*
G37*
G36*
X186330D02*
X184979Y-184418D01*
X182537Y-185430D01*
X180439Y-187039D01*
X178830Y-189137D01*
X177818Y-191579D01*
X177641Y-192930D01*
X186330D01*
Y-184241D01*
D02*
G37*
G36*
X112670D02*
Y-192930D01*
X121359D01*
X121182Y-191579D01*
X120170Y-189137D01*
X118561Y-187039D01*
X116463Y-185430D01*
X114021Y-184418D01*
X112670Y-184241D01*
D02*
G37*
G36*
X110130D02*
X108779Y-184418D01*
X106337Y-185430D01*
X104239Y-187039D01*
X102630Y-189137D01*
X101618Y-191579D01*
X101441Y-192930D01*
X110130D01*
Y-184241D01*
D02*
G37*
G36*
X36470D02*
Y-192930D01*
X45159D01*
X44982Y-191579D01*
X43970Y-189137D01*
X42361Y-187039D01*
X40263Y-185430D01*
X37821Y-184418D01*
X36470Y-184241D01*
D02*
G37*
G36*
X33930D02*
X32579Y-184418D01*
X30137Y-185430D01*
X28039Y-187039D01*
X26430Y-189137D01*
X25418Y-191579D01*
X25241Y-192930D01*
X33930D01*
Y-184241D01*
D02*
G37*
G36*
X-39730D02*
Y-192930D01*
X-31041D01*
X-31218Y-191579D01*
X-32230Y-189137D01*
X-33839Y-187039D01*
X-35937Y-185430D01*
X-38379Y-184418D01*
X-39730Y-184241D01*
D02*
G37*
G36*
X-42270D02*
X-43621Y-184418D01*
X-46063Y-185430D01*
X-48161Y-187039D01*
X-49770Y-189137D01*
X-50782Y-191579D01*
X-50959Y-192930D01*
X-42270D01*
Y-184241D01*
D02*
G37*
G36*
X-115930D02*
Y-192930D01*
X-107241D01*
X-107418Y-191579D01*
X-108430Y-189137D01*
X-110039Y-187039D01*
X-112137Y-185430D01*
X-114579Y-184418D01*
X-115930Y-184241D01*
D02*
G37*
G36*
X-118470D02*
X-119821Y-184418D01*
X-122263Y-185430D01*
X-124361Y-187039D01*
X-125970Y-189137D01*
X-126982Y-191579D01*
X-127159Y-192930D01*
X-118470D01*
Y-184241D01*
D02*
G37*
G36*
X-192130D02*
Y-192930D01*
X-183441D01*
X-183618Y-191579D01*
X-184630Y-189137D01*
X-186239Y-187039D01*
X-188337Y-185430D01*
X-190779Y-184418D01*
X-192130Y-184241D01*
D02*
G37*
G36*
X-194670D02*
X-196021Y-184418D01*
X-198463Y-185430D01*
X-200561Y-187039D01*
X-202170Y-189137D01*
X-203182Y-191579D01*
X-203359Y-192930D01*
X-194670D01*
Y-184241D01*
D02*
G37*
G36*
X-268330D02*
Y-192930D01*
X-259641D01*
X-259818Y-191579D01*
X-260830Y-189137D01*
X-262439Y-187039D01*
X-264537Y-185430D01*
X-266979Y-184418D01*
X-268330Y-184241D01*
D02*
G37*
G36*
X-270870D02*
X-272221Y-184418D01*
X-274663Y-185430D01*
X-276761Y-187039D01*
X-278370Y-189137D01*
X-279382Y-191579D01*
X-279559Y-192930D01*
X-270870D01*
Y-184241D01*
D02*
G37*
G36*
X197559Y-195470D02*
X188870D01*
Y-204159D01*
X190221Y-203982D01*
X192663Y-202970D01*
X194761Y-201361D01*
X196370Y-199263D01*
X197382Y-196821D01*
X197559Y-195470D01*
D02*
G37*
G36*
X186330D02*
X177641D01*
X177818Y-196821D01*
X178830Y-199263D01*
X180439Y-201361D01*
X182537Y-202970D01*
X184979Y-203982D01*
X186330Y-204159D01*
Y-195470D01*
D02*
G37*
G36*
X121359D02*
X112670D01*
Y-204159D01*
X114021Y-203982D01*
X116463Y-202970D01*
X118561Y-201361D01*
X120170Y-199263D01*
X121182Y-196821D01*
X121359Y-195470D01*
D02*
G37*
G36*
X110130D02*
X101441D01*
X101618Y-196821D01*
X102630Y-199263D01*
X104239Y-201361D01*
X106337Y-202970D01*
X108779Y-203982D01*
X110130Y-204159D01*
Y-195470D01*
D02*
G37*
G36*
X45159D02*
X36470D01*
Y-204159D01*
X37821Y-203982D01*
X40263Y-202970D01*
X42361Y-201361D01*
X43970Y-199263D01*
X44982Y-196821D01*
X45159Y-195470D01*
D02*
G37*
G36*
X33930D02*
X25241D01*
X25418Y-196821D01*
X26430Y-199263D01*
X28039Y-201361D01*
X30137Y-202970D01*
X32579Y-203982D01*
X33930Y-204159D01*
Y-195470D01*
D02*
G37*
G36*
X-31041D02*
X-39730D01*
Y-204159D01*
X-38379Y-203982D01*
X-35937Y-202970D01*
X-33839Y-201361D01*
X-32230Y-199263D01*
X-31218Y-196821D01*
X-31041Y-195470D01*
D02*
G37*
G36*
X-42270D02*
X-50959D01*
X-50782Y-196821D01*
X-49770Y-199263D01*
X-48161Y-201361D01*
X-46063Y-202970D01*
X-43621Y-203982D01*
X-42270Y-204159D01*
Y-195470D01*
D02*
G37*
G36*
X-107241D02*
X-115930D01*
Y-204159D01*
X-114579Y-203982D01*
X-112137Y-202970D01*
X-110039Y-201361D01*
X-108430Y-199263D01*
X-107418Y-196821D01*
X-107241Y-195470D01*
D02*
G37*
G36*
X-118470D02*
X-127159D01*
X-126982Y-196821D01*
X-125970Y-199263D01*
X-124361Y-201361D01*
X-122263Y-202970D01*
X-119821Y-203982D01*
X-118470Y-204159D01*
Y-195470D01*
D02*
G37*
G36*
X-183441D02*
X-192130D01*
Y-204159D01*
X-190779Y-203982D01*
X-188337Y-202970D01*
X-186239Y-201361D01*
X-184630Y-199263D01*
X-183618Y-196821D01*
X-183441Y-195470D01*
D02*
G37*
G36*
X-194670D02*
X-203359D01*
X-203182Y-196821D01*
X-202170Y-199263D01*
X-200561Y-201361D01*
X-198463Y-202970D01*
X-196021Y-203982D01*
X-194670Y-204159D01*
Y-195470D01*
D02*
G37*
G36*
X-259641D02*
X-268330D01*
Y-204159D01*
X-266979Y-203982D01*
X-264537Y-202970D01*
X-262439Y-201361D01*
X-260830Y-199263D01*
X-259818Y-196821D01*
X-259641Y-195470D01*
D02*
G37*
G36*
X-270870D02*
X-279559D01*
X-279382Y-196821D01*
X-278370Y-199263D01*
X-276761Y-201361D01*
X-274663Y-202970D01*
X-272221Y-203982D01*
X-270870Y-204159D01*
Y-195470D01*
D02*
G37*
G36*
X238400Y-184114D02*
X235790Y-184457D01*
X233357Y-185465D01*
X231268Y-187068D01*
X229665Y-189157D01*
X228657Y-191590D01*
X228314Y-194200D01*
X228657Y-196810D01*
X229665Y-199243D01*
X231268Y-201332D01*
X233357Y-202935D01*
X235790Y-203943D01*
X238400Y-204286D01*
X241010Y-203943D01*
X243443Y-202935D01*
X245532Y-201332D01*
X247135Y-199243D01*
X248143Y-196810D01*
X248486Y-194200D01*
X248143Y-191590D01*
X247135Y-189157D01*
X245532Y-187068D01*
X243443Y-185465D01*
X241010Y-184457D01*
X238400Y-184114D01*
D02*
G37*
G36*
X213000D02*
X210389Y-184457D01*
X207957Y-185465D01*
X205868Y-187068D01*
X204265Y-189157D01*
X203257Y-191590D01*
X202914Y-194200D01*
X203257Y-196810D01*
X204265Y-199243D01*
X205868Y-201332D01*
X207957Y-202935D01*
X210389Y-203943D01*
X213000Y-204286D01*
X215611Y-203943D01*
X218043Y-202935D01*
X220132Y-201332D01*
X221735Y-199243D01*
X222743Y-196810D01*
X223086Y-194200D01*
X222743Y-191590D01*
X221735Y-189157D01*
X220132Y-187068D01*
X218043Y-185465D01*
X215611Y-184457D01*
X213000Y-184114D01*
D02*
G37*
G36*
X162200D02*
X159590Y-184457D01*
X157157Y-185465D01*
X155068Y-187068D01*
X153465Y-189157D01*
X152457Y-191590D01*
X152114Y-194200D01*
X152457Y-196810D01*
X153465Y-199243D01*
X155068Y-201332D01*
X157157Y-202935D01*
X159590Y-203943D01*
X162200Y-204286D01*
X164811Y-203943D01*
X167243Y-202935D01*
X169332Y-201332D01*
X170935Y-199243D01*
X171943Y-196810D01*
X172286Y-194200D01*
X171943Y-191590D01*
X170935Y-189157D01*
X169332Y-187068D01*
X167243Y-185465D01*
X164811Y-184457D01*
X162200Y-184114D01*
D02*
G37*
G36*
X136800D02*
X134190Y-184457D01*
X131757Y-185465D01*
X129668Y-187068D01*
X128065Y-189157D01*
X127057Y-191590D01*
X126714Y-194200D01*
X127057Y-196810D01*
X128065Y-199243D01*
X129668Y-201332D01*
X131757Y-202935D01*
X134190Y-203943D01*
X136800Y-204286D01*
X139410Y-203943D01*
X141843Y-202935D01*
X143932Y-201332D01*
X145535Y-199243D01*
X146543Y-196810D01*
X146886Y-194200D01*
X146543Y-191590D01*
X145535Y-189157D01*
X143932Y-187068D01*
X141843Y-185465D01*
X139410Y-184457D01*
X136800Y-184114D01*
D02*
G37*
G36*
X86000D02*
X83390Y-184457D01*
X80957Y-185465D01*
X78868Y-187068D01*
X77265Y-189157D01*
X76257Y-191590D01*
X75914Y-194200D01*
X76257Y-196810D01*
X77265Y-199243D01*
X78868Y-201332D01*
X80957Y-202935D01*
X83390Y-203943D01*
X86000Y-204286D01*
X88610Y-203943D01*
X91043Y-202935D01*
X93132Y-201332D01*
X94735Y-199243D01*
X95743Y-196810D01*
X96086Y-194200D01*
X95743Y-191590D01*
X94735Y-189157D01*
X93132Y-187068D01*
X91043Y-185465D01*
X88610Y-184457D01*
X86000Y-184114D01*
D02*
G37*
G36*
X60600D02*
X57990Y-184457D01*
X55557Y-185465D01*
X53468Y-187068D01*
X51865Y-189157D01*
X50857Y-191590D01*
X50514Y-194200D01*
X50857Y-196810D01*
X51865Y-199243D01*
X53468Y-201332D01*
X55557Y-202935D01*
X57990Y-203943D01*
X60600Y-204286D01*
X63211Y-203943D01*
X65643Y-202935D01*
X67732Y-201332D01*
X69335Y-199243D01*
X70343Y-196810D01*
X70686Y-194200D01*
X70343Y-191590D01*
X69335Y-189157D01*
X67732Y-187068D01*
X65643Y-185465D01*
X63211Y-184457D01*
X60600Y-184114D01*
D02*
G37*
G36*
X9800D02*
X7189Y-184457D01*
X4757Y-185465D01*
X2668Y-187068D01*
X1065Y-189157D01*
X57Y-191590D01*
X-286Y-194200D01*
X57Y-196810D01*
X1065Y-199243D01*
X2668Y-201332D01*
X4757Y-202935D01*
X7189Y-203943D01*
X9800Y-204286D01*
X12411Y-203943D01*
X14843Y-202935D01*
X16932Y-201332D01*
X18535Y-199243D01*
X19543Y-196810D01*
X19886Y-194200D01*
X19543Y-191590D01*
X18535Y-189157D01*
X16932Y-187068D01*
X14843Y-185465D01*
X12411Y-184457D01*
X9800Y-184114D01*
D02*
G37*
G36*
X-15600D02*
X-18211Y-184457D01*
X-20643Y-185465D01*
X-22732Y-187068D01*
X-24335Y-189157D01*
X-25343Y-191590D01*
X-25686Y-194200D01*
X-25343Y-196810D01*
X-24335Y-199243D01*
X-22732Y-201332D01*
X-20643Y-202935D01*
X-18211Y-203943D01*
X-15600Y-204286D01*
X-12989Y-203943D01*
X-10557Y-202935D01*
X-8468Y-201332D01*
X-6865Y-199243D01*
X-5857Y-196810D01*
X-5514Y-194200D01*
X-5857Y-191590D01*
X-6865Y-189157D01*
X-8468Y-187068D01*
X-10557Y-185465D01*
X-12989Y-184457D01*
X-15600Y-184114D01*
D02*
G37*
G36*
X-66400D02*
X-69011Y-184457D01*
X-71443Y-185465D01*
X-73532Y-187068D01*
X-75135Y-189157D01*
X-76143Y-191590D01*
X-76486Y-194200D01*
X-76143Y-196810D01*
X-75135Y-199243D01*
X-73532Y-201332D01*
X-71443Y-202935D01*
X-69011Y-203943D01*
X-66400Y-204286D01*
X-63790Y-203943D01*
X-61357Y-202935D01*
X-59268Y-201332D01*
X-57665Y-199243D01*
X-56657Y-196810D01*
X-56314Y-194200D01*
X-56657Y-191590D01*
X-57665Y-189157D01*
X-59268Y-187068D01*
X-61357Y-185465D01*
X-63790Y-184457D01*
X-66400Y-184114D01*
D02*
G37*
G36*
X-91800D02*
X-94410Y-184457D01*
X-96843Y-185465D01*
X-98932Y-187068D01*
X-100535Y-189157D01*
X-101543Y-191590D01*
X-101886Y-194200D01*
X-101543Y-196810D01*
X-100535Y-199243D01*
X-98932Y-201332D01*
X-96843Y-202935D01*
X-94410Y-203943D01*
X-91800Y-204286D01*
X-89190Y-203943D01*
X-86757Y-202935D01*
X-84668Y-201332D01*
X-83065Y-199243D01*
X-82057Y-196810D01*
X-81714Y-194200D01*
X-82057Y-191590D01*
X-83065Y-189157D01*
X-84668Y-187068D01*
X-86757Y-185465D01*
X-89190Y-184457D01*
X-91800Y-184114D01*
D02*
G37*
G36*
X-142600D02*
X-145211Y-184457D01*
X-147643Y-185465D01*
X-149732Y-187068D01*
X-151335Y-189157D01*
X-152343Y-191590D01*
X-152686Y-194200D01*
X-152343Y-196810D01*
X-151335Y-199243D01*
X-149732Y-201332D01*
X-147643Y-202935D01*
X-145211Y-203943D01*
X-142600Y-204286D01*
X-139990Y-203943D01*
X-137557Y-202935D01*
X-135468Y-201332D01*
X-133865Y-199243D01*
X-132857Y-196810D01*
X-132514Y-194200D01*
X-132857Y-191590D01*
X-133865Y-189157D01*
X-135468Y-187068D01*
X-137557Y-185465D01*
X-139990Y-184457D01*
X-142600Y-184114D01*
D02*
G37*
G36*
X-168000D02*
X-170611Y-184457D01*
X-173043Y-185465D01*
X-175132Y-187068D01*
X-176735Y-189157D01*
X-177743Y-191590D01*
X-178086Y-194200D01*
X-177743Y-196810D01*
X-176735Y-199243D01*
X-175132Y-201332D01*
X-173043Y-202935D01*
X-170611Y-203943D01*
X-168000Y-204286D01*
X-165389Y-203943D01*
X-162957Y-202935D01*
X-160868Y-201332D01*
X-159265Y-199243D01*
X-158257Y-196810D01*
X-157914Y-194200D01*
X-158257Y-191590D01*
X-159265Y-189157D01*
X-160868Y-187068D01*
X-162957Y-185465D01*
X-165389Y-184457D01*
X-168000Y-184114D01*
D02*
G37*
G36*
X-218800D02*
X-221411Y-184457D01*
X-223843Y-185465D01*
X-225932Y-187068D01*
X-227535Y-189157D01*
X-228543Y-191590D01*
X-228886Y-194200D01*
X-228543Y-196810D01*
X-227535Y-199243D01*
X-225932Y-201332D01*
X-223843Y-202935D01*
X-221411Y-203943D01*
X-218800Y-204286D01*
X-216189Y-203943D01*
X-213757Y-202935D01*
X-211668Y-201332D01*
X-210065Y-199243D01*
X-209057Y-196810D01*
X-208714Y-194200D01*
X-209057Y-191590D01*
X-210065Y-189157D01*
X-211668Y-187068D01*
X-213757Y-185465D01*
X-216189Y-184457D01*
X-218800Y-184114D01*
D02*
G37*
G36*
X-244200D02*
X-246810Y-184457D01*
X-249243Y-185465D01*
X-251332Y-187068D01*
X-252935Y-189157D01*
X-253943Y-191590D01*
X-254286Y-194200D01*
X-253943Y-196810D01*
X-252935Y-199243D01*
X-251332Y-201332D01*
X-249243Y-202935D01*
X-246810Y-203943D01*
X-244200Y-204286D01*
X-241590Y-203943D01*
X-239157Y-202935D01*
X-237068Y-201332D01*
X-235465Y-199243D01*
X-234457Y-196810D01*
X-234114Y-194200D01*
X-234457Y-191590D01*
X-235465Y-189157D01*
X-237068Y-187068D01*
X-239157Y-185465D01*
X-241590Y-184457D01*
X-244200Y-184114D01*
D02*
G37*
G36*
X-295000D02*
X-297610Y-184457D01*
X-300043Y-185465D01*
X-302132Y-187068D01*
X-303735Y-189157D01*
X-304743Y-191590D01*
X-305086Y-194200D01*
X-304743Y-196810D01*
X-303735Y-199243D01*
X-302132Y-201332D01*
X-300043Y-202935D01*
X-297610Y-203943D01*
X-295000Y-204286D01*
X-292390Y-203943D01*
X-289957Y-202935D01*
X-287868Y-201332D01*
X-286265Y-199243D01*
X-285257Y-196810D01*
X-284914Y-194200D01*
X-285257Y-191590D01*
X-286265Y-189157D01*
X-287868Y-187068D01*
X-289957Y-185465D01*
X-292390Y-184457D01*
X-295000Y-184114D01*
D02*
G37*
G36*
X-293730Y-209641D02*
Y-218330D01*
X-285041D01*
X-285218Y-216979D01*
X-286230Y-214537D01*
X-287839Y-212439D01*
X-289937Y-210830D01*
X-292379Y-209818D01*
X-293730Y-209641D01*
D02*
G37*
G36*
X-296270D02*
X-297621Y-209818D01*
X-300063Y-210830D01*
X-302161Y-212439D01*
X-303770Y-214537D01*
X-304782Y-216979D01*
X-304959Y-218330D01*
X-296270D01*
Y-209641D01*
D02*
G37*
G36*
X-285041Y-220870D02*
X-293730D01*
Y-229559D01*
X-292379Y-229382D01*
X-289937Y-228370D01*
X-287839Y-226761D01*
X-286230Y-224663D01*
X-285218Y-222221D01*
X-285041Y-220870D01*
D02*
G37*
G36*
X-296270D02*
X-304959D01*
X-304782Y-222221D01*
X-303770Y-224663D01*
X-302161Y-226761D01*
X-300063Y-228370D01*
X-297621Y-229382D01*
X-296270Y-229559D01*
Y-220870D01*
D02*
G37*
G36*
X213000Y-209514D02*
X210389Y-209857D01*
X207957Y-210865D01*
X205868Y-212468D01*
X204265Y-214557D01*
X203257Y-216989D01*
X202914Y-219600D01*
X203257Y-222211D01*
X204265Y-224643D01*
X205868Y-226732D01*
X207957Y-228335D01*
X210389Y-229343D01*
X213000Y-229686D01*
X215611Y-229343D01*
X218043Y-228335D01*
X220132Y-226732D01*
X221735Y-224643D01*
X222743Y-222211D01*
X223086Y-219600D01*
X222743Y-216989D01*
X221735Y-214557D01*
X220132Y-212468D01*
X218043Y-210865D01*
X215611Y-209857D01*
X213000Y-209514D01*
D02*
G37*
G36*
X187600D02*
X184989Y-209857D01*
X182557Y-210865D01*
X180468Y-212468D01*
X178865Y-214557D01*
X177857Y-216989D01*
X177514Y-219600D01*
X177857Y-222211D01*
X178865Y-224643D01*
X180468Y-226732D01*
X182557Y-228335D01*
X184989Y-229343D01*
X187600Y-229686D01*
X190210Y-229343D01*
X192643Y-228335D01*
X194732Y-226732D01*
X196335Y-224643D01*
X197343Y-222211D01*
X197686Y-219600D01*
X197343Y-216989D01*
X196335Y-214557D01*
X194732Y-212468D01*
X192643Y-210865D01*
X190210Y-209857D01*
X187600Y-209514D01*
D02*
G37*
G36*
X162200D02*
X159590Y-209857D01*
X157157Y-210865D01*
X155068Y-212468D01*
X153465Y-214557D01*
X152457Y-216989D01*
X152114Y-219600D01*
X152457Y-222211D01*
X153465Y-224643D01*
X155068Y-226732D01*
X157157Y-228335D01*
X159590Y-229343D01*
X162200Y-229686D01*
X164811Y-229343D01*
X167243Y-228335D01*
X169332Y-226732D01*
X170935Y-224643D01*
X171943Y-222211D01*
X172286Y-219600D01*
X171943Y-216989D01*
X170935Y-214557D01*
X169332Y-212468D01*
X167243Y-210865D01*
X164811Y-209857D01*
X162200Y-209514D01*
D02*
G37*
G36*
X136800D02*
X134190Y-209857D01*
X131757Y-210865D01*
X129668Y-212468D01*
X128065Y-214557D01*
X127057Y-216989D01*
X126714Y-219600D01*
X127057Y-222211D01*
X128065Y-224643D01*
X129668Y-226732D01*
X131757Y-228335D01*
X134190Y-229343D01*
X136800Y-229686D01*
X139410Y-229343D01*
X141843Y-228335D01*
X143932Y-226732D01*
X145535Y-224643D01*
X146543Y-222211D01*
X146886Y-219600D01*
X146543Y-216989D01*
X145535Y-214557D01*
X143932Y-212468D01*
X141843Y-210865D01*
X139410Y-209857D01*
X136800Y-209514D01*
D02*
G37*
G36*
X111400D02*
X108790Y-209857D01*
X106357Y-210865D01*
X104268Y-212468D01*
X102665Y-214557D01*
X101657Y-216989D01*
X101314Y-219600D01*
X101657Y-222211D01*
X102665Y-224643D01*
X104268Y-226732D01*
X106357Y-228335D01*
X108790Y-229343D01*
X111400Y-229686D01*
X114010Y-229343D01*
X116443Y-228335D01*
X118532Y-226732D01*
X120135Y-224643D01*
X121143Y-222211D01*
X121486Y-219600D01*
X121143Y-216989D01*
X120135Y-214557D01*
X118532Y-212468D01*
X116443Y-210865D01*
X114010Y-209857D01*
X111400Y-209514D01*
D02*
G37*
G36*
X86000D02*
X83390Y-209857D01*
X80957Y-210865D01*
X78868Y-212468D01*
X77265Y-214557D01*
X76257Y-216989D01*
X75914Y-219600D01*
X76257Y-222211D01*
X77265Y-224643D01*
X78868Y-226732D01*
X80957Y-228335D01*
X83390Y-229343D01*
X86000Y-229686D01*
X88610Y-229343D01*
X91043Y-228335D01*
X93132Y-226732D01*
X94735Y-224643D01*
X95743Y-222211D01*
X96086Y-219600D01*
X95743Y-216989D01*
X94735Y-214557D01*
X93132Y-212468D01*
X91043Y-210865D01*
X88610Y-209857D01*
X86000Y-209514D01*
D02*
G37*
G36*
X60600D02*
X57990Y-209857D01*
X55557Y-210865D01*
X53468Y-212468D01*
X51865Y-214557D01*
X50857Y-216989D01*
X50514Y-219600D01*
X50857Y-222211D01*
X51865Y-224643D01*
X53468Y-226732D01*
X55557Y-228335D01*
X57990Y-229343D01*
X60600Y-229686D01*
X63211Y-229343D01*
X65643Y-228335D01*
X67732Y-226732D01*
X69335Y-224643D01*
X70343Y-222211D01*
X70686Y-219600D01*
X70343Y-216989D01*
X69335Y-214557D01*
X67732Y-212468D01*
X65643Y-210865D01*
X63211Y-209857D01*
X60600Y-209514D01*
D02*
G37*
G36*
X35200D02*
X32589Y-209857D01*
X30157Y-210865D01*
X28068Y-212468D01*
X26465Y-214557D01*
X25457Y-216989D01*
X25114Y-219600D01*
X25457Y-222211D01*
X26465Y-224643D01*
X28068Y-226732D01*
X30157Y-228335D01*
X32589Y-229343D01*
X35200Y-229686D01*
X37810Y-229343D01*
X40243Y-228335D01*
X42332Y-226732D01*
X43935Y-224643D01*
X44943Y-222211D01*
X45286Y-219600D01*
X44943Y-216989D01*
X43935Y-214557D01*
X42332Y-212468D01*
X40243Y-210865D01*
X37810Y-209857D01*
X35200Y-209514D01*
D02*
G37*
G36*
X9800D02*
X7189Y-209857D01*
X4757Y-210865D01*
X2668Y-212468D01*
X1065Y-214557D01*
X57Y-216989D01*
X-286Y-219600D01*
X57Y-222211D01*
X1065Y-224643D01*
X2668Y-226732D01*
X4757Y-228335D01*
X7189Y-229343D01*
X9800Y-229686D01*
X12411Y-229343D01*
X14843Y-228335D01*
X16932Y-226732D01*
X18535Y-224643D01*
X19543Y-222211D01*
X19886Y-219600D01*
X19543Y-216989D01*
X18535Y-214557D01*
X16932Y-212468D01*
X14843Y-210865D01*
X12411Y-209857D01*
X9800Y-209514D01*
D02*
G37*
G36*
X-15600D02*
X-18211Y-209857D01*
X-20643Y-210865D01*
X-22732Y-212468D01*
X-24335Y-214557D01*
X-25343Y-216989D01*
X-25686Y-219600D01*
X-25343Y-222211D01*
X-24335Y-224643D01*
X-22732Y-226732D01*
X-20643Y-228335D01*
X-18211Y-229343D01*
X-15600Y-229686D01*
X-12989Y-229343D01*
X-10557Y-228335D01*
X-8468Y-226732D01*
X-6865Y-224643D01*
X-5857Y-222211D01*
X-5514Y-219600D01*
X-5857Y-216989D01*
X-6865Y-214557D01*
X-8468Y-212468D01*
X-10557Y-210865D01*
X-12989Y-209857D01*
X-15600Y-209514D01*
D02*
G37*
G36*
X-41000D02*
X-43611Y-209857D01*
X-46043Y-210865D01*
X-48132Y-212468D01*
X-49735Y-214557D01*
X-50743Y-216989D01*
X-51086Y-219600D01*
X-50743Y-222211D01*
X-49735Y-224643D01*
X-48132Y-226732D01*
X-46043Y-228335D01*
X-43611Y-229343D01*
X-41000Y-229686D01*
X-38389Y-229343D01*
X-35957Y-228335D01*
X-33868Y-226732D01*
X-32265Y-224643D01*
X-31257Y-222211D01*
X-30914Y-219600D01*
X-31257Y-216989D01*
X-32265Y-214557D01*
X-33868Y-212468D01*
X-35957Y-210865D01*
X-38389Y-209857D01*
X-41000Y-209514D01*
D02*
G37*
G36*
X-66400D02*
X-69011Y-209857D01*
X-71443Y-210865D01*
X-73532Y-212468D01*
X-75135Y-214557D01*
X-76143Y-216989D01*
X-76486Y-219600D01*
X-76143Y-222211D01*
X-75135Y-224643D01*
X-73532Y-226732D01*
X-71443Y-228335D01*
X-69011Y-229343D01*
X-66400Y-229686D01*
X-63790Y-229343D01*
X-61357Y-228335D01*
X-59268Y-226732D01*
X-57665Y-224643D01*
X-56657Y-222211D01*
X-56314Y-219600D01*
X-56657Y-216989D01*
X-57665Y-214557D01*
X-59268Y-212468D01*
X-61357Y-210865D01*
X-63790Y-209857D01*
X-66400Y-209514D01*
D02*
G37*
G36*
X-91800D02*
X-94410Y-209857D01*
X-96843Y-210865D01*
X-98932Y-212468D01*
X-100535Y-214557D01*
X-101543Y-216989D01*
X-101886Y-219600D01*
X-101543Y-222211D01*
X-100535Y-224643D01*
X-98932Y-226732D01*
X-96843Y-228335D01*
X-94410Y-229343D01*
X-91800Y-229686D01*
X-89190Y-229343D01*
X-86757Y-228335D01*
X-84668Y-226732D01*
X-83065Y-224643D01*
X-82057Y-222211D01*
X-81714Y-219600D01*
X-82057Y-216989D01*
X-83065Y-214557D01*
X-84668Y-212468D01*
X-86757Y-210865D01*
X-89190Y-209857D01*
X-91800Y-209514D01*
D02*
G37*
G36*
X-117200D02*
X-119810Y-209857D01*
X-122243Y-210865D01*
X-124332Y-212468D01*
X-125935Y-214557D01*
X-126943Y-216989D01*
X-127286Y-219600D01*
X-126943Y-222211D01*
X-125935Y-224643D01*
X-124332Y-226732D01*
X-122243Y-228335D01*
X-119810Y-229343D01*
X-117200Y-229686D01*
X-114590Y-229343D01*
X-112157Y-228335D01*
X-110068Y-226732D01*
X-108465Y-224643D01*
X-107457Y-222211D01*
X-107114Y-219600D01*
X-107457Y-216989D01*
X-108465Y-214557D01*
X-110068Y-212468D01*
X-112157Y-210865D01*
X-114590Y-209857D01*
X-117200Y-209514D01*
D02*
G37*
G36*
X-142600D02*
X-145211Y-209857D01*
X-147643Y-210865D01*
X-149732Y-212468D01*
X-151335Y-214557D01*
X-152343Y-216989D01*
X-152686Y-219600D01*
X-152343Y-222211D01*
X-151335Y-224643D01*
X-149732Y-226732D01*
X-147643Y-228335D01*
X-145211Y-229343D01*
X-142600Y-229686D01*
X-139990Y-229343D01*
X-137557Y-228335D01*
X-135468Y-226732D01*
X-133865Y-224643D01*
X-132857Y-222211D01*
X-132514Y-219600D01*
X-132857Y-216989D01*
X-133865Y-214557D01*
X-135468Y-212468D01*
X-137557Y-210865D01*
X-139990Y-209857D01*
X-142600Y-209514D01*
D02*
G37*
G36*
X-168000D02*
X-170611Y-209857D01*
X-173043Y-210865D01*
X-175132Y-212468D01*
X-176735Y-214557D01*
X-177743Y-216989D01*
X-178086Y-219600D01*
X-177743Y-222211D01*
X-176735Y-224643D01*
X-175132Y-226732D01*
X-173043Y-228335D01*
X-170611Y-229343D01*
X-168000Y-229686D01*
X-165389Y-229343D01*
X-162957Y-228335D01*
X-160868Y-226732D01*
X-159265Y-224643D01*
X-158257Y-222211D01*
X-157914Y-219600D01*
X-158257Y-216989D01*
X-159265Y-214557D01*
X-160868Y-212468D01*
X-162957Y-210865D01*
X-165389Y-209857D01*
X-168000Y-209514D01*
D02*
G37*
G36*
X-193400D02*
X-196010Y-209857D01*
X-198443Y-210865D01*
X-200532Y-212468D01*
X-202135Y-214557D01*
X-203143Y-216989D01*
X-203486Y-219600D01*
X-203143Y-222211D01*
X-202135Y-224643D01*
X-200532Y-226732D01*
X-198443Y-228335D01*
X-196010Y-229343D01*
X-193400Y-229686D01*
X-190790Y-229343D01*
X-188357Y-228335D01*
X-186268Y-226732D01*
X-184665Y-224643D01*
X-183657Y-222211D01*
X-183314Y-219600D01*
X-183657Y-216989D01*
X-184665Y-214557D01*
X-186268Y-212468D01*
X-188357Y-210865D01*
X-190790Y-209857D01*
X-193400Y-209514D01*
D02*
G37*
G36*
X-218800D02*
X-221411Y-209857D01*
X-223843Y-210865D01*
X-225932Y-212468D01*
X-227535Y-214557D01*
X-228543Y-216989D01*
X-228886Y-219600D01*
X-228543Y-222211D01*
X-227535Y-224643D01*
X-225932Y-226732D01*
X-223843Y-228335D01*
X-221411Y-229343D01*
X-218800Y-229686D01*
X-216189Y-229343D01*
X-213757Y-228335D01*
X-211668Y-226732D01*
X-210065Y-224643D01*
X-209057Y-222211D01*
X-208714Y-219600D01*
X-209057Y-216989D01*
X-210065Y-214557D01*
X-211668Y-212468D01*
X-213757Y-210865D01*
X-216189Y-209857D01*
X-218800Y-209514D01*
D02*
G37*
G36*
X-244200D02*
X-246810Y-209857D01*
X-249243Y-210865D01*
X-251332Y-212468D01*
X-252935Y-214557D01*
X-253943Y-216989D01*
X-254286Y-219600D01*
X-253943Y-222211D01*
X-252935Y-224643D01*
X-251332Y-226732D01*
X-249243Y-228335D01*
X-246810Y-229343D01*
X-244200Y-229686D01*
X-241590Y-229343D01*
X-239157Y-228335D01*
X-237068Y-226732D01*
X-235465Y-224643D01*
X-234457Y-222211D01*
X-234114Y-219600D01*
X-234457Y-216989D01*
X-235465Y-214557D01*
X-237068Y-212468D01*
X-239157Y-210865D01*
X-241590Y-209857D01*
X-244200Y-209514D01*
D02*
G37*
G36*
X-269600D02*
X-272211Y-209857D01*
X-274643Y-210865D01*
X-276732Y-212468D01*
X-278335Y-214557D01*
X-279343Y-216989D01*
X-279686Y-219600D01*
X-279343Y-222211D01*
X-278335Y-224643D01*
X-276732Y-226732D01*
X-274643Y-228335D01*
X-272211Y-229343D01*
X-269600Y-229686D01*
X-266989Y-229343D01*
X-264557Y-228335D01*
X-262468Y-226732D01*
X-260865Y-224643D01*
X-259857Y-222211D01*
X-259514Y-219600D01*
X-259857Y-216989D01*
X-260865Y-214557D01*
X-262468Y-212468D01*
X-264557Y-210865D01*
X-266989Y-209857D01*
X-269600Y-209514D01*
D02*
G37*
G36*
X-284960Y-234960D02*
X-293730D01*
Y-243730D01*
X-284960D01*
Y-234960D01*
D02*
G37*
G36*
X-296270D02*
X-305040D01*
Y-243730D01*
X-296270D01*
Y-234960D01*
D02*
G37*
G36*
X-284960Y-246270D02*
X-293730D01*
Y-255040D01*
X-284960D01*
Y-246270D01*
D02*
G37*
G36*
X-296270D02*
X-305040D01*
Y-255040D01*
X-296270D01*
Y-246270D01*
D02*
G37*
G36*
X263800Y-234914D02*
X261189Y-235257D01*
X258757Y-236265D01*
X256668Y-237868D01*
X255065Y-239957D01*
X254057Y-242390D01*
X253714Y-245000D01*
X254057Y-247610D01*
X255065Y-250043D01*
X256668Y-252132D01*
X258757Y-253735D01*
X261189Y-254743D01*
X263800Y-255086D01*
X266411Y-254743D01*
X268843Y-253735D01*
X270932Y-252132D01*
X272535Y-250043D01*
X273543Y-247610D01*
X273886Y-245000D01*
X273543Y-242390D01*
X272535Y-239957D01*
X270932Y-237868D01*
X268843Y-236265D01*
X266411Y-235257D01*
X263800Y-234914D01*
D02*
G37*
G36*
X238400D02*
X235790Y-235257D01*
X233357Y-236265D01*
X231268Y-237868D01*
X229665Y-239957D01*
X228657Y-242390D01*
X228314Y-245000D01*
X228657Y-247610D01*
X229665Y-250043D01*
X231268Y-252132D01*
X233357Y-253735D01*
X235790Y-254743D01*
X238400Y-255086D01*
X241010Y-254743D01*
X243443Y-253735D01*
X245532Y-252132D01*
X247135Y-250043D01*
X248143Y-247610D01*
X248486Y-245000D01*
X248143Y-242390D01*
X247135Y-239957D01*
X245532Y-237868D01*
X243443Y-236265D01*
X241010Y-235257D01*
X238400Y-234914D01*
D02*
G37*
G36*
X213000D02*
X210389Y-235257D01*
X207957Y-236265D01*
X205868Y-237868D01*
X204265Y-239957D01*
X203257Y-242390D01*
X202914Y-245000D01*
X203257Y-247610D01*
X204265Y-250043D01*
X205868Y-252132D01*
X207957Y-253735D01*
X210389Y-254743D01*
X213000Y-255086D01*
X215611Y-254743D01*
X218043Y-253735D01*
X220132Y-252132D01*
X221735Y-250043D01*
X222743Y-247610D01*
X223086Y-245000D01*
X222743Y-242390D01*
X221735Y-239957D01*
X220132Y-237868D01*
X218043Y-236265D01*
X215611Y-235257D01*
X213000Y-234914D01*
D02*
G37*
G36*
X187600D02*
X184989Y-235257D01*
X182557Y-236265D01*
X180468Y-237868D01*
X178865Y-239957D01*
X177857Y-242390D01*
X177514Y-245000D01*
X177857Y-247610D01*
X178865Y-250043D01*
X180468Y-252132D01*
X182557Y-253735D01*
X184989Y-254743D01*
X187600Y-255086D01*
X190210Y-254743D01*
X192643Y-253735D01*
X194732Y-252132D01*
X196335Y-250043D01*
X197343Y-247610D01*
X197686Y-245000D01*
X197343Y-242390D01*
X196335Y-239957D01*
X194732Y-237868D01*
X192643Y-236265D01*
X190210Y-235257D01*
X187600Y-234914D01*
D02*
G37*
G36*
X162200D02*
X159590Y-235257D01*
X157157Y-236265D01*
X155068Y-237868D01*
X153465Y-239957D01*
X152457Y-242390D01*
X152114Y-245000D01*
X152457Y-247610D01*
X153465Y-250043D01*
X155068Y-252132D01*
X157157Y-253735D01*
X159590Y-254743D01*
X162200Y-255086D01*
X164811Y-254743D01*
X167243Y-253735D01*
X169332Y-252132D01*
X170935Y-250043D01*
X171943Y-247610D01*
X172286Y-245000D01*
X171943Y-242390D01*
X170935Y-239957D01*
X169332Y-237868D01*
X167243Y-236265D01*
X164811Y-235257D01*
X162200Y-234914D01*
D02*
G37*
G36*
X136800D02*
X134190Y-235257D01*
X131757Y-236265D01*
X129668Y-237868D01*
X128065Y-239957D01*
X127057Y-242390D01*
X126714Y-245000D01*
X127057Y-247610D01*
X128065Y-250043D01*
X129668Y-252132D01*
X131757Y-253735D01*
X134190Y-254743D01*
X136800Y-255086D01*
X139410Y-254743D01*
X141843Y-253735D01*
X143932Y-252132D01*
X145535Y-250043D01*
X146543Y-247610D01*
X146886Y-245000D01*
X146543Y-242390D01*
X145535Y-239957D01*
X143932Y-237868D01*
X141843Y-236265D01*
X139410Y-235257D01*
X136800Y-234914D01*
D02*
G37*
G36*
X111400D02*
X108790Y-235257D01*
X106357Y-236265D01*
X104268Y-237868D01*
X102665Y-239957D01*
X101657Y-242390D01*
X101314Y-245000D01*
X101657Y-247610D01*
X102665Y-250043D01*
X104268Y-252132D01*
X106357Y-253735D01*
X108790Y-254743D01*
X111400Y-255086D01*
X114010Y-254743D01*
X116443Y-253735D01*
X118532Y-252132D01*
X120135Y-250043D01*
X121143Y-247610D01*
X121486Y-245000D01*
X121143Y-242390D01*
X120135Y-239957D01*
X118532Y-237868D01*
X116443Y-236265D01*
X114010Y-235257D01*
X111400Y-234914D01*
D02*
G37*
G36*
X86000D02*
X83390Y-235257D01*
X80957Y-236265D01*
X78868Y-237868D01*
X77265Y-239957D01*
X76257Y-242390D01*
X75914Y-245000D01*
X76257Y-247610D01*
X77265Y-250043D01*
X78868Y-252132D01*
X80957Y-253735D01*
X83390Y-254743D01*
X86000Y-255086D01*
X88610Y-254743D01*
X91043Y-253735D01*
X93132Y-252132D01*
X94735Y-250043D01*
X95743Y-247610D01*
X96086Y-245000D01*
X95743Y-242390D01*
X94735Y-239957D01*
X93132Y-237868D01*
X91043Y-236265D01*
X88610Y-235257D01*
X86000Y-234914D01*
D02*
G37*
G36*
X60600D02*
X57990Y-235257D01*
X55557Y-236265D01*
X53468Y-237868D01*
X51865Y-239957D01*
X50857Y-242390D01*
X50514Y-245000D01*
X50857Y-247610D01*
X51865Y-250043D01*
X53468Y-252132D01*
X55557Y-253735D01*
X57990Y-254743D01*
X60600Y-255086D01*
X63211Y-254743D01*
X65643Y-253735D01*
X67732Y-252132D01*
X69335Y-250043D01*
X70343Y-247610D01*
X70686Y-245000D01*
X70343Y-242390D01*
X69335Y-239957D01*
X67732Y-237868D01*
X65643Y-236265D01*
X63211Y-235257D01*
X60600Y-234914D01*
D02*
G37*
G36*
X35200D02*
X32589Y-235257D01*
X30157Y-236265D01*
X28068Y-237868D01*
X26465Y-239957D01*
X25457Y-242390D01*
X25114Y-245000D01*
X25457Y-247610D01*
X26465Y-250043D01*
X28068Y-252132D01*
X30157Y-253735D01*
X32589Y-254743D01*
X35200Y-255086D01*
X37810Y-254743D01*
X40243Y-253735D01*
X42332Y-252132D01*
X43935Y-250043D01*
X44943Y-247610D01*
X45286Y-245000D01*
X44943Y-242390D01*
X43935Y-239957D01*
X42332Y-237868D01*
X40243Y-236265D01*
X37810Y-235257D01*
X35200Y-234914D01*
D02*
G37*
G36*
X9800D02*
X7189Y-235257D01*
X4757Y-236265D01*
X2668Y-237868D01*
X1065Y-239957D01*
X57Y-242390D01*
X-286Y-245000D01*
X57Y-247610D01*
X1065Y-250043D01*
X2668Y-252132D01*
X4757Y-253735D01*
X7189Y-254743D01*
X9800Y-255086D01*
X12411Y-254743D01*
X14843Y-253735D01*
X16932Y-252132D01*
X18535Y-250043D01*
X19543Y-247610D01*
X19886Y-245000D01*
X19543Y-242390D01*
X18535Y-239957D01*
X16932Y-237868D01*
X14843Y-236265D01*
X12411Y-235257D01*
X9800Y-234914D01*
D02*
G37*
G36*
X-15600D02*
X-18211Y-235257D01*
X-20643Y-236265D01*
X-22732Y-237868D01*
X-24335Y-239957D01*
X-25343Y-242390D01*
X-25686Y-245000D01*
X-25343Y-247610D01*
X-24335Y-250043D01*
X-22732Y-252132D01*
X-20643Y-253735D01*
X-18211Y-254743D01*
X-15600Y-255086D01*
X-12989Y-254743D01*
X-10557Y-253735D01*
X-8468Y-252132D01*
X-6865Y-250043D01*
X-5857Y-247610D01*
X-5514Y-245000D01*
X-5857Y-242390D01*
X-6865Y-239957D01*
X-8468Y-237868D01*
X-10557Y-236265D01*
X-12989Y-235257D01*
X-15600Y-234914D01*
D02*
G37*
G36*
X-41000D02*
X-43611Y-235257D01*
X-46043Y-236265D01*
X-48132Y-237868D01*
X-49735Y-239957D01*
X-50743Y-242390D01*
X-51086Y-245000D01*
X-50743Y-247610D01*
X-49735Y-250043D01*
X-48132Y-252132D01*
X-46043Y-253735D01*
X-43611Y-254743D01*
X-41000Y-255086D01*
X-38389Y-254743D01*
X-35957Y-253735D01*
X-33868Y-252132D01*
X-32265Y-250043D01*
X-31257Y-247610D01*
X-30914Y-245000D01*
X-31257Y-242390D01*
X-32265Y-239957D01*
X-33868Y-237868D01*
X-35957Y-236265D01*
X-38389Y-235257D01*
X-41000Y-234914D01*
D02*
G37*
G36*
X-66400D02*
X-69011Y-235257D01*
X-71443Y-236265D01*
X-73532Y-237868D01*
X-75135Y-239957D01*
X-76143Y-242390D01*
X-76486Y-245000D01*
X-76143Y-247610D01*
X-75135Y-250043D01*
X-73532Y-252132D01*
X-71443Y-253735D01*
X-69011Y-254743D01*
X-66400Y-255086D01*
X-63790Y-254743D01*
X-61357Y-253735D01*
X-59268Y-252132D01*
X-57665Y-250043D01*
X-56657Y-247610D01*
X-56314Y-245000D01*
X-56657Y-242390D01*
X-57665Y-239957D01*
X-59268Y-237868D01*
X-61357Y-236265D01*
X-63790Y-235257D01*
X-66400Y-234914D01*
D02*
G37*
G36*
X-91800D02*
X-94410Y-235257D01*
X-96843Y-236265D01*
X-98932Y-237868D01*
X-100535Y-239957D01*
X-101543Y-242390D01*
X-101886Y-245000D01*
X-101543Y-247610D01*
X-100535Y-250043D01*
X-98932Y-252132D01*
X-96843Y-253735D01*
X-94410Y-254743D01*
X-91800Y-255086D01*
X-89190Y-254743D01*
X-86757Y-253735D01*
X-84668Y-252132D01*
X-83065Y-250043D01*
X-82057Y-247610D01*
X-81714Y-245000D01*
X-82057Y-242390D01*
X-83065Y-239957D01*
X-84668Y-237868D01*
X-86757Y-236265D01*
X-89190Y-235257D01*
X-91800Y-234914D01*
D02*
G37*
G36*
X-117200D02*
X-119810Y-235257D01*
X-122243Y-236265D01*
X-124332Y-237868D01*
X-125935Y-239957D01*
X-126943Y-242390D01*
X-127286Y-245000D01*
X-126943Y-247610D01*
X-125935Y-250043D01*
X-124332Y-252132D01*
X-122243Y-253735D01*
X-119810Y-254743D01*
X-117200Y-255086D01*
X-114590Y-254743D01*
X-112157Y-253735D01*
X-110068Y-252132D01*
X-108465Y-250043D01*
X-107457Y-247610D01*
X-107114Y-245000D01*
X-107457Y-242390D01*
X-108465Y-239957D01*
X-110068Y-237868D01*
X-112157Y-236265D01*
X-114590Y-235257D01*
X-117200Y-234914D01*
D02*
G37*
G36*
X-142600D02*
X-145211Y-235257D01*
X-147643Y-236265D01*
X-149732Y-237868D01*
X-151335Y-239957D01*
X-152343Y-242390D01*
X-152686Y-245000D01*
X-152343Y-247610D01*
X-151335Y-250043D01*
X-149732Y-252132D01*
X-147643Y-253735D01*
X-145211Y-254743D01*
X-142600Y-255086D01*
X-139990Y-254743D01*
X-137557Y-253735D01*
X-135468Y-252132D01*
X-133865Y-250043D01*
X-132857Y-247610D01*
X-132514Y-245000D01*
X-132857Y-242390D01*
X-133865Y-239957D01*
X-135468Y-237868D01*
X-137557Y-236265D01*
X-139990Y-235257D01*
X-142600Y-234914D01*
D02*
G37*
G36*
X-168000D02*
X-170611Y-235257D01*
X-173043Y-236265D01*
X-175132Y-237868D01*
X-176735Y-239957D01*
X-177743Y-242390D01*
X-178086Y-245000D01*
X-177743Y-247610D01*
X-176735Y-250043D01*
X-175132Y-252132D01*
X-173043Y-253735D01*
X-170611Y-254743D01*
X-168000Y-255086D01*
X-165389Y-254743D01*
X-162957Y-253735D01*
X-160868Y-252132D01*
X-159265Y-250043D01*
X-158257Y-247610D01*
X-157914Y-245000D01*
X-158257Y-242390D01*
X-159265Y-239957D01*
X-160868Y-237868D01*
X-162957Y-236265D01*
X-165389Y-235257D01*
X-168000Y-234914D01*
D02*
G37*
G36*
X-193400D02*
X-196010Y-235257D01*
X-198443Y-236265D01*
X-200532Y-237868D01*
X-202135Y-239957D01*
X-203143Y-242390D01*
X-203486Y-245000D01*
X-203143Y-247610D01*
X-202135Y-250043D01*
X-200532Y-252132D01*
X-198443Y-253735D01*
X-196010Y-254743D01*
X-193400Y-255086D01*
X-190790Y-254743D01*
X-188357Y-253735D01*
X-186268Y-252132D01*
X-184665Y-250043D01*
X-183657Y-247610D01*
X-183314Y-245000D01*
X-183657Y-242390D01*
X-184665Y-239957D01*
X-186268Y-237868D01*
X-188357Y-236265D01*
X-190790Y-235257D01*
X-193400Y-234914D01*
D02*
G37*
G36*
X-218800D02*
X-221411Y-235257D01*
X-223843Y-236265D01*
X-225932Y-237868D01*
X-227535Y-239957D01*
X-228543Y-242390D01*
X-228886Y-245000D01*
X-228543Y-247610D01*
X-227535Y-250043D01*
X-225932Y-252132D01*
X-223843Y-253735D01*
X-221411Y-254743D01*
X-218800Y-255086D01*
X-216189Y-254743D01*
X-213757Y-253735D01*
X-211668Y-252132D01*
X-210065Y-250043D01*
X-209057Y-247610D01*
X-208714Y-245000D01*
X-209057Y-242390D01*
X-210065Y-239957D01*
X-211668Y-237868D01*
X-213757Y-236265D01*
X-216189Y-235257D01*
X-218800Y-234914D01*
D02*
G37*
G36*
X-244200D02*
X-246810Y-235257D01*
X-249243Y-236265D01*
X-251332Y-237868D01*
X-252935Y-239957D01*
X-253943Y-242390D01*
X-254286Y-245000D01*
X-253943Y-247610D01*
X-252935Y-250043D01*
X-251332Y-252132D01*
X-249243Y-253735D01*
X-246810Y-254743D01*
X-244200Y-255086D01*
X-241590Y-254743D01*
X-239157Y-253735D01*
X-237068Y-252132D01*
X-235465Y-250043D01*
X-234457Y-247610D01*
X-234114Y-245000D01*
X-234457Y-242390D01*
X-235465Y-239957D01*
X-237068Y-237868D01*
X-239157Y-236265D01*
X-241590Y-235257D01*
X-244200Y-234914D01*
D02*
G37*
G36*
X-269600D02*
X-272211Y-235257D01*
X-274643Y-236265D01*
X-276732Y-237868D01*
X-278335Y-239957D01*
X-279343Y-242390D01*
X-279686Y-245000D01*
X-279343Y-247610D01*
X-278335Y-250043D01*
X-276732Y-252132D01*
X-274643Y-253735D01*
X-272211Y-254743D01*
X-269600Y-255086D01*
X-266989Y-254743D01*
X-264557Y-253735D01*
X-262468Y-252132D01*
X-260865Y-250043D01*
X-259857Y-247610D01*
X-259514Y-245000D01*
X-259857Y-242390D01*
X-260865Y-239957D01*
X-262468Y-237868D01*
X-264557Y-236265D01*
X-266989Y-235257D01*
X-269600Y-234914D01*
D02*
G37*
%LPD*%
D14*
X-220900Y33421D02*
Y51087D01*
X-204100Y62230D02*
X-199644D01*
X-216900Y35078D02*
Y49430D01*
X-205873Y54800D02*
X-193358D01*
X-212899Y36735D02*
Y47773D01*
X-205873Y54800D01*
X-216900Y49430D02*
X-204100Y62230D01*
X-220900Y51087D02*
X-212207Y59779D01*
Y106680D01*
X-204216Y50800D02*
X-186182D01*
X-208582Y46434D02*
X-204216Y50800D01*
X-208582Y39116D02*
Y46434D01*
X-193358Y54800D02*
X-187352Y60806D01*
X-186182Y50800D02*
X-175088Y61894D01*
X-106556Y-43627D02*
Y-25943D01*
X-90996Y-52768D02*
X-83820Y-59944D01*
X-97415Y-52768D02*
X-90996D01*
X-106556Y-43627D02*
X-97415Y-52768D01*
X-95758Y-48768D02*
X-79248D01*
X-102556Y-41970D02*
X-95758Y-48768D01*
X-102556Y-41970D02*
Y-29673D01*
X223900Y-49865D02*
Y-32151D01*
X219900Y-48208D02*
Y-33808D01*
X215900Y-46551D02*
Y-35465D01*
X196660Y-50990D02*
X211461D01*
X215900Y-46551D01*
X213118Y-54990D02*
X219900Y-48208D01*
X215208Y-58557D02*
X223900Y-49865D01*
X215208Y-104464D02*
Y-58557D01*
X208408Y-54990D02*
X213118D01*
X202798Y-60600D02*
X208408Y-54990D01*
X211582Y-45212D02*
Y-37846D01*
X209804Y-46990D02*
X211582Y-45212D01*
X195003Y-46990D02*
X209804D01*
X190353Y-57297D02*
X196660Y-50990D01*
X182523Y-59470D02*
X195003Y-46990D01*
X125664Y-46046D02*
Y-25556D01*
X129664Y-44389D02*
Y-27213D01*
X125664Y-46046D02*
X140389Y-60771D01*
Y-104648D02*
Y-60771D01*
X144716Y-54038D02*
X152273Y-61595D01*
X139313Y-54038D02*
X144716D01*
X129664Y-44389D02*
X139313Y-54038D01*
X140970Y-50038D02*
X155956D01*
X133664Y-42732D02*
X140970Y-50038D01*
X133664Y-42732D02*
Y-30943D01*
X-16320Y-46176D02*
Y-32538D01*
X-20320Y-44519D02*
Y-34195D01*
X-41084Y-50736D02*
X-26537D01*
X-20320Y-44519D01*
X-24880Y-54736D02*
X-16320Y-46176D01*
X-29082Y-54736D02*
X-24880D01*
X-33422Y-59076D02*
X-29082Y-54736D01*
X-24638Y-43180D02*
Y-36576D01*
X-28194Y-46736D02*
X-24638Y-43180D01*
X-42741Y-46736D02*
X-28194D01*
X-45867Y-55519D02*
X-41084Y-50736D01*
X-56676Y-60672D02*
X-42741Y-46736D01*
X-158256Y47738D02*
X-155752Y50242D01*
X-170517Y47738D02*
X-158256D01*
X-168860Y43738D02*
X-151892D01*
X-155752Y50242D02*
X-145746D01*
X-151892Y43738D02*
X-150368D01*
X-145746Y50242D02*
X-139954Y44450D01*
X-139061Y58242D02*
X-126663Y45844D01*
X-140718Y54242D02*
X-130663Y44187D01*
X-156604Y54242D02*
X-140718D01*
X-147396Y58242D02*
X-139061D01*
X-150379Y61225D02*
X-147396Y58242D01*
X-162861Y60500D02*
X-156604Y54242D01*
X-76900Y174182D02*
X-65405Y162687D01*
X-59309D01*
X-66040Y156210D02*
Y157665D01*
X-80900Y172525D02*
X-66040Y157665D01*
X-198930Y-28488D02*
X-192826D01*
X-198930Y-21988D02*
X-191983D01*
X21082Y-21844D02*
X36892D01*
X37036Y-21988D01*
X26964Y-28488D02*
X37036D01*
X-20280Y31028D02*
X-19558Y31750D01*
X-80900Y250900D02*
X-66400Y265400D01*
X-80900Y172525D02*
Y250900D01*
X-76900Y174182D02*
Y229500D01*
X-66400Y240000D01*
X289052Y-115824D02*
X296164Y-108712D01*
Y-102616D01*
X299700Y-155976D02*
X299974Y-155702D01*
X299700Y-198549D02*
Y-155976D01*
X289969Y-208280D02*
X299700Y-198549D01*
X249720Y-208280D02*
X289969D01*
X238400Y-219600D02*
X249720Y-208280D01*
X-147218Y-133706D02*
X-133350D01*
X-156972Y-123952D02*
X-147218Y-133706D01*
X-133350D02*
X-108204D01*
X89002Y-134976D02*
X102870D01*
X79248Y-125222D02*
X89002Y-134976D01*
X102870D02*
X128016D01*
X-121156Y-102870D02*
Y-51767D01*
X-145288Y-113792D02*
Y-102870D01*
X-132261Y-57215D02*
X-122556Y-47510D01*
X-156972Y-123952D02*
Y-89764D01*
X-132261Y-70612D02*
Y-57215D01*
X-121156Y-114338D02*
Y-102870D01*
X-133350Y-133706D02*
Y-90853D01*
X-108204Y-133706D02*
Y-90417D01*
X-83094Y-133706D02*
Y-89764D01*
X-58132Y-133418D02*
Y-89764D01*
X-33422Y-132838D02*
Y-89764D01*
X-8712Y-133579D02*
Y-89764D01*
X15998Y-133702D02*
Y-89764D01*
X-76248Y92304D02*
Y126492D01*
X-86002Y136246D02*
X-76248Y126492D01*
X-34290Y24528D02*
X-22496D01*
Y23224D02*
Y24528D01*
X-34290Y31028D02*
X-20280D01*
X189086Y23258D02*
X201930D01*
X182840Y29758D02*
X201930D01*
X-156210Y-69850D02*
Y-58420D01*
X-156972Y-70612D02*
X-156210Y-69850D01*
X-95831Y-103124D02*
Y-60125D01*
Y-114554D02*
Y-103124D01*
X-70721Y-114554D02*
Y-103995D01*
X-70612Y-103886D01*
X-58132Y-70612D02*
Y-59656D01*
X-57912Y-59436D01*
X-45867Y-103993D02*
Y-55519D01*
Y-114554D02*
Y-103993D01*
X-46228Y-103632D02*
X-45867Y-103993D01*
X-33422Y-59288D02*
Y-59076D01*
Y-70612D02*
Y-59288D01*
X-21012Y-103448D02*
Y-59827D01*
Y-114554D02*
Y-103448D01*
X-21082Y-103378D02*
X-21012Y-103448D01*
X-8320Y-59374D02*
Y-29225D01*
Y-70220D02*
Y-59374D01*
X-8128Y-59182D01*
X-8712Y-59766D02*
X-8320Y-59374D01*
X3843Y-103632D02*
Y-54897D01*
Y-114554D02*
Y-103632D01*
X3589Y-103378D02*
X3843Y-103632D01*
X28698D02*
Y-52066D01*
Y-114554D02*
Y-103632D01*
X15998Y-58166D02*
Y-51304D01*
Y-70612D02*
X16256Y-70354D01*
Y-58166D01*
X90170Y-115824D02*
X90932Y-115062D01*
Y-104902D02*
Y-58489D01*
Y-115062D02*
Y-104902D01*
X81534Y-62230D02*
X105664Y-38100D01*
X79248Y-71882D02*
Y-61468D01*
X80010Y-60706D01*
X115064Y-104902D02*
Y-53036D01*
X115316Y-115353D02*
X115787Y-115824D01*
X115316Y-115353D02*
Y-104902D01*
X103959Y-60452D02*
Y-54283D01*
X103632Y-71555D02*
X103959Y-71882D01*
X103632Y-71555D02*
Y-60452D01*
X140208Y-115643D02*
X140389Y-115824D01*
X140208Y-115643D02*
Y-104648D01*
X128669Y-59581D02*
Y-59099D01*
Y-71882D02*
Y-59581D01*
X164846Y-102362D02*
X166370Y-103886D01*
Y-111361D02*
Y-103886D01*
X161036Y-111361D02*
X166370D01*
X165862Y-101346D02*
X166370Y-101854D01*
Y-103886D02*
Y-101854D01*
X153380Y-71882D02*
Y-60488D01*
X153670Y-60198D01*
X190353Y-104140D02*
Y-57297D01*
Y-115824D02*
Y-104140D01*
X190246Y-104033D02*
X190353Y-104140D01*
X178088Y-59470D02*
X182523D01*
X178088Y-71882D02*
Y-59470D01*
X178054Y-59436D02*
X178088Y-59470D01*
X215208Y-115824D02*
Y-104464D01*
X214884Y-104140D02*
X215208Y-104464D01*
X202798Y-60600D02*
Y-58780D01*
Y-71882D02*
Y-60600D01*
X240063Y-103632D02*
Y-57691D01*
X239776Y-115537D02*
X240063Y-115824D01*
X239776Y-115537D02*
Y-103632D01*
X227900Y-59436D02*
Y-30494D01*
X227508Y-71882D02*
X227584Y-71806D01*
Y-59436D01*
X264918Y-103382D02*
Y-54098D01*
Y-115824D02*
Y-103382D01*
X264922Y-103378D01*
X252218Y-59694D02*
Y-55622D01*
Y-71882D02*
Y-59694D01*
X252222Y-59690D01*
X-114556Y-50823D02*
X-107551Y-57828D01*
Y-70612D02*
Y-57828D01*
X-82840Y-70612D02*
Y-60924D01*
X-70358Y-103995D02*
Y-57658D01*
X-79248Y-48768D02*
X-70358Y-57658D01*
X-4320Y-46734D02*
X3843Y-54897D01*
X-4320Y-46734D02*
Y-27378D01*
X-320Y-34986D02*
X15998Y-51304D01*
X-320Y-34986D02*
Y-24774D01*
X3680Y-27048D02*
X28698Y-52066D01*
X3680Y-27048D02*
Y-22222D01*
X109664Y-39757D02*
Y-18929D01*
X90932Y-58489D02*
X109664Y-39757D01*
X105664Y-38100D02*
Y-16900D01*
X113664Y-44578D02*
Y-20586D01*
X103959Y-54283D02*
X113664Y-44578D01*
X121664Y-52093D02*
X128669Y-59099D01*
X165862Y-101346D02*
Y-59944D01*
X155956Y-50038D02*
X165862Y-59944D01*
X231900Y-49528D02*
X240063Y-57691D01*
X231900Y-49528D02*
Y-28648D01*
X235900Y-39304D02*
X252218Y-55622D01*
X235900Y-39304D02*
Y-26044D01*
X239900Y-29080D02*
X264918Y-54098D01*
X239900Y-29080D02*
Y-23492D01*
X-261917Y59479D02*
Y106426D01*
Y117094D02*
X-261874Y117051D01*
Y106426D02*
Y117051D01*
X-249217Y52436D02*
Y62992D01*
Y73152D02*
X-249174Y73109D01*
Y62992D02*
Y73109D01*
X-237062Y45938D02*
Y106680D01*
Y117094D01*
Y106680D02*
X-236982Y106600D01*
X-224900Y31765D02*
Y62484D01*
Y72760D02*
X-224790Y72651D01*
Y62484D02*
Y72651D01*
X-212207Y116977D02*
Y117094D01*
X-212090Y106680D02*
Y116977D01*
X-228899Y29918D02*
Y37775D01*
X-237062Y45938D02*
X-228899Y37775D01*
X-232899Y27314D02*
Y36118D01*
X-249217Y52436D02*
X-232899Y36118D01*
X-236899Y24762D02*
Y34461D01*
X-261917Y59479D02*
X-236899Y34461D01*
X-175088Y61894D02*
Y73152D01*
X-187352Y60806D02*
Y106326D01*
X-199797Y73152D02*
X-199644Y72998D01*
Y62230D02*
Y72998D01*
X-187352Y106326D02*
Y117094D01*
X-175088Y62566D02*
Y73152D01*
Y62566D02*
X-175006Y62484D01*
X-162499Y117094D02*
X-162306Y116901D01*
Y106426D02*
Y116901D01*
X-150379Y73152D02*
X-150114Y72887D01*
Y62495D02*
Y72887D01*
X-126663Y28483D02*
Y45844D01*
X-162861Y60500D02*
Y106426D01*
X-137389Y62665D02*
Y106680D01*
X-137642Y117094D02*
X-137389Y116841D01*
Y106680D02*
Y116841D01*
X-125476Y62484D02*
X-118664Y55672D01*
X-125476Y62484D02*
Y72959D01*
X-125669Y73152D02*
X-125476Y72959D01*
X-137389Y62665D02*
X-122663Y47940D01*
X-130663Y32213D02*
Y44187D01*
X-122663Y26826D02*
Y47940D01*
X-112064Y54307D02*
Y106729D01*
X-131524Y23622D02*
X-126663Y28483D01*
X-132650Y30226D02*
X-130663Y32213D01*
X-140541Y30226D02*
X-132650D01*
X-132472Y17018D02*
X-122663Y26826D01*
X-118664Y25169D02*
Y55672D01*
X-133165Y10668D02*
X-118664Y25169D01*
X-114663Y23512D02*
Y51707D01*
X-134112Y4064D02*
X-114663Y23512D01*
X-110663Y21856D02*
Y50050D01*
X-135007Y-2488D02*
X-110663Y21856D01*
X-106664Y43011D02*
X-87931Y61743D01*
X-106664Y20199D02*
Y43011D01*
X-135850Y-8988D02*
X-106664Y20199D01*
X-102663Y41354D02*
X-81026Y62992D01*
X-102663Y18170D02*
Y41354D01*
X-136322Y-15488D02*
X-102663Y18170D01*
X-96898Y18028D02*
X-92678D01*
X-130556Y-15630D02*
X-96898Y18028D01*
X-97369Y11528D02*
X-92678D01*
X-126556Y-17659D02*
X-97369Y11528D01*
X-98212Y5028D02*
X-92678D01*
X-122556Y-19316D02*
X-98212Y5028D01*
X-99108Y-1524D02*
X-92678D01*
X-118556Y-20972D02*
X-99108Y-1524D01*
X-100055Y-8128D02*
X-92678D01*
X-114556Y-22629D02*
X-100055Y-8128D01*
X-100748Y-14478D02*
X-92678D01*
X-110556Y-24286D02*
X-100748Y-14478D01*
X-101695Y-21082D02*
X-92678D01*
X-106556Y-25943D02*
X-101695Y-21082D01*
X-140541Y-15488D02*
X-136322D01*
X-100569Y-27686D02*
X-92678D01*
X-102556Y-29673D02*
X-100569Y-27686D01*
X-110663Y50050D02*
X-100958Y59755D01*
X-112279Y106945D02*
Y117094D01*
X-112064Y106729D02*
X-112014Y106680D01*
X-112279Y106945D02*
X-112064Y106729D01*
X-100958Y62858D02*
Y73152D01*
X-76248D02*
X-75946Y72850D01*
Y62992D02*
Y72850D01*
X-81026Y62992D02*
X-75946D01*
X-87931Y61743D02*
Y106680D01*
X-87551Y116713D02*
X-87170Y117094D01*
X-87932Y106680D02*
Y117094D01*
Y106680D02*
X-87931Y106680D01*
X23759Y62367D02*
Y106817D01*
X23622Y106680D02*
X23759Y106817D01*
Y117094D02*
X23803Y117049D01*
Y106680D02*
Y117049D01*
X134620Y63246D02*
X135008Y63634D01*
Y73152D01*
X110272Y73127D02*
X110297Y73152D01*
X110272Y63246D02*
Y73127D01*
Y63246D02*
X117303Y56216D01*
X85525Y73089D02*
X85588Y73152D01*
X85525Y63246D02*
Y73089D01*
Y63246D02*
X91901D01*
X-13462Y72941D02*
X-13252Y73152D01*
X-13462Y63246D02*
Y72941D01*
X11066Y31765D02*
Y63500D01*
X11285Y72978D02*
X11458Y73152D01*
X11285Y63246D02*
Y72978D01*
X35306Y63754D02*
X36168Y64616D01*
Y73152D01*
X30295Y63246D02*
X36032D01*
X11066Y31765D02*
X32163Y10668D01*
X-13462Y63246D02*
X-5168D01*
X93356Y56134D02*
X105303Y44187D01*
X82502Y56134D02*
X93356D01*
X73105Y65532D02*
X82502Y56134D01*
X-933Y24762D02*
Y51225D01*
X-5842Y56134D02*
X-933Y51225D01*
X-18542Y56134D02*
X-5842D01*
X38458Y56388D02*
X48614Y66544D01*
X29094Y56388D02*
X38458D01*
X23066Y50361D02*
X29094Y56388D01*
X40050Y52324D02*
X60878Y73152D01*
X30687Y52324D02*
X40050D01*
X27385Y49022D02*
X30687Y52324D01*
X148034Y107490D02*
X148082Y107442D01*
X148034Y107490D02*
Y116332D01*
Y67125D02*
Y107442D01*
X123903Y54307D02*
Y104394D01*
X121302Y51707D02*
X123903Y54307D01*
X73105Y65532D02*
Y116729D01*
X73469Y117094D01*
X-25951D02*
X-25908Y117051D01*
Y106680D02*
Y117051D01*
X-5168Y63246D02*
X3067Y55011D01*
X-1096Y66245D02*
Y106600D01*
Y66245D02*
X7067Y58082D01*
Y29918D02*
Y58082D01*
X-1096Y106600D02*
Y117094D01*
X-1270Y106426D02*
X-1096Y106600D01*
X48614Y66544D02*
Y117094D01*
X60878Y73152D02*
X60960Y73070D01*
Y63246D02*
Y73070D01*
X73469Y117094D02*
X78486Y112077D01*
X91901Y63246D02*
X109303Y45844D01*
X98577Y62665D02*
Y106197D01*
Y117094D01*
X98552Y106172D02*
X98577Y106197D01*
X123698Y116674D02*
X123903Y116878D01*
X123698Y104394D02*
Y116674D01*
X110297Y73152D02*
X110298D01*
X115824Y67626D01*
X159719Y73152D02*
X159719Y73152D01*
X133302Y46736D02*
X159719Y73152D01*
X159766Y73104D01*
X159718Y73152D02*
X159719Y73152D01*
X159766Y63246D02*
Y73104D01*
X138851Y10258D02*
X143542D01*
X138008Y3758D02*
X143542D01*
X137113Y-2794D02*
X143542D01*
X136165Y-9398D02*
X143542D01*
X135472Y-15748D02*
X143542D01*
X134525Y-22352D02*
X143542D01*
X139322Y16758D02*
X143542D01*
X161036Y-111361D02*
X165499Y-115824D01*
X105664Y-16900D02*
X139322Y16758D01*
X109664Y-18929D02*
X138851Y10258D01*
X113664Y-20586D02*
X138008Y3758D01*
X115064Y-53036D02*
X117664Y-50437D01*
Y-22243D01*
X137113Y-2794D01*
X121664Y-52093D02*
Y-23899D01*
X136165Y-9398D01*
X125664Y-25556D02*
X135472Y-15748D01*
X129664Y-27213D02*
X134525Y-22352D01*
X135651Y-28956D02*
X143542D01*
X133664Y-30943D02*
X135651Y-28956D01*
X102870Y-92123D02*
X103959Y-91034D01*
X102870Y-134976D02*
Y-92123D01*
X153126Y-134976D02*
Y-91034D01*
X128016Y-91687D02*
X128669Y-91034D01*
X128016Y-134976D02*
Y-91687D01*
X153126Y-134976D02*
X165497D01*
X140642D02*
X153126D01*
X128016D02*
X140642D01*
X178088Y-134688D02*
Y-91034D01*
X177800Y-134976D02*
X178088Y-134688D01*
X177800Y-134976D02*
X190353D01*
X165497D02*
X177800D01*
X202798Y-134108D02*
Y-91034D01*
X201930Y-134976D02*
X202798Y-134108D01*
X201930Y-134976D02*
X215208D01*
X190353D02*
X201930D01*
X227508Y-134849D02*
Y-91034D01*
Y-134849D02*
X227584Y-134925D01*
X215208Y-134976D02*
X240063D01*
X252218Y-134972D02*
Y-91034D01*
Y-134972D02*
X252222Y-134976D01*
X264918D01*
X240063D02*
X252222D01*
X209042Y-35306D02*
X211582Y-37846D01*
X201930Y-35306D02*
X209042D01*
X206803Y-9398D02*
X227900Y-30494D01*
X201930Y-9398D02*
X206803D01*
X207497Y-15748D02*
X223900Y-32151D01*
X201930Y-15748D02*
X207497D01*
X208444Y-22352D02*
X219900Y-33808D01*
X201930Y-22352D02*
X208444D01*
X209391Y-28956D02*
X215900Y-35465D01*
X201930Y-28956D02*
X209391D01*
X206150Y10258D02*
X239900Y-23492D01*
X201930Y3758D02*
X206098D01*
X235900Y-26044D01*
X201930Y-2794D02*
X206046D01*
X231900Y-28648D01*
X201930Y10258D02*
X206150D01*
X79248Y-125222D02*
Y-91034D01*
X-140541Y-8988D02*
X-135850D01*
X-140541Y-2488D02*
X-135007D01*
X-140541Y4064D02*
X-134112D01*
X-140541Y10668D02*
X-133165D01*
X-140541Y17018D02*
X-132472D01*
X-140541Y23622D02*
X-131524D01*
X-114663Y51707D02*
X-112064Y54307D01*
X-100958Y92304D02*
X-99869Y93393D01*
Y136246D01*
X-125015D02*
X-99869D01*
X-150125Y92304D02*
Y136246D01*
X-125669Y92304D02*
X-125015Y92957D01*
Y136246D01*
X-162497D02*
X-150125D01*
X-137642D01*
X-125015D01*
X-175088Y92304D02*
Y135958D01*
X-174799Y136246D01*
X-187352D02*
X-174799D01*
X-162497D01*
X-199797Y92304D02*
Y135378D01*
X-198930Y136246D01*
X-212207D02*
X-198930D01*
X-187352D01*
X-224508Y92304D02*
Y136119D01*
X-224583Y136195D02*
X-224508Y136119D01*
X-237062Y136246D02*
X-212207D01*
X-249217Y92304D02*
Y136242D01*
X-249221Y136246D02*
X-249217Y136242D01*
X-261917Y136246D02*
X-249221D01*
X-237062D01*
X-224900Y72760D02*
X-224508Y73152D01*
X-208582Y39116D02*
X-206042Y36576D01*
X-198930D01*
X-224900Y31765D02*
X-203803Y10668D01*
X-198930D01*
X-220900Y33421D02*
X-204496Y17018D01*
X-198930D01*
X-216900Y35078D02*
X-205443Y23622D01*
X-198930D01*
X-212899Y36735D02*
X-206390Y30226D01*
X-198930D01*
X-236899Y24762D02*
X-203149Y-8988D01*
X-203097Y-2488D02*
X-198930D01*
X-232899Y27314D02*
X-203097Y-2488D01*
X-203045Y4064D02*
X-198930D01*
X-228899Y29918D02*
X-203045Y4064D01*
X-203149Y-8988D02*
X-198930D01*
X-99869Y136246D02*
X-86002D01*
X-121156Y-114338D02*
X-120940Y-114554D01*
X-146050D02*
X-145288Y-113792D01*
X-122556Y-47510D02*
Y-19316D01*
X-121156Y-51767D02*
X-118556Y-49166D01*
Y-20972D01*
X-114556Y-50823D02*
Y-22629D01*
X-110556Y-45400D02*
Y-24286D01*
X-133350Y-90853D02*
X-132261Y-89764D01*
X-108204Y-90417D02*
X-107551Y-89764D01*
X-83094Y-133706D02*
X-70722D01*
X-95578D02*
X-83094D01*
X-108204D02*
X-95578D01*
X-58420D02*
X-58132Y-133418D01*
X-58420Y-133706D02*
X-45867D01*
X-70722D02*
X-58420D01*
X-34290D02*
X-33422Y-132838D01*
X-34290Y-133706D02*
X-21012D01*
X-45867D02*
X-34290D01*
X-8712Y-133579D02*
X-8636Y-133655D01*
X-21012Y-133706D02*
X3843D01*
X15998Y-133702D02*
X16002Y-133706D01*
X28698D01*
X3843D02*
X16002D01*
X-110556Y-45400D02*
X-95831Y-60125D01*
X-8712Y-70612D02*
X-8320Y-70220D01*
X-21012Y-59827D02*
X-12320Y-51135D01*
X-27178Y-34036D02*
X-24638Y-36576D01*
X-34290Y-34036D02*
X-27178D01*
X-29416Y-8128D02*
X-8320Y-29225D01*
X-34290Y-8128D02*
X-29416D01*
X-12320Y-51135D02*
Y-30881D01*
X-28723Y-14478D02*
X-12320Y-30881D01*
X-34290Y-14478D02*
X-28723D01*
X-27776Y-21082D02*
X-16320Y-32538D01*
X-34290Y-21082D02*
X-27776D01*
X-26829Y-27686D02*
X-20320Y-34195D01*
X-34290Y-27686D02*
X-26829D01*
X-30070Y11528D02*
X3680Y-22222D01*
X-34290Y5028D02*
X-30122D01*
X-320Y-24774D01*
X-34290Y-1524D02*
X-30174D01*
X-4320Y-27378D01*
X-34290Y11528D02*
X-30070D01*
X159719Y92304D02*
Y126492D01*
X149965Y136246D02*
X159719Y126492D01*
X136096Y136246D02*
X149965D01*
X32817Y-8988D02*
X37036D01*
X7067Y29918D02*
X32921Y4064D01*
X37036D01*
X3067Y27314D02*
X32869Y-2488D01*
X3067Y27314D02*
Y55011D01*
X32869Y-2488D02*
X37036D01*
X-933Y24762D02*
X32817Y-8988D01*
X29576Y30226D02*
X37036D01*
X23066Y36735D02*
X29576Y30226D01*
X23066Y36735D02*
Y50361D01*
X30523Y23622D02*
X37036D01*
X19066Y35078D02*
X30523Y23622D01*
X19066Y35078D02*
Y52018D01*
X31470Y17018D02*
X37036D01*
X15066Y33421D02*
X31470Y17018D01*
X15066Y33421D02*
Y53675D01*
X32163Y10668D02*
X37036D01*
X29924Y36576D02*
X37036D01*
X27385Y39116D02*
X29924Y36576D01*
X27385Y39116D02*
Y49022D01*
X19066Y52018D02*
X30295Y63246D01*
X15066Y53675D02*
X23759Y62367D01*
X98577Y62665D02*
X113302Y47940D01*
X-13255Y136246D02*
X-1096D01*
X-25951D02*
X-13255D01*
X-13252Y136242D01*
Y92304D02*
Y136242D01*
X-1096Y136246D02*
X23759D01*
X11382Y136195D02*
X11458Y136119D01*
Y92304D02*
Y136119D01*
X37036Y136246D02*
X48614D01*
X23759D02*
X37036D01*
X36168Y135378D02*
X37036Y136246D01*
X36168Y92304D02*
Y135378D01*
X61167Y136246D02*
X73469D01*
X48614D02*
X61167D01*
X60878Y135958D02*
X61167Y136246D01*
X60878Y92304D02*
Y135958D01*
X98324Y136246D02*
X110950D01*
X85841D02*
X98324D01*
X73469D02*
X85841D01*
X110950Y92957D02*
Y136246D01*
X110297Y92304D02*
X110950Y92957D01*
X85841Y92304D02*
Y136246D01*
X110950D02*
X136096D01*
Y93393D02*
Y136246D01*
X135008Y92304D02*
X136096Y93393D01*
X105303Y32213D02*
Y44187D01*
X103316Y30226D02*
X105303Y32213D01*
X95424Y30226D02*
X103316D01*
X104441Y23622D02*
X109303Y28483D01*
Y45844D01*
X113302Y26826D02*
Y47940D01*
X103494Y17018D02*
X113302Y26826D01*
X102801Y10668D02*
X117303Y25169D01*
Y56216D01*
X101854Y4064D02*
X121302Y23512D01*
Y51707D01*
X100959Y-2488D02*
X125302Y21856D01*
Y50050D01*
X135008Y59755D01*
X100116Y-8988D02*
X129303Y20199D01*
Y48393D01*
X148034Y67125D01*
X99644Y-15488D02*
X133302Y18170D01*
Y46736D01*
X95424Y-15488D02*
X99644D01*
X95424Y23622D02*
X104441D01*
X95424Y17018D02*
X103494D01*
X95424Y10668D02*
X102801D01*
X95424Y4064D02*
X101854D01*
X95424Y-2488D02*
X100959D01*
X95424Y-8988D02*
X100116D01*
X123687Y117094D02*
X123903Y116878D01*
X-269600Y265400D02*
Y269896D01*
X-191983Y-21988D02*
X-187642Y-17647D01*
X-192826Y-28488D02*
X-183642Y-19304D01*
X-187642Y30613D02*
X-170517Y47738D01*
X-183642Y28956D02*
X-168860Y43738D01*
X-187642Y-17647D02*
Y30613D01*
X-183642Y-19304D02*
Y28956D01*
X-100958Y62858D02*
X-100838Y62738D01*
X-126556Y-39434D02*
Y-17659D01*
X-130556Y-37777D02*
Y-15630D01*
X-156210Y-58420D02*
X-151199D01*
X-145288Y-102870D02*
Y-58166D01*
X-126556Y-39434D01*
X-151199Y-58420D02*
X-130556Y-37777D01*
X-34290Y18028D02*
X-27172D01*
X-25400Y16256D01*
X-18796D01*
X-10160Y24892D01*
Y39878D01*
X-25464Y63056D02*
X-18542Y56134D01*
X-25951Y106680D02*
X-25464Y106193D01*
Y63056D02*
Y106193D01*
X-29464Y59182D02*
X-10160Y39878D01*
X-29464Y59182D02*
Y80112D01*
X-41656Y92304D02*
X-29464Y80112D01*
X37036Y-15488D02*
X65272D01*
X95424Y-34988D02*
Y-28488D01*
X95106Y-35306D02*
X95424Y-34988D01*
X65278Y-35306D02*
X95106D01*
X143542Y36258D02*
X143606Y36322D01*
X-244856Y-10312D02*
X-239928Y-15240D01*
X-227838D01*
X157480Y-254D02*
Y17526D01*
X151748Y23258D02*
X157480Y17526D01*
X143542Y23258D02*
X151748D01*
X83676Y-21988D02*
X95424D01*
X81534Y-24130D02*
X83676Y-21988D01*
X-92678Y24528D02*
X-86504D01*
X-84690Y22714D01*
Y-3448D02*
Y22714D01*
Y-3448D02*
X-80264Y-7874D01*
X-150732Y-21988D02*
X-140541D01*
X-157734Y-14986D02*
X-150732Y-21988D01*
X-210566Y-34734D02*
X-210312Y-34988D01*
X-206496Y-15488D02*
X-198930D01*
X-215392Y-24384D02*
X-206496Y-15488D01*
X-169738Y-36068D02*
X-164338D01*
X-145224Y-34988D02*
X-140541D01*
X-153924Y-43688D02*
X-145224Y-34988D01*
X-181356Y-43434D02*
X-181102Y-43688D01*
X-177800D01*
X-156758Y-28488D02*
X-140541D01*
X-164338Y-36068D02*
X-156758Y-28488D01*
X201930Y16758D02*
X251212D01*
X252476Y15494D01*
X143542Y29758D02*
X165822D01*
X166624Y28956D01*
X143542Y36258D02*
X152718D01*
X173624Y13208D02*
X175768D01*
D16*
X-325882Y242062D02*
D03*
Y261214D02*
D03*
X227508Y-71882D02*
D03*
Y-91034D02*
D03*
X252218Y-71882D02*
D03*
Y-91034D02*
D03*
X-46482Y73152D02*
D03*
Y92304D02*
D03*
X49276Y-70612D02*
D03*
Y-89764D02*
D03*
X15998Y-70612D02*
D03*
Y-89764D02*
D03*
X-187198Y-70612D02*
D03*
Y-89764D02*
D03*
X190246Y73152D02*
D03*
Y92304D02*
D03*
X28698Y-114554D02*
D03*
Y-133706D02*
D03*
X3843Y-114554D02*
D03*
Y-133706D02*
D03*
X-21012Y-114554D02*
D03*
Y-133706D02*
D03*
X-45867Y-114554D02*
D03*
Y-133706D02*
D03*
X-70722Y-114554D02*
D03*
Y-133706D02*
D03*
X-95578Y-114554D02*
D03*
Y-133706D02*
D03*
X-120433Y-114554D02*
D03*
Y-133706D02*
D03*
X-145288Y-114554D02*
D03*
Y-133706D02*
D03*
X-8712Y-70612D02*
D03*
Y-89764D02*
D03*
X-33422Y-70612D02*
D03*
Y-89764D02*
D03*
X-58132Y-70612D02*
D03*
Y-89764D02*
D03*
X-82842Y-70612D02*
D03*
Y-89764D02*
D03*
X-107552Y-70612D02*
D03*
Y-89764D02*
D03*
X-132262Y-70612D02*
D03*
Y-89764D02*
D03*
X-156972Y-70612D02*
D03*
Y-89764D02*
D03*
X159718Y73152D02*
D03*
Y92304D02*
D03*
X148034Y117094D02*
D03*
Y136246D02*
D03*
X135008Y73152D02*
D03*
Y92304D02*
D03*
X123179Y117094D02*
D03*
Y136246D02*
D03*
X110298Y73152D02*
D03*
Y92304D02*
D03*
X98324Y117094D02*
D03*
Y136246D02*
D03*
X85588Y73152D02*
D03*
Y92304D02*
D03*
X73469Y117094D02*
D03*
Y136246D02*
D03*
X60878Y73152D02*
D03*
Y92304D02*
D03*
X48614Y117094D02*
D03*
Y136246D02*
D03*
X36168Y73152D02*
D03*
Y92304D02*
D03*
X23759Y117094D02*
D03*
Y136246D02*
D03*
X11458Y73152D02*
D03*
Y92304D02*
D03*
X-1096Y117094D02*
D03*
Y136246D02*
D03*
X-13252Y73152D02*
D03*
Y92304D02*
D03*
X-25951Y117094D02*
D03*
Y136246D02*
D03*
X79248Y-71882D02*
D03*
Y-91034D02*
D03*
X-76248Y73152D02*
D03*
Y92304D02*
D03*
X90932Y-115824D02*
D03*
Y-134976D02*
D03*
X-87932Y117094D02*
D03*
Y136246D02*
D03*
X103958Y-71882D02*
D03*
Y-91034D02*
D03*
X-100958Y73152D02*
D03*
Y92304D02*
D03*
X115787Y-115824D02*
D03*
Y-134976D02*
D03*
X-112787Y117094D02*
D03*
Y136246D02*
D03*
X128668Y-71882D02*
D03*
Y-91034D02*
D03*
X-125668Y73152D02*
D03*
Y92304D02*
D03*
X140642Y-115824D02*
D03*
Y-134976D02*
D03*
X-137642Y117094D02*
D03*
Y136246D02*
D03*
X153378Y-71882D02*
D03*
Y-91034D02*
D03*
X-150378Y73152D02*
D03*
Y92304D02*
D03*
X165497Y-115824D02*
D03*
Y-134976D02*
D03*
X-162497Y117094D02*
D03*
Y136246D02*
D03*
X178088Y-71882D02*
D03*
Y-91034D02*
D03*
X-175088Y73152D02*
D03*
Y92304D02*
D03*
X190353Y-115824D02*
D03*
Y-134976D02*
D03*
X-187352Y117094D02*
D03*
Y136246D02*
D03*
X202798Y-71882D02*
D03*
Y-91034D02*
D03*
X-199797Y73152D02*
D03*
Y92304D02*
D03*
X215208Y-115824D02*
D03*
Y-134976D02*
D03*
X-212207Y117094D02*
D03*
Y136246D02*
D03*
X-224508Y73152D02*
D03*
Y92304D02*
D03*
X240063Y-115824D02*
D03*
Y-134976D02*
D03*
X-237062Y117094D02*
D03*
Y136246D02*
D03*
X-249217Y73152D02*
D03*
Y92304D02*
D03*
X264918Y-115824D02*
D03*
Y-134976D02*
D03*
X-261917Y117094D02*
D03*
Y136246D02*
D03*
X289052Y-134976D02*
D03*
Y-115824D02*
D03*
X-244856Y-10312D02*
D03*
Y-29464D02*
D03*
X-325882Y199034D02*
D03*
Y218186D02*
D03*
D17*
X143542Y36258D02*
D03*
Y29758D02*
D03*
Y23258D02*
D03*
Y16758D02*
D03*
Y10258D02*
D03*
Y3758D02*
D03*
Y-2794D02*
D03*
Y-9398D02*
D03*
Y-15748D02*
D03*
Y-22352D02*
D03*
X201930D02*
D03*
Y-15748D02*
D03*
Y-9398D02*
D03*
Y-2794D02*
D03*
Y3758D02*
D03*
Y10258D02*
D03*
Y16758D02*
D03*
Y23258D02*
D03*
Y29758D02*
D03*
Y36258D02*
D03*
X143542Y-28956D02*
D03*
X201930D02*
D03*
X143542Y-35306D02*
D03*
X201930D02*
D03*
X95424Y-34988D02*
D03*
Y-28488D02*
D03*
Y-21988D02*
D03*
Y-15488D02*
D03*
Y-8988D02*
D03*
Y-2488D02*
D03*
Y4064D02*
D03*
Y10668D02*
D03*
Y17018D02*
D03*
Y23622D02*
D03*
X37036D02*
D03*
Y17018D02*
D03*
Y10668D02*
D03*
Y4064D02*
D03*
Y-2488D02*
D03*
Y-8988D02*
D03*
Y-15488D02*
D03*
Y-21988D02*
D03*
Y-28488D02*
D03*
Y-34988D02*
D03*
X95424Y30226D02*
D03*
X37036D02*
D03*
X95424Y36576D02*
D03*
X37036D02*
D03*
X-92678Y37528D02*
D03*
Y31028D02*
D03*
Y24528D02*
D03*
Y18028D02*
D03*
Y11528D02*
D03*
Y5028D02*
D03*
Y-1524D02*
D03*
Y-8128D02*
D03*
Y-14478D02*
D03*
Y-21082D02*
D03*
X-34290D02*
D03*
Y-14478D02*
D03*
Y-8128D02*
D03*
Y-1524D02*
D03*
Y5028D02*
D03*
Y11528D02*
D03*
Y18028D02*
D03*
Y24528D02*
D03*
Y31028D02*
D03*
Y37528D02*
D03*
X-92678Y-27686D02*
D03*
X-34290D02*
D03*
X-92678Y-34036D02*
D03*
X-34290D02*
D03*
X-140541Y-34988D02*
D03*
Y-28488D02*
D03*
Y-21988D02*
D03*
Y-15488D02*
D03*
Y-8988D02*
D03*
Y-2488D02*
D03*
Y4064D02*
D03*
Y10668D02*
D03*
Y17018D02*
D03*
Y23622D02*
D03*
X-198930D02*
D03*
Y17018D02*
D03*
Y10668D02*
D03*
Y4064D02*
D03*
Y-2488D02*
D03*
Y-8988D02*
D03*
Y-15488D02*
D03*
Y-21988D02*
D03*
Y-28488D02*
D03*
Y-34988D02*
D03*
X-140541Y30226D02*
D03*
X-198930D02*
D03*
X-140541Y36576D02*
D03*
X-198930D02*
D03*
D18*
X316840Y75184D02*
D03*
X297688D02*
D03*
X316840Y144272D02*
D03*
X297688D02*
D03*
D19*
X298348Y100228D02*
D03*
X317348D02*
D03*
X307848Y119228D02*
D03*
D26*
X-40754Y158128D02*
Y168402D01*
X-53848Y145034D02*
X-40754Y158128D01*
X-297062Y242062D02*
X-295000Y240000D01*
X-325882Y242062D02*
X-297062D01*
X-40754Y168402D02*
Y188954D01*
X-41000Y189200D02*
Y214600D01*
X-95504Y169418D02*
X-71120Y145034D01*
X-249818Y169418D02*
X-95504D01*
X306578Y-126238D02*
Y-78740D01*
X297840Y-134976D02*
X306578Y-126238D01*
X252476Y-24638D02*
X306578Y-78740D01*
X289052Y-134976D02*
X297840D01*
X188773Y93777D02*
X190246Y92304D01*
X-187198Y-145288D02*
Y-89764D01*
X-193400Y-168800D02*
Y-151490D01*
Y-194200D02*
Y-168800D01*
X-116332Y-150876D02*
X-41910D01*
X-259080D02*
X-116332D01*
X-117200Y-168800D02*
Y-151744D01*
Y-194200D02*
Y-168800D01*
Y-151744D02*
X-116332Y-150876D01*
X-41910D02*
X111506D01*
X-41000Y-168800D02*
Y-151786D01*
Y-194200D02*
Y-168800D01*
X-41910Y-150876D02*
X-41000Y-151786D01*
X49276Y-150622D02*
Y-89764D01*
X35200Y-168800D02*
Y-152252D01*
Y-194200D02*
Y-168800D01*
X111506Y-150876D02*
X187960D01*
X111400Y-168800D02*
Y-150982D01*
Y-194200D02*
Y-168800D01*
Y-150982D02*
X111506Y-150876D01*
X187960D02*
X262382D01*
X187600Y-168800D02*
Y-151236D01*
Y-194200D02*
Y-168800D01*
Y-151236D02*
X187960Y-150876D01*
X262382D02*
X273152D01*
X263800Y-168800D02*
Y-152294D01*
Y-194200D02*
Y-168800D01*
X262382Y-150876D02*
X263800Y-152294D01*
X-269600Y-168800D02*
Y-161396D01*
X273152Y-150876D02*
X289052Y-134976D01*
X-269600Y-161396D02*
X-259080Y-150876D01*
X-269600Y-194200D02*
Y-168800D01*
X-295000Y-219600D02*
X-269600Y-194200D01*
X-193400Y189200D02*
Y214600D01*
Y169566D02*
Y189200D01*
X-117200D02*
Y214600D01*
Y170328D02*
Y189200D01*
X35560Y168402D02*
X111506D01*
X-40754D02*
X35560D01*
X35200Y189200D02*
Y214600D01*
Y168762D02*
Y189200D01*
Y168762D02*
X35560Y168402D01*
X111506D02*
X187600D01*
X111400Y189200D02*
Y214600D01*
Y168508D02*
Y189200D01*
Y168508D02*
X111506Y168402D01*
X187600D02*
X252476D01*
X187600Y189200D02*
Y214600D01*
Y168402D02*
Y189200D01*
Y94950D02*
Y168402D01*
X263800Y214600D02*
Y240000D01*
Y189200D02*
Y214600D01*
Y179726D02*
Y189200D01*
X252476Y168402D02*
X263800Y179726D01*
X-41000Y189200D02*
X-40754Y188954D01*
X-269600Y189200D02*
X-249818Y169418D01*
X-269600Y189200D02*
Y214600D01*
X-295000Y240000D02*
X-269600Y214600D01*
X-244200Y240000D02*
Y265400D01*
X-295000Y240000D02*
Y265400D01*
X238400D02*
X238506Y265294D01*
X238400Y265400D02*
X263800D01*
Y240000D02*
Y265400D01*
X238506Y240000D02*
Y265294D01*
X238400Y240000D02*
X238506D01*
X263800D01*
X-269600D02*
Y265400D01*
X-295000Y-245000D02*
Y-219600D01*
X-325882Y218186D02*
Y242062D01*
X-46482Y92304D02*
X-41656D01*
X-71120Y145034D02*
X-51562D01*
X-41656Y135128D01*
X252476Y144526D02*
Y168402D01*
X-41656Y92304D02*
Y135128D01*
X-218800Y240000D02*
Y265400D01*
X252476Y-24638D02*
Y15494D01*
Y144526D01*
D27*
X-140680Y36438D02*
X-140541Y36576D01*
X-155586Y36438D02*
X-140680D01*
X-61468Y56896D02*
Y81026D01*
X-50190Y92304D01*
X53238Y-89764D02*
X65278Y-77724D01*
X49276Y-89764D02*
X53238D01*
X-50190Y92304D02*
X-46482D01*
X-187198Y-89764D02*
X-184252D01*
X174752Y79756D02*
X188773Y93777D01*
X174752Y51308D02*
Y79756D01*
X166624Y43180D02*
X174752Y51308D01*
X143542Y-35306D02*
X152146D01*
X65278Y19812D02*
X82042Y36576D01*
X95424D01*
X37036Y-58373D02*
X49276Y-70612D01*
X37036Y-58373D02*
Y-34988D01*
X192484Y36258D02*
X201930D01*
X181935Y46807D02*
X192484Y36258D01*
X37036Y-34988D02*
X39641Y-37592D01*
X-92678Y-34036D02*
X-80264D01*
X-59246Y37528D02*
X-34290D01*
X-169738Y22286D02*
X-155586Y36438D01*
X-184252Y-89764D02*
X-169738Y-75250D01*
X-177800Y18796D02*
X-177038D01*
X-79690Y38674D02*
X-61468Y56896D01*
X-72972Y8711D02*
X-72390Y8128D01*
X350590Y54081D02*
Y92456D01*
X348739Y52230D02*
X350590Y54081D01*
X348739Y46183D02*
Y52230D01*
Y46183D02*
X350590Y44332D01*
X348739Y-13163D02*
X350590Y-11312D01*
X348739Y-24635D02*
Y-13163D01*
Y-24635D02*
X352044Y-27940D01*
Y-64352D02*
Y-27940D01*
X349062Y-67334D02*
X352044Y-64352D01*
X349062Y-73382D02*
Y-67334D01*
Y-73382D02*
X353568Y-77888D01*
Y-97536D02*
Y-77888D01*
X353060Y-98044D02*
X353568Y-97536D01*
X350590Y-11312D02*
Y44332D01*
X317348Y96164D02*
Y100228D01*
X317602Y99974D01*
X317348Y96164D02*
X317602Y95910D01*
Y75184D02*
Y99974D01*
Y92608D02*
X317754Y92456D01*
X350590D01*
X252476Y144526D02*
X253492Y143510D01*
X298450Y75184D02*
Y143510D01*
X253492D02*
X298450D01*
X-92678Y31028D02*
Y37528D01*
X-91532Y38674D01*
X-79690D01*
X-46482Y73152D02*
X-34464Y61134D01*
Y37702D02*
X-34290Y37528D01*
X-34464Y37702D02*
Y61134D01*
X65278Y-77724D02*
Y-35306D01*
Y19812D01*
X-210312Y-34988D02*
X-198930D01*
X-187198Y-70612D02*
Y-58674D01*
X-177800Y-49276D01*
X-198930Y-34988D02*
X-178118D01*
X-244856Y-29464D02*
X-239332Y-34988D01*
X-210312D01*
X39641Y-37592D02*
X46228D01*
X152146Y-35306D02*
X166624Y-20828D01*
X-80264Y-34036D02*
X-69342Y-23114D01*
X-72972Y8711D02*
Y23802D01*
X-59246Y37528D01*
X-69342Y-23114D02*
Y-6604D01*
X-79690Y3744D02*
X-69342Y-6604D01*
X-79690Y3744D02*
Y38674D01*
X-169738Y-75250D02*
Y-36068D01*
Y22286D01*
X-177800Y-49276D02*
Y-43688D01*
Y18796D01*
X166624Y28956D02*
Y43180D01*
Y-20828D02*
Y28956D01*
D28*
X-65164Y18937D02*
X-57685Y26416D01*
X-65672Y18937D02*
X-65164D01*
X-57685Y26416D02*
X-47244D01*
X-325882Y261214D02*
X-309696Y277400D01*
X-281600D01*
X-269600Y265400D01*
X356362Y-70358D02*
X359844Y-66876D01*
Y100150D01*
X352298Y107696D02*
X359844Y100150D01*
X307848Y119228D02*
X340766D01*
X352298Y107696D01*
X307848Y119228D02*
Y131318D01*
X317348Y140818D01*
Y144272D01*
D29*
X-326644Y187452D02*
Y198272D01*
X-325882Y199034D01*
X170434Y-27940D02*
Y-26918D01*
X190246Y55118D02*
Y73152D01*
X173624Y38496D02*
X181935Y46807D01*
X190246Y55118D01*
Y73152D02*
X194310D01*
X226568Y105410D01*
Y109474D01*
X170434Y-26918D02*
X173624Y-23728D01*
Y13208D01*
Y38496D01*
D30*
X277622Y-101854D02*
X285750Y-93726D01*
X277622Y-124460D02*
Y-101854D01*
X267106Y-134976D02*
X277622Y-124460D01*
X264918Y-134976D02*
X267106D01*
X36068Y-100330D02*
Y-71120D01*
Y-100330D02*
X40132Y-104394D01*
Y-123444D02*
Y-104394D01*
X29870Y-133706D02*
X40132Y-123444D01*
X28698Y-133706D02*
X29870D01*
X-60093Y108458D02*
X-53848D01*
X-76248Y92304D02*
X-60093Y108458D01*
X161598Y90424D02*
X171704D01*
X159719Y92304D02*
X161598Y90424D01*
D31*
X-295000Y-168800D02*
D03*
X289200Y189200D02*
D03*
X-295000Y240000D02*
D03*
Y-245000D02*
D03*
D32*
Y-194200D02*
D03*
X-269600Y-168800D02*
D03*
Y-194200D02*
D03*
X-244200Y-168800D02*
D03*
Y-194200D02*
D03*
X-218800Y-168800D02*
D03*
Y-194200D02*
D03*
X-193400Y-168800D02*
D03*
Y-194200D02*
D03*
X-168000Y-168800D02*
D03*
Y-194200D02*
D03*
X-142600Y-168800D02*
D03*
Y-194200D02*
D03*
X-117200Y-168800D02*
D03*
Y-194200D02*
D03*
X-91800Y-168800D02*
D03*
Y-194200D02*
D03*
X-66400Y-168800D02*
D03*
Y-194200D02*
D03*
X-41000Y-168800D02*
D03*
Y-194200D02*
D03*
X-15600Y-168800D02*
D03*
Y-194200D02*
D03*
X9800Y-168800D02*
D03*
Y-194200D02*
D03*
X35200Y-168800D02*
D03*
Y-194200D02*
D03*
X60600Y-168800D02*
D03*
Y-194200D02*
D03*
X86000Y-168800D02*
D03*
Y-194200D02*
D03*
X111400Y-168800D02*
D03*
Y-194200D02*
D03*
X136800Y-168800D02*
D03*
Y-194200D02*
D03*
X162200Y-168800D02*
D03*
Y-194200D02*
D03*
X187600Y-168800D02*
D03*
Y-194200D02*
D03*
X213000Y-168800D02*
D03*
Y-194200D02*
D03*
X238400Y-168800D02*
D03*
Y-194200D02*
D03*
X263800Y-168800D02*
D03*
Y-194200D02*
D03*
X289200Y-168800D02*
D03*
Y-194200D02*
D03*
Y214600D02*
D03*
X263800Y189200D02*
D03*
Y214600D02*
D03*
X238400Y189200D02*
D03*
Y214600D02*
D03*
X213000Y189200D02*
D03*
Y214600D02*
D03*
X187600Y189200D02*
D03*
Y214600D02*
D03*
X162200Y189200D02*
D03*
Y214600D02*
D03*
X136800Y189200D02*
D03*
Y214600D02*
D03*
X111400Y189200D02*
D03*
Y214600D02*
D03*
X86000Y189200D02*
D03*
Y214600D02*
D03*
X60600Y189200D02*
D03*
Y214600D02*
D03*
X35200Y189200D02*
D03*
Y214600D02*
D03*
X9800Y189200D02*
D03*
Y214600D02*
D03*
X-15600Y189200D02*
D03*
Y214600D02*
D03*
X-41000Y189200D02*
D03*
Y214600D02*
D03*
X-66400Y189200D02*
D03*
Y214600D02*
D03*
X-91800Y189200D02*
D03*
Y214600D02*
D03*
X-117200Y189200D02*
D03*
Y214600D02*
D03*
X-142600Y189200D02*
D03*
Y214600D02*
D03*
X-168000Y189200D02*
D03*
Y214600D02*
D03*
X-193400Y189200D02*
D03*
Y214600D02*
D03*
X-218800Y189200D02*
D03*
Y214600D02*
D03*
X-244200Y189200D02*
D03*
Y214600D02*
D03*
X-269600Y189200D02*
D03*
Y214600D02*
D03*
X-295000Y189200D02*
D03*
Y214600D02*
D03*
X213000Y240000D02*
D03*
X263800Y265400D02*
D03*
Y240000D02*
D03*
X238400Y265400D02*
D03*
Y240000D02*
D03*
X213000Y265400D02*
D03*
X-193400D02*
D03*
Y240000D02*
D03*
X-218800Y265400D02*
D03*
Y240000D02*
D03*
X-244200Y265400D02*
D03*
Y240000D02*
D03*
X-269600Y265400D02*
D03*
Y240000D02*
D03*
X-295000Y265400D02*
D03*
X-168000D02*
D03*
X-142600Y240000D02*
D03*
Y265400D02*
D03*
X-117200Y240000D02*
D03*
Y265400D02*
D03*
X-91800Y240000D02*
D03*
Y265400D02*
D03*
X-66400Y240000D02*
D03*
Y265400D02*
D03*
X-41000D02*
D03*
X-15600Y240000D02*
D03*
Y265400D02*
D03*
X9800Y240000D02*
D03*
Y265400D02*
D03*
X35200Y240000D02*
D03*
Y265400D02*
D03*
X60600Y240000D02*
D03*
Y265400D02*
D03*
X86000D02*
D03*
X111400Y240000D02*
D03*
Y265400D02*
D03*
X136800Y240000D02*
D03*
Y265400D02*
D03*
X162200Y240000D02*
D03*
Y265400D02*
D03*
X187600Y240000D02*
D03*
Y265400D02*
D03*
X-168000Y240000D02*
D03*
X-41000D02*
D03*
X86000D02*
D03*
X213000Y-245000D02*
D03*
X263800Y-219600D02*
D03*
Y-245000D02*
D03*
X238400Y-219600D02*
D03*
Y-245000D02*
D03*
X213000Y-219600D02*
D03*
X-193400D02*
D03*
Y-245000D02*
D03*
X-218800Y-219600D02*
D03*
Y-245000D02*
D03*
X-244200Y-219600D02*
D03*
Y-245000D02*
D03*
X-269600Y-219600D02*
D03*
Y-245000D02*
D03*
X-295000Y-219600D02*
D03*
X-168000D02*
D03*
X-142600Y-245000D02*
D03*
Y-219600D02*
D03*
X-117200Y-245000D02*
D03*
Y-219600D02*
D03*
X-91800Y-245000D02*
D03*
Y-219600D02*
D03*
X-66400Y-245000D02*
D03*
Y-219600D02*
D03*
X-41000D02*
D03*
X-15600Y-245000D02*
D03*
Y-219600D02*
D03*
X9800Y-245000D02*
D03*
Y-219600D02*
D03*
X35200Y-245000D02*
D03*
Y-219600D02*
D03*
X60600Y-245000D02*
D03*
Y-219600D02*
D03*
X86000D02*
D03*
X111400Y-245000D02*
D03*
Y-219600D02*
D03*
X136800Y-245000D02*
D03*
Y-219600D02*
D03*
X162200Y-245000D02*
D03*
Y-219600D02*
D03*
X187600Y-245000D02*
D03*
Y-219600D02*
D03*
X-168000Y-245000D02*
D03*
X-41000D02*
D03*
X86000D02*
D03*
D33*
X-234950Y-133350D02*
D03*
X-222250Y-76200D02*
D03*
X57150Y31750D02*
D03*
X-196850Y158750D02*
D03*
X-146050Y165100D02*
D03*
X6350D02*
D03*
X158750Y158750D02*
D03*
X209550Y133350D02*
D03*
X234950Y158750D02*
D03*
X222250Y146050D02*
D03*
X355600Y165100D02*
D03*
X349250Y190500D02*
D03*
X336550Y215900D02*
D03*
X317500Y234950D02*
D03*
X292100Y254000D02*
D03*
X355600Y-127000D02*
D03*
Y-158750D02*
D03*
X342900Y-184150D02*
D03*
X330200Y-203200D02*
D03*
X311150Y-222250D02*
D03*
X285750Y-241300D02*
D03*
X-317500Y-247650D02*
D03*
X-342900D02*
D03*
Y-222250D02*
D03*
Y-196850D02*
D03*
Y-171450D02*
D03*
Y-146050D02*
D03*
X-330200Y-120650D02*
D03*
X-304800D02*
D03*
X-273050Y-107950D02*
D03*
X-266700Y-82550D02*
D03*
Y-50800D02*
D03*
Y-19050D02*
D03*
Y19050D02*
D03*
X-311150Y107950D02*
D03*
X-349250Y215900D02*
D03*
Y254000D02*
D03*
X-342900Y171450D02*
D03*
Y107950D02*
D03*
Y139700D02*
D03*
X184150Y-12700D02*
D03*
X6350Y-6350D02*
D03*
X-44450Y133350D02*
D03*
X-31750Y158750D02*
D03*
X298450Y-25400D02*
D03*
X273050Y-19050D02*
D03*
Y31750D02*
D03*
X285750Y57150D02*
D03*
X254000D02*
D03*
X222250D02*
D03*
X234950Y82550D02*
D03*
X273050D02*
D03*
X266700Y101600D02*
D03*
X241300D02*
D03*
X-139954Y44450D02*
D03*
X-151892Y43738D02*
D03*
X-65672Y18937D02*
D03*
X-47244Y26416D02*
D03*
X-59309Y162687D02*
D03*
X-66040Y156210D02*
D03*
X26964Y-28488D02*
D03*
X21082Y-21844D02*
D03*
X-19558Y32258D02*
D03*
X296164Y-102616D02*
D03*
X299974Y-155702D02*
D03*
X-121156Y-102870D02*
D03*
X-145288D02*
D03*
X-132261Y-57215D02*
D03*
X-22496Y23224D02*
D03*
X189086Y23258D02*
D03*
X182840Y29758D02*
D03*
X-156210Y-58420D02*
D03*
X-107551Y-57828D02*
D03*
X-95831Y-103124D02*
D03*
X-82840Y-58964D02*
D03*
X-70612Y-103886D02*
D03*
X-57912Y-59436D02*
D03*
X-46228Y-103632D02*
D03*
X-33422Y-59288D02*
D03*
X-21082Y-103378D02*
D03*
X-8128Y-59182D02*
D03*
X3589Y-103378D02*
D03*
X28698Y-103632D02*
D03*
X16256Y-58166D02*
D03*
X90932Y-104902D02*
D03*
X80010Y-60706D02*
D03*
X115316Y-104902D02*
D03*
X103632Y-60452D02*
D03*
X140208Y-104648D02*
D03*
X128669Y-59581D02*
D03*
X166370Y-103886D02*
D03*
X153670Y-60198D02*
D03*
X190246Y-104033D02*
D03*
X178054Y-59436D02*
D03*
X214884Y-104140D02*
D03*
X202798Y-58780D02*
D03*
X239776Y-103632D02*
D03*
X227584Y-59436D02*
D03*
X264922Y-103378D02*
D03*
X252222Y-59690D02*
D03*
X-261874Y106426D02*
D03*
X-249174Y62992D02*
D03*
X-236982Y106600D02*
D03*
X-224790Y62484D02*
D03*
X-212090Y106680D02*
D03*
X-199644Y62230D02*
D03*
X-187352Y106326D02*
D03*
X-175006Y62484D02*
D03*
X-162306Y106426D02*
D03*
X-150114Y62495D02*
D03*
X-137389Y106680D02*
D03*
X-125476Y62484D02*
D03*
X-112014Y106680D02*
D03*
X-87931D02*
D03*
X-75946Y62992D02*
D03*
X-25908Y106680D02*
D03*
X-13462Y63246D02*
D03*
X-1052Y106680D02*
D03*
X11285Y63246D02*
D03*
X23803Y106680D02*
D03*
X36032Y63246D02*
D03*
X48659Y106680D02*
D03*
X60778Y63246D02*
D03*
X73515Y106680D02*
D03*
X85525Y63246D02*
D03*
X98371Y106680D02*
D03*
X123226D02*
D03*
X110272Y63246D02*
D03*
X135019D02*
D03*
X148082Y106680D02*
D03*
X159766Y63246D02*
D03*
X-326644Y187452D02*
D03*
X170434Y-27940D02*
D03*
X-177038Y18796D02*
D03*
X-72390Y8128D02*
D03*
X285750Y-93726D02*
D03*
X36068Y-71120D02*
D03*
X-100838Y62738D02*
D03*
X-53848Y108458D02*
D03*
X171704Y90424D02*
D03*
X356362Y-70358D02*
D03*
X356039Y-16187D02*
D03*
X356039Y49207D02*
D03*
X350590Y92456D02*
D03*
X352044Y-27940D02*
D03*
X353060Y-98044D02*
D03*
X350566Y27409D02*
D03*
X226568Y109474D02*
D03*
X352298Y107696D02*
D03*
X-227838Y-15240D02*
D03*
X46228Y-37592D02*
D03*
X157480Y-254D02*
D03*
X81534Y-24130D02*
D03*
X-80264Y-7874D02*
D03*
X-157734Y-14986D02*
D03*
X-215392Y-24384D02*
D03*
X-164338Y-36068D02*
D03*
X-153924Y-43688D02*
D03*
X-181356Y-43434D02*
D03*
X152718Y36258D02*
D03*
X175768Y13208D02*
D03*
M02*
