M48
;Layer_Color=9474304
;FILE_FORMAT=4:4
METRIC,LZ
;TYPE=PLATED
T1F00S00C0.3000
T2F00S00C0.9000
T3F00S00C1.0160
%
T01
X-003429Y-0024765
X-003175
X-003429Y-0022225
Y-0019685
Y-0017145
Y-0014605
X-003302Y-0012065
X-003048
X-0027305Y-0010795
X-002667Y-0008255
Y-000508
Y-0001905
Y0001905
X-00227838Y-0001524
X-00215392Y-00024384
X-0022225Y-000762
X-0023495Y-0013335
X-00145288Y-0010287
X-00121156
X-00095831Y-00103124
X-00070612Y-00103886
X-00046228Y-00103632
X-00021082Y-00103378
X00003589
X00028698Y-00103632
X00036068Y-0007112
X00016256Y-00058166
X-00008128Y-00059182
X-00033422Y-00059288
X-00057912Y-00059436
X-0008284Y-00058964
X-00107551Y-00057828
X-00132261Y-00057215
X-0015621Y-0005842
X-00153924Y-00043688
X-00164338Y-00036068
X-00181356Y-00043434
X-00157734Y-00014986
X-00177038Y00018796
X-00151892Y00043738
X-00139954Y0004445
X-00065672Y00018937
X-0007239Y00008128
X-00080264Y-00007874
X-00047244Y00026416
X-00022496Y00023224
X-00019558Y00032258
X0000635Y-0000635
X00021082Y-00021844
X00026964Y-00028488
X00046228Y-00037592
X00081534Y-0002413
X0008001Y-00060706
X00103632Y-00060452
X00128669Y-00059581
X0015367Y-00060198
X00178054Y-00059436
X00170434Y-0002794
X0018415Y-000127
X00175768Y00013208
X00189086Y00023258
X0018284Y00029758
X00152718Y00036258
X0015748Y-00000254
X0016637Y-00103886
X00190246Y-00104033
X00140208Y-00104648
X00115316Y-00104902
X00090932
X0005715Y0003175
X0027305
Y-0001905
X0029845Y-000254
X00352044Y-0002794
X00356039Y-00016187
X00350566Y00027409
X00356362Y-00070358
X0035306Y-00098044
X003556Y-00127
Y-0015875
X003429Y-0018415
X003302Y-002032
X0031115Y-0022225
X0028575Y-002413
X00299974Y-00155702
X00296164Y-00102616
X0028575Y-00093726
X00264922Y-00103378
X00239776Y-00103632
X00214884Y-0010414
X00227584Y-00059436
X00252222Y-0005969
X00202798Y-0005878
X0022225Y0005715
X00254
X0028575
X0027305Y0008255
X002667Y001016
X002413
X00226568Y00109474
X0023495Y0008255
X0020955Y0013335
X0022225Y0014605
X0023495Y0015875
X003556Y001651
X0034925Y001905
X0033655Y002159
X003175Y0023495
X002921Y00254
X00352298Y00107696
X0035059Y00092456
X00356039Y00049207
X00159766Y00063246
X00135019
X00110272
X00085525
X00060778
X00036032
X00011285
X-00013462
X-00001052Y0010668
X-00025908
X-00053848Y00108458
X-0004445Y0013335
X-0003175Y0015875
X-00059309Y00162687
X-0006604Y0015621
X-00087931Y0010668
X-00112014
X-00137389
X-00162306Y00106426
X-00187352Y00106326
X-00175006Y00062484
X-00150114Y00062495
X-00125476Y00062484
X-00100838Y00062738
X-00075946Y00062992
X00023803Y0010668
X00048659
X00073515
X00098371
X00123226
X00148082
X00171704Y00090424
X0015875Y0015875
X0000635Y001651
X-0014605
X-0019685Y0015875
X-0021209Y0010668
X-00236982Y001066
X-00261874Y00106426
X-0031115Y0010795
X-003429
Y001397
Y0017145
X-00326644Y00187452
X-0034925Y002159
Y00254
X-00249174Y00062992
X-0022479Y00062484
X-00199644Y0006223
T02
X-00295Y-001942
Y-001688
X-002696
Y-001942
X-002442
Y-001688
X-002188
Y-001942
X-001934
Y-001688
X-00168
Y-001942
X-001426
Y-001688
X-001172
Y-001942
X-000918
Y-001688
X-000664
Y-001942
X-00041
Y-001688
X-000156
Y-001942
X000098
Y-001688
X000352
Y-001942
X000606
Y-001688
X00086
Y-001942
X001114
Y-001688
X001368
Y-001942
X001622
Y-001688
X001876
Y-001942
X00213
Y-001688
X002384
Y-001942
X002638
Y-001688
X002892
Y-001942
Y001892
Y002146
X002638
Y001892
X002384
Y002146
X00213
Y001892
X001876
Y002146
X001622
Y001892
X001368
Y002146
X001114
Y001892
X00086
Y002146
X000606
Y001892
X000352
Y002146
X000098
Y001892
X-000156
Y002146
X-00041
Y001892
X-000664
Y002146
X-000918
Y001892
X-001172
Y002146
X-001426
Y001892
X-00168
Y002146
X-001934
Y001892
X-002188
Y002146
X-002442
Y001892
X-002696
Y002146
X-00295
Y001892
T03
X-00295Y-00245
X-002696
X-002442
X-002188
Y-002196
X-002442
X-002696
X-00295
X-001934
Y-00245
X-00168
Y-002196
X-001426
Y-00245
X-001172
Y-002196
X-000918
Y-00245
X-000664
Y-002196
X-00041
X-000156
Y-00245
X000098
Y-002196
X000352
Y-00245
X000606
Y-002196
X00086
X001114
Y-00245
X001368
Y-002196
X001622
Y-00245
X001876
Y-002196
X00086Y-00245
X-00041
X00213
X002384
X002638
Y-002196
X002384
X00213
Y0024
X002384
X002638
Y002654
X002384
X00213
X001876
X001622
X001368
X001114
X00086
X000606
X000352
X000098
X-000156
X-00041
X-000664
X-000918
X-001172
X-001426
X-00168
X-001934
Y0024
X-00168
X-001426
X-001172
X-000918
X-000664
X-00041
X-000156
X000098
X000352
X000606
X00086
X001114
X001368
X001622
X001876
X-002188
Y002654
X-002442
Y0024
X-002696
Y002654
X-00295
Y0024
M30
